<svg xmlns="http://www.w3.org/2000/svg" xmlns:xlink="http://www.w3.org/1999/xlink" contentStyleType="text/css" height="673px" preserveAspectRatio="none" style="width:334px;height:673px;background:#FFFFFF;" version="1.1" viewBox="0 0 334 673" width="334px" zoomAndPan="magnify"><defs/><g><rect fill="#FFFFFF" height="47.2" style="stroke:#000000;stroke-width:1.5;" width="325.9401" x="3" y="83.3999"/><rect fill="#FFFFFF" height="47.2" style="stroke:#000000;stroke-width:1.5;" width="325.9401" x="3" y="144.6"/><rect fill="#FFFFFF" height="47.2" style="stroke:#000000;stroke-width:1.5;" width="325.9401" x="3" y="205.8"/><rect fill="#FFFFFF" height="47.2" style="stroke:#000000;stroke-width:1.5;" width="325.9401" x="3" y="267"/><rect fill="#FFFFFF" height="47.2" style="stroke:#000000;stroke-width:1.5;" width="325.9401" x="3" y="328.2001"/><rect fill="#FFFFFF" height="47.2" style="stroke:#000000;stroke-width:1.5;" width="325.9401" x="3" y="389.4001"/><rect fill="#FFFFFF" height="47.2" style="stroke:#000000;stroke-width:1.5;" width="325.9401" x="3" y="450.6001"/><rect fill="#FFFFFF" height="47.2" style="stroke:#000000;stroke-width:1.5;" width="325.9401" x="3" y="511.8001"/><rect fill="#FFFFFF" height="47.2" style="stroke:#000000;stroke-width:1.5;" width="325.9401" x="3" y="573.0002"/><line style="stroke:#181818;stroke-width:0.5;stroke-dasharray:5.0,5.0;" x1="272.9264" x2="272.9264" y1="36.7999" y2="637.2002"/><rect fill="#E2E2F0" height="30.7999" rx="2.5" ry="2.5" style="stroke:#181818;stroke-width:0.5;" width="91.0137" x="227.9264" y="5"/><text fill="#000000" font-family="sans-serif" font-size="14" lengthAdjust="spacing" textLength="77.0137" x="234.9264" y="25.0059">:UMLProject</text><rect fill="#E2E2F0" height="30.7999" rx="2.5" ry="2.5" style="stroke:#181818;stroke-width:0.5;" width="91.0137" x="227.9264" y="636.2002"/><text fill="#000000" font-family="sans-serif" font-size="14" lengthAdjust="spacing" textLength="77.0137" x="234.9264" y="656.2061">:UMLProject</text><polygon fill="#181818" points="261.4333,64.3999,271.4333,68.3999,261.4333,72.3999,265.4333,68.3999" style="stroke:#181818;stroke-width:1.0;"/><line style="stroke:#181818;stroke-width:1.0;" x1="0" x2="267.4333" y1="68.3999" y2="68.3999"/><text fill="#000000" font-family="sans-serif" font-size="13" font-weight="bold" lengthAdjust="spacing" textLength="7.228" x="7" y="62.8769">1</text><text fill="#000000" font-family="sans-serif" font-size="13" lengthAdjust="spacing" textLength="151.7102" x="18.228" y="62.8769">openProject(projectName)</text><path d="M3,83.3999 L68.215,83.3999 L68.215,91 L58.215,101 L3,101 L3,83.3999 " fill="#FFD700" style="stroke:#000000;stroke-width:1.5;"/><rect fill="none" height="47.2" style="stroke:#000000;stroke-width:1.5;" width="325.9401" x="3" y="83.3999"/><text fill="#000000" font-family="sans-serif" font-size="13" font-weight="bold" lengthAdjust="spacing" textLength="20.215" x="18" y="96.477">opt</text><polygon fill="#181818" points="261.4333,118.6,271.4333,122.6,261.4333,126.6,265.4333,122.6" style="stroke:#181818;stroke-width:1.0;"/><line style="stroke:#181818;stroke-width:1.0;" x1="0" x2="267.4333" y1="122.6" y2="122.6"/><text fill="#000000" font-family="sans-serif" font-size="13" font-weight="bold" lengthAdjust="spacing" textLength="7.228" x="7" y="117.077">2</text><text fill="#000000" font-family="sans-serif" font-size="13" lengthAdjust="spacing" textLength="173.3552" x="18.228" y="117.077">selectDiagram(diagramName)</text><path d="M3,144.6 L68.215,144.6 L68.215,152.2 L58.215,162.2 L3,162.2 L3,144.6 " fill="#FFD700" style="stroke:#000000;stroke-width:1.5;"/><rect fill="none" height="47.2" style="stroke:#000000;stroke-width:1.5;" width="325.9401" x="3" y="144.6"/><text fill="#000000" font-family="sans-serif" font-size="13" font-weight="bold" lengthAdjust="spacing" textLength="20.215" x="18" y="157.677">opt</text><polygon fill="#181818" points="261.4333,179.8,271.4333,183.8,261.4333,187.8,265.4333,183.8" style="stroke:#181818;stroke-width:1.0;"/><line style="stroke:#181818;stroke-width:1.0;" x1="0" x2="267.4333" y1="183.8" y2="183.8"/><text fill="#000000" font-family="sans-serif" font-size="13" font-weight="bold" lengthAdjust="spacing" textLength="7.228" x="7" y="178.277">3</text><text fill="#000000" font-family="sans-serif" font-size="13" lengthAdjust="spacing" textLength="177.0472" x="18.228" y="178.277">addGadget(gadgetType, point)</text><path d="M3,205.8 L68.215,205.8 L68.215,213.4 L58.215,223.4 L3,223.4 L3,205.8 " fill="#FFD700" style="stroke:#000000;stroke-width:1.5;"/><rect fill="none" height="47.2" style="stroke:#000000;stroke-width:1.5;" width="325.9401" x="3" y="205.8"/><text fill="#000000" font-family="sans-serif" font-size="13" font-weight="bold" lengthAdjust="spacing" textLength="20.215" x="18" y="218.877">opt</text><polygon fill="#181818" points="261.4333,241,271.4333,245,261.4333,249,265.4333,245" style="stroke:#181818;stroke-width:1.0;"/><line style="stroke:#181818;stroke-width:1.0;" x1="0" x2="267.4333" y1="245" y2="245"/><text fill="#000000" font-family="sans-serif" font-size="13" font-weight="bold" lengthAdjust="spacing" textLength="7.228" x="7" y="239.477">4</text><text fill="#000000" font-family="sans-serif" font-size="13" lengthAdjust="spacing" textLength="137.9952" x="18.228" y="239.477">selectComponent(point)</text><path d="M3,267 L68.215,267 L68.215,274.6 L58.215,284.6 L3,284.6 L3,267 " fill="#FFD700" style="stroke:#000000;stroke-width:1.5;"/><rect fill="none" height="47.2" style="stroke:#000000;stroke-width:1.5;" width="325.9401" x="3" y="267"/><text fill="#000000" font-family="sans-serif" font-size="13" font-weight="bold" lengthAdjust="spacing" textLength="20.215" x="18" y="280.077">opt</text><polygon fill="#181818" points="261.4333,302.2001,271.4333,306.2001,261.4333,310.2001,265.4333,306.2001" style="stroke:#181818;stroke-width:1.0;"/><line style="stroke:#181818;stroke-width:1.0;" x1="0" x2="267.4333" y1="306.2001" y2="306.2001"/><text fill="#000000" font-family="sans-serif" font-size="13" font-weight="bold" lengthAdjust="spacing" textLength="7.228" x="7" y="300.677">5</text><text fill="#000000" font-family="sans-serif" font-size="13" lengthAdjust="spacing" textLength="192.1792" x="18.228" y="300.677">addAssociation(AssociationType)</text><path d="M3,328.2001 L68.215,328.2001 L68.215,335.8001 L58.215,345.8001 L3,345.8001 L3,328.2001 " fill="#FFD700" style="stroke:#000000;stroke-width:1.5;"/><rect fill="none" height="47.2" style="stroke:#000000;stroke-width:1.5;" width="325.9401" x="3" y="328.2001"/><text fill="#000000" font-family="sans-serif" font-size="13" font-weight="bold" lengthAdjust="spacing" textLength="20.215" x="18" y="341.2771">opt</text><polygon fill="#181818" points="261.4333,363.4001,271.4333,367.4001,261.4333,371.4001,265.4333,367.4001" style="stroke:#181818;stroke-width:1.0;"/><line style="stroke:#181818;stroke-width:1.0;" x1="0" x2="267.4333" y1="367.4001" y2="367.4001"/><text fill="#000000" font-family="sans-serif" font-size="13" font-weight="bold" lengthAdjust="spacing" textLength="7.228" x="7" y="361.8771">6</text><text fill="#000000" font-family="sans-serif" font-size="13" lengthAdjust="spacing" textLength="114.8681" x="18.228" y="361.8771">startDragging(point)</text><path d="M3,389.4001 L68.215,389.4001 L68.215,397.0001 L58.215,407.0001 L3,407.0001 L3,389.4001 " fill="#FFD700" style="stroke:#000000;stroke-width:1.5;"/><rect fill="none" height="47.2" style="stroke:#000000;stroke-width:1.5;" width="325.9401" x="3" y="389.4001"/><text fill="#000000" font-family="sans-serif" font-size="13" font-weight="bold" lengthAdjust="spacing" textLength="20.215" x="18" y="402.4771">opt</text><polygon fill="#181818" points="261.4333,424.6001,271.4333,428.6001,261.4333,432.6001,265.4333,428.6001" style="stroke:#181818;stroke-width:1.0;"/><line style="stroke:#181818;stroke-width:1.0;" x1="0" x2="267.4333" y1="428.6001" y2="428.6001"/><text fill="#000000" font-family="sans-serif" font-size="13" font-weight="bold" lengthAdjust="spacing" textLength="7.228" x="7" y="423.0771">7</text><text fill="#000000" font-family="sans-serif" font-size="13" lengthAdjust="spacing" textLength="114.1532" x="18.228" y="423.0771">stopDragging(point)</text><path d="M3,450.6001 L68.215,450.6001 L68.215,458.2001 L58.215,468.2001 L3,468.2001 L3,450.6001 " fill="#FFD700" style="stroke:#000000;stroke-width:1.5;"/><rect fill="none" height="47.2" style="stroke:#000000;stroke-width:1.5;" width="325.9401" x="3" y="450.6001"/><text fill="#000000" font-family="sans-serif" font-size="13" font-weight="bold" lengthAdjust="spacing" textLength="20.215" x="18" y="463.6771">opt</text><polygon fill="#181818" points="261.4333,485.8001,271.4333,489.8001,261.4333,493.8001,265.4333,489.8001" style="stroke:#181818;stroke-width:1.0;"/><line style="stroke:#181818;stroke-width:1.0;" x1="0" x2="267.4333" y1="489.8001" y2="489.8001"/><text fill="#000000" font-family="sans-serif" font-size="13" font-weight="bold" lengthAdjust="spacing" textLength="7.228" x="7" y="484.2771">8</text><text fill="#000000" font-family="sans-serif" font-size="13" lengthAdjust="spacing" textLength="145.2102" x="18.228" y="484.2771">unselectAllComponents()</text><path d="M3,511.8001 L68.215,511.8001 L68.215,519.4001 L58.215,529.4001 L3,529.4001 L3,511.8001 " fill="#FFD700" style="stroke:#000000;stroke-width:1.5;"/><rect fill="none" height="47.2" style="stroke:#000000;stroke-width:1.5;" width="325.9401" x="3" y="511.8001"/><text fill="#000000" font-family="sans-serif" font-size="13" font-weight="bold" lengthAdjust="spacing" textLength="20.215" x="18" y="524.8771">opt</text><polygon fill="#181818" points="261.4333,547.0002,271.4333,551.0002,261.4333,555.0002,265.4333,551.0002" style="stroke:#181818;stroke-width:1.0;"/><line style="stroke:#181818;stroke-width:1.0;" x1="0" x2="267.4333" y1="551.0002" y2="551.0002"/><text fill="#000000" font-family="sans-serif" font-size="13" font-weight="bold" lengthAdjust="spacing" textLength="7.228" x="7" y="545.4772">9</text><text fill="#000000" font-family="sans-serif" font-size="13" lengthAdjust="spacing" textLength="137.9952" x="18.228" y="545.4772">selectComponent(point)</text><path d="M3,573.0002 L68.215,573.0002 L68.215,580.6002 L58.215,590.6002 L3,590.6002 L3,573.0002 " fill="#FFD700" style="stroke:#000000;stroke-width:1.5;"/><rect fill="none" height="47.2" style="stroke:#000000;stroke-width:1.5;" width="325.9401" x="3" y="573.0002"/><text fill="#000000" font-family="sans-serif" font-size="13" font-weight="bold" lengthAdjust="spacing" textLength="20.215" x="18" y="586.0772">opt</text><polygon fill="#181818" points="261.4333,608.2002,271.4333,612.2002,261.4333,616.2002,265.4333,612.2002" style="stroke:#181818;stroke-width:1.0;"/><line style="stroke:#181818;stroke-width:1.0;" x1="0" x2="267.4333" y1="612.2002" y2="612.2002"/><text fill="#000000" font-family="sans-serif" font-size="13" font-weight="bold" lengthAdjust="spacing" textLength="14.456" x="7" y="606.6772">10</text><text fill="#000000" font-family="sans-serif" font-size="13" lengthAdjust="spacing" textLength="223.9772" x="25.456" y="606.6772">editAttribute(attributeName, newValue)</text><!--SRC=[dP91Qm8n48Nl-oi6lKJGF-11M2hqOei7wtqqGnh9peHaWlZlwpPMXEx1TIxlvJ0VBu_1eiAbEr1gOB62oVBhOxDDSgAZJfOWaVZsCh7g9tOqQoJgr4cmC3r_UwK6-lc_dobSpTgZIzWPMxKIYEsp5BJs7QqZDUvNTfT8SuZYMKTnQfetwQ8myVL7bG0z0eOOWr7QdENeKRsmUV1zg76ih9XqdT0vp-wLC5abFhy_02XSAsb3kBUIpKZ8w5O766Izjgh97ugImJ_NNyeScCvx3ENMxWy0]--></g></svg>