<svg xmlns="http://www.w3.org/2000/svg" xmlns:xlink="http://www.w3.org/1999/xlink" contentStyleType="text/css" height="329px" preserveAspectRatio="none" style="width:578px;height:329px;background:#FFFFFF;" version="1.1" viewBox="0 0 578 329" width="578px" zoomAndPan="magnify"><defs/><g><rect fill="#FFFFFF" height="168.4551" style="stroke:#181818;stroke-width:1.0;" width="10" x="205.6016" y="98.2031"/><rect fill="#FFFFFF" height="68.582" style="stroke:#181818;stroke-width:1.0;" width="10" x="414.2031" y="166.7852"/><rect fill="#FFFFFF" height="219.0371" style="stroke:#000000;stroke-width:1.5;" width="569.8584" x="3" y="55.6211"/><line style="stroke:#181818;stroke-width:0.5;stroke-dasharray:5.0,5.0;" x1="210.0913" x2="210.0913" y1="38.6211" y2="291.6582"/><line style="stroke:#181818;stroke-width:0.5;stroke-dasharray:5.0,5.0;" x1="418.9517" x2="418.9517" y1="38.6211" y2="291.6582"/><rect fill="#E2E2F0" height="32.6211" rx="2.5" ry="2.5" style="stroke:#181818;stroke-width:0.5;" width="91.0205" x="165.0913" y="5"/><text fill="#000000" font-family="sans-serif" font-size="14" lengthAdjust="spacing" textLength="77.0205" x="172.0913" y="27.1074">:UMLProject</text><rect fill="#E2E2F0" height="32.6211" rx="2.5" ry="2.5" style="stroke:#181818;stroke-width:0.5;" width="91.0205" x="165.0913" y="290.6582"/><text fill="#000000" font-family="sans-serif" font-size="14" lengthAdjust="spacing" textLength="77.0205" x="172.0913" y="312.7656">:UMLProject</text><rect fill="#E2E2F0" height="32.6211" rx="2.5" ry="2.5" style="stroke:#181818;stroke-width:0.5;" width="124.5029" x="356.9517" y="5"/><text fill="#000000" font-family="sans-serif" font-size="14" lengthAdjust="spacing" textLength="110.5029" x="363.9517" y="27.1074">:propertyManager</text><rect fill="#E2E2F0" height="32.6211" rx="2.5" ry="2.5" style="stroke:#181818;stroke-width:0.5;" width="124.5029" x="356.9517" y="290.6582"/><text fill="#000000" font-family="sans-serif" font-size="14" lengthAdjust="spacing" textLength="110.5029" x="363.9517" y="312.7656">:propertyManager</text><rect fill="#FFFFFF" height="168.4551" style="stroke:#181818;stroke-width:1.0;" width="10" x="205.6016" y="98.2031"/><rect fill="#FFFFFF" height="68.582" style="stroke:#181818;stroke-width:1.0;" width="10" x="414.2031" y="166.7852"/><path d="M3,55.6211 L144.0718,55.6211 L144.0718,64.9121 L134.0718,74.9121 L3,74.9121 L3,55.6211 " fill="#FFD700" style="stroke:#000000;stroke-width:1.5;"/><rect fill="none" height="219.0371" style="stroke:#000000;stroke-width:1.5;" width="569.8584" x="3" y="55.6211"/><text fill="#000000" font-family="sans-serif" font-size="13" font-weight="bold" lengthAdjust="spacing" textLength="96.0718" x="18" y="70.6494">updateProperty</text><polygon fill="#181818" points="193.6016,94.2031,203.6016,98.2031,193.6016,102.2031,197.6016,98.2031" style="stroke:#181818;stroke-width:1.0;"/><line style="stroke:#181818;stroke-width:1.0;" x1="0" x2="199.6016" y1="98.2031" y2="98.2031"/><text fill="#000000" font-family="sans-serif" font-size="13" font-weight="bold" lengthAdjust="spacing" textLength="7.23" x="7" y="92.9404">1</text><text fill="#000000" font-family="sans-serif" font-size="13" lengthAdjust="spacing" textLength="168.3716" x="18.23" y="92.9404">updateProperty(name, value)</text><path d="M105,111.2031 L105,138.2031 L199,138.2031 L199,121.2031 L189,111.2031 L105,111.2031 " fill="#FF0000" style="stroke:#181818;stroke-width:0.5;"/><path d="M189,111.2031 L189,121.2031 L199,121.2031 L189,111.2031 " fill="#FF0000" style="stroke:#181818;stroke-width:0.5;"/><text fill="#000000" font-family="sans-serif" font-size="13" lengthAdjust="spacing" textLength="73.6963" x="111" y="130.2314">by Controller</text><polygon fill="#181818" points="402.2031,162.7852,412.2031,166.7852,402.2031,170.7852,406.2031,166.7852" style="stroke:#181818;stroke-width:1.0;"/><line style="stroke:#181818;stroke-width:1.0;" x1="215.6016" x2="408.2031" y1="166.7852" y2="166.7852"/><text fill="#000000" font-family="sans-serif" font-size="13" font-weight="bold" lengthAdjust="spacing" textLength="7.23" x="222.6016" y="161.5225">2</text><text fill="#000000" font-family="sans-serif" font-size="13" lengthAdjust="spacing" textLength="168.3716" x="233.8315" y="161.5225">updateProperty(name, value)</text><path d="M66,179.7852 L66,206.7852 L562,206.7852 L562,189.7852 L552,179.7852 L66,179.7852 " fill="#FEFFDD" style="stroke:#181818;stroke-width:0.5;"/><path d="M552,179.7852 L552,189.7852 L562,189.7852 L552,179.7852 " fill="#FEFFDD" style="stroke:#181818;stroke-width:0.5;"/><text fill="#000000" font-family="sans-serif" font-size="13" lengthAdjust="spacing" textLength="475.8584" x="72" y="198.8135">updateProperty(name, value) will &#129668;update the property of the selected component.</text><polygon fill="#181818" points="226.6016,231.3672,216.6016,235.3672,226.6016,239.3672,222.6016,235.3672" style="stroke:#181818;stroke-width:1.0;"/><line style="stroke:#181818;stroke-width:1.0;stroke-dasharray:2.0,2.0;" x1="220.6016" x2="418.2031" y1="235.3672" y2="235.3672"/><text fill="#000000" font-family="sans-serif" font-size="13" font-weight="bold" lengthAdjust="spacing" textLength="7.23" x="232.6016" y="230.1045">3</text><text fill="#000000" font-family="sans-serif" font-size="13" lengthAdjust="spacing" textLength="3.6118" x="243.8315" y="230.1045">&#160;</text><polygon fill="#181818" points="11,262.6582,1,266.6582,11,270.6582,7,266.6582" style="stroke:#181818;stroke-width:1.0;"/><line style="stroke:#181818;stroke-width:1.0;stroke-dasharray:2.0,2.0;" x1="5" x2="209.6016" y1="266.6582" y2="266.6582"/><text fill="#000000" font-family="sans-serif" font-size="13" font-weight="bold" lengthAdjust="spacing" textLength="7.23" x="17" y="261.3955">4</text><text fill="#000000" font-family="sans-serif" font-size="13" lengthAdjust="spacing" textLength="3.6118" x="28.23" y="261.3955">&#160;</text><!--SRC=[ZOyzRiCm38LtduAmbnHmSW0FMResG9SUGBPenuLC2YnbmtlkaJsdon4ggIrG5qLHJVnvxtkK2SeKfXQbCB4qdOwpKGIcOX0ElXhOMQYMynY7mTkuUnRsABeMaDx-26NpSdgAqrVij6n-g7Pa9gnXDYxWGxOGHvJ3Ne7xhHSgGTj0ky8Zamex5yzAbgqgH_fF_icG6L3-cyipoXPN_mBB-Zzui8pEmVrwkto8GCy8Nv3qhTI_eOjyjD3nv9cGz92vI3RVaXj13KB5zphjjzdl]--></g></svg>