<svg xmlns="http://www.w3.org/2000/svg" xmlns:xlink="http://www.w3.org/1999/xlink" contentStyleType="text/css" height="578.9px" preserveAspectRatio="none" style="width:987px;height:578px;background:#FFFFFF;" version="1.1" viewBox="0 0 987 578" width="987.7px" zoomAndPan="magnify"><defs/><g><g id="elem_User"><rect fill="#F1F1F1" height="15.8348" style="stroke:#181818;stroke-width:0.3499999999999999;" width="30.491" x="733.6" y="6.4255"/><text fill="#000000" font-family="sans-serif" font-size="9.8" lengthAdjust="spacing" textLength="20.691" x="738.5" y="18.4007">User</text></g><g id="elem_UMLProject"><rect fill="#F1F1F1" height="15.8348" style="stroke:#181818;stroke-width:0.3499999999999999;" width="60.9916" x="493.85" y="161.8255"/><text fill="#000000" font-family="sans-serif" font-size="9.8" lengthAdjust="spacing" textLength="51.1916" x="498.75" y="173.8007">UMLProject</text></g><g id="elem_UMLDiagram"><rect fill="#F1F1F1" height="15.8348" style="stroke:#181818;stroke-width:0.3499999999999999;" width="67.5233" x="111.3" y="282.5755"/><text fill="#000000" font-family="sans-serif" font-size="9.8" lengthAdjust="spacing" textLength="57.7233" x="116.2" y="294.5507">UMLDiagram</text></g><g id="elem_GMN5"><path d="M203.35,281.1755 L203.35,287.8255 L178.57,290.6255 L203.35,293.4255 L203.35,300.2792 A0,0 0 0 0 203.35,300.2792 L349.5423,300.2792 A0,0 0 0 0 349.5423,300.2792 L349.5423,288.1755 L342.5423,281.1755 L203.35,281.1755 A0,0 0 0 0 203.35,281.1755 " fill="#FEFFDD" style="stroke:#181818;stroke-width:0.3499999999999999;"/><path d="M342.5423,281.1755 L342.5423,288.1755 L349.5423,288.1755 L342.5423,281.1755 " fill="#FEFFDD" style="stroke:#181818;stroke-width:0.3499999999999999;"/><text fill="#000000" font-family="sans-serif" font-size="9.1" lengthAdjust="spacing" textLength="131.4923" x="207.55" y="294.4953">Each UMLDiagram is a diagram.</text></g><g id="elem_Gadget"><rect fill="#F1F1F1" height="15.8348" style="stroke:#181818;stroke-width:0.3499999999999999;" width="41.9467" x="123.9" y="391.4255"/><text fill="#000000" font-family="sans-serif" font-size="9.8" lengthAdjust="spacing" textLength="32.1467" x="128.8" y="403.4007">Gadget</text></g><g id="elem_Association"><rect fill="#F1F1F1" height="15.8348" style="stroke:#181818;stroke-width:0.3499999999999999;" width="59.9149" x="163.8" y="487.3255"/><text fill="#000000" font-family="sans-serif" font-size="9.8" lengthAdjust="spacing" textLength="50.1149" x="168.7" y="499.3007">Association</text></g><g id="elem_Submodule"><rect fill="#F1F1F1" height="15.8348" style="stroke:#181818;stroke-width:0.3499999999999999;" width="59.379" x="383.25" y="282.5755"/><text fill="#000000" font-family="sans-serif" font-size="9.8" lengthAdjust="spacing" textLength="49.579" x="388.15" y="294.5507">Submodule</text></g><g id="elem_Session"><rect fill="#F1F1F1" height="15.8348" style="stroke:#181818;stroke-width:0.3499999999999999;" width="44.6646" x="727.3" y="77.8255"/><text fill="#000000" font-family="sans-serif" font-size="9.8" lengthAdjust="spacing" textLength="34.8646" x="732.2" y="89.8007">Session</text></g><g id="elem_Chatroom"><rect fill="#F1F1F1" height="15.8348" style="stroke:#181818;stroke-width:0.3499999999999999;" width="52.8281" x="824.25" y="161.8255"/><text fill="#000000" font-family="sans-serif" font-size="9.8" lengthAdjust="spacing" textLength="43.0281" x="829.15" y="173.8007">Chatroom</text></g><g id="elem_Message"><rect fill="#F1F1F1" height="15.8348" style="stroke:#181818;stroke-width:0.3499999999999999;" width="49.5646" x="874.65" y="282.5755"/><text fill="#000000" font-family="sans-serif" font-size="9.8" lengthAdjust="spacing" textLength="39.7646" x="879.55" y="294.5507">Message</text></g><g id="elem_Attribute"><rect fill="#F1F1F1" height="15.8348" style="stroke:#181818;stroke-width:0.3499999999999999;" width="46.2964" x="81.2" y="558.7255"/><text fill="#000000" font-family="sans-serif" font-size="9.8" lengthAdjust="spacing" textLength="36.4964" x="86.1" y="570.7007">Attribute</text></g><g id="elem_TextStyle"><rect fill="#F1F1F1" height="15.8348" style="stroke:#181818;stroke-width:0.3499999999999999;" width="50.6461" x="4.9" y="487.3255"/><text fill="#000000" font-family="sans-serif" font-size="9.8" lengthAdjust="spacing" textLength="40.8461" x="9.8" y="499.3007">TextStyle</text></g><g id="elem_Timer"><rect fill="#F1F1F1" height="15.8348" style="stroke:#181818;stroke-width:0.3499999999999999;" width="34.8407" x="732.2" y="391.4255"/><text fill="#000000" font-family="sans-serif" font-size="9.8" lengthAdjust="spacing" textLength="25.0407" x="737.1" y="403.4007">Timer</text></g><g id="elem_Verifier"><rect fill="#F1F1F1" height="15.8348" style="stroke:#181818;stroke-width:0.3499999999999999;" width="40.8413" x="77.7" y="161.8255"/><text fill="#000000" font-family="sans-serif" font-size="9.8" lengthAdjust="spacing" textLength="31.0413" x="82.6" y="173.8007">Verifier</text></g><!--link User to UMLProject--><g id="link_User_UMLProject"><path codeLine="94" d="M733.446,18.0245 C694.631,25.9695 592.816,52.0375 539.7,114.9255 C528.143,128.6105 525.238,150.4505 524.524,161.7975 " fill="none" id="User-UMLProject" style="stroke:#181818;stroke-width:0.6999999999999998;"/><text fill="#000000" font-family="sans-serif" font-size="9.1" lengthAdjust="spacing" textLength="37.4353" x="581.7" y="89.7453">manages</text><text fill="#000000" font-family="sans-serif" font-size="9.1" lengthAdjust="spacing" textLength="5.061" x="722.8821" y="15.2537">1</text><text fill="#000000" font-family="sans-serif" font-size="9.1" lengthAdjust="spacing" textLength="3.5414" x="520.3842" y="154.0275">*</text></g><!--link UMLProject to UMLDiagram--><g id="link_UMLProject_UMLDiagram"><path codeLine="95" d="M493.682,170.9325 C411.222,172.1645 189.028,177.4775 164.5,198.9255 C139.93,220.4155 141.932,264.6485 143.871,282.3585 " fill="none" id="UMLProject-UMLDiagram" style="stroke:#181818;stroke-width:0.6999999999999998;"/><text fill="#000000" font-family="sans-serif" font-size="9.1" lengthAdjust="spacing" textLength="37.4353" x="165.2" y="228.4471">manages</text><path d="M206.8353,209.0755 L206.8353,239.8755 L390.9353,239.8755 L390.9353,216.0755 L383.9353,209.0755 L206.8353,209.0755 " fill="#FEFFDD" style="stroke:#181818;stroke-width:0.3499999999999999;"/><path d="M383.9353,209.0755 L383.9353,216.0755 L390.9353,216.0755 L383.9353,209.0755 " fill="#FEFFDD" style="stroke:#181818;stroke-width:0.3499999999999999;"/><text fill="#000000" font-family="sans-serif" font-size="9.1" lengthAdjust="spacing" textLength="169.412" x="211.0353" y="222.3953">A UMLroject can has multi UMLDiagrams.</text><text fill="#000000" font-family="sans-serif" font-size="9.1" lengthAdjust="spacing" textLength="91.5376" x="211.0353" y="234.499">Just like .sln to .vcproj.</text><text fill="#000000" font-family="sans-serif" font-size="9.1" lengthAdjust="spacing" textLength="5.061" x="483.1044" y="168.0516">1</text><text fill="#000000" font-family="sans-serif" font-size="9.1" lengthAdjust="spacing" textLength="3.5414" x="139.2213" y="274.7727">*</text></g><!--link UMLDiagram to Gadget--><g id="link_UMLDiagram_Gadget"><path codeLine="101" d="M144.9,298.7105 C144.9,318.3385 144.9,371.6505 144.9,391.3415 " fill="none" id="UMLDiagram-Gadget" style="stroke:#181818;stroke-width:0.6999999999999998;"/><text fill="#000000" font-family="sans-serif" font-size="9.1" lengthAdjust="spacing" textLength="42.9895" x="145.6" y="354.6953">consists of</text><text fill="#000000" font-family="sans-serif" font-size="9.1" lengthAdjust="spacing" textLength="5.061" x="139.0666" y="313.7922">1</text><text fill="#000000" font-family="sans-serif" font-size="9.1" lengthAdjust="spacing" textLength="3.5414" x="140.6977" y="383.5484">*</text></g><!--link Submodule to Gadget--><g id="link_Submodule_Gadget"><path codeLine="102" d="M394.569,298.7105 C345.534,318.3665 212.261,371.7765 163.282,391.4115 " fill="none" id="Submodule-Gadget" style="stroke:#181818;stroke-width:0.6999999999999998;"/><text fill="#000000" font-family="sans-serif" font-size="9.1" lengthAdjust="spacing" textLength="42.9895" x="311.5" y="354.6953">consists of</text><text fill="#000000" font-family="sans-serif" font-size="9.1" lengthAdjust="spacing" textLength="5.061" x="382.0211" y="313.7922">1</text><text fill="#000000" font-family="sans-serif" font-size="9.1" lengthAdjust="spacing" textLength="3.5414" x="166.6622" y="383.6472">*</text></g><!--link Submodule to Association--><g id="link_Submodule_Association"><path codeLine="103" d="M415.667,298.6825 C424.781,325.2545 451.752,417.2975 407.4,466.3255 C383.537,492.7015 277.228,495.5295 224.196,495.2425 " fill="none" id="Submodule-Association" style="stroke:#181818;stroke-width:0.6999999999999998;"/><text fill="#000000" font-family="sans-serif" font-size="9.1" lengthAdjust="spacing" textLength="42.9895" x="432.6" y="403.3453">consists of</text><text fill="#000000" font-family="sans-serif" font-size="9.1" lengthAdjust="spacing" textLength="5.061" x="410.899" y="313.7538">1</text><text fill="#000000" font-family="sans-serif" font-size="9.1" lengthAdjust="spacing" textLength="3.5414" x="229.3293" y="492.2302">*</text></g><!--link Gadget to Attribute--><g id="link_Gadget_Attribute"><path codeLine="104" d="M140.903,407.7145 C138.033,413.3355 134.225,421.2665 131.6,428.5255 C114.275,476.3705 107.044,537.7745 104.972,558.7045 " fill="none" id="Gadget-Attribute" style="stroke:#181818;stroke-width:0.6999999999999998;"/><text fill="#000000" font-family="sans-serif" font-size="9.1" lengthAdjust="spacing" textLength="33.8939" x="116.9" y="499.2453">contains</text><text fill="#000000" font-family="sans-serif" font-size="9.1" lengthAdjust="spacing" textLength="5.061" x="133.7444" y="422.6727">1</text><text fill="#000000" font-family="sans-serif" font-size="9.1" lengthAdjust="spacing" textLength="3.5414" x="101.016" y="550.9373">*</text></g><!--link Association to Attribute--><g id="link_Association_Attribute"><path codeLine="105" d="M184.31,503.5655 C167.069,517.0405 131.012,545.2015 113.82,558.6415 " fill="none" id="Association-Attribute" style="stroke:#181818;stroke-width:0.6999999999999998;"/><text fill="#000000" font-family="sans-serif" font-size="9.1" lengthAdjust="spacing" textLength="33.8939" x="158.2" y="534.9453">contains</text><text fill="#000000" font-family="sans-serif" font-size="9.1" lengthAdjust="spacing" textLength="5.061" x="175.2002" y="518.5062">1</text><text fill="#000000" font-family="sans-serif" font-size="9.1" lengthAdjust="spacing" textLength="3.5414" x="113.5138" y="550.8484">*</text></g><!--link Gadget to Association--><g id="link_Gadget_Association"><path codeLine="106" d="M142.282,407.5535 C138.18,420.4755 131.782,447.6145 142.8,466.3255 C148.617,476.2025 159.257,482.8875 169.323,487.2695 " fill="none" id="Gadget-Association" style="stroke:#181818;stroke-width:0.6999999999999998;"/><text fill="#000000" font-family="sans-serif" font-size="9.1" lengthAdjust="spacing" textLength="46.5309" x="143.5" y="451.3971">Asscotiates</text><path d="M194.2309,432.0255 L194.2309,462.8255 L400.7309,462.8255 L400.7309,439.0255 L393.7309,432.0255 L194.2309,432.0255 " fill="#FEFFDD" style="stroke:#181818;stroke-width:0.3499999999999999;"/><path d="M393.7309,432.0255 L393.7309,439.0255 L400.7309,439.0255 L393.7309,432.0255 " fill="#FEFFDD" style="stroke:#181818;stroke-width:0.3499999999999999;"/><text fill="#000000" font-family="sans-serif" font-size="9.1" lengthAdjust="spacing" textLength="186.9099" x="198.4309" y="445.3453">A Gadget : Association = 1 : 1 occurs when an</text><text fill="#000000" font-family="sans-serif" font-size="9.1" lengthAdjust="spacing" textLength="192.2197" x="198.4309" y="457.449">Association connects back to the same Gadget.</text><text fill="#000000" font-family="sans-serif" font-size="9.1" lengthAdjust="spacing" textLength="17.7068" x="144.5911" y="422.6326">1...2</text><text fill="#000000" font-family="sans-serif" font-size="9.1" lengthAdjust="spacing" textLength="3.5414" x="155.0304" y="479.4879">*</text></g><!--link UMLProject to Submodule--><g id="link_UMLProject_Submodule"><path codeLine="111" d="M493.752,173.9915 C463.743,178.0585 421.015,185.9685 410.9,198.9255 C391.447,223.8385 403.669,265.3695 409.948,282.3445 " fill="none" id="UMLProject-Submodule" style="stroke:#181818;stroke-width:0.6999999999999998;"/><text fill="#000000" font-family="sans-serif" font-size="9.1" lengthAdjust="spacing" textLength="25.7937" x="500.1464" y="209.4453">knows</text><path d="M414.4,215.9292 L414.4,246.7292 L611.1,246.7292 L611.1,222.9292 L604.1,215.9292 L414.4,215.9292 " fill="#FEFFDD" style="stroke:#181818;stroke-width:0.3499999999999999;"/><path d="M604.1,215.9292 L604.1,222.9292 L611.1,222.9292 L604.1,215.9292 " fill="#FEFFDD" style="stroke:#181818;stroke-width:0.3499999999999999;"/><text fill="#000000" font-family="sans-serif" font-size="9.1" lengthAdjust="spacing" textLength="182.5865" x="418.6" y="229.249">This enables UMLProject import Submodules</text><text fill="#000000" font-family="sans-serif" font-size="9.1" lengthAdjust="spacing" textLength="141.6187" x="421.1283" y="241.3527">to UMLDiagrams under the project.</text><text fill="#000000" font-family="sans-serif" font-size="9.1" lengthAdjust="spacing" textLength="5.061" x="483.1864" y="185.5817">1</text><text fill="#000000" font-family="sans-serif" font-size="9.1" lengthAdjust="spacing" textLength="3.5414" x="404.5892" y="274.7532">*</text></g><!--link User to Session--><g id="link_User_Session"><path codeLine="117" d="M738.507,22.6585 C728.728,30.6315 716.38,43.8685 721.7,56.8255 C725.165,65.2745 732.501,72.5475 738.794,77.6085 " fill="none" id="User-Session" style="stroke:#181818;stroke-width:0.6999999999999998;"/><text fill="#000000" font-family="sans-serif" font-size="9.1" lengthAdjust="spacing" textLength="21.7502" x="722.4" y="54.0453">hosts</text><text fill="#000000" font-family="sans-serif" font-size="9.1" lengthAdjust="spacing" textLength="5.061" x="729.0798" y="37.5967">1</text><text fill="#000000" font-family="sans-serif" font-size="9.1" lengthAdjust="spacing" textLength="5.061" x="728.6934" y="70.0227">1</text></g><!--link User to Session--><g id="link_User_Session"><path codeLine="118" d="M749.077,22.6655 C749.21,36.1405 749.49,64.3015 749.623,77.7415 " fill="none" id="User-Session-1" style="stroke:#181818;stroke-width:0.6999999999999998;"/><text fill="#000000" font-family="sans-serif" font-size="9.1" lengthAdjust="spacing" textLength="18.7154" x="749.7" y="54.0453">joins</text><text fill="#000000" font-family="sans-serif" font-size="9.1" lengthAdjust="spacing" textLength="3.5414" x="745.0434" y="37.6062">*</text><text fill="#000000" font-family="sans-serif" font-size="9.1" lengthAdjust="spacing" textLength="5.061" x="743.7417" y="69.9484">1</text></g><!--link Session to UMLProject--><g id="link_Session_UMLProject"><path codeLine="119" d="M727.23,87.8005 C683.746,90.5165 589.974,98.1885 562.8,114.9255 C544.509,126.1885 532.476,149.7225 527.261,161.7555 " fill="none" id="Session-UMLProject" style="stroke:#181818;stroke-width:0.6999999999999998;"/><text fill="#000000" font-family="sans-serif" font-size="9.1" lengthAdjust="spacing" textLength="46.5397" x="563.5" y="131.7453">connects to</text><path d="M614.2397,118.4255 L614.2397,137.3255 L727.6397,137.3255 L727.6397,125.4255 L720.6397,118.4255 L614.2397,118.4255 " fill="#FEFFDD" style="stroke:#181818;stroke-width:0.3499999999999999;"/><path d="M720.6397,118.4255 L720.6397,125.4255 L727.6397,125.4255 L720.6397,118.4255 " fill="#FEFFDD" style="stroke:#181818;stroke-width:0.3499999999999999;"/><text fill="#000000" font-family="sans-serif" font-size="9.1" lengthAdjust="spacing" textLength="99.1447" x="618.4397" y="131.7453">A Session binds a Projet</text><text fill="#000000" font-family="sans-serif" font-size="9.1" lengthAdjust="spacing" textLength="5.061" x="716.6015" y="84.8437">1</text><text fill="#000000" font-family="sans-serif" font-size="9.1" lengthAdjust="spacing" textLength="5.061" x="529.5073" y="153.9681">1</text></g><!--link Session to Chatroom--><g id="link_Session_Chatroom"><path codeLine="123" d="M758.821,94.0515 C778.015,109.7805 822.36,146.1175 841.47,161.7765 " fill="none" id="Session-Chatroom" style="stroke:#181818;stroke-width:0.6999999999999998;"/><text fill="#000000" font-family="sans-serif" font-size="9.1" lengthAdjust="spacing" textLength="33.8939" x="815.5" y="131.7453">contains</text><text fill="#000000" font-family="sans-serif" font-size="9.1" lengthAdjust="spacing" textLength="5.061" x="756.4356" y="109.1667">1</text><text fill="#000000" font-family="sans-serif" font-size="9.1" lengthAdjust="spacing" textLength="5.061" x="831.8" y="153.9978">1</text></g><!--link Chatroom to Message--><g id="link_Chatroom_Message"><path codeLine="124" d="M857.395,178.0025 C862.134,183.4415 868.252,191.1975 872.2,198.9255 C887.061,228.0105 895.265,266.5385 898.219,282.5055 " fill="none" id="Chatroom-Message" style="stroke:#181818;stroke-width:0.6999999999999998;"/><text fill="#000000" font-family="sans-serif" font-size="9.1" lengthAdjust="spacing" textLength="33.8939" x="891.1" y="228.3453">contains</text><text fill="#000000" font-family="sans-serif" font-size="9.1" lengthAdjust="spacing" textLength="5.061" x="854.1033" y="193.0996">1</text><text fill="#000000" font-family="sans-serif" font-size="9.1" lengthAdjust="spacing" textLength="3.5414" x="893.5052" y="274.7181">*</text></g><!--link User to Message--><g id="link_User_Message"><path codeLine="125" d="M761.754,22.6235 C797.349,44.2815 897.379,111.3135 931,198.9255 C939.134,220.1285 938.448,228.5705 931,250.0255 C926.485,263.0315 915.775,275.0015 908.096,282.3725 " fill="none" id="User-Message" style="stroke:#181818;stroke-width:0.6999999999999998;"/><text fill="#000000" font-family="sans-serif" font-size="9.1" lengthAdjust="spacing" textLength="24.283" x="898.1" y="131.7453">sends</text><text fill="#000000" font-family="sans-serif" font-size="9.1" lengthAdjust="spacing" textLength="5.061" x="760.7403" y="37.7284">1</text><text fill="#000000" font-family="sans-serif" font-size="9.1" lengthAdjust="spacing" textLength="3.5414" x="907.4564" y="274.5303">*</text></g><!--link TextStyle to Attribute--><g id="link_TextStyle_Attribute"><path codeLine="126" d="M31.311,503.7335 C33.11,512.8335 37.289,528.0165 46.2,537.7255 C55.538,547.8965 69.314,554.8335 81.109,559.3065 " fill="none" id="TextStyle-Attribute" style="stroke:#181818;stroke-width:0.6999999999999998;"/><text fill="#000000" font-family="sans-serif" font-size="9.1" lengthAdjust="spacing" textLength="38.946" x="46.9" y="534.9453">describes</text><text fill="#000000" font-family="sans-serif" font-size="9.1" lengthAdjust="spacing" textLength="5.061" x="25.9705" y="518.5523">1</text><text fill="#000000" font-family="sans-serif" font-size="9.1" lengthAdjust="spacing" textLength="5.061" x="70.6071" y="554.3422">1</text></g><!--link UMLProject to Timer--><g id="link_UMLProject_Timer"><path codeLine="127" d="M554.883,172.5985 C575.12,175.5105 600.887,182.4685 617.4,198.9255 C654.066,235.4655 623.875,266.5735 651.7,310.2255 C674.996,346.7725 717.311,377.6215 737.863,391.2645 " fill="none" id="UMLProject-Timer" style="stroke:#181818;stroke-width:0.6999999999999998;"/><text fill="#000000" font-family="sans-serif" font-size="9.1" lengthAdjust="spacing" textLength="29.846" x="676.962" y="281.5453">inqures</text><path d="M655.2,288.0292 L655.2,306.9292 L728,306.9292 L728,295.0292 L721,288.0292 L655.2,288.0292 " fill="#FEFFDD" style="stroke:#181818;stroke-width:0.3499999999999999;"/><path d="M721,288.0292 L721,295.0292 L728,295.0292 L721,288.0292 " fill="#FEFFDD" style="stroke:#181818;stroke-width:0.3499999999999999;"/><text fill="#000000" font-family="sans-serif" font-size="9.1" lengthAdjust="spacing" textLength="58.6701" x="659.4" y="301.349">For auto-save.</text><text fill="#000000" font-family="sans-serif" font-size="9.1" lengthAdjust="spacing" textLength="5.061" x="560.3598" y="170.0227">1</text><text fill="#000000" font-family="sans-serif" font-size="9.1" lengthAdjust="spacing" textLength="5.061" x="727.1357" y="383.4396">1</text></g><!--link Session to Timer--><g id="link_Session_Timer"><path codeLine="131" d="M749.266,93.9325 C748.237,111.8735 745.661,159.2985 744.8,198.9255 C743.162,274.0495 747.796,365.0425 749.266,391.3345 " fill="none" id="Session-Timer" style="stroke:#181818;stroke-width:0.6999999999999998;"/><text fill="#000000" font-family="sans-serif" font-size="9.1" lengthAdjust="spacing" textLength="29.846" x="790.8036" y="215.3953">inqures</text><path d="M748.3,221.8792 L748.3,240.7792 L863.1,240.7792 L863.1,228.8792 L856.1,221.8792 L748.3,221.8792 " fill="#FEFFDD" style="stroke:#181818;stroke-width:0.3499999999999999;"/><path d="M856.1,221.8792 L856.1,228.8792 L863.1,228.8792 L856.1,221.8792 " fill="#FEFFDD" style="stroke:#181818;stroke-width:0.3499999999999999;"/><text fill="#000000" font-family="sans-serif" font-size="9.1" lengthAdjust="spacing" textLength="100.1533" x="752.5" y="235.199">For conneection timeout.</text><text fill="#000000" font-family="sans-serif" font-size="9.1" lengthAdjust="spacing" textLength="5.061" x="743.3572" y="109.0038">1</text><text fill="#000000" font-family="sans-serif" font-size="9.1" lengthAdjust="spacing" textLength="5.061" x="743.2424" y="383.5385">1</text></g><!--link Message to Timer--><g id="link_Message_Timer"><path codeLine="135" d="M889.203,298.7105 C861.84,318.3385 787.514,371.6505 760.067,391.3415 " fill="none" id="Message-Timer" style="stroke:#181818;stroke-width:0.6999999999999998;"/><text fill="#000000" font-family="sans-serif" font-size="9.1" lengthAdjust="spacing" textLength="29.846" x="899.4809" y="341.7453">inqures</text><path d="M845.6,348.2292 L845.6,367.1292 L982.8,367.1292 L982.8,355.2292 L975.8,348.2292 L845.6,348.2292 " fill="#FEFFDD" style="stroke:#181818;stroke-width:0.3499999999999999;"/><path d="M975.8,348.2292 L975.8,355.2292 L982.8,355.2292 L975.8,348.2292 " fill="#FEFFDD" style="stroke:#181818;stroke-width:0.3499999999999999;"/><text fill="#000000" font-family="sans-serif" font-size="9.1" lengthAdjust="spacing" textLength="122.9078" x="849.8" y="361.549">For message-sending timeout.</text><text fill="#000000" font-family="sans-serif" font-size="9.1" lengthAdjust="spacing" textLength="5.061" x="879.6572" y="313.7922">1</text><text fill="#000000" font-family="sans-serif" font-size="9.1" lengthAdjust="spacing" textLength="5.061" x="758.4988" y="383.5484">1</text></g><!--link Verifier to UMLDiagram--><g id="link_Verifier_UMLDiagram"><path codeLine="139" d="M95.669,178.0445 C91.539,192.6885 84.406,225.8475 95.9,250.0255 C102.872,264.6905 118.16,275.7365 129.815,282.4425 " fill="none" id="Verifier-UMLDiagram" style="stroke:#181818;stroke-width:0.6999999999999998;"/><text fill="#000000" font-family="sans-serif" font-size="9.1" lengthAdjust="spacing" textLength="28.322" x="96.6" y="228.3453">checks</text><text fill="#000000" font-family="sans-serif" font-size="9.1" lengthAdjust="spacing" textLength="5.061" x="88.9912" y="193.1571">1</text><text fill="#000000" font-family="sans-serif" font-size="9.1" lengthAdjust="spacing" textLength="5.061" x="117.6483" y="274.6291">1</text></g><!--SRC=[jLPRRzCm57xFhpZQ4o0rejF4818IenjePHM8Tdjt7RSnJUnYdtGNn7_ds6aIfqjPGP2NnFOvtxb_JYPJ0LmQdeieSz-5m4odrJT3D79UulOebseLHH7Ge-VV14UujiB03x_Z7fasdueLmYz-TXKcLr-Czf-_LtDFpYnUf1BxSSubMnfM13WBcOiE0DwlsyMSyTLIboeTwLoRVKQy4ne56BdCi96wO3mBZKeB3D9g4NifeLAls77p8qkNOa-e7UTunwUrjXAbLit6mwLAnLrF7iwirLmo9_mVhKpBUQ7JCXS75EsiwPa3oZWLrkvrFTEsBO15Pd0c0qEqWwNj0Hrb38tMhZDwJYTaaYttH6AfYi84-L8eLEi4adqoMwpxAb77tO-y2zL9VXTf9kvmYlUTR2zqeEiMLZwqgP3slSxJO7c9B9UypIIproum6k2-eNHf3SVuDXDgfjskBfkgXGetmiY5xEXq-gnR6l_sJ74qF8B108vU78L4a43159MaKWWEkkBrw7N5sra5wYFFK4qdEgqj56VAPG6ACaSPeDcu4H-N5WbW9I2skGBK46_uclJxvZlm9_1oE-w9gxQL5YteXHTl1-YlfSD9VwoonGhbctxqqiYagZ8M0Xsaq637SNoynnzQSOsqFAGiJU0XnbiOqiuGDEUbiRu7WRNS58gITugAQZsbkq9X9i0I2MsHTmgsqrLXp6sc4rWfVHiuFzU8n26xtiyoedwwPUQvi26gBDRQ14nf6mtdOD1mKBf9z2wlAztU_Wh7XLurKIQU5MqhuyDu9FHDryMhzmAipkWrkKJzTE5giBbKgRi0FGm-pdQFqOQKTvghsG-gKbFqZkWkXRHYZhOhcPOx0zjXPwV2Sbhi9njwLNoOW5JVIoEUxeaFsW0hKGyisuZue7JygOdQZ2yNkUlWi2Be7eDrPlw1mQA26hWKIxNyZT7cKkYsMalRF1DyPUa-YDwH8fP57aLVSgQGf60ZZC_HC3v-UNmIdpwRClTxi8QNfp1yamnV9yDJ64rdu8wVHyycbpEmkZHSq6-OhUfB-i-ZCTim-5egvsW2dzT2ZSy_rHjmeJRIQ5MugtXyCsa5NfqCtajdqP0dS3E9piM2qML16boxo1EuddqOl8wkc5gMb964eez6z3-9vfxEfhy0]--></g></svg>