<svg xmlns="http://www.w3.org/2000/svg" xmlns:xlink="http://www.w3.org/1999/xlink" contentStyleType="text/css" height="1253px" preserveAspectRatio="none" style="width:1438px;height:1253px;background:#FFFFFF;" version="1.1" viewBox="0 0 1438 1253" width="1438px" zoomAndPan="magnify"><defs/><g><g id="elem_User"><rect fill="#F1F1F1" height="62.3998" style="stroke:#181818;stroke-width:0.5;" width="47.0139" x="1073.73" y="7"/><text fill="#000000" font-family="sans-serif" font-size="14" lengthAdjust="spacing" textLength="29.5539" x="1082.46" y="22.0059">User</text><line style="stroke:#181818;stroke-width:0.5;" x1="1074.73" x2="1119.7439" y1="27.7999" y2="27.7999"/><text fill="#000000" font-family="sans-serif" font-size="14" lengthAdjust="spacing" textLength="10.892" x="1079.73" y="44.8059">id</text><text fill="#000000" font-family="sans-serif" font-size="14" lengthAdjust="spacing" textLength="35.0139" x="1079.73" y="61.6058">name</text></g><g id="elem_UMLProject"><rect fill="#F1F1F1" height="79.1997" style="stroke:#181818;stroke-width:0.5;" width="87.1217" x="732.68" y="337.4"/><text fill="#000000" font-family="sans-serif" font-size="14" lengthAdjust="spacing" textLength="73.1217" x="739.68" y="352.4059">UMLProject</text><line style="stroke:#181818;stroke-width:0.5;" x1="733.68" x2="818.8017" y1="358.1999" y2="358.1999"/><text fill="#000000" font-family="sans-serif" font-size="14" lengthAdjust="spacing" textLength="10.892" x="738.68" y="375.2059">id</text><text fill="#000000" font-family="sans-serif" font-size="14" lengthAdjust="spacing" textLength="35.0139" x="738.68" y="392.0058">name</text><text fill="#000000" font-family="sans-serif" font-size="14" lengthAdjust="spacing" textLength="45.9058" x="738.68" y="408.8057">lastEdit</text></g><g id="elem_UMLDiagram"><rect fill="#F1F1F1" height="95.9996" style="stroke:#181818;stroke-width:0.5;" width="113.9336" x="172.27" y="544.6"/><text fill="#000000" font-family="sans-serif" font-size="14" lengthAdjust="spacing" textLength="82.4457" x="188.0139" y="559.6059">UMLDiagram</text><line style="stroke:#181818;stroke-width:0.5;" x1="173.27" x2="285.2036" y1="565.3999" y2="565.3999"/><text fill="#000000" font-family="sans-serif" font-size="14" lengthAdjust="spacing" textLength="52.9058" x="178.27" y="582.4059">filename</text><text fill="#000000" font-family="sans-serif" font-size="14" lengthAdjust="spacing" textLength="26.4599" x="178.27" y="599.2058">type</text><text fill="#000000" font-family="sans-serif" font-size="14" lengthAdjust="spacing" textLength="101.9336" x="178.27" y="616.0057">backgoundColor</text><text fill="#000000" font-family="sans-serif" font-size="14" lengthAdjust="spacing" textLength="45.9058" x="178.27" y="632.8057">lastEdit</text></g><g id="elem_GMN5"><path d="M320.82,579.8 L320.82,588.6 L286.66,592.6 L320.82,596.6 L320.82,605.4 A0,0 0 0 0 320.82,605.4 L529.6442,605.4 A0,0 0 0 0 529.6442,605.4 L529.6442,589.8 L519.6442,579.8 L320.82,579.8 A0,0 0 0 0 320.82,579.8 " fill="#FEFFDD" style="stroke:#181818;stroke-width:0.5;"/><path d="M519.6442,579.8 L519.6442,589.8 L529.6442,589.8 L519.6442,579.8 " fill="#FEFFDD" style="stroke:#181818;stroke-width:0.5;"/><text fill="#000000" font-family="sans-serif" font-size="13" lengthAdjust="spacing" textLength="187.8242" x="326.82" y="596.877">Each UMLDiagram is a diagram.</text></g><g id="elem_Gadget"><rect fill="#F1F1F1" height="112.7996" style="stroke:#181818;stroke-width:0.5;" width="60.2438" x="199.11" y="753.6"/><text fill="#000000" font-family="sans-serif" font-size="14" lengthAdjust="spacing" textLength="45.9198" x="206.272" y="768.6059">Gadget</text><line style="stroke:#181818;stroke-width:0.5;" x1="200.11" x2="258.3538" y1="774.3999" y2="774.3999"/><text fill="#000000" font-family="sans-serif" font-size="14" lengthAdjust="spacing" textLength="10.892" x="205.11" y="791.4059">id</text><text fill="#000000" font-family="sans-serif" font-size="14" lengthAdjust="spacing" textLength="26.4599" x="205.11" y="808.2058">type</text><text fill="#000000" font-family="sans-serif" font-size="14" lengthAdjust="spacing" textLength="30.3379" x="205.11" y="825.0057">color</text><text fill="#000000" font-family="sans-serif" font-size="14" lengthAdjust="spacing" textLength="48.2438" x="205.11" y="841.8057">position</text><text fill="#000000" font-family="sans-serif" font-size="14" lengthAdjust="spacing" textLength="41.2438" x="205.11" y="858.6056">zIndex</text></g><g id="elem_Association"><rect fill="#F1F1F1" height="112.7996" style="stroke:#181818;stroke-width:0.5;" width="85.5817" x="256.45" y="977.4"/><text fill="#000000" font-family="sans-serif" font-size="14" lengthAdjust="spacing" textLength="71.5817" x="263.45" y="992.4059">Association</text><line style="stroke:#181818;stroke-width:0.5;" x1="257.45" x2="341.0317" y1="998.1999" y2="998.1999"/><text fill="#000000" font-family="sans-serif" font-size="14" lengthAdjust="spacing" textLength="10.892" x="262.45" y="1015.2059">id</text><text fill="#000000" font-family="sans-serif" font-size="14" lengthAdjust="spacing" textLength="26.4599" x="262.45" y="1032.0058">type</text><text fill="#000000" font-family="sans-serif" font-size="14" lengthAdjust="spacing" textLength="30.3379" x="262.45" y="1048.8057">color</text><text fill="#000000" font-family="sans-serif" font-size="14" lengthAdjust="spacing" textLength="48.2438" x="262.45" y="1065.6057">position</text><text fill="#000000" font-family="sans-serif" font-size="14" lengthAdjust="spacing" textLength="41.2438" x="262.45" y="1082.4056">zIndex</text></g><g id="elem_Submodule"><rect fill="#F1F1F1" height="95.9996" style="stroke:#181818;stroke-width:0.5;" width="84.8117" x="574.83" y="544.6"/><text fill="#000000" font-family="sans-serif" font-size="14" lengthAdjust="spacing" textLength="70.8117" x="581.83" y="559.6059">Submodule</text><line style="stroke:#181818;stroke-width:0.5;" x1="575.83" x2="658.6417" y1="565.3999" y2="565.3999"/><text fill="#000000" font-family="sans-serif" font-size="14" lengthAdjust="spacing" textLength="10.892" x="580.83" y="582.4059">id</text><text fill="#000000" font-family="sans-serif" font-size="14" lengthAdjust="spacing" textLength="35.0139" x="580.83" y="599.2058">name</text><text fill="#000000" font-family="sans-serif" font-size="14" lengthAdjust="spacing" textLength="52.1358" x="580.83" y="616.0057">Attribute</text><text fill="#000000" font-family="sans-serif" font-size="14" lengthAdjust="spacing" textLength="45.9058" x="580.83" y="632.8057">lastEdit</text></g><g id="elem_Session"><rect fill="#F1F1F1" height="95.9996" style="stroke:#181818;stroke-width:0.5;" width="70.3378" x="1063.07" y="146.4"/><text fill="#000000" font-family="sans-serif" font-size="14" lengthAdjust="spacing" textLength="49.7978" x="1073.34" y="161.4059">Session</text><line style="stroke:#181818;stroke-width:0.5;" x1="1064.07" x2="1132.4078" y1="167.1999" y2="167.1999"/><text fill="#000000" font-family="sans-serif" font-size="14" lengthAdjust="spacing" textLength="10.892" x="1069.07" y="184.2059">id</text><text fill="#000000" font-family="sans-serif" font-size="14" lengthAdjust="spacing" textLength="26.4599" x="1069.07" y="201.0058">host</text><text fill="#000000" font-family="sans-serif" font-size="14" lengthAdjust="spacing" textLength="58.3378" x="1069.07" y="217.8057">startTime</text><text fill="#000000" font-family="sans-serif" font-size="14" lengthAdjust="spacing" textLength="37.3518" x="1069.07" y="234.6057">status</text></g><g id="elem_Chatroom"><rect fill="#F1F1F1" height="36.7999" style="stroke:#181818;stroke-width:0.5;" width="75.4597" x="1204.51" y="358.6"/><text fill="#000000" font-family="sans-serif" font-size="14" lengthAdjust="spacing" textLength="61.4597" x="1211.51" y="373.6059">Chatroom</text><line style="stroke:#181818;stroke-width:0.5;" x1="1205.51" x2="1278.9697" y1="379.3999" y2="379.3999"/></g><g id="elem_Message"><rect fill="#F1F1F1" height="95.9996" style="stroke:#181818;stroke-width:0.5;" width="76.5677" x="1273.95" y="544.6"/><text fill="#000000" font-family="sans-serif" font-size="14" lengthAdjust="spacing" textLength="56.7978" x="1283.835" y="559.6059">Message</text><line style="stroke:#181818;stroke-width:0.5;" x1="1274.95" x2="1349.5177" y1="565.3999" y2="565.3999"/><text fill="#000000" font-family="sans-serif" font-size="14" lengthAdjust="spacing" textLength="10.892" x="1279.95" y="582.4059">id</text><text fill="#000000" font-family="sans-serif" font-size="14" lengthAdjust="spacing" textLength="42.7978" x="1279.95" y="599.2058">sender</text><text fill="#000000" font-family="sans-serif" font-size="14" lengthAdjust="spacing" textLength="45.9198" x="1279.95" y="616.0057">content</text><text fill="#000000" font-family="sans-serif" font-size="14" lengthAdjust="spacing" textLength="64.5677" x="1279.95" y="632.8057">timestamp</text></g><g id="elem_Attribute"><rect fill="#F1F1F1" height="79.1997" style="stroke:#181818;stroke-width:0.5;" width="66.1358" x="138.17" y="1167.2"/><text fill="#000000" font-family="sans-serif" font-size="14" lengthAdjust="spacing" textLength="52.1358" x="145.17" y="1182.2059">Attribute</text><line style="stroke:#181818;stroke-width:0.5;" x1="139.17" x2="203.3058" y1="1187.9999" y2="1187.9999"/><text fill="#000000" font-family="sans-serif" font-size="14" lengthAdjust="spacing" textLength="10.892" x="144.17" y="1205.0059">id</text><text fill="#000000" font-family="sans-serif" font-size="14" lengthAdjust="spacing" textLength="45.9198" x="144.17" y="1221.8058">content</text><text fill="#000000" font-family="sans-serif" font-size="14" lengthAdjust="spacing" textLength="48.2438" x="144.17" y="1238.6057">position</text></g><g id="elem_TextStyle"><rect fill="#F1F1F1" height="112.7996" style="stroke:#181818;stroke-width:0.5;" width="94.4736" x="7" y="977.4"/><text fill="#000000" font-family="sans-serif" font-size="14" lengthAdjust="spacing" textLength="58.3518" x="25.0609" y="992.4059">TextStyle</text><line style="stroke:#181818;stroke-width:0.5;" x1="8" x2="100.4736" y1="998.1999" y2="998.1999"/><text fill="#000000" font-family="sans-serif" font-size="14" lengthAdjust="spacing" textLength="23.3519" x="13" y="1015.2059">font</text><text fill="#000000" font-family="sans-serif" font-size="14" lengthAdjust="spacing" textLength="48.2438" x="13" y="1032.0058">fontsize</text><text fill="#000000" font-family="sans-serif" font-size="14" lengthAdjust="spacing" textLength="38.1218" x="13" y="1048.8057">isBold</text><text fill="#000000" font-family="sans-serif" font-size="14" lengthAdjust="spacing" textLength="38.8918" x="13" y="1065.6057">isItalic</text><text fill="#000000" font-family="sans-serif" font-size="14" lengthAdjust="spacing" textLength="82.4736" x="13" y="1082.4056">hasUnderline</text></g><g id="elem_Timer"><rect fill="#F1F1F1" height="45.5999" style="stroke:#181818;stroke-width:0.5;" width="112.3656" x="1042.05" y="787.2"/><text fill="#000000" font-family="sans-serif" font-size="14" lengthAdjust="spacing" textLength="35.7699" x="1080.3479" y="802.2059">Timer</text><line style="stroke:#181818;stroke-width:0.5;" x1="1043.05" x2="1153.4156" y1="807.9999" y2="807.9999"/><text fill="#000000" font-family="sans-serif" font-size="14" lengthAdjust="spacing" textLength="100.3656" x="1048.05" y="825.0059">whenToTimeout</text></g><g id="elem_Verifier"><rect fill="#F1F1F1" height="62.3998" style="stroke:#181818;stroke-width:0.5;" width="58.3378" x="138.07" y="345.8"/><text fill="#000000" font-family="sans-serif" font-size="14" lengthAdjust="spacing" textLength="44.3378" x="145.07" y="360.8059">Verifier</text><line style="stroke:#181818;stroke-width:0.5;" x1="139.07" x2="195.4078" y1="366.5999" y2="366.5999"/><text fill="#000000" font-family="sans-serif" font-size="14" lengthAdjust="spacing" textLength="26.4599" x="144.07" y="383.6059">type</text><text fill="#000000" font-family="sans-serif" font-size="14" lengthAdjust="spacing" textLength="37.3518" x="144.07" y="400.4058">status</text></g><!--link User to UMLProject--><g id="link_User_UMLProject"><path codeLine="94" d="M1073.63,50.27 C1016.31,78.45 869.27,158.81 798.24,272.4 C786.15,291.73 780.61,316.64 778.11,337.19 " fill="none" id="User-UMLProject" style="stroke:#181818;stroke-width:1.0;"/><text fill="#000000" font-family="sans-serif" font-size="13" lengthAdjust="spacing" textLength="53.4691" x="916.47" y="198.977">manages</text><text fill="#000000" font-family="sans-serif" font-size="13" lengthAdjust="spacing" textLength="7.228" x="1058.3634" y="48.8385">1</text><text fill="#000000" font-family="sans-serif" font-size="13" lengthAdjust="spacing" textLength="5.057" x="773.0027" y="325.8934">*</text></g><!--link UMLProject to UMLDiagram--><g id="link_UMLProject_UMLDiagram"><path codeLine="95" d="M732.21,377.72 C620.79,377.92 331.62,384.57 263.24,446.6 C236.42,470.92 228.77,512.01 227.34,544.25 " fill="none" id="UMLProject-UMLDiagram" style="stroke:#181818;stroke-width:1.0;"/><text fill="#000000" font-family="sans-serif" font-size="13" lengthAdjust="spacing" textLength="53.4691" x="264.24" y="484.977">manages</text><path d="M323.7091,460.1 L323.7091,501.1 L585.7091,501.1 L585.7091,470.1 L575.7091,460.1 L323.7091,460.1 " fill="#FEFFDD" style="stroke:#181818;stroke-width:0.5;"/><path d="M575.7091,460.1 L575.7091,470.1 L585.7091,470.1 L575.7091,460.1 " fill="#FEFFDD" style="stroke:#181818;stroke-width:0.5;"/><text fill="#000000" font-family="sans-serif" font-size="13" lengthAdjust="spacing" textLength="241.9952" x="329.7091" y="477.177">A UMLroject can has multi UMLDiagrams.</text><text fill="#000000" font-family="sans-serif" font-size="13" lengthAdjust="spacing" textLength="130.7671" x="329.7091" y="492.777">Just like .sln to .vcproj.</text><text fill="#000000" font-family="sans-serif" font-size="13" lengthAdjust="spacing" textLength="7.228" x="717.3566" y="373.7238">1</text><text fill="#000000" font-family="sans-serif" font-size="13" lengthAdjust="spacing" textLength="5.057" x="221.6984" y="533.1681">*</text></g><!--link UMLDiagram to Gadget--><g id="link_UMLDiagram_Gadget"><path codeLine="101" d="M229.24,640.87 C229.24,674.06 229.24,718.57 229.24,753.46 " fill="none" id="UMLDiagram-Gadget" style="stroke:#181818;stroke-width:1.0;"/><text fill="#000000" font-family="sans-serif" font-size="13" lengthAdjust="spacing" textLength="61.412" x="230.24" y="701.677">consists of</text><text fill="#000000" font-family="sans-serif" font-size="13" lengthAdjust="spacing" textLength="7.228" x="221.7643" y="660.8319">1</text><text fill="#000000" font-family="sans-serif" font-size="13" lengthAdjust="spacing" textLength="5.057" x="223.909" y="741.972">*</text></g><!--link Submodule to Gadget--><g id="link_Submodule_Gadget"><path codeLine="102" d="M574.38,623.4 C565.51,629.27 556.16,635.27 547.24,640.6 C444.31,702.18 316.9,766.12 259.62,794.23 " fill="none" id="Submodule-Gadget" style="stroke:#181818;stroke-width:1.0;"/><text fill="#000000" font-family="sans-serif" font-size="13" lengthAdjust="spacing" textLength="61.412" x="488.65" y="701.677">consists of</text><text fill="#000000" font-family="sans-serif" font-size="13" lengthAdjust="spacing" textLength="7.228" x="559.7212" y="624.3858">1</text><text fill="#000000" font-family="sans-serif" font-size="13" lengthAdjust="spacing" textLength="5.057" x="267.232" y="785.9953">*</text></g><!--link Submodule to Association--><g id="link_Submodule_Association"><path codeLine="103" d="M631.42,641.04 C650.39,715.05 674.13,858.68 604.24,947.4 C571.78,988.6 418.36,1015.82 342.25,1027.01 " fill="none" id="Submodule-Association" style="stroke:#181818;stroke-width:1.0;"/><text fill="#000000" font-family="sans-serif" font-size="13" lengthAdjust="spacing" textLength="61.412" x="652.16" y="814.577">consists of</text><text fill="#000000" font-family="sans-serif" font-size="13" lengthAdjust="spacing" textLength="7.228" x="625.871" y="660.6743">1</text><text fill="#000000" font-family="sans-serif" font-size="13" lengthAdjust="spacing" textLength="5.057" x="350.0768" y="1021.6825">*</text></g><!--link Gadget to Attribute--><g id="link_Gadget_Attribute"><path codeLine="104" d="M213.5,866.79 C205.04,898.89 195.15,940.13 189.24,977.4 C178.77,1043.4 174.29,1121.14 172.45,1166.78 " fill="none" id="Gadget-Attribute" style="stroke:#181818;stroke-width:1.0;"/><text fill="#000000" font-family="sans-serif" font-size="13" lengthAdjust="spacing" textLength="48.412" x="190.24" y="1038.377">contains</text><text fill="#000000" font-family="sans-serif" font-size="13" lengthAdjust="spacing" textLength="7.228" x="204.2895" y="886.3353">1</text><text fill="#000000" font-family="sans-serif" font-size="13" lengthAdjust="spacing" textLength="5.057" x="167.2335" y="1155.7411">*</text></g><!--link Association to Attribute--><g id="link_Association_Attribute"><path codeLine="105" d="M257.68,1090.32 C238.99,1115.28 217.38,1144.15 200.44,1166.78 " fill="none" id="Association-Attribute" style="stroke:#181818;stroke-width:1.0;"/><text fill="#000000" font-family="sans-serif" font-size="13" lengthAdjust="spacing" textLength="48.412" x="236.24" y="1133.277">contains</text><text fill="#000000" font-family="sans-serif" font-size="13" lengthAdjust="spacing" textLength="7.228" x="245.2021" y="1110.236">1</text><text fill="#000000" font-family="sans-serif" font-size="13" lengthAdjust="spacing" textLength="5.057" x="200.0343" y="1155.7411">*</text></g><!--link Gadget to Association--><g id="link_Gadget_Association"><path codeLine="106" d="M218.89,866.63 C216.45,891.99 216.84,921.96 226.24,947.4 C232.59,964.6 244.12,980.68 256.16,994.15 " fill="none" id="Gadget-Association" style="stroke:#181818;stroke-width:1.0;"/><text fill="#000000" font-family="sans-serif" font-size="13" lengthAdjust="spacing" textLength="66.469" x="227.24" y="926.277">Asscotiates</text><path d="M299.709,901.4 L299.709,942.4 L594.709,942.4 L594.709,911.4 L584.709,901.4 L299.709,901.4 " fill="#FEFFDD" style="stroke:#181818;stroke-width:0.5;"/><path d="M584.709,901.4 L584.709,911.4 L594.709,911.4 L584.709,901.4 " fill="#FEFFDD" style="stroke:#181818;stroke-width:0.5;"/><text fill="#000000" font-family="sans-serif" font-size="13" lengthAdjust="spacing" textLength="267.0073" x="305.709" y="918.477">A Gadget : Association = 1 : 1 occurs when an</text><text fill="#000000" font-family="sans-serif" font-size="13" lengthAdjust="spacing" textLength="274.5863" x="305.709" y="934.077">Association connects back to the same Gadget.</text><text fill="#000000" font-family="sans-serif" font-size="13" lengthAdjust="spacing" textLength="25.298" x="219.1712" y="886.5594">1...2</text><text fill="#000000" font-family="sans-serif" font-size="13" lengthAdjust="spacing" textLength="5.057" x="243.3307" y="983.1747">*</text></g><!--link UMLProject to Submodule--><g id="link_UMLProject_Submodule"><path codeLine="111" d="M732.32,383.25 C693.91,390.42 640.3,407.26 614.24,446.6 C595.39,475.04 597.34,514 603.34,544.37 " fill="none" id="UMLProject-Submodule" style="stroke:#181818;stroke-width:1.0;"/><text fill="#000000" font-family="sans-serif" font-size="13" lengthAdjust="spacing" textLength="36.842" x="741.7221" y="459.677">knows</text><path d="M619.24,469.2 L619.24,510.2 L900.24,510.2 L900.24,479.2 L890.24,469.2 L619.24,469.2 " fill="#FEFFDD" style="stroke:#181818;stroke-width:0.5;"/><path d="M890.24,469.2 L890.24,479.2 L900.24,479.2 L890.24,469.2 " fill="#FEFFDD" style="stroke:#181818;stroke-width:0.5;"/><text fill="#000000" font-family="sans-serif" font-size="13" lengthAdjust="spacing" textLength="260.8063" x="625.24" y="486.277">This enables UMLProject import Submodules</text><text fill="#000000" font-family="sans-serif" font-size="13" lengthAdjust="spacing" textLength="202.2932" x="628.854" y="501.877">to UMLDiagrams under the project.</text><text fill="#000000" font-family="sans-serif" font-size="13" lengthAdjust="spacing" textLength="7.228" x="717.4848" y="397.6541">1</text><text fill="#000000" font-family="sans-serif" font-size="13" lengthAdjust="spacing" textLength="5.057" x="595.8337" y="532.9593">*</text></g><!--link User to Session--><g id="link_User_Session"><path codeLine="117" d="M1073.32,68.75 C1067.18,78.02 1061.41,88.65 1058.24,99.4 C1053.61,115.05 1057.48,131.59 1064.33,146.36 " fill="none" id="User-Session" style="stroke:#181818;stroke-width:1.0;"/><text fill="#000000" font-family="sans-serif" font-size="13" lengthAdjust="spacing" textLength="31.07" x="1059.24" y="112.477">hosts</text><text fill="#000000" font-family="sans-serif" font-size="13" lengthAdjust="spacing" textLength="7.228" x="1058.6411" y="72.3942">1</text><text fill="#000000" font-family="sans-serif" font-size="13" lengthAdjust="spacing" textLength="7.228" x="1051.6192" y="134.9784">1</text></g><!--link User to Session--><g id="link_User_Session"><path codeLine="118" d="M1097.43,69.67 C1097.58,91.43 1097.77,121.15 1097.93,146 " fill="none" id="User-Session-1" style="stroke:#181818;stroke-width:1.0;"/><text fill="#000000" font-family="sans-serif" font-size="13" lengthAdjust="spacing" textLength="26.728" x="1098.74" y="112.477">joins</text><text fill="#000000" font-family="sans-serif" font-size="13" lengthAdjust="spacing" textLength="5.057" x="1091.9814" y="89.4783">*</text><text fill="#000000" font-family="sans-serif" font-size="13" lengthAdjust="spacing" textLength="7.228" x="1090.3873" y="134.9108">1</text></g><!--link Session to UMLProject--><g id="link_Session_UMLProject"><path codeLine="119" d="M1062.66,197.01 C1007.35,201.24 899.97,216.62 831.24,272.4 C810.84,288.96 797.03,315.13 788.35,337.03 " fill="none" id="Session-UMLProject" style="stroke:#181818;stroke-width:1.0;"/><text fill="#000000" font-family="sans-serif" font-size="13" lengthAdjust="spacing" textLength="66.4821" x="832.24" y="294.477">connects to</text><path d="M904.7221,277.4 L904.7221,302.4 L1066.7221,302.4 L1066.7221,287.4 L1056.7221,277.4 L904.7221,277.4 " fill="#FEFFDD" style="stroke:#181818;stroke-width:0.5;"/><path d="M1056.7221,277.4 L1056.7221,287.4 L1066.7221,287.4 L1056.7221,277.4 " fill="#FEFFDD" style="stroke:#181818;stroke-width:0.5;"/><text fill="#000000" font-family="sans-serif" font-size="13" lengthAdjust="spacing" textLength="141.6221" x="910.7221" y="294.477">A Session binds a Projet</text><text fill="#000000" font-family="sans-serif" font-size="13" lengthAdjust="spacing" textLength="7.228" x="1047.6235" y="193.1404">1</text><text fill="#000000" font-family="sans-serif" font-size="13" lengthAdjust="spacing" textLength="7.228" x="782.8493" y="325.9997">1</text></g><!--link Session to Chatroom--><g id="link_Session_Chatroom"><path codeLine="123" d="M1133.83,240.04 C1164.32,278.27 1206.61,331.32 1228.26,358.47 " fill="none" id="Session-Chatroom" style="stroke:#181818;stroke-width:1.0;"/><text fill="#000000" font-family="sans-serif" font-size="13" lengthAdjust="spacing" textLength="48.412" x="1188.37" y="294.477">contains</text><text fill="#000000" font-family="sans-serif" font-size="13" lengthAdjust="spacing" textLength="7.228" x="1141.3035" y="244.4447">1</text><text fill="#000000" font-family="sans-serif" font-size="13" lengthAdjust="spacing" textLength="7.228" x="1215.5076" y="347.024">1</text></g><!--link Chatroom to Message--><g id="link_Chatroom_Message"><path codeLine="124" d="M1251.21,395.73 C1257.88,409.39 1266.9,428.88 1273.24,446.6 C1284.7,478.63 1294.61,515.69 1301.57,544.32 " fill="none" id="Chatroom-Message" style="stroke:#181818;stroke-width:1.0;"/><text fill="#000000" font-family="sans-serif" font-size="13" lengthAdjust="spacing" textLength="48.412" x="1294.68" y="485.177">contains</text><text fill="#000000" font-family="sans-serif" font-size="13" lengthAdjust="spacing" textLength="7.228" x="1245.8503" y="415.6002">1</text><text fill="#000000" font-family="sans-serif" font-size="13" lengthAdjust="spacing" textLength="5.057" x="1294.6407" y="533.2484">*</text></g><!--link User to Message--><g id="link_User_Message"><path codeLine="125" d="M1120.85,63.61 C1176.25,123 1312.82,282.25 1351.24,446.6 C1358.12,476.03 1358.26,485.21 1351.24,514.6 C1348.84,524.66 1344.89,534.89 1340.42,544.47 " fill="none" id="User-Message" style="stroke:#181818;stroke-width:1.0;"/><text fill="#000000" font-family="sans-serif" font-size="13" lengthAdjust="spacing" textLength="34.684" x="1298" y="294.477">sends</text><text fill="#000000" font-family="sans-serif" font-size="13" lengthAdjust="spacing" textLength="7.228" x="1128.848" y="66.0362">1</text><text fill="#000000" font-family="sans-serif" font-size="13" lengthAdjust="spacing" textLength="5.057" x="1339.3576" y="533.0746">*</text></g><!--link TextStyle to Attribute--><g id="link_TextStyle_Attribute"><path codeLine="126" d="M66.57,1090.58 C71.68,1106.5 78.71,1123.29 88.24,1137.2 C101.23,1156.17 120.89,1172.75 137.82,1184.86 " fill="none" id="TextStyle-Attribute" style="stroke:#181818;stroke-width:1.0;"/><text fill="#000000" font-family="sans-serif" font-size="13" lengthAdjust="spacing" textLength="55.6271" x="89.24" y="1133.277">describes</text><text fill="#000000" font-family="sans-serif" font-size="13" lengthAdjust="spacing" textLength="7.228" x="60.6045" y="1110.1241">1</text><text fill="#000000" font-family="sans-serif" font-size="13" lengthAdjust="spacing" textLength="7.228" x="122.7691" y="1175.5627">1</text></g><!--link UMLProject to Timer--><g id="link_UMLProject_Timer"><path codeLine="127" d="M820.12,390.17 C849.5,400.52 886.78,418.32 909.24,446.6 C964.53,516.25 917.92,561.33 958.24,640.6 C988.4,699.91 1042.75,756.82 1074.12,786.9 " fill="none" id="UMLProject-Timer" style="stroke:#181818;stroke-width:1.0;"/><text fill="#000000" font-family="sans-serif" font-size="13" lengthAdjust="spacing" textLength="42.6271" x="994.332" y="579.177">inqures</text><path d="M963.24,588.7 L963.24,613.7 L1067.24,613.7 L1067.24,598.7 L1057.24,588.7 L963.24,588.7 " fill="#FEFFDD" style="stroke:#181818;stroke-width:0.5;"/><path d="M1057.24,588.7 L1057.24,598.7 L1067.24,598.7 L1057.24,588.7 " fill="#FEFFDD" style="stroke:#181818;stroke-width:0.5;"/><text fill="#000000" font-family="sans-serif" font-size="13" lengthAdjust="spacing" textLength="83.8111" x="969.24" y="605.777">For auto-save.</text><text fill="#000000" font-family="sans-serif" font-size="13" lengthAdjust="spacing" textLength="7.228" x="827.6892" y="388.1985">1</text><text fill="#000000" font-family="sans-serif" font-size="13" lengthAdjust="spacing" textLength="7.228" x="1059.7297" y="775.8339">1</text></g><!--link Session to Timer--><g id="link_Session_Timer"><path codeLine="131" d="M1096.53,242.62 C1094.79,293.1 1092.23,375.49 1091.24,446.6 C1089.44,575.59 1095.01,730.38 1097.3,786.94 " fill="none" id="Session-Timer" style="stroke:#181818;stroke-width:1.0;"/><text fill="#000000" font-family="sans-serif" font-size="13" lengthAdjust="spacing" textLength="42.6271" x="1156.959" y="467.177">inqures</text><path d="M1096.24,476.7 L1096.24,501.7 L1260.24,501.7 L1260.24,486.7 L1250.24,476.7 L1096.24,476.7 " fill="#FEFFDD" style="stroke:#181818;stroke-width:0.5;"/><path d="M1250.24,476.7 L1250.24,486.7 L1260.24,486.7 L1250.24,476.7 " fill="#FEFFDD" style="stroke:#181818;stroke-width:0.5;"/><text fill="#000000" font-family="sans-serif" font-size="13" lengthAdjust="spacing" textLength="143.0652" x="1102.24" y="493.777">For conneection timeout.</text><text fill="#000000" font-family="sans-serif" font-size="13" lengthAdjust="spacing" textLength="7.228" x="1088.8135" y="262.5748">1</text><text fill="#000000" font-family="sans-serif" font-size="13" lengthAdjust="spacing" textLength="7.228" x="1089.0853" y="775.5064">1</text></g><!--link Message to Timer--><g id="link_Message_Timer"><path codeLine="135" d="M1273.48,632.61 C1228.68,677.71 1156.47,750.39 1120.33,786.76 " fill="none" id="Message-Timer" style="stroke:#181818;stroke-width:1.0;"/><text fill="#000000" font-family="sans-serif" font-size="13" lengthAdjust="spacing" textLength="42.6271" x="1312.6691" y="683.677">inqures</text><path d="M1235.7,693.2 L1235.7,718.2 L1431.7,718.2 L1431.7,703.2 L1421.7,693.2 L1235.7,693.2 " fill="#FEFFDD" style="stroke:#181818;stroke-width:0.5;"/><path d="M1421.7,693.2 L1421.7,703.2 L1431.7,703.2 L1421.7,693.2 " fill="#FEFFDD" style="stroke:#181818;stroke-width:0.5;"/><text fill="#000000" font-family="sans-serif" font-size="13" lengthAdjust="spacing" textLength="175.5652" x="1241.7" y="710.277">For message-sending timeout.</text><text fill="#000000" font-family="sans-serif" font-size="13" lengthAdjust="spacing" textLength="7.228" x="1258.7105" y="635.7364">1</text><text fill="#000000" font-family="sans-serif" font-size="13" lengthAdjust="spacing" textLength="7.228" x="1118.3586" y="775.6563">1</text></g><!--link Verifier to UMLDiagram--><g id="link_Verifier_UMLDiagram"><path codeLine="139" d="M160.36,408.61 C155.4,437 151.57,479.96 164.24,514.6 C168.08,525.12 174.07,535.19 180.88,544.38 " fill="none" id="Verifier-UMLDiagram" style="stroke:#181818;stroke-width:1.0;"/><text fill="#000000" font-family="sans-serif" font-size="13" lengthAdjust="spacing" textLength="40.456" x="165.24" y="485.177">checks</text><text fill="#000000" font-family="sans-serif" font-size="13" lengthAdjust="spacing" textLength="7.228" x="151.4033" y="428.1996">1</text><text fill="#000000" font-family="sans-serif" font-size="13" lengthAdjust="spacing" textLength="7.228" x="165.9569" y="532.9709">1</text></g><!--SRC=[xLRTRzCm47_FNt7Q2nzI8peX1f6GW6sW3IeGxVRkEcvZcjZ5lXG6ud_dx3I9qwMiJF2Ml2Hsxdvtle-VBvEf02uDpqNq87EBGc2cq-s28HevBx7-cKkrYg88wD7pBu8ZN5bXuAVVSOzCcq_52k4NlxeAam-VZFQVVrPpJyuidgSI-t7E95iQLWGu2vcB3W3UhDl5dF7LKfSgFTMvDlkCU2Sq2Z1ocM4ZTSvu5XgL5XYarIBsKaAbNh7ZvZkMBiMUetQSunsVrjfAb5er6pykL2g-zyJXjRMQI-Q4_wELQJalT5hcue2alMwAve0qJeMrUrtFj6qJO94PdCd04ErWQNj0JpE6HcjN6Jr_9sIIBVUSn58MXGdYfL2erWaa-sIsMFTbeZvtF_8kL2VuNQIP-8vJlEb4Uw43NRUmyaSR2cdVw3mDbXV8SidRI39xvGv63TpNb2wiOHj_ouIQQRUhooPheSArC78XEpgTEkkcnhyzKnoDZs0qWgF7Ho4H950mHIcf588VNV6wzRhYRQy2rP5dgAOIdTOMYZFbeW15cQCCq6pSY5-M5WbW9I2skGBK46_uclJx-Zlm9_1os-w9oxQL5YteXHTl6-ZUqc6dtrRPOeNoJJrwQMHILH4BWGvIQB3ZE3xUum-jk4PQ7fAMvk0XnaiOqyuODEUbiRu6WRNS58gITugIQZsbkqHX9i0I2MsHTnAsKrNXcTj89x1I-blW_5mZ4eViUZ_BYFhfbfddmeQeibXh4p2bRJISWq71GUawqRkyhdHxwoji5thLH9buLhIjZ3_6BQ4lkavUlHTWTLglYINgknDNWysbIjq5w67mThHxZ3Qal5DSpNwGbPgYTqHtAQGLSxHToRJS6TWEApiLbjDYFzdGg-B31AJwMXfnTqsyrGPOYNfasKR41uNZRqtKPdowo5q7XnL1znYi8_CF31OLrCY5MAhb7umsbqAtr5hQvfdWAqltGVIA5B4iyYZAWWbqc2o7oNAOB8V9SfWiXyboc2o7oNAOB8V9ylwJvQUSAIGfs0ZZOpIEZvySFurF7awP6m_MyEG4nY-IyVDaV0Adqncutu-YXvEB6LXT6Yve3BDLVad_KNJ9DWm-byevci37jL2NP-_h3JXN6scqAjnLV7azQGMUFHszaSwY8K_WUXATYGMZou8qk7OdJ-1gzdRqFFh0rBAaY2Hq-kYKvaaqD_Hl-Xi0]--></g></svg>
