<svg xmlns="http://www.w3.org/2000/svg" xmlns:xlink="http://www.w3.org/1999/xlink" contentStyleType="text/css" height="699.2px" preserveAspectRatio="none" style="width:680px;height:699px;background:#FFFFFF;" version="1.1" viewBox="0 0 680 699" width="680.8px" zoomAndPan="magnify"><defs/><g><rect fill="#FFFFFF" height="541.2547" style="stroke:#181818;stroke-width:0.8000000000000002;" width="8" x="211.1848" y="93.4594"/><rect fill="#FFFFFF" height="33.8328" style="stroke:#181818;stroke-width:0.8000000000000002;" width="8" x="215.1848" y="154.725"/><rect fill="#FFFFFF" height="93.4984" style="stroke:#181818;stroke-width:0.8000000000000002;" width="8" x="215.1848" y="285.2563"/><rect fill="#FFFFFF" height="25.0328" style="stroke:#181818;stroke-width:0.8000000000000002;" width="8" x="594.3324" y="524.9828"/><rect fill="#FFFFFF" height="244.7594" style="stroke:#000000;stroke-width:1.2000000000000002;" width="660.1594" x="16" y="396.3547"/><line style="stroke:#181818;stroke-width:0.4000000000000001;stroke-dasharray:5.0,5.0;" x1="36" x2="36" y1="45.7938" y2="654.7141"/><line style="stroke:#181818;stroke-width:0.4000000000000001;stroke-dasharray:5.0,5.0;" x1="214.7766" x2="214.7766" y1="45.7938" y2="654.7141"/><line style="stroke:#181818;stroke-width:0.4000000000000001;stroke-dasharray:5.0,5.0;" x1="485.3977" x2="485.3977" y1="437.2359" y2="654.7141"/><line style="stroke:#181818;stroke-width:0.4000000000000001;stroke-dasharray:5.0,5.0;" x1="598.1422" x2="598.1422" y1="45.7938" y2="654.7141"/><rect fill="#E2E2F0" height="26.0969" rx="2" ry="2" style="stroke:#181818;stroke-width:0.4000000000000001;" width="25.5117" x="24" y="18.8969"/><text fill="#000000" font-family="sans-serif" font-size="11.2" lengthAdjust="spacing" textLength="14.3117" x="29.6" y="36.5828">:UI</text><rect fill="#E2E2F0" height="26.0969" rx="2" ry="2" style="stroke:#181818;stroke-width:0.4000000000000001;" width="25.5117" x="24" y="653.9141"/><text fill="#000000" font-family="sans-serif" font-size="11.2" lengthAdjust="spacing" textLength="14.3117" x="29.6" y="671.6">:UI</text><rect fill="#E2E2F0" height="26.0969" rx="2" ry="2" style="stroke:#181818;stroke-width:0.4000000000000001;" width="72.8164" x="178.7766" y="18.8969"/><text fill="#000000" font-family="sans-serif" font-size="11.2" lengthAdjust="spacing" textLength="61.6164" x="184.3766" y="36.5828">:UMLProject</text><rect fill="#E2E2F0" height="26.0969" rx="2" ry="2" style="stroke:#181818;stroke-width:0.4000000000000001;" width="72.8164" x="178.7766" y="653.9141"/><text fill="#000000" font-family="sans-serif" font-size="11.2" lengthAdjust="spacing" textLength="61.6164" x="184.3766" y="671.6">:UMLProject</text><rect fill="#E2E2F0" height="26.0969" rx="2" ry="2" style="stroke:#181818;stroke-width:0.4000000000000001;" width="120.7445" x="425.3977" y="653.9141"/><text fill="#000000" font-family="sans-serif" font-size="11.2" lengthAdjust="spacing" textLength="109.5445" x="430.9977" y="671.6">diagram:UMLDiagram</text><rect fill="#E2E2F0" height="40.9938" rx="2" ry="2" style="stroke:#181818;stroke-width:0.4000000000000001;" width="88.3805" x="554.1422" y="4"/><text fill="#000000" font-family="sans-serif" font-size="11.2" lengthAdjust="spacing" textLength="77.1805" x="559.7422" y="21.6859">activeDiagrams</text><text fill="#000000" font-family="sans-serif" font-size="11.2" lengthAdjust="spacing" textLength="75.3047" x="560.6801" y="36.5828">:[]UMLDiagram</text><rect fill="#E2E2F0" height="40.9938" rx="2" ry="2" style="stroke:#181818;stroke-width:0.4000000000000001;" width="88.3805" x="554.1422" y="653.9141"/><text fill="#000000" font-family="sans-serif" font-size="11.2" lengthAdjust="spacing" textLength="77.1805" x="559.7422" y="671.6">activeDiagrams</text><text fill="#000000" font-family="sans-serif" font-size="11.2" lengthAdjust="spacing" textLength="75.3047" x="560.6801" y="686.4969">:[]UMLDiagram</text><rect fill="#FFFFFF" height="541.2547" style="stroke:#181818;stroke-width:0.8000000000000002;" width="8" x="211.1848" y="93.4594"/><rect fill="#FFFFFF" height="33.8328" style="stroke:#181818;stroke-width:0.8000000000000002;" width="8" x="215.1848" y="154.725"/><rect fill="#FFFFFF" height="93.4984" style="stroke:#181818;stroke-width:0.8000000000000002;" width="8" x="215.1848" y="285.2563"/><rect fill="#FFFFFF" height="25.0328" style="stroke:#181818;stroke-width:0.8000000000000002;" width="8" x="594.3324" y="524.9828"/><polygon fill="#181818" points="201.5848,90.2594,209.5848,93.4594,201.5848,96.6594,204.7848,93.4594" style="stroke:#181818;stroke-width:0.8000000000000002;"/><line style="stroke:#181818;stroke-width:0.8000000000000002;" x1="36.7559" x2="206.3848" y1="93.4594" y2="93.4594"/><text fill="#000000" font-family="sans-serif" font-size="10.4" font-weight="bold" lengthAdjust="spacing" textLength="5.784" x="42.3559" y="89.2492">1</text><text fill="#000000" font-family="sans-serif" font-size="10.4" lengthAdjust="spacing" textLength="62.4305" x="51.3398" y="89.2492">openProject()</text><path d="M40,103.8594 L40,125.4594 L115.2,125.4594 L115.2,111.8594 L107.2,103.8594 L40,103.8594 " fill="#FF0000" style="stroke:#181818;stroke-width:0.4000000000000001;"/><path d="M107.2,103.8594 L107.2,111.8594 L115.2,111.8594 L107.2,103.8594 " fill="#FF0000" style="stroke:#181818;stroke-width:0.4000000000000001;"/><text fill="#000000" font-family="sans-serif" font-size="10.4" lengthAdjust="spacing" textLength="58.957" x="44.8" y="119.082">by Controller</text><line style="stroke:#181818;stroke-width:0.8000000000000002;" x1="219.1848" x2="256.7848" y1="144.325" y2="144.325"/><line style="stroke:#181818;stroke-width:0.8000000000000002;" x1="256.7848" x2="256.7848" y1="144.325" y2="154.725"/><line style="stroke:#181818;stroke-width:0.8000000000000002;" x1="223.9848" x2="256.7848" y1="154.725" y2="154.725"/><polygon fill="#181818" points="231.9848,151.525,223.9848,154.725,231.9848,157.925,228.7848,154.725" style="stroke:#181818;stroke-width:0.8000000000000002;"/><text fill="#000000" font-family="sans-serif" font-size="10.4" font-weight="bold" lengthAdjust="spacing" textLength="5.784" x="228.7848" y="140.1148">2</text><text fill="#000000" font-family="sans-serif" font-size="10.4" lengthAdjust="spacing" textLength="165.0188" x="237.7688" y="140.1148">diagrams = GetAvailableDiagrams()</text><line style="stroke:#181818;stroke-width:0.8000000000000002;stroke-dasharray:2.0,2.0;" x1="223.1848" x2="256.7848" y1="187.7578" y2="187.7578"/><line style="stroke:#181818;stroke-width:0.8000000000000002;stroke-dasharray:2.0,2.0;" x1="256.7848" x2="256.7848" y1="187.7578" y2="198.1578"/><line style="stroke:#181818;stroke-width:0.8000000000000002;stroke-dasharray:2.0,2.0;" x1="219.1848" x2="256.7848" y1="198.1578" y2="198.1578"/><polygon fill="#181818" points="227.1848,194.9578,219.1848,198.1578,227.1848,201.3578,223.9848,198.1578" style="stroke:#181818;stroke-width:0.8000000000000002;"/><text fill="#000000" font-family="sans-serif" font-size="10.4" font-weight="bold" lengthAdjust="spacing" textLength="5.784" x="228.7848" y="183.5477">3</text><text fill="#000000" font-family="sans-serif" font-size="10.4" lengthAdjust="spacing" textLength="2.8895" x="237.7688" y="183.5477">&#160;</text><path d="M222.4,204.5578 L222.4,226.1578 L424,226.1578 L424,212.5578 L416,204.5578 L222.4,204.5578 " fill="#FF0000" style="stroke:#181818;stroke-width:0.4000000000000001;"/><path d="M416,204.5578 L416,212.5578 L424,212.5578 L416,204.5578 " fill="#FF0000" style="stroke:#181818;stroke-width:0.4000000000000001;"/><text fill="#000000" font-family="sans-serif" font-size="10.4" lengthAdjust="spacing" textLength="185.5445" x="227.2" y="219.7805">by Expert (UI want to know the diagram)</text><path d="M222.4,234.3906 L222.4,255.9906 L540.8,255.9906 L540.8,242.3906 L532.8,234.3906 L222.4,234.3906 " fill="#FEFFDD" style="stroke:#181818;stroke-width:0.4000000000000001;"/><path d="M532.8,234.3906 L532.8,242.3906 L540.8,242.3906 L532.8,234.3906 " fill="#FEFFDD" style="stroke:#181818;stroke-width:0.4000000000000001;"/><text fill="#000000" font-family="sans-serif" font-size="10.4" lengthAdjust="spacing" textLength="302.3059" x="227.2" y="249.6133">GetAvailableDiagrams() returns names of diagrams in the project.</text><line style="stroke:#181818;stroke-width:0.8000000000000002;" x1="219.1848" x2="256.7848" y1="274.8563" y2="274.8563"/><line style="stroke:#181818;stroke-width:0.8000000000000002;" x1="256.7848" x2="256.7848" y1="274.8563" y2="285.2563"/><line style="stroke:#181818;stroke-width:0.8000000000000002;" x1="223.9848" x2="256.7848" y1="285.2563" y2="285.2563"/><polygon fill="#181818" points="231.9848,282.0563,223.9848,285.2563,231.9848,288.4563,228.7848,285.2563" style="stroke:#181818;stroke-width:0.8000000000000002;"/><text fill="#000000" font-family="sans-serif" font-size="10.4" font-weight="bold" lengthAdjust="spacing" textLength="5.784" x="228.7848" y="270.6461">4</text><text fill="#000000" font-family="sans-serif" font-size="10.4" lengthAdjust="spacing" textLength="234.4012" x="237.7688" y="270.6461">lastOpenedDiagrams = GetLastOpenedDiagrams()</text><path d="M226.4,299.6563 L226.4,321.2563 L488.8,321.2563 L488.8,307.6563 L480.8,299.6563 L226.4,299.6563 " fill="#FF0000" style="stroke:#181818;stroke-width:0.4000000000000001;"/><path d="M480.8,299.6563 L480.8,307.6563 L488.8,307.6563 L480.8,299.6563 " fill="#FF0000" style="stroke:#181818;stroke-width:0.4000000000000001;"/><text fill="#000000" font-family="sans-serif" font-size="10.4" lengthAdjust="spacing" textLength="245.6645" x="231.2" y="314.8789">by Expert (UI want to know the lastOpenedDiagrams)</text><path d="M226.4,329.4891 L226.4,351.0891 L619.2,351.0891 L619.2,337.4891 L611.2,329.4891 L226.4,329.4891 " fill="#FEFFDD" style="stroke:#181818;stroke-width:0.4000000000000001;"/><path d="M611.2,329.4891 L611.2,337.4891 L619.2,337.4891 L611.2,329.4891 " fill="#FEFFDD" style="stroke:#181818;stroke-width:0.4000000000000001;"/><text fill="#000000" font-family="sans-serif" font-size="10.4" lengthAdjust="spacing" textLength="376.3145" x="231.2" y="344.7117">GetLastOpenedDiagrams() returns names of diagrams that were opened last time</text><line style="stroke:#181818;stroke-width:0.8000000000000002;stroke-dasharray:2.0,2.0;" x1="223.1848" x2="256.7848" y1="377.9547" y2="377.9547"/><line style="stroke:#181818;stroke-width:0.8000000000000002;stroke-dasharray:2.0,2.0;" x1="256.7848" x2="256.7848" y1="377.9547" y2="388.3547"/><line style="stroke:#181818;stroke-width:0.8000000000000002;stroke-dasharray:2.0,2.0;" x1="219.1848" x2="256.7848" y1="388.3547" y2="388.3547"/><polygon fill="#181818" points="227.1848,385.1547,219.1848,388.3547,227.1848,391.5547,223.9848,388.3547" style="stroke:#181818;stroke-width:0.8000000000000002;"/><text fill="#000000" font-family="sans-serif" font-size="10.4" font-weight="bold" lengthAdjust="spacing" textLength="5.784" x="228.7848" y="373.7445">5</text><text fill="#000000" font-family="sans-serif" font-size="10.4" lengthAdjust="spacing" textLength="2.8895" x="237.7688" y="373.7445">&#160;</text><path d="M16,396.3547 L73.9477,396.3547 L73.9477,403.7875 L65.9477,411.7875 L16,411.7875 L16,396.3547 " fill="#FFD700" style="stroke:#000000;stroke-width:1.2000000000000002;"/><rect fill="none" height="244.7594" style="stroke:#000000;stroke-width:1.2000000000000002;" width="660.1594" x="16" y="396.3547"/><text fill="#000000" font-family="sans-serif" font-size="10.4" font-weight="bold" lengthAdjust="spacing" textLength="21.9477" x="28" y="408.3773">loop</text><text fill="#000000" font-family="sans-serif" font-size="8.8" font-weight="bold" lengthAdjust="spacing" textLength="164.8023" x="85.9477" y="407.4508">[diagramName in lastOpenedDiagrams]</text><polygon fill="#181818" points="415.7977,427.2203,423.7977,430.4203,415.7977,433.6203,418.9977,430.4203" style="stroke:#181818;stroke-width:0.8000000000000002;"/><line style="stroke:#181818;stroke-width:0.8000000000000002;stroke-dasharray:2.0,2.0;" x1="219.1848" x2="420.5977" y1="430.4203" y2="430.4203"/><text fill="#000000" font-family="sans-serif" font-size="10.4" font-weight="bold" lengthAdjust="spacing" textLength="5.784" x="224.7848" y="426.2102">6</text><text fill="#000000" font-family="sans-serif" font-size="10.4" lengthAdjust="spacing" textLength="140.4457" x="233.7688" y="426.2102">createDiagram(diagramName)</text><rect fill="#E2E2F0" height="26.0969" rx="2" ry="2" style="stroke:#181818;stroke-width:0.4000000000000001;" width="120.7445" x="425.3977" y="411.7875"/><text fill="#000000" font-family="sans-serif" font-size="11.2" lengthAdjust="spacing" textLength="109.5445" x="430.9977" y="429.4734">diagram:UMLDiagram</text><path d="M222.4,450.6844 L222.4,472.2844 L287.2,472.2844 L287.2,458.6844 L279.2,450.6844 L222.4,450.6844 " fill="#FF0000" style="stroke:#181818;stroke-width:0.4000000000000001;"/><path d="M279.2,450.6844 L279.2,458.6844 L287.2,458.6844 L279.2,450.6844 " fill="#FF0000" style="stroke:#181818;stroke-width:0.4000000000000001;"/><text fill="#000000" font-family="sans-serif" font-size="10.4" lengthAdjust="spacing" textLength="48.552" x="227.2" y="465.907">by Creator</text><path d="M222.4,480.5172 L222.4,502.1172 L668,502.1172 L668,488.5172 L660,480.5172 L222.4,480.5172 " fill="#FEFFDD" style="stroke:#181818;stroke-width:0.4000000000000001;"/><path d="M660,480.5172 L660,488.5172 L668,488.5172 L660,480.5172 " fill="#FEFFDD" style="stroke:#181818;stroke-width:0.4000000000000001;"/><text fill="#000000" font-family="sans-serif" font-size="10.4" lengthAdjust="spacing" textLength="428.9594" x="227.2" y="495.7398">createDiagram(path) creates a new instance of the diagram and load the diagram info at path</text><polygon fill="#181818" points="584.7324,521.7828,592.7324,524.9828,584.7324,528.1828,587.9324,524.9828" style="stroke:#181818;stroke-width:0.8000000000000002;"/><line style="stroke:#181818;stroke-width:0.8000000000000002;" x1="219.1848" x2="589.5324" y1="524.9828" y2="524.9828"/><text fill="#000000" font-family="sans-serif" font-size="10.4" font-weight="bold" lengthAdjust="spacing" textLength="5.784" x="224.7848" y="520.7727">7</text><text fill="#000000" font-family="sans-serif" font-size="10.4" lengthAdjust="spacing" textLength="79.2035" x="233.7688" y="520.7727">append(diagram)</text><polygon fill="#181818" points="227.9848,546.8156,219.9848,550.0156,227.9848,553.2156,224.7848,550.0156" style="stroke:#181818;stroke-width:0.8000000000000002;"/><line style="stroke:#181818;stroke-width:0.8000000000000002;stroke-dasharray:2.0,2.0;" x1="223.1848" x2="597.5324" y1="550.0156" y2="550.0156"/><text fill="#000000" font-family="sans-serif" font-size="10.4" font-weight="bold" lengthAdjust="spacing" textLength="5.784" x="232.7848" y="545.8055">8</text><text fill="#000000" font-family="sans-serif" font-size="10.4" lengthAdjust="spacing" textLength="2.8895" x="241.7688" y="545.8055">&#160;</text><path d="M222.4,560.4156 L222.4,582.0156 L365.6,582.0156 L365.6,568.4156 L357.6,560.4156 L222.4,560.4156 " fill="#FEFFDD" style="stroke:#181818;stroke-width:0.4000000000000001;"/><path d="M357.6,560.4156 L357.6,568.4156 L365.6,568.4156 L357.6,560.4156 " fill="#FEFFDD" style="stroke:#181818;stroke-width:0.4000000000000001;"/><text fill="#000000" font-family="sans-serif" font-size="10.4" lengthAdjust="spacing" textLength="126.618" x="227.2" y="575.6383">append is a built-in function</text><path d="M222.4,590.2484 L222.4,611.8484 L541.6,611.8484 L541.6,598.2484 L533.6,590.2484 L222.4,590.2484 " fill="#FEFFDD" style="stroke:#181818;stroke-width:0.4000000000000001;"/><path d="M533.6,590.2484 L533.6,598.2484 L541.6,598.2484 L533.6,590.2484 " fill="#FEFFDD" style="stroke:#181818;stroke-width:0.4000000000000001;"/><text fill="#000000" font-family="sans-serif" font-size="10.4" lengthAdjust="spacing" textLength="302.9457" x="227.2" y="605.4711">we only load and maintain the diagrams that were opened as tabs</text><polygon fill="#181818" points="45.5559,631.5141,37.5559,634.7141,45.5559,637.9141,42.3559,634.7141" style="stroke:#181818;stroke-width:0.8000000000000002;"/><line style="stroke:#181818;stroke-width:0.8000000000000002;stroke-dasharray:2.0,2.0;" x1="40.7559" x2="214.3848" y1="634.7141" y2="634.7141"/><text fill="#000000" font-family="sans-serif" font-size="10.4" font-weight="bold" lengthAdjust="spacing" textLength="5.784" x="50.3559" y="630.5039">9</text><text fill="#000000" font-family="sans-serif" font-size="10.4" lengthAdjust="spacing" textLength="146.2449" x="59.3398" y="630.5039">lastOpenedDiagrams, diagrams</text><!--SRC=[hPJFRgGm3CRlF8KrSu6gtGT0QgLLkwegTVzSUchtOC0pf0qn2gPitxu9P5deC1qEEuSvEF7tsR_OO2jisYeZ6-qjj_Lspxg0RLSg8U2Qp2_BpvHB1Ew7xZBcebxH7ve-LgCLbQiQZS0cVRZRB4M_tmUPuRJ_wo_3nTNyF9sQnab_qx2pisfV2l0kv6qj5IbaRt3DHYnhxHe8gl_45jGBXNkBLGENS4lozHMLnapJJGW7HqlIMhDiFf4VY_ZsfoOh43_SGUTR5eONmnr8INyTarDgwP62GZ4D6AoeyMbZ3yhq3lMWy2LQHK1Z8pyTOofkPYpk3-9nydy873gkWx5KqISqf4I1ZkmmjrJqlY2geicRmW19Cyz7FQZySAeUws79VTe2Nmyu9Fk3S7q3PsUGGcx9hKg8nHEFP9HRHVVQwx1Ta_JHj4Ofan1h0C5Gvnfi14rEFdaoee36GMCiPa5bTWoEh1SQ2vZjT_z962VsoQIFloSaZe6xEfMO0jRk2Ofuja4VrlCaZK43bEyzQvMM2_UykzOuQrufqVcFdNuRq7X65IeZ6BRl-FoXYs7MHDFnEnoiyr4XSeM-0m00]--></g></svg>