<svg xmlns="http://www.w3.org/2000/svg" xmlns:xlink="http://www.w3.org/1999/xlink" contentStyleType="text/css" height="307.2px" preserveAspectRatio="none" style="width:431px;height:307px;background:#FFFFFF;" version="1.1" viewBox="0 0 431 307" width="431.2px" zoomAndPan="magnify"><defs/><g><rect fill="#FFFFFF" height="178.8953" style="stroke:#181818;stroke-width:0.8000000000000002;" width="8" x="81.9199" y="78.5625"/><rect fill="#FFFFFF" height="62.0148" style="stroke:#181818;stroke-width:0.8000000000000002;" width="8" x="205.059" y="184.243"/><rect fill="#FFFFFF" height="219.3609" style="stroke:#000000;stroke-width:1.2000000000000002;" width="419.1816" x="8" y="44.4969"/><line style="stroke:#181818;stroke-width:0.4000000000000001;stroke-dasharray:5.0,5.0;" x1="28" x2="28" y1="30.8969" y2="277.4578"/><line style="stroke:#181818;stroke-width:0.4000000000000001;stroke-dasharray:5.0,5.0;" x1="85.5117" x2="85.5117" y1="30.8969" y2="277.4578"/><line style="stroke:#181818;stroke-width:0.4000000000000001;stroke-dasharray:5.0,5.0;" x1="208.7281" x2="208.7281" y1="30.8969" y2="277.4578"/><rect fill="#E2E2F0" height="26.0969" rx="2" ry="2" style="stroke:#181818;stroke-width:0.4000000000000001;" width="25.5117" x="16" y="4"/><text fill="#000000" font-family="sans-serif" font-size="11.2" lengthAdjust="spacing" textLength="14.3117" x="21.6" y="21.6859">:UI</text><rect fill="#E2E2F0" height="26.0969" rx="2" ry="2" style="stroke:#181818;stroke-width:0.4000000000000001;" width="25.5117" x="16" y="276.6578"/><text fill="#000000" font-family="sans-serif" font-size="11.2" lengthAdjust="spacing" textLength="14.3117" x="21.6" y="294.3438">:UI</text><rect fill="#E2E2F0" height="26.0969" rx="2" ry="2" style="stroke:#181818;stroke-width:0.4000000000000001;" width="72.8164" x="49.5117" y="4"/><text fill="#000000" font-family="sans-serif" font-size="11.2" lengthAdjust="spacing" textLength="61.6164" x="55.1117" y="21.6859">:UMLProject</text><rect fill="#E2E2F0" height="26.0969" rx="2" ry="2" style="stroke:#181818;stroke-width:0.4000000000000001;" width="72.8164" x="49.5117" y="276.6578"/><text fill="#000000" font-family="sans-serif" font-size="11.2" lengthAdjust="spacing" textLength="61.6164" x="55.1117" y="294.3438">:UMLProject</text><rect fill="#E2E2F0" height="26.0969" rx="2" ry="2" style="stroke:#181818;stroke-width:0.4000000000000001;" width="157.4617" x="130.3281" y="4"/><text fill="#000000" font-family="sans-serif" font-size="11.2" lengthAdjust="spacing" textLength="146.2617" x="135.9281" y="21.6859">currentDiagram:UMLDiagram</text><rect fill="#E2E2F0" height="26.0969" rx="2" ry="2" style="stroke:#181818;stroke-width:0.4000000000000001;" width="157.4617" x="130.3281" y="276.6578"/><text fill="#000000" font-family="sans-serif" font-size="11.2" lengthAdjust="spacing" textLength="146.2617" x="135.9281" y="294.3438">currentDiagram:UMLDiagram</text><rect fill="#FFFFFF" height="178.8953" style="stroke:#181818;stroke-width:0.8000000000000002;" width="8" x="81.9199" y="78.5625"/><rect fill="#FFFFFF" height="62.0148" style="stroke:#181818;stroke-width:0.8000000000000002;" width="8" x="205.059" y="184.243"/><path d="M8,44.4969 L66.5367,44.4969 L66.5367,51.9297 L58.5367,59.9297 L8,59.9297 L8,44.4969 " fill="#FFD700" style="stroke:#000000;stroke-width:1.2000000000000002;"/><rect fill="none" height="219.3609" style="stroke:#000000;stroke-width:1.2000000000000002;" width="419.1816" x="8" y="44.4969"/><text fill="#000000" font-family="sans-serif" font-size="10.4" font-weight="bold" lengthAdjust="spacing" textLength="22.5367" x="20" y="56.5195">redo</text><polygon fill="#181818" points="72.3199,75.3625,80.3199,78.5625,72.3199,81.7625,75.5199,78.5625" style="stroke:#181818;stroke-width:0.8000000000000002;"/><line style="stroke:#181818;stroke-width:0.8000000000000002;" x1="28.7559" x2="77.1199" y1="78.5625" y2="78.5625"/><text fill="#000000" font-family="sans-serif" font-size="10.4" lengthAdjust="spacing" textLength="27.7418" x="34.3559" y="74.3523">redo()</text><path d="M32,88.9625 L32,110.5625 L107.2,110.5625 L107.2,96.9625 L99.2,88.9625 L32,88.9625 " fill="#FF0000" style="stroke:#181818;stroke-width:0.4000000000000001;"/><path d="M99.2,88.9625 L99.2,96.9625 L107.2,96.9625 L99.2,88.9625 " fill="#FF0000" style="stroke:#181818;stroke-width:0.4000000000000001;"/><text fill="#000000" font-family="sans-serif" font-size="10.4" lengthAdjust="spacing" textLength="58.957" x="36.8" y="104.1852">by Controller</text><polygon fill="#181818" points="195.459,181.043,203.459,184.243,195.459,187.443,198.659,184.243" style="stroke:#181818;stroke-width:0.8000000000000002;"/><line style="stroke:#181818;stroke-width:0.8000000000000002;" x1="89.9199" x2="200.259" y1="184.243" y2="184.243"/><text fill="#000000" font-family="sans-serif" font-size="10.4" lengthAdjust="spacing" textLength="27.7418" x="95.5199" y="180.0328">redo()</text><path d="M216.8,118.7953 L216.8,237.1953 L422.4,237.1953 L422.4,126.7953 L414.4,118.7953 L216.8,118.7953 " fill="#FEFFDD" style="stroke:#181818;stroke-width:0.4000000000000001;"/><path d="M414.4,118.7953 L414.4,126.7953 L422.4,126.7953 L414.4,118.7953 " fill="#FEFFDD" style="stroke:#181818;stroke-width:0.4000000000000001;"/><text fill="#000000" font-family="sans-serif" font-size="10.4" lengthAdjust="spacing" textLength="103.4617" x="221.6" y="134.018">UMLDiagram::undo() {</text><text fill="#000000" font-family="sans-serif" font-size="10.4" lengthAdjust="spacing" textLength="118.7875" x="233.1578" y="147.8508">if (redoDeque.size() &gt; 0) {</text><text fill="#000000" font-family="sans-serif" font-size="10.4" lengthAdjust="spacing" textLength="166.207" x="244.7156" y="161.6836">auto&amp; command = redoDeque.top();</text><text fill="#000000" font-family="sans-serif" font-size="10.4" lengthAdjust="spacing" textLength="140.7402" x="244.7156" y="175.5164">this-&gt;doCommand(command);</text><text fill="#000000" font-family="sans-serif" font-size="10.4" lengthAdjust="spacing" textLength="81.5191" x="244.7156" y="189.3492">redoDeque.pop();</text><text fill="#000000" font-family="sans-serif" font-size="10.4" lengthAdjust="spacing" textLength="134.7023" x="244.7156" y="203.182">undoDeque.push(command);</text><text fill="#000000" font-family="sans-serif" font-size="10.4" lengthAdjust="spacing" textLength="3.4734" x="233.1578" y="217.0148">}</text><text fill="#000000" font-family="sans-serif" font-size="10.4" lengthAdjust="spacing" textLength="3.4734" x="221.6" y="230.8477">}</text><polygon fill="#181818" points="98.7199,243.0578,90.7199,246.2578,98.7199,249.4578,95.5199,246.2578" style="stroke:#181818;stroke-width:0.8000000000000002;"/><line style="stroke:#181818;stroke-width:0.8000000000000002;stroke-dasharray:2.0,2.0;" x1="93.9199" x2="208.259" y1="246.2578" y2="246.2578"/><polygon fill="#181818" points="37.5559,254.2578,29.5559,257.4578,37.5559,260.6578,34.3559,257.4578" style="stroke:#181818;stroke-width:0.8000000000000002;"/><line style="stroke:#181818;stroke-width:0.8000000000000002;stroke-dasharray:2.0,2.0;" x1="32.7559" x2="85.1199" y1="257.4578" y2="257.4578"/><!--SRC=[TP31JiCm38RlUGghbLXt6ECSH2_R1GaaBZn0QBqsg8rBwe00yUx49LgdRlZqo_x-tvQtAuyrhRRA12PJiNqtZ41EDPx2a3VKrP1_j3Os1LGGAzFFznbiIX6F3q-UNh7Y3FH45Ek9SIGEsxGCT4YEFCurl7p2ZXnxwZhq4vioJw8akmhUe-EzDOqtlOoJN6nQR3lsPeFMmGaEtyUXb3r08JbxV0juFTelZ4W9DqjEIhvp1HNrlN4rtC7iOngAzUsPWLixRigQTd-M8bala7FKS3bAZaz06Dj_adxKkS9ugdn6pQiuUATEf22I_mi0]--></g></svg>