<svg xmlns="http://www.w3.org/2000/svg" xmlns:xlink="http://www.w3.org/1999/xlink" contentStyleType="text/css" height="476px" preserveAspectRatio="none" style="width:552px;height:476px;background:#FFFFFF;" version="1.1" viewBox="0 0 552 476" width="552.8px" zoomAndPan="magnify"><defs/><g><rect fill="#FFFFFF" height="347.625" style="stroke:#181818;stroke-width:0.8000000000000002;" width="8" x="191.6488" y="78.5625"/><rect fill="#FFFFFF" height="63.6656" style="stroke:#181818;stroke-width:0.8000000000000002;" width="8" x="195.6488" y="255.4234"/><rect fill="#FFFFFF" height="33.8328" style="stroke:#181818;stroke-width:0.8000000000000002;" width="8" x="195.6488" y="361.7219"/><rect fill="#FFFFFF" height="388.0906" style="stroke:#000000;stroke-width:1.2000000000000002;" width="540.375" x="8" y="44.4969"/><rect fill="#FFFFFF" height="210.6938" style="stroke:#000000;stroke-width:1.2000000000000002;" width="389.1344" x="151.2406" y="120.3953"/><line style="stroke:#181818;stroke-width:0.4000000000000001;stroke-dasharray:5.0,5.0;" x1="28" x2="28" y1="30.8969" y2="446.1875"/><line style="stroke:#181818;stroke-width:0.4000000000000001;stroke-dasharray:5.0,5.0;" x1="195.2406" x2="195.2406" y1="30.8969" y2="446.1875"/><line style="stroke:#181818;stroke-width:0.4000000000000001;stroke-dasharray:5.0,5.0;" x1="471.6305" x2="471.6305" y1="191.1094" y2="446.1875"/><rect fill="#E2E2F0" height="26.0969" rx="2" ry="2" style="stroke:#181818;stroke-width:0.4000000000000001;" width="25.5117" x="16" y="4"/><text fill="#000000" font-family="sans-serif" font-size="11.2" lengthAdjust="spacing" textLength="14.3117" x="21.6" y="21.6859">:UI</text><rect fill="#E2E2F0" height="26.0969" rx="2" ry="2" style="stroke:#181818;stroke-width:0.4000000000000001;" width="25.5117" x="16" y="445.3875"/><text fill="#000000" font-family="sans-serif" font-size="11.2" lengthAdjust="spacing" textLength="14.3117" x="21.6" y="463.0734">:UI</text><rect fill="#E2E2F0" height="26.0969" rx="2" ry="2" style="stroke:#181818;stroke-width:0.4000000000000001;" width="72.8164" x="159.2406" y="4"/><text fill="#000000" font-family="sans-serif" font-size="11.2" lengthAdjust="spacing" textLength="61.6164" x="164.8406" y="21.6859">:UMLProject</text><rect fill="#E2E2F0" height="26.0969" rx="2" ry="2" style="stroke:#181818;stroke-width:0.4000000000000001;" width="72.8164" x="159.2406" y="445.3875"/><text fill="#000000" font-family="sans-serif" font-size="11.2" lengthAdjust="spacing" textLength="61.6164" x="164.8406" y="463.0734">:UMLProject</text><rect fill="#E2E2F0" height="26.0969" rx="2" ry="2" style="stroke:#181818;stroke-width:0.4000000000000001;" width="120.7445" x="411.6305" y="445.3875"/><text fill="#000000" font-family="sans-serif" font-size="11.2" lengthAdjust="spacing" textLength="109.5445" x="417.2305" y="463.0734">diagram:UMLDiagram</text><rect fill="#FFFFFF" height="347.625" style="stroke:#181818;stroke-width:0.8000000000000002;" width="8" x="191.6488" y="78.5625"/><rect fill="#FFFFFF" height="63.6656" style="stroke:#181818;stroke-width:0.8000000000000002;" width="8" x="195.6488" y="255.4234"/><rect fill="#FFFFFF" height="33.8328" style="stroke:#181818;stroke-width:0.8000000000000002;" width="8" x="195.6488" y="361.7219"/><path d="M8,44.4969 L115.1039,44.4969 L115.1039,51.9297 L107.1039,59.9297 L8,59.9297 L8,44.4969 " fill="#FFD700" style="stroke:#000000;stroke-width:1.2000000000000002;"/><rect fill="none" height="388.0906" style="stroke:#000000;stroke-width:1.2000000000000002;" width="540.375" x="8" y="44.4969"/><text fill="#000000" font-family="sans-serif" font-size="10.4" font-weight="bold" lengthAdjust="spacing" textLength="71.1039" x="20" y="56.5195">selectDiagram</text><polygon fill="#181818" points="182.0488,75.3625,190.0488,78.5625,182.0488,81.7625,185.2488,78.5625" style="stroke:#181818;stroke-width:0.8000000000000002;"/><line style="stroke:#181818;stroke-width:0.8000000000000002;" x1="28.7559" x2="186.8488" y1="78.5625" y2="78.5625"/><text fill="#000000" font-family="sans-serif" font-size="10.4" font-weight="bold" lengthAdjust="spacing" textLength="5.784" x="34.3559" y="74.3523">1</text><text fill="#000000" font-family="sans-serif" font-size="10.4" lengthAdjust="spacing" textLength="138.709" x="43.3398" y="74.3523">selectDiagram(diagramName)</text><path d="M32,88.9625 L32,110.5625 L107.2,110.5625 L107.2,96.9625 L99.2,88.9625 L32,88.9625 " fill="#FF0000" style="stroke:#181818;stroke-width:0.4000000000000001;"/><path d="M99.2,88.9625 L99.2,96.9625 L107.2,96.9625 L99.2,88.9625 " fill="#FF0000" style="stroke:#181818;stroke-width:0.4000000000000001;"/><text fill="#000000" font-family="sans-serif" font-size="10.4" lengthAdjust="spacing" textLength="58.957" x="36.8" y="104.1852">by Controller</text><path d="M151.2406,120.3953 L203.4094,120.3953 L203.4094,127.8281 L195.4094,135.8281 L151.2406,135.8281 L151.2406,120.3953 " fill="#FFD700" style="stroke:#000000;stroke-width:1.2000000000000002;"/><rect fill="none" height="210.6938" style="stroke:#000000;stroke-width:1.2000000000000002;" width="389.1344" x="151.2406" y="120.3953"/><text fill="#000000" font-family="sans-serif" font-size="10.4" font-weight="bold" lengthAdjust="spacing" textLength="16.1688" x="163.2406" y="132.418">opt</text><text fill="#000000" font-family="sans-serif" font-size="8.8" font-weight="bold" lengthAdjust="spacing" textLength="157.9574" x="215.4094" y="131.4914">[diagramName not in activeDiagrams]</text><path d="M203.2,139.8281 L203.2,161.4281 L460.8,161.4281 L460.8,147.8281 L452.8,139.8281 L203.2,139.8281 " fill="#FEFFDD" style="stroke:#181818;stroke-width:0.4000000000000001;"/><path d="M452.8,139.8281 L452.8,147.8281 L460.8,147.8281 L452.8,139.8281 " fill="#FEFFDD" style="stroke:#181818;stroke-width:0.4000000000000001;"/><text fill="#000000" font-family="sans-serif" font-size="10.4" lengthAdjust="spacing" textLength="241.0891" x="208" y="155.0508">load the selected diamgram if it has not been loaded</text><polygon fill="#181818" points="402.0305,181.0938,410.0305,184.2938,402.0305,187.4938,405.2305,184.2938" style="stroke:#181818;stroke-width:0.8000000000000002;"/><line style="stroke:#181818;stroke-width:0.8000000000000002;stroke-dasharray:2.0,2.0;" x1="199.6488" x2="406.8305" y1="184.2938" y2="184.2938"/><text fill="#000000" font-family="sans-serif" font-size="10.4" font-weight="bold" lengthAdjust="spacing" textLength="5.784" x="205.2488" y="180.0836">2</text><text fill="#000000" font-family="sans-serif" font-size="10.4" lengthAdjust="spacing" textLength="144.1375" x="214.2328" y="180.0836">createDiagram(diagramName)"</text><rect fill="#E2E2F0" height="26.0969" rx="2" ry="2" style="stroke:#181818;stroke-width:0.4000000000000001;" width="120.7445" x="411.6305" y="165.6609"/><text fill="#000000" font-family="sans-serif" font-size="11.2" lengthAdjust="spacing" textLength="109.5445" x="417.2305" y="183.3469">diagram:UMLDiagram</text><path d="M203.2,204.5578 L203.2,226.1578 L268,226.1578 L268,212.5578 L260,204.5578 L203.2,204.5578 " fill="#FF0000" style="stroke:#181818;stroke-width:0.4000000000000001;"/><path d="M260,204.5578 L260,212.5578 L268,212.5578 L260,204.5578 " fill="#FF0000" style="stroke:#181818;stroke-width:0.4000000000000001;"/><text fill="#000000" font-family="sans-serif" font-size="10.4" lengthAdjust="spacing" textLength="48.552" x="208" y="219.7805">by Creator</text><line style="stroke:#181818;stroke-width:0.8000000000000002;" x1="199.6488" x2="237.2488" y1="245.0234" y2="245.0234"/><line style="stroke:#181818;stroke-width:0.8000000000000002;" x1="237.2488" x2="237.2488" y1="245.0234" y2="255.4234"/><line style="stroke:#181818;stroke-width:0.8000000000000002;" x1="204.4488" x2="237.2488" y1="255.4234" y2="255.4234"/><polygon fill="#181818" points="212.4488,252.2234,204.4488,255.4234,212.4488,258.6234,209.2488,255.4234" style="stroke:#181818;stroke-width:0.8000000000000002;"/><text fill="#000000" font-family="sans-serif" font-size="10.4" font-weight="bold" lengthAdjust="spacing" textLength="5.784" x="209.2488" y="240.8133">3</text><text fill="#000000" font-family="sans-serif" font-size="10.4" lengthAdjust="spacing" textLength="240.1699" x="218.2328" y="240.8133">activeDiagrams = append(activeDiagrams, diagram)</text><path d="M207.2,269.8234 L207.2,291.4234 L350.4,291.4234 L350.4,277.8234 L342.4,269.8234 L207.2,269.8234 " fill="#FEFFDD" style="stroke:#181818;stroke-width:0.4000000000000001;"/><path d="M342.4,269.8234 L342.4,277.8234 L350.4,277.8234 L342.4,269.8234 " fill="#FEFFDD" style="stroke:#181818;stroke-width:0.4000000000000001;"/><text fill="#000000" font-family="sans-serif" font-size="10.4" lengthAdjust="spacing" textLength="126.618" x="212" y="285.0461">append is a built-in function</text><line style="stroke:#181818;stroke-width:0.8000000000000002;stroke-dasharray:2.0,2.0;" x1="203.6488" x2="237.2488" y1="318.2891" y2="318.2891"/><line style="stroke:#181818;stroke-width:0.8000000000000002;stroke-dasharray:2.0,2.0;" x1="237.2488" x2="237.2488" y1="318.2891" y2="328.6891"/><line style="stroke:#181818;stroke-width:0.8000000000000002;stroke-dasharray:2.0,2.0;" x1="199.6488" x2="237.2488" y1="328.6891" y2="328.6891"/><polygon fill="#181818" points="207.6488,325.4891,199.6488,328.6891,207.6488,331.8891,204.4488,328.6891" style="stroke:#181818;stroke-width:0.8000000000000002;"/><text fill="#000000" font-family="sans-serif" font-size="10.4" font-weight="bold" lengthAdjust="spacing" textLength="5.784" x="209.2488" y="314.0789">4</text><text fill="#000000" font-family="sans-serif" font-size="10.4" lengthAdjust="spacing" textLength="2.8895" x="218.2328" y="314.0789">&#160;</text><line style="stroke:#181818;stroke-width:0.8000000000000002;" x1="199.6488" x2="237.2488" y1="351.3219" y2="351.3219"/><line style="stroke:#181818;stroke-width:0.8000000000000002;" x1="237.2488" x2="237.2488" y1="351.3219" y2="361.7219"/><line style="stroke:#181818;stroke-width:0.8000000000000002;" x1="204.4488" x2="237.2488" y1="361.7219" y2="361.7219"/><polygon fill="#181818" points="212.4488,358.5219,204.4488,361.7219,212.4488,364.9219,209.2488,361.7219" style="stroke:#181818;stroke-width:0.8000000000000002;"/><text fill="#000000" font-family="sans-serif" font-size="10.4" font-weight="bold" lengthAdjust="spacing" textLength="5.784" x="209.2488" y="347.1117">5</text><text fill="#000000" font-family="sans-serif" font-size="10.4" lengthAdjust="spacing" textLength="226.2813" x="218.2328" y="347.1117">currentDiagram = activeDiagrams[diagramName]</text><line style="stroke:#181818;stroke-width:0.8000000000000002;stroke-dasharray:2.0,2.0;" x1="203.6488" x2="237.2488" y1="394.7547" y2="394.7547"/><line style="stroke:#181818;stroke-width:0.8000000000000002;stroke-dasharray:2.0,2.0;" x1="237.2488" x2="237.2488" y1="394.7547" y2="405.1547"/><line style="stroke:#181818;stroke-width:0.8000000000000002;stroke-dasharray:2.0,2.0;" x1="199.6488" x2="237.2488" y1="405.1547" y2="405.1547"/><polygon fill="#181818" points="207.6488,401.9547,199.6488,405.1547,207.6488,408.3547,204.4488,405.1547" style="stroke:#181818;stroke-width:0.8000000000000002;"/><text fill="#000000" font-family="sans-serif" font-size="10.4" font-weight="bold" lengthAdjust="spacing" textLength="5.784" x="209.2488" y="390.5445">6</text><text fill="#000000" font-family="sans-serif" font-size="10.4" lengthAdjust="spacing" textLength="2.8895" x="218.2328" y="390.5445">&#160;</text><polygon fill="#181818" points="37.5559,422.9875,29.5559,426.1875,37.5559,429.3875,34.3559,426.1875" style="stroke:#181818;stroke-width:0.8000000000000002;"/><line style="stroke:#181818;stroke-width:0.8000000000000002;stroke-dasharray:2.0,2.0;" x1="32.7559" x2="194.8488" y1="426.1875" y2="426.1875"/><text fill="#000000" font-family="sans-serif" font-size="10.4" font-weight="bold" lengthAdjust="spacing" textLength="5.784" x="42.3559" y="421.9773">7</text><text fill="#000000" font-family="sans-serif" font-size="10.4" lengthAdjust="spacing" textLength="2.8895" x="51.3398" y="421.9773">&#160;</text><!--SRC=[ZPB1JeGm54NtVCKDR6OcyWCakj6DYHetheoBGXzGKrhoQ3N-lIq3IkF4q0tDeptlzBR2EslyK1Dd8an5uzI7S0Hhiewj7ulEQedYirUXE96cnjqfqR4OCeIHLo_tESgRE7byU6Rx7XRaLRho8C_V9p7GSTvcRA2nwde7sowGWabMgBzmQurZgtLGmZBiw1AH3J2oe0ncSrewJZyxBtRRcceh95o_7evaX0yH0jL2EVHYcdlKH6PUJJAX9poKCOj5B_vOX7ASJgY0XYcaUocNVA_o9gW8i_oVpP-BIMF2DSGuaf67j7wr9dpS7-GP13L1eFPAkpBSIkjD08V7jCKmES-_fR0hswSV4cmyCvdrPKN_HFnr4-bRbZP4jcaULPD7-Wq0]--></g></svg>