<svg xmlns="http://www.w3.org/2000/svg" xmlns:xlink="http://www.w3.org/1999/xlink" contentStyleType="text/css" height="749.6px" preserveAspectRatio="none" style="width:1035px;height:749px;background:#FFFFFF;" version="1.1" viewBox="0 0 1035 749" width="1035.2px" zoomAndPan="magnify"><defs/><g><rect fill="#FFFFFF" height="591.2891" style="stroke:#181818;stroke-width:0.8000000000000002;" width="8" x="163.3535" y="93.4594"/><rect fill="#FFFFFF" height="511.3906" style="stroke:#181818;stroke-width:0.8000000000000002;" width="8" x="305.9512" y="148.325"/><rect fill="#FFFFFF" height="461.325" style="stroke:#181818;stroke-width:0.8000000000000002;" width="8" x="448.5488" y="173.3578"/><rect fill="#FFFFFF" height="63.6656" style="stroke:#181818;stroke-width:0.8000000000000002;" width="8" x="452.5488" y="225.8234"/><rect fill="#FFFFFF" height="175.7969" style="stroke:#181818;stroke-width:0.8000000000000002;" width="8" x="797.7941" y="376.5875"/><rect fill="#FFFFFF" height="33.8328" style="stroke:#181818;stroke-width:0.8000000000000002;" width="8" x="801.7941" y="408.0203"/><rect fill="#FFFFFF" height="54.8656" style="stroke:#181818;stroke-width:0.8000000000000002;" width="8" x="960.2711" y="472.4859"/><rect fill="#FFFFFF" height="25.0328" style="stroke:#181818;stroke-width:0.8000000000000002;" width="8" x="960.2711" y="579.0172"/><rect fill="#FFFFFF" height="631.7547" style="stroke:#000000;stroke-width:1.2000000000000002;" width="1022.693" x="8" y="59.3938"/><rect fill="#FFFFFF" height="145.9641" style="stroke:#000000;stroke-width:1.2000000000000002;" width="400.1527" x="405.6414" y="185.3578"/><rect fill="#FFFFFF" height="267.9281" style="stroke:#000000;stroke-width:1.2000000000000002;" width="617.0516" x="405.6414" y="342.5219"/><rect fill="#FFFFFF" height="51.6656" style="stroke:none;stroke-width:0.8000000000000002;" width="617.0516" x="405.6414" y="558.7844"/><line style="stroke:#181818;stroke-width:0.4000000000000001;stroke-dasharray:5.0,5.0;" x1="28" x2="28" y1="45.7938" y2="704.7484"/><line style="stroke:#181818;stroke-width:0.4000000000000001;stroke-dasharray:5.0,5.0;" x1="166.9453" x2="166.9453" y1="45.7938" y2="704.7484"/><line style="stroke:#181818;stroke-width:0.4000000000000001;stroke-dasharray:5.0,5.0;" x1="309.7609" x2="309.7609" y1="45.7938" y2="704.7484"/><line style="stroke:#181818;stroke-width:0.4000000000000001;stroke-dasharray:5.0,5.0;" x1="452.0414" x2="452.0414" y1="45.7938" y2="704.7484"/><line style="stroke:#181818;stroke-width:0.4000000000000001;stroke-dasharray:5.0,5.0;" x1="801.4496" x2="801.4496" y1="45.7938" y2="704.7484"/><line style="stroke:#181818;stroke-width:0.4000000000000001;stroke-dasharray:5.0,5.0;" x1="964.2492" x2="964.2492" y1="45.7938" y2="704.7484"/><rect fill="#E2E2F0" height="26.0969" rx="2" ry="2" style="stroke:#181818;stroke-width:0.4000000000000001;" width="25.5117" x="16" y="18.8969"/><text fill="#000000" font-family="sans-serif" font-size="11.2" lengthAdjust="spacing" textLength="14.3117" x="21.6" y="36.5828">:UI</text><rect fill="#E2E2F0" height="26.0969" rx="2" ry="2" style="stroke:#181818;stroke-width:0.4000000000000001;" width="25.5117" x="16" y="703.9484"/><text fill="#000000" font-family="sans-serif" font-size="11.2" lengthAdjust="spacing" textLength="14.3117" x="21.6" y="721.6344">:UI</text><rect fill="#E2E2F0" height="26.0969" rx="2" ry="2" style="stroke:#181818;stroke-width:0.4000000000000001;" width="72.8164" x="130.9453" y="18.8969"/><text fill="#000000" font-family="sans-serif" font-size="11.2" lengthAdjust="spacing" textLength="61.6164" x="136.5453" y="36.5828">:UMLProject</text><rect fill="#E2E2F0" height="26.0969" rx="2" ry="2" style="stroke:#181818;stroke-width:0.4000000000000001;" width="72.8164" x="130.9453" y="703.9484"/><text fill="#000000" font-family="sans-serif" font-size="11.2" lengthAdjust="spacing" textLength="61.6164" x="136.5453" y="721.6344">:UMLProject</text><rect fill="#E2E2F0" height="40.9938" rx="2" ry="2" style="stroke:#181818;stroke-width:0.4000000000000001;" width="88.3805" x="265.7609" y="4"/><text fill="#000000" font-family="sans-serif" font-size="11.2" lengthAdjust="spacing" textLength="77.1805" x="271.3609" y="21.6859">currentDiagram</text><text fill="#000000" font-family="sans-serif" font-size="11.2" lengthAdjust="spacing" textLength="73.4398" x="273.2313" y="36.5828">:*UMLDiagram</text><rect fill="#E2E2F0" height="40.9938" rx="2" ry="2" style="stroke:#181818;stroke-width:0.4000000000000001;" width="88.3805" x="265.7609" y="703.9484"/><text fill="#000000" font-family="sans-serif" font-size="11.2" lengthAdjust="spacing" textLength="77.1805" x="271.3609" y="721.6344">currentDiagram</text><text fill="#000000" font-family="sans-serif" font-size="11.2" lengthAdjust="spacing" textLength="73.4398" x="273.2313" y="736.5313">:*UMLDiagram</text><rect fill="#E2E2F0" height="26.0969" rx="2" ry="2" style="stroke:#181818;stroke-width:0.4000000000000001;" width="77.8148" x="413.6414" y="18.8969"/><text fill="#000000" font-family="sans-serif" font-size="11.2" lengthAdjust="spacing" textLength="66.6148" x="419.2414" y="36.5828">:Components</text><rect fill="#E2E2F0" height="26.0969" rx="2" ry="2" style="stroke:#181818;stroke-width:0.4000000000000001;" width="77.8148" x="413.6414" y="703.9484"/><text fill="#000000" font-family="sans-serif" font-size="11.2" lengthAdjust="spacing" textLength="66.6148" x="419.2414" y="721.6344">:Components</text><rect fill="#E2E2F0" height="40.9938" rx="2" ry="2" style="stroke:#181818;stroke-width:0.4000000000000001;" width="112.6891" x="745.4496" y="4"/><text fill="#000000" font-family="sans-serif" font-size="11.2" lengthAdjust="spacing" textLength="101.4891" x="751.0496" y="21.6859">SelectedComponent</text><text fill="#000000" font-family="sans-serif" font-size="11.2" lengthAdjust="spacing" textLength="61.0148" x="771.2867" y="36.5828">:Component</text><rect fill="#E2E2F0" height="40.9938" rx="2" ry="2" style="stroke:#181818;stroke-width:0.4000000000000001;" width="112.6891" x="745.4496" y="703.9484"/><text fill="#000000" font-family="sans-serif" font-size="11.2" lengthAdjust="spacing" textLength="101.4891" x="751.0496" y="721.6344">SelectedComponent</text><text fill="#000000" font-family="sans-serif" font-size="11.2" lengthAdjust="spacing" textLength="61.0148" x="771.2867" y="736.5313">:Component</text><rect fill="#E2E2F0" height="26.0969" rx="2" ry="2" style="stroke:#181818;stroke-width:0.4000000000000001;" width="100.8438" x="913.8492" y="18.8969"/><text fill="#000000" font-family="sans-serif" font-size="11.2" lengthAdjust="spacing" textLength="89.6438" x="919.4492" y="36.5828">:PropertyManager</text><rect fill="#E2E2F0" height="26.0969" rx="2" ry="2" style="stroke:#181818;stroke-width:0.4000000000000001;" width="100.8438" x="913.8492" y="703.9484"/><text fill="#000000" font-family="sans-serif" font-size="11.2" lengthAdjust="spacing" textLength="89.6438" x="919.4492" y="721.6344">:PropertyManager</text><rect fill="#FFFFFF" height="591.2891" style="stroke:#181818;stroke-width:0.8000000000000002;" width="8" x="163.3535" y="93.4594"/><rect fill="#FFFFFF" height="511.3906" style="stroke:#181818;stroke-width:0.8000000000000002;" width="8" x="305.9512" y="148.325"/><rect fill="#FFFFFF" height="461.325" style="stroke:#181818;stroke-width:0.8000000000000002;" width="8" x="448.5488" y="173.3578"/><rect fill="#FFFFFF" height="63.6656" style="stroke:#181818;stroke-width:0.8000000000000002;" width="8" x="452.5488" y="225.8234"/><rect fill="#FFFFFF" height="175.7969" style="stroke:#181818;stroke-width:0.8000000000000002;" width="8" x="797.7941" y="376.5875"/><rect fill="#FFFFFF" height="33.8328" style="stroke:#181818;stroke-width:0.8000000000000002;" width="8" x="801.7941" y="408.0203"/><rect fill="#FFFFFF" height="54.8656" style="stroke:#181818;stroke-width:0.8000000000000002;" width="8" x="960.2711" y="472.4859"/><rect fill="#FFFFFF" height="25.0328" style="stroke:#181818;stroke-width:0.8000000000000002;" width="8" x="960.2711" y="579.0172"/><path d="M8,59.3938 L131.2574,59.3938 L131.2574,66.8266 L123.2574,74.8266 L8,74.8266 L8,59.3938 " fill="#FFD700" style="stroke:#000000;stroke-width:1.2000000000000002;"/><rect fill="none" height="631.7547" style="stroke:#000000;stroke-width:1.2000000000000002;" width="1022.693" x="8" y="59.3938"/><text fill="#000000" font-family="sans-serif" font-size="10.4" font-weight="bold" lengthAdjust="spacing" textLength="87.2574" x="20" y="71.4164">selectComponent</text><polygon fill="#181818" points="153.7535,90.2594,161.7535,93.4594,153.7535,96.6594,156.9535,93.4594" style="stroke:#181818;stroke-width:0.8000000000000002;"/><line style="stroke:#181818;stroke-width:0.8000000000000002;" x1="28.7559" x2="158.5535" y1="93.4594" y2="93.4594"/><text fill="#000000" font-family="sans-serif" font-size="10.4" font-weight="bold" lengthAdjust="spacing" textLength="5.784" x="34.3559" y="89.2492">1</text><text fill="#000000" font-family="sans-serif" font-size="10.4" lengthAdjust="spacing" textLength="110.4137" x="43.3398" y="89.2492">selectComponent(point)</text><path d="M32,103.8594 L32,125.4594 L107.2,125.4594 L107.2,111.8594 L99.2,103.8594 L32,103.8594 " fill="#FF0000" style="stroke:#181818;stroke-width:0.4000000000000001;"/><path d="M99.2,103.8594 L99.2,111.8594 L107.2,111.8594 L99.2,103.8594 " fill="#FF0000" style="stroke:#181818;stroke-width:0.4000000000000001;"/><text fill="#000000" font-family="sans-serif" font-size="10.4" lengthAdjust="spacing" textLength="58.957" x="36.8" y="119.082">by Controller</text><polygon fill="#181818" points="296.3512,145.125,304.3512,148.325,296.3512,151.525,299.5512,148.325" style="stroke:#181818;stroke-width:0.8000000000000002;"/><line style="stroke:#181818;stroke-width:0.8000000000000002;" x1="171.3535" x2="301.1512" y1="148.325" y2="148.325"/><text fill="#000000" font-family="sans-serif" font-size="10.4" font-weight="bold" lengthAdjust="spacing" textLength="5.784" x="176.9535" y="144.1148">2</text><text fill="#000000" font-family="sans-serif" font-size="10.4" lengthAdjust="spacing" textLength="110.4137" x="185.9375" y="144.1148">selectComponent(point)</text><polygon fill="#181818" points="438.9488,170.1578,446.9488,173.3578,438.9488,176.5578,442.1488,173.3578" style="stroke:#181818;stroke-width:0.8000000000000002;"/><line style="stroke:#181818;stroke-width:0.8000000000000002;" x1="313.9512" x2="443.7488" y1="173.3578" y2="173.3578"/><text fill="#000000" font-family="sans-serif" font-size="10.4" font-weight="bold" lengthAdjust="spacing" textLength="5.784" x="319.5512" y="169.1477">3</text><text fill="#000000" font-family="sans-serif" font-size="10.4" lengthAdjust="spacing" textLength="110.4137" x="328.5352" y="169.1477">selectComponent(point)</text><path d="M405.6414,185.3578 L463.5891,185.3578 L463.5891,192.7906 L455.5891,200.7906 L405.6414,200.7906 L405.6414,185.3578 " fill="#FFD700" style="stroke:#000000;stroke-width:1.2000000000000002;"/><rect fill="none" height="145.9641" style="stroke:#000000;stroke-width:1.2000000000000002;" width="400.1527" x="405.6414" y="185.3578"/><text fill="#000000" font-family="sans-serif" font-size="10.4" font-weight="bold" lengthAdjust="spacing" textLength="21.9477" x="417.6414" y="197.3805">loop</text><text fill="#000000" font-family="sans-serif" font-size="8.8" font-weight="bold" lengthAdjust="spacing" textLength="116.3508" x="475.5891" y="196.4539">[component covering point]</text><line style="stroke:#181818;stroke-width:0.8000000000000002;" x1="456.5488" x2="494.1488" y1="215.4234" y2="215.4234"/><line style="stroke:#181818;stroke-width:0.8000000000000002;" x1="494.1488" x2="494.1488" y1="215.4234" y2="225.8234"/><line style="stroke:#181818;stroke-width:0.8000000000000002;" x1="461.3488" x2="494.1488" y1="225.8234" y2="225.8234"/><polygon fill="#181818" points="469.3488,222.6234,461.3488,225.8234,469.3488,229.0234,466.1488,225.8234" style="stroke:#181818;stroke-width:0.8000000000000002;"/><text fill="#000000" font-family="sans-serif" font-size="10.4" font-weight="bold" lengthAdjust="spacing" textLength="5.784" x="466.1488" y="211.2133">4</text><text fill="#000000" font-family="sans-serif" font-size="10.4" lengthAdjust="spacing" textLength="313.0613" x="475.1328" y="211.2133">selectedComponents = append(selectedComponents, &amp;component)</text><path d="M464,240.2234 L464,261.8234 L607.2,261.8234 L607.2,248.2234 L599.2,240.2234 L464,240.2234 " fill="#FEFFDD" style="stroke:#181818;stroke-width:0.4000000000000001;"/><path d="M599.2,240.2234 L599.2,248.2234 L607.2,248.2234 L599.2,240.2234 " fill="#FEFFDD" style="stroke:#181818;stroke-width:0.4000000000000001;"/><text fill="#000000" font-family="sans-serif" font-size="10.4" lengthAdjust="spacing" textLength="126.618" x="468.8" y="255.4461">append is a built-in function</text><line style="stroke:#181818;stroke-width:0.8000000000000002;stroke-dasharray:2.0,2.0;" x1="460.5488" x2="494.1488" y1="288.6891" y2="288.6891"/><line style="stroke:#181818;stroke-width:0.8000000000000002;stroke-dasharray:2.0,2.0;" x1="494.1488" x2="494.1488" y1="288.6891" y2="299.0891"/><line style="stroke:#181818;stroke-width:0.8000000000000002;stroke-dasharray:2.0,2.0;" x1="456.5488" x2="494.1488" y1="299.0891" y2="299.0891"/><polygon fill="#181818" points="464.5488,295.8891,456.5488,299.0891,464.5488,302.2891,461.3488,299.0891" style="stroke:#181818;stroke-width:0.8000000000000002;"/><text fill="#000000" font-family="sans-serif" font-size="10.4" font-weight="bold" lengthAdjust="spacing" textLength="5.784" x="466.1488" y="284.4789">5</text><text fill="#000000" font-family="sans-serif" font-size="10.4" lengthAdjust="spacing" textLength="2.8895" x="475.1328" y="284.4789">&#160;</text><path d="M460,305.4891 L460,327.0891 L732,327.0891 L732,313.4891 L724,305.4891 L460,305.4891 " fill="#FEFFDD" style="stroke:#181818;stroke-width:0.4000000000000001;"/><path d="M724,305.4891 L724,313.4891 L732,313.4891 L724,305.4891 " fill="#FEFFDD" style="stroke:#181818;stroke-width:0.4000000000000001;"/><text fill="#000000" font-family="sans-serif" font-size="10.4" lengthAdjust="spacing" textLength="255.5313" x="464.8" y="320.7117">add component to a list of selected-component pointers</text><path d="M405.6414,342.5219 L457.8102,342.5219 L457.8102,349.9547 L449.8102,357.9547 L405.6414,357.9547 L405.6414,342.5219 " fill="#FFD700" style="stroke:#000000;stroke-width:1.2000000000000002;"/><rect fill="none" height="267.9281" style="stroke:#000000;stroke-width:1.2000000000000002;" width="617.0516" x="405.6414" y="342.5219"/><text fill="#000000" font-family="sans-serif" font-size="10.4" font-weight="bold" lengthAdjust="spacing" textLength="16.1688" x="417.6414" y="354.5445">opt</text><text fill="#000000" font-family="sans-serif" font-size="8.8" font-weight="bold" lengthAdjust="spacing" textLength="119.3027" x="469.8102" y="353.618">[only select one component]</text><polygon fill="#181818" points="788.1941,373.3875,796.1941,376.5875,788.1941,379.7875,791.3941,376.5875" style="stroke:#181818;stroke-width:0.8000000000000002;"/><line style="stroke:#181818;stroke-width:0.8000000000000002;" x1="456.5488" x2="792.9941" y1="376.5875" y2="376.5875"/><text fill="#000000" font-family="sans-serif" font-size="10.4" font-weight="bold" lengthAdjust="spacing" textLength="5.784" x="462.1488" y="372.3773">6</text><text fill="#000000" font-family="sans-serif" font-size="10.4" lengthAdjust="spacing" textLength="71.6727" x="471.1328" y="372.3773">setupProperty()</text><line style="stroke:#181818;stroke-width:0.8000000000000002;" x1="805.7941" x2="843.3941" y1="397.6203" y2="397.6203"/><line style="stroke:#181818;stroke-width:0.8000000000000002;" x1="843.3941" x2="843.3941" y1="397.6203" y2="408.0203"/><line style="stroke:#181818;stroke-width:0.8000000000000002;" x1="810.5941" x2="843.3941" y1="408.0203" y2="408.0203"/><polygon fill="#181818" points="818.5941,404.8203,810.5941,408.0203,818.5941,411.2203,815.3941,408.0203" style="stroke:#181818;stroke-width:0.8000000000000002;"/><text fill="#000000" font-family="sans-serif" font-size="10.4" font-weight="bold" lengthAdjust="spacing" textLength="5.784" x="815.3941" y="393.4102">7</text><text fill="#000000" font-family="sans-serif" font-size="10.4" lengthAdjust="spacing" textLength="126.293" x="824.3781" y="393.4102">tree = createPropertyTree()</text><line style="stroke:#181818;stroke-width:0.8000000000000002;stroke-dasharray:2.0,2.0;" x1="809.7941" x2="843.3941" y1="441.0531" y2="441.0531"/><line style="stroke:#181818;stroke-width:0.8000000000000002;stroke-dasharray:2.0,2.0;" x1="843.3941" x2="843.3941" y1="441.0531" y2="451.4531"/><line style="stroke:#181818;stroke-width:0.8000000000000002;stroke-dasharray:2.0,2.0;" x1="805.7941" x2="843.3941" y1="451.4531" y2="451.4531"/><polygon fill="#181818" points="813.7941,448.2531,805.7941,451.4531,813.7941,454.6531,810.5941,451.4531" style="stroke:#181818;stroke-width:0.8000000000000002;"/><text fill="#000000" font-family="sans-serif" font-size="10.4" font-weight="bold" lengthAdjust="spacing" textLength="5.784" x="815.3941" y="436.843">8</text><text fill="#000000" font-family="sans-serif" font-size="10.4" lengthAdjust="spacing" textLength="2.8895" x="824.3781" y="436.843">&#160;</text><polygon fill="#181818" points="950.6711,469.2859,958.6711,472.4859,950.6711,475.6859,953.8711,472.4859" style="stroke:#181818;stroke-width:0.8000000000000002;"/><line style="stroke:#181818;stroke-width:0.8000000000000002;" x1="805.7941" x2="955.4711" y1="472.4859" y2="472.4859"/><text fill="#000000" font-family="sans-serif" font-size="10.4" font-weight="bold" lengthAdjust="spacing" textLength="5.784" x="811.3941" y="468.2758">9</text><text fill="#000000" font-family="sans-serif" font-size="10.4" lengthAdjust="spacing" textLength="89.5934" x="820.3781" y="468.2758">setupProperty(tree)</text><path d="M656,482.8859 L656,504.4859 L947.2,504.4859 L947.2,490.8859 L939.2,482.8859 L656,482.8859 " fill="#FEFFDD" style="stroke:#181818;stroke-width:0.4000000000000001;"/><path d="M939.2,482.8859 L939.2,490.8859 L947.2,490.8859 L939.2,482.8859 " fill="#FEFFDD" style="stroke:#181818;stroke-width:0.4000000000000001;"/><text fill="#000000" font-family="sans-serif" font-size="10.4" lengthAdjust="spacing" textLength="274.5895" x="660.8" y="498.1086">register the property of this component to property manager</text><polygon fill="#181818" points="814.5941,524.1516,806.5941,527.3516,814.5941,530.5516,811.3941,527.3516" style="stroke:#181818;stroke-width:0.8000000000000002;"/><line style="stroke:#181818;stroke-width:0.8000000000000002;stroke-dasharray:2.0,2.0;" x1="809.7941" x2="963.4711" y1="527.3516" y2="527.3516"/><text fill="#000000" font-family="sans-serif" font-size="10.4" font-weight="bold" lengthAdjust="spacing" textLength="11.568" x="819.3941" y="523.1414">10</text><text fill="#000000" font-family="sans-serif" font-size="10.4" lengthAdjust="spacing" textLength="2.8895" x="834.1621" y="523.1414">&#160;</text><polygon fill="#181818" points="465.3488,549.1844,457.3488,552.3844,465.3488,555.5844,462.1488,552.3844" style="stroke:#181818;stroke-width:0.8000000000000002;"/><line style="stroke:#181818;stroke-width:0.8000000000000002;stroke-dasharray:2.0,2.0;" x1="460.5488" x2="800.9941" y1="552.3844" y2="552.3844"/><text fill="#000000" font-family="sans-serif" font-size="10.4" font-weight="bold" lengthAdjust="spacing" textLength="11.568" x="470.1488" y="548.1742">11</text><text fill="#000000" font-family="sans-serif" font-size="10.4" lengthAdjust="spacing" textLength="2.8895" x="484.9168" y="548.1742">&#160;</text><line style="stroke:#000000;stroke-width:0.8000000000000002;stroke-dasharray:2.0,2.0;" x1="405.6414" x2="1022.693" y1="559.5844" y2="559.5844"/><polygon fill="#181818" points="950.6711,575.8172,958.6711,579.0172,950.6711,582.2172,953.8711,579.0172" style="stroke:#181818;stroke-width:0.8000000000000002;"/><line style="stroke:#181818;stroke-width:0.8000000000000002;" x1="456.5488" x2="955.4711" y1="579.0172" y2="579.0172"/><text fill="#000000" font-family="sans-serif" font-size="10.4" font-weight="bold" lengthAdjust="spacing" textLength="11.568" x="462.1488" y="574.807">12</text><text fill="#000000" font-family="sans-serif" font-size="10.4" lengthAdjust="spacing" textLength="68.773" x="476.9168" y="574.807">clearProperty()</text><polygon fill="#181818" points="465.3488,600.85,457.3488,604.05,465.3488,607.25,462.1488,604.05" style="stroke:#181818;stroke-width:0.8000000000000002;"/><line style="stroke:#181818;stroke-width:0.8000000000000002;stroke-dasharray:2.0,2.0;" x1="460.5488" x2="963.4711" y1="604.05" y2="604.05"/><text fill="#000000" font-family="sans-serif" font-size="10.4" font-weight="bold" lengthAdjust="spacing" textLength="11.568" x="470.1488" y="599.8398">13</text><text fill="#000000" font-family="sans-serif" font-size="10.4" lengthAdjust="spacing" textLength="2.8895" x="484.9168" y="599.8398">&#160;</text><polygon fill="#181818" points="322.7512,631.4828,314.7512,634.6828,322.7512,637.8828,319.5512,634.6828" style="stroke:#181818;stroke-width:0.8000000000000002;"/><line style="stroke:#181818;stroke-width:0.8000000000000002;stroke-dasharray:2.0,2.0;" x1="317.9512" x2="451.7488" y1="634.6828" y2="634.6828"/><text fill="#000000" font-family="sans-serif" font-size="10.4" font-weight="bold" lengthAdjust="spacing" textLength="11.568" x="327.5512" y="630.4727">14</text><text fill="#000000" font-family="sans-serif" font-size="10.4" lengthAdjust="spacing" textLength="2.8895" x="342.3191" y="630.4727">&#160;</text><polygon fill="#181818" points="180.1535,656.5156,172.1535,659.7156,180.1535,662.9156,176.9535,659.7156" style="stroke:#181818;stroke-width:0.8000000000000002;"/><line style="stroke:#181818;stroke-width:0.8000000000000002;stroke-dasharray:2.0,2.0;" x1="175.3535" x2="309.1512" y1="659.7156" y2="659.7156"/><text fill="#000000" font-family="sans-serif" font-size="10.4" font-weight="bold" lengthAdjust="spacing" textLength="11.568" x="184.9535" y="655.5055">15</text><text fill="#000000" font-family="sans-serif" font-size="10.4" lengthAdjust="spacing" textLength="2.8895" x="199.7215" y="655.5055">&#160;</text><polygon fill="#181818" points="37.5559,681.5484,29.5559,684.7484,37.5559,687.9484,34.3559,684.7484" style="stroke:#181818;stroke-width:0.8000000000000002;"/><line style="stroke:#181818;stroke-width:0.8000000000000002;stroke-dasharray:2.0,2.0;" x1="32.7559" x2="166.5535" y1="684.7484" y2="684.7484"/><text fill="#000000" font-family="sans-serif" font-size="10.4" font-weight="bold" lengthAdjust="spacing" textLength="11.568" x="42.3559" y="680.5383">16</text><text fill="#000000" font-family="sans-serif" font-size="10.4" lengthAdjust="spacing" textLength="2.8895" x="57.1238" y="680.5383">&#160;</text><!--SRC=[bLHDJyCm3BtlLrYRX0PYVw0INCO5YKb8m8rBrdfTK1P7hZkqVu_RTTtIxgFqv2JEUxRVIqqfvClD4dbaD3IfsAqH1FAZdAaCavnS1fFVjTND0XscCgTD88zUHg3VEFbw7SFikGeMR-zCFveoJhgvqq3MotrznPDYiStN0hHg02QCMGBB7Sp92vDpMX0qNuHSKwKbiuA-M9EpsNpxv44pcjLrxXRpAiI-dnQW68RfYE9vfOTiZRR8rkTGNujkxJiyuRf8Zjbn4vx0X80-c_RF7k6kPRxlSNMd7n7jCS4MO61PMYSpws5LUhM5Eg8BnIWb-tyoPDd9N8IKoDcYpZnqCZkUr-D2BY8EhJ1QHmiA4cb0tkqQP8rFD1aWmaTtj6gJDgvbaJAeCGEoxARzKTy06CGXZAXYfupwB0zSdxfvXk-27aFAI0xG2-DDZjphhghZWfagRzzkX35NdJLJrWYXWQrabxNQBR94UxhP5pEqqJFRw0eSyjpwxQSE3LyHznoP6dDq9UTasOJLO-lyMVu0]--></g></svg>