<svg xmlns="http://www.w3.org/2000/svg" xmlns:xlink="http://www.w3.org/1999/xlink" contentStyleType="text/css" height="486.2px" preserveAspectRatio="none" style="width:399px;height:486px;background:#FFFFFF;" version="1.1" viewBox="0 0 399 486" width="399.3px" zoomAndPan="magnify"><defs/><g><rect fill="#FFFFFF" height="331.0012" style="stroke:#000000;stroke-width:1.6500000000000001;" width="382.7092" x="11" y="95.6033"/><line style="stroke:#181818;stroke-width:0.55;stroke-dasharray:5.0,5.0;" x1="38.5" x2="38.5" y1="42.4832" y2="445.3045"/><line style="stroke:#181818;stroke-width:0.55;stroke-dasharray:5.0,5.0;" x1="332.0867" x2="332.0867" y1="42.4832" y2="445.3045"/><rect fill="#E2E2F0" height="35.8832" rx="2.75" ry="2.75" style="stroke:#181818;stroke-width:0.55;" width="35.0786" x="22" y="5.5"/><text fill="#000000" font-family="sans-serif" font-size="15.4" lengthAdjust="spacing" textLength="19.6786" x="29.7" y="29.8182">:UI</text><rect fill="#E2E2F0" height="35.8832" rx="2.75" ry="2.75" style="stroke:#181818;stroke-width:0.55;" width="35.0786" x="22" y="444.2045"/><text fill="#000000" font-family="sans-serif" font-size="15.4" lengthAdjust="spacing" textLength="19.6786" x="29.7" y="468.5227">:UI</text><rect fill="#E2E2F0" height="35.8832" rx="2.75" ry="2.75" style="stroke:#181818;stroke-width:0.55;" width="100.1226" x="282.5867" y="5.5"/><text fill="#000000" font-family="sans-serif" font-size="15.4" lengthAdjust="spacing" textLength="84.7226" x="290.2867" y="29.8182">:UMLProject</text><rect fill="#E2E2F0" height="35.8832" rx="2.75" ry="2.75" style="stroke:#181818;stroke-width:0.55;" width="100.1226" x="282.5867" y="444.2045"/><text fill="#000000" font-family="sans-serif" font-size="15.4" lengthAdjust="spacing" textLength="84.7226" x="290.2867" y="468.5227">:UMLProject</text><polygon fill="#181818" points="319.4479,74.7033,330.4479,79.1033,319.4479,83.5033,323.8479,79.1033" style="stroke:#181818;stroke-width:1.1;"/><line style="stroke:#181818;stroke-width:1.1;" x1="39.5393" x2="326.0479" y1="79.1033" y2="79.1033"/><text fill="#000000" font-family="sans-serif" font-size="14.3" font-weight="bold" lengthAdjust="spacing" textLength="7.953" x="47.2393" y="73.3144">1</text><text fill="#000000" font-family="sans-serif" font-size="14.3" lengthAdjust="spacing" textLength="162.1458" x="59.5923" y="73.3144">openProject(pojectName)</text><path d="M11,95.6033 L82.753,95.6033 L82.753,105.8234 L71.753,116.8234 L11,116.8234 L11,95.6033 " fill="#FFD700" style="stroke:#000000;stroke-width:1.6500000000000001;"/><rect fill="none" height="331.0012" style="stroke:#000000;stroke-width:1.6500000000000001;" width="382.7092" x="11" y="95.6033"/><text fill="#000000" font-family="sans-serif" font-size="14.3" font-weight="bold" lengthAdjust="spacing" textLength="22.253" x="27.5" y="112.1345">par</text><text fill="#000000" font-family="sans-serif" font-size="12.1" font-weight="bold" lengthAdjust="spacing" textLength="92.0853" x="99.253" y="110.8604">[UC01-EditUML]</text><polygon fill="#181818" points="319.4479,138.0436,330.4479,142.4436,319.4479,146.8436,323.8479,142.4436" style="stroke:#181818;stroke-width:1.1;"/><line style="stroke:#181818;stroke-width:1.1;" x1="39.5393" x2="326.0479" y1="142.4436" y2="142.4436"/><text fill="#000000" font-family="sans-serif" font-size="14.3" font-weight="bold" lengthAdjust="spacing" textLength="7.953" x="47.2393" y="136.6546">2</text><text fill="#000000" font-family="sans-serif" font-size="14.3" lengthAdjust="spacing" textLength="190.7249" x="59.5923" y="136.6546">selectDiagram(diagramName)</text><polygon fill="#181818" points="319.4479,172.4637,330.4479,176.8637,319.4479,181.2637,323.8479,176.8637" style="stroke:#181818;stroke-width:1.1;"/><line style="stroke:#181818;stroke-width:1.1;" x1="39.5393" x2="326.0479" y1="176.8637" y2="176.8637"/><text fill="#000000" font-family="sans-serif" font-size="14.3" font-weight="bold" lengthAdjust="spacing" textLength="7.953" x="47.2393" y="171.0747">3</text><text fill="#000000" font-family="sans-serif" font-size="14.3" lengthAdjust="spacing" textLength="194.7747" x="59.5923" y="171.0747">addGadget(gadgetType, point)</text><polygon fill="#181818" points="319.4479,206.8838,330.4479,211.2838,319.4479,215.6838,323.8479,211.2838" style="stroke:#181818;stroke-width:1.1;"/><line style="stroke:#181818;stroke-width:1.1;" x1="39.5393" x2="326.0479" y1="211.2838" y2="211.2838"/><text fill="#000000" font-family="sans-serif" font-size="14.3" font-weight="bold" lengthAdjust="spacing" textLength="7.953" x="47.2393" y="205.4948">4</text><text fill="#000000" font-family="sans-serif" font-size="14.3" lengthAdjust="spacing" textLength="151.8188" x="59.5923" y="205.4948">selectComponent(point)</text><polygon fill="#181818" points="319.4479,241.3039,330.4479,245.7039,319.4479,250.1039,323.8479,245.7039" style="stroke:#181818;stroke-width:1.1;"/><line style="stroke:#181818;stroke-width:1.1;" x1="39.5393" x2="326.0479" y1="245.7039" y2="245.7039"/><text fill="#000000" font-family="sans-serif" font-size="14.3" font-weight="bold" lengthAdjust="spacing" textLength="7.953" x="47.2393" y="239.9149">5</text><text fill="#000000" font-family="sans-serif" font-size="14.3" lengthAdjust="spacing" textLength="211.4277" x="59.5923" y="239.9149">addAssociation(AssociationType)</text><polygon fill="#181818" points="319.4479,275.724,330.4479,280.124,319.4479,284.524,323.8479,280.124" style="stroke:#181818;stroke-width:1.1;"/><line style="stroke:#181818;stroke-width:1.1;" x1="39.5393" x2="326.0479" y1="280.124" y2="280.124"/><text fill="#000000" font-family="sans-serif" font-size="14.3" font-weight="bold" lengthAdjust="spacing" textLength="7.953" x="47.2393" y="274.3351">6</text><text fill="#000000" font-family="sans-serif" font-size="14.3" lengthAdjust="spacing" textLength="126.3749" x="59.5923" y="274.3351">startDragging(point)</text><polygon fill="#181818" points="319.4479,310.1441,330.4479,314.5441,319.4479,318.9441,323.8479,314.5441" style="stroke:#181818;stroke-width:1.1;"/><line style="stroke:#181818;stroke-width:1.1;" x1="39.5393" x2="326.0479" y1="314.5441" y2="314.5441"/><text fill="#000000" font-family="sans-serif" font-size="14.3" font-weight="bold" lengthAdjust="spacing" textLength="7.953" x="47.2393" y="308.7552">7</text><text fill="#000000" font-family="sans-serif" font-size="14.3" lengthAdjust="spacing" textLength="125.5928" x="59.5923" y="308.7552">stopDragging(point)</text><polygon fill="#181818" points="319.4479,344.5643,330.4479,348.9643,319.4479,353.3643,323.8479,348.9643" style="stroke:#181818;stroke-width:1.1;"/><line style="stroke:#181818;stroke-width:1.1;" x1="39.5393" x2="326.0479" y1="348.9643" y2="348.9643"/><text fill="#000000" font-family="sans-serif" font-size="14.3" font-weight="bold" lengthAdjust="spacing" textLength="7.953" x="47.2393" y="343.1753">8</text><text fill="#000000" font-family="sans-serif" font-size="14.3" lengthAdjust="spacing" textLength="159.7578" x="59.5923" y="343.1753">unselectAllComponents()</text><polygon fill="#181818" points="319.4479,378.9844,330.4479,383.3844,319.4479,387.7844,323.8479,383.3844" style="stroke:#181818;stroke-width:1.1;"/><line style="stroke:#181818;stroke-width:1.1;" x1="39.5393" x2="326.0479" y1="383.3844" y2="383.3844"/><text fill="#000000" font-family="sans-serif" font-size="14.3" font-weight="bold" lengthAdjust="spacing" textLength="7.953" x="47.2393" y="377.5954">9</text><text fill="#000000" font-family="sans-serif" font-size="14.3" lengthAdjust="spacing" textLength="151.8188" x="59.5923" y="377.5954">selectComponent(point)</text><polygon fill="#181818" points="319.4479,413.4045,330.4479,417.8045,319.4479,422.2045,323.8479,417.8045" style="stroke:#181818;stroke-width:1.1;"/><line style="stroke:#181818;stroke-width:1.1;" x1="39.5393" x2="326.0479" y1="417.8045" y2="417.8045"/><text fill="#000000" font-family="sans-serif" font-size="14.3" font-weight="bold" lengthAdjust="spacing" textLength="15.906" x="47.2393" y="412.0155">10</text><text fill="#000000" font-family="sans-serif" font-size="14.3" lengthAdjust="spacing" textLength="246.4027" x="67.5453" y="412.0155">editAttribute(attributeName, newValue)</text><!--SRC=[hL5DQq8n4BpxAyBp4a6XlNeG7Ygbq9OUrFjgbXZ9smt91kc_RvvFHIz-WBdCB6Hsc1t8mfIRDSQUAgyQBpyhDPgqvFlhD_8EDrAD5GUauwJ30NwWmK4lGEnRzaRrzridg9RJj_VHt3WfwfiB4_f2PWviX4QR3hkTjsHWp0SOYwBj0HP_0OSgi2CPFE0tvIOm8RKXxagALvqIRno8Oz8Nl7MzOoSGPHR1MaVs4RCa79xvdwbBL7j_3fNqos-0fSfQ9Bfr5jHmOcrHGqMuNu7FvHH8vghwVm00]--></g></svg>