<svg xmlns="http://www.w3.org/2000/svg" xmlns:xlink="http://www.w3.org/1999/xlink" contentStyleType="text/css" height="794px" preserveAspectRatio="none" style="width:1414px;height:794px;background:#FFFFFF;" version="1.1" viewBox="0 0 1414 794" width="1414px" zoomAndPan="magnify"><defs/><g><g id="elem_User"><rect fill="#F1F1F1" height="20.7999" style="stroke:#181818;stroke-width:0.5;" width="43.5539" x="1199.4" y="8.7067"/><text fill="#000000" font-family="sans-serif" font-size="14" lengthAdjust="spacing" textLength="29.5539" x="1206.4" y="23.7126">User</text></g><g id="elem_UMLProject"><rect fill="#F1F1F1" height="20.7999" style="stroke:#181818;stroke-width:0.5;" width="87.1217" x="603.62" y="222.3067"/><text fill="#000000" font-family="sans-serif" font-size="14" lengthAdjust="spacing" textLength="73.1217" x="610.62" y="237.3126">UMLProject</text></g><g id="elem_UMLDiagram"><rect fill="#F1F1F1" height="20.7999" style="stroke:#181818;stroke-width:0.5;" width="96.4457" x="158.95" y="387.2067"/><text fill="#000000" font-family="sans-serif" font-size="14" lengthAdjust="spacing" textLength="82.4457" x="165.95" y="402.2126">UMLDiagram</text></g><g id="elem_GMN5"><path d="M290.76,384.8067 L290.76,393.6067 L255.64,397.6067 L290.76,401.6067 L290.76,410.4067 A0,0 0 0 0 290.76,410.4067 L499.5842,410.4067 A0,0 0 0 0 499.5842,410.4067 L499.5842,394.8067 L489.5842,384.8067 L290.76,384.8067 A0,0 0 0 0 290.76,384.8067 " fill="#FEFFDD" style="stroke:#181818;stroke-width:0.5;"/><path d="M489.5842,384.8067 L489.5842,394.8067 L499.5842,394.8067 L489.5842,384.8067 " fill="#FEFFDD" style="stroke:#181818;stroke-width:0.5;"/><text fill="#000000" font-family="sans-serif" font-size="13" lengthAdjust="spacing" textLength="187.8242" x="296.76" y="401.8837">Each UMLDiagram is a diagram.</text></g><g id="elem_Gadget"><rect fill="#F1F1F1" height="20.7999" style="stroke:#181818;stroke-width:0.5;" width="59.9198" x="177.22" y="537.1067"/><text fill="#000000" font-family="sans-serif" font-size="14" lengthAdjust="spacing" textLength="45.9198" x="184.22" y="552.1126">Gadget</text></g><g id="elem_Association"><rect fill="#F1F1F1" height="20.7999" style="stroke:#181818;stroke-width:0.5;" width="85.5817" x="242.39" y="668.9067"/><text fill="#000000" font-family="sans-serif" font-size="14" lengthAdjust="spacing" textLength="71.5817" x="249.39" y="683.9126">Association</text></g><g id="elem_Submodule"><rect fill="#F1F1F1" height="20.7999" style="stroke:#181818;stroke-width:0.5;" width="84.8117" x="550.77" y="387.2067"/><text fill="#000000" font-family="sans-serif" font-size="14" lengthAdjust="spacing" textLength="70.8117" x="557.77" y="402.2126">Submodule</text></g><g id="elem_Session"><rect fill="#F1F1F1" height="20.7999" style="stroke:#181818;stroke-width:0.5;" width="63.7978" x="1113.28" y="106.5067"/><text fill="#000000" font-family="sans-serif" font-size="14" lengthAdjust="spacing" textLength="49.7978" x="1120.28" y="121.5126">Session</text></g><g id="elem_Chatroom"><rect fill="#F1F1F1" height="20.7999" style="stroke:#181818;stroke-width:0.5;" width="75.4597" x="1179.45" y="222.3067"/><text fill="#000000" font-family="sans-serif" font-size="14" lengthAdjust="spacing" textLength="61.4597" x="1186.45" y="237.3126">Chatroom</text></g><g id="elem_Message"><rect fill="#F1F1F1" height="20.7999" style="stroke:#181818;stroke-width:0.5;" width="70.7978" x="1252.78" y="387.2067"/><text fill="#000000" font-family="sans-serif" font-size="14" lengthAdjust="spacing" textLength="56.7978" x="1259.78" y="402.2126">Message</text></g><g id="elem_Attribute"><rect fill="#F1F1F1" height="20.7999" style="stroke:#181818;stroke-width:0.5;" width="66.1358" x="116.11" y="766.7067"/><text fill="#000000" font-family="sans-serif" font-size="14" lengthAdjust="spacing" textLength="52.1358" x="123.11" y="781.7126">Attribute</text></g><g id="elem_TextStyle"><rect fill="#F1F1F1" height="20.7999" style="stroke:#181818;stroke-width:0.5;" width="72.3518" x="7" y="668.9067"/><text fill="#000000" font-family="sans-serif" font-size="14" lengthAdjust="spacing" textLength="58.3518" x="14" y="683.9126">TextStyle</text></g><g id="elem_Timer"><rect fill="#F1F1F1" height="20.7999" style="stroke:#181818;stroke-width:0.5;" width="49.7699" x="1049.29" y="537.1067"/><text fill="#000000" font-family="sans-serif" font-size="14" lengthAdjust="spacing" textLength="35.7699" x="1056.29" y="552.1126">Timer</text></g><g id="elem_Verifier"><rect fill="#F1F1F1" height="20.7999" style="stroke:#181818;stroke-width:0.5;" width="58.3378" x="106.01" y="222.3067"/><text fill="#000000" font-family="sans-serif" font-size="14" lengthAdjust="spacing" textLength="44.3378" x="113.01" y="237.3126">Verifier</text></g><!--link UMLProject to UMLDiagram--><g id="link_UMLProject_UMLDiagram"><path codeLine="92" d="M603.18,235.0367 C502.59,238.4867 262.38,249.1667 235.18,273.1067 C201.67,302.5867 203.7,362.9667 205.97,386.7067 " fill="none" id="UMLProject-UMLDiagram" style="stroke:#181818;stroke-width:1.0;"/><text fill="#000000" font-family="sans-serif" font-size="13" lengthAdjust="spacing" textLength="61.2691" x="236.18" y="311.4837">&#129127;manages</text><path d="M303.4491,286.6067 L303.4491,327.6067 L565.4491,327.6067 L565.4491,296.6067 L555.4491,286.6067 L303.4491,286.6067 " fill="#FEFFDD" style="stroke:#181818;stroke-width:0.5;"/><path d="M555.4491,286.6067 L555.4491,296.6067 L565.4491,296.6067 L555.4491,286.6067 " fill="#FEFFDD" style="stroke:#181818;stroke-width:0.5;"/><text fill="#000000" font-family="sans-serif" font-size="13" lengthAdjust="spacing" textLength="241.9952" x="309.4491" y="303.6837">A UMLroject can has multi UMLDiagrams.</text><text fill="#000000" font-family="sans-serif" font-size="13" lengthAdjust="spacing" textLength="130.7671" x="309.4491" y="319.2837">Just like .sln to .vcproj.</text><text fill="#000000" font-family="sans-serif" font-size="13" lengthAdjust="spacing" textLength="7.228" x="588.3316" y="231.3071">1</text><text fill="#000000" font-family="sans-serif" font-size="13" lengthAdjust="spacing" textLength="5.057" x="199.3625" y="375.865">*</text></g><!--link UMLDiagram to Gadget--><g id="link_UMLDiagram_Gadget"><path codeLine="98" d="M207.18,408.3067 C207.18,435.1767 207.18,510.2867 207.18,536.9567 " fill="none" id="UMLDiagram-Gadget" style="stroke:#181818;stroke-width:1.0;"/><text fill="#000000" font-family="sans-serif" font-size="13" lengthAdjust="spacing" textLength="61.412" x="208.18" y="485.1837">consists of</text><text fill="#000000" font-family="sans-serif" font-size="13" lengthAdjust="spacing" textLength="7.228" x="198.7862" y="428.015">1</text><text fill="#000000" font-family="sans-serif" font-size="13" lengthAdjust="spacing" textLength="5.057" x="200.9752" y="525.3806">*</text></g><!--link Submodule to Gadget--><g id="link_Submodule_Gadget"><path codeLine="99" d="M567.55,408.4267 C497.42,435.2967 302.91,509.8267 232.79,536.6867 " fill="none" id="Submodule-Gadget" style="stroke:#181818;stroke-width:1.0;"/><text fill="#000000" font-family="sans-serif" font-size="13" lengthAdjust="spacing" textLength="69.212" x="447.1" y="485.1837">&#129127;consists of</text><text fill="#000000" font-family="sans-serif" font-size="13" lengthAdjust="spacing" textLength="7.228" x="548.5826" y="428.1845">1</text><text fill="#000000" font-family="sans-serif" font-size="13" lengthAdjust="spacing" textLength="5.057" x="238.4916" y="525.4295">*</text></g><!--link Submodule to Association--><g id="link_Submodule_Association"><path codeLine="100" d="M596.59,408.4867 C608.42,444.7367 643.72,571.8167 582.18,638.9067 C548.9,675.1767 402.51,679.3567 328.44,679.0667 " fill="none" id="Submodule-Association" style="stroke:#181818;stroke-width:1.0;"/><text fill="#000000" font-family="sans-serif" font-size="13" lengthAdjust="spacing" textLength="69.212" x="618.29" y="552.0837">&#129127;consists of</text><text fill="#000000" font-family="sans-serif" font-size="13" lengthAdjust="spacing" textLength="7.228" x="589.6016" y="428.2692">1</text><text fill="#000000" font-family="sans-serif" font-size="13" lengthAdjust="spacing" textLength="5.057" x="336.0236" y="674.9114">*</text></g><!--link Gadget to Attribute--><g id="link_Gadget_Attribute"><path codeLine="101" d="M201.43,558.2667 C197.03,566.0667 191.08,577.4067 187.18,587.9067 C162.79,653.5167 152.84,738.1267 150.05,766.4167 " fill="none" id="Gadget-Attribute" style="stroke:#181818;stroke-width:1.0;"/><text fill="#000000" font-family="sans-serif" font-size="13" lengthAdjust="spacing" textLength="56.2121" x="165.68" y="683.8837">&#129127;contains</text><text fill="#000000" font-family="sans-serif" font-size="13" lengthAdjust="spacing" textLength="7.228" x="200.5489" y="577.9997">1</text><text fill="#000000" font-family="sans-serif" font-size="13" lengthAdjust="spacing" textLength="5.057" x="144.3103" y="755.2196">*</text></g><!--link Association to Attribute--><g id="link_Association_Attribute"><path codeLine="102" d="M271.13,690.1967 C244.94,708.6467 188.92,748.1067 162.94,766.4167 " fill="none" id="Association-Attribute" style="stroke:#181818;stroke-width:1.0;"/><text fill="#000000" font-family="sans-serif" font-size="13" lengthAdjust="spacing" textLength="56.2121" x="226.32" y="732.7837">&#129127;contains</text><text fill="#000000" font-family="sans-serif" font-size="13" lengthAdjust="spacing" textLength="7.228" x="256.9373" y="709.9833">1</text><text fill="#000000" font-family="sans-serif" font-size="13" lengthAdjust="spacing" textLength="5.057" x="163.1619" y="755.2196">*</text></g><!--link Gadget to Association--><g id="link_Gadget_Association"><path codeLine="103" d="M203.53,558.3867 C197.67,576.0667 188.35,613.6167 204.18,638.9067 C213.22,653.3567 229.24,662.6467 244.67,668.5467 " fill="none" id="Gadget-Association" style="stroke:#181818;stroke-width:1.0;"/><text fill="#000000" font-family="sans-serif" font-size="13" lengthAdjust="spacing" textLength="66.469" x="205.18" y="617.7837">Asscotiates</text><path d="M277.649,592.9067 L277.649,633.9067 L572.649,633.9067 L572.649,602.9067 L562.649,592.9067 L277.649,592.9067 " fill="#FEFFDD" style="stroke:#181818;stroke-width:0.5;"/><path d="M562.649,592.9067 L562.649,602.9067 L572.649,602.9067 L562.649,592.9067 " fill="#FEFFDD" style="stroke:#181818;stroke-width:0.5;"/><text fill="#000000" font-family="sans-serif" font-size="13" lengthAdjust="spacing" textLength="267.0073" x="283.649" y="609.9837">A Gadget : Association = 1 : 1 occurs when an</text><text fill="#000000" font-family="sans-serif" font-size="13" lengthAdjust="spacing" textLength="274.5863" x="283.649" y="625.5837">Association connects back to the same Gadget.</text><text fill="#000000" font-family="sans-serif" font-size="13" lengthAdjust="spacing" textLength="25.298" x="171.9296" y="578.1692">1...2</text><text fill="#000000" font-family="sans-serif" font-size="13" lengthAdjust="spacing" textLength="5.057" x="229.1931" y="661.2459">*</text></g><!--link UMLProject to Submodule--><g id="link_UMLProject_Submodule"><path codeLine="108" d="M623.45,243.4867 C611.13,249.9267 597.22,259.6867 590.18,273.1067 C570.25,311.0967 583.29,365.1067 589.95,386.9167 " fill="none" id="UMLProject-Submodule" style="stroke:#181818;stroke-width:1.0;"/><text fill="#000000" font-family="sans-serif" font-size="13" lengthAdjust="spacing" textLength="44.642" x="713.7621" y="286.1837">&#129127;knows</text><path d="M595.18,295.7067 L595.18,336.7067 L876.18,336.7067 L876.18,305.7067 L866.18,295.7067 L595.18,295.7067 " fill="#FEFFDD" style="stroke:#181818;stroke-width:0.5;"/><path d="M866.18,295.7067 L866.18,305.7067 L876.18,305.7067 L866.18,295.7067 " fill="#FEFFDD" style="stroke:#181818;stroke-width:0.5;"/><text fill="#000000" font-family="sans-serif" font-size="13" lengthAdjust="spacing" textLength="260.8063" x="601.18" y="312.7837">This enables UMLProject import Submodules</text><text fill="#000000" font-family="sans-serif" font-size="13" lengthAdjust="spacing" textLength="202.2932" x="604.794" y="328.3837">to UMLDiagrams under the project.</text><text fill="#000000" font-family="sans-serif" font-size="13" lengthAdjust="spacing" textLength="7.228" x="605.2643" y="263.228">1</text><text fill="#000000" font-family="sans-serif" font-size="13" lengthAdjust="spacing" textLength="5.057" x="582.315" y="375.7196">*</text></g><!--link User to Session--><g id="link_User_Session"><path codeLine="114" d="M1214.97,30.0067 C1207.61,41.5167 1194.74,60.9467 1182.18,76.5067 C1173.57,87.1667 1162.74,98.4767 1155.03,106.2367 " fill="none" id="User-Session" style="stroke:#181818;stroke-width:1.0;"/><text fill="#000000" font-family="sans-serif" font-size="13" lengthAdjust="spacing" textLength="38.87" x="1195.7" y="72.5837">&#129127;hosts</text><text fill="#000000" font-family="sans-serif" font-size="13" lengthAdjust="spacing" textLength="7.228" x="1204.0129" y="49.7975">1</text><text fill="#000000" font-family="sans-serif" font-size="13" lengthAdjust="spacing" textLength="7.228" x="1151.0201" y="95.0488">1</text></g><!--link User to Session--><g id="link_User_Session"><path codeLine="115" d="M1199.16,23.8167 C1179.39,28.4467 1151.47,38.4767 1138.18,59.5067 C1129.11,73.8467 1135.38,94.3767 1140.48,106.3067 " fill="none" id="User-Session-1" style="stroke:#181818;stroke-width:1.0;"/><text fill="#000000" font-family="sans-serif" font-size="13" lengthAdjust="spacing" textLength="34.528" x="1139.18" y="72.5837">&#129127;joins</text><text fill="#000000" font-family="sans-serif" font-size="13" lengthAdjust="spacing" textLength="5.057" x="1186.3543" y="20.1">*</text><text fill="#000000" font-family="sans-serif" font-size="13" lengthAdjust="spacing" textLength="7.228" x="1129.7407" y="95.1512">1</text></g><!--link Session to UMLProject--><g id="link_Session_UMLProject"><path codeLine="116" d="M1112.83,118.2767 C1051.87,119.7067 916.32,126.4367 807.18,157.3067 C751.76,172.9867 691.45,205.7567 663.32,222.0667 " fill="none" id="Session-UMLProject" style="stroke:#181818;stroke-width:1.0;"/><text fill="#000000" font-family="sans-serif" font-size="13" lengthAdjust="spacing" textLength="66.4821" x="808.18" y="179.3837">connects to</text><path d="M880.6621,162.3067 L880.6621,187.3067 L1042.6621,187.3067 L1042.6621,172.3067 L1032.6621,162.3067 L880.6621,162.3067 " fill="#FEFFDD" style="stroke:#181818;stroke-width:0.5;"/><path d="M1032.6621,162.3067 L1032.6621,172.3067 L1042.6621,172.3067 L1032.6621,162.3067 " fill="#FEFFDD" style="stroke:#181818;stroke-width:0.5;"/><text fill="#000000" font-family="sans-serif" font-size="13" lengthAdjust="spacing" textLength="141.6221" x="886.6621" y="179.3837">A Session binds a Projet</text><text fill="#000000" font-family="sans-serif" font-size="13" lengthAdjust="spacing" textLength="7.228" x="1098.013" y="114.0784">1</text><text fill="#000000" font-family="sans-serif" font-size="13" lengthAdjust="spacing" textLength="7.228" x="662.2183" y="210.8927">1</text></g><!--link Session to Chatroom--><g id="link_Session_Chatroom"><path codeLine="120" d="M1151.31,127.6067 C1164.92,149.1067 1197.46,200.5567 1211.05,222.0267 " fill="none" id="Session-Chatroom" style="stroke:#181818;stroke-width:1.0;"/><text fill="#000000" font-family="sans-serif" font-size="13" lengthAdjust="spacing" textLength="48.412" x="1192.83" y="179.3837">contains</text><text fill="#000000" font-family="sans-serif" font-size="13" lengthAdjust="spacing" textLength="7.228" x="1145.4424" y="147.315">1</text><text fill="#000000" font-family="sans-serif" font-size="13" lengthAdjust="spacing" textLength="7.228" x="1199.6489" y="210.8342">1</text></g><!--link Chatroom to Message--><g id="link_Chatroom_Message"><path codeLine="121" d="M1226.74,243.3167 C1233.79,250.8667 1243.16,261.9367 1249.18,273.1067 C1270.39,312.5067 1282.19,365.2767 1286.39,386.8267 " fill="none" id="Chatroom-Message" style="stroke:#181818;stroke-width:1.0;"/><text fill="#000000" font-family="sans-serif" font-size="13" lengthAdjust="spacing" textLength="48.412" x="1275.69" y="311.6837">contains</text><text fill="#000000" font-family="sans-serif" font-size="13" lengthAdjust="spacing" textLength="7.228" x="1222.2868" y="262.9878">1</text><text fill="#000000" font-family="sans-serif" font-size="13" lengthAdjust="spacing" textLength="5.057" x="1279.4196" y="375.588">*</text></g><!--link User to Message--><g id="link_User_Message"><path codeLine="122" d="M1227.3,29.7067 C1247.63,62.2267 1312.72,171.8767 1333.18,273.1067 C1339.16,302.7267 1343.27,312.6167 1333.18,341.1067 C1326.54,359.8167 1310.62,376.8167 1299.62,386.9367 " fill="none" id="User-Message" style="stroke:#181818;stroke-width:1.0;"/><text fill="#000000" font-family="sans-serif" font-size="13" lengthAdjust="spacing" textLength="34.684" x="1310.1" y="179.3837">sends</text><text fill="#000000" font-family="sans-serif" font-size="13" lengthAdjust="spacing" textLength="7.228" x="1221.429" y="49.3737">1</text><text fill="#000000" font-family="sans-serif" font-size="13" lengthAdjust="spacing" textLength="5.057" x="1298.7685" y="375.7488">*</text></g><!--link TextStyle to Attribute--><g id="link_TextStyle_Attribute"><path codeLine="123" d="M44.85,689.8467 C47.45,702.0867 53.53,723.3367 66.18,736.7067 C79.55,750.8467 99.02,760.4567 115.75,766.6467 " fill="none" id="TextStyle-Attribute" style="stroke:#181818;stroke-width:1.0;"/><text fill="#000000" font-family="sans-serif" font-size="13" lengthAdjust="spacing" textLength="55.6271" x="67.18" y="732.7837">describes</text><text fill="#000000" font-family="sans-serif" font-size="13" lengthAdjust="spacing" textLength="7.228" x="37.1011" y="709.9475">1</text><text fill="#000000" font-family="sans-serif" font-size="13" lengthAdjust="spacing" textLength="7.228" x="100.697" y="759.8606">1</text></g><!--link UMLProject to Timer--><g id="link_UMLProject_Timer"><path codeLine="124" d="M691.11,235.6167 C751.72,239.1367 856.76,248.6567 885.18,273.1067 C938.66,319.1267 895.33,365.2067 934.18,424.1067 C968.13,475.5867 1029.35,518.3767 1058.25,536.7967 " fill="none" id="UMLProject-Timer" style="stroke:#181818;stroke-width:1.0;"/><text fill="#000000" font-family="sans-serif" font-size="13" lengthAdjust="spacing" textLength="45.5131" x="968.829" y="384.1837">inquires</text><path d="M939.18,393.7067 L939.18,418.7067 L1043.18,418.7067 L1043.18,403.7067 L1033.18,393.7067 L939.18,393.7067 " fill="#FEFFDD" style="stroke:#181818;stroke-width:0.5;"/><path d="M1033.18,393.7067 L1033.18,403.7067 L1043.18,403.7067 L1033.18,393.7067 " fill="#FEFFDD" style="stroke:#181818;stroke-width:0.5;"/><text fill="#000000" font-family="sans-serif" font-size="13" lengthAdjust="spacing" textLength="83.8111" x="945.18" y="410.7837">For auto-save.</text><text fill="#000000" font-family="sans-serif" font-size="13" lengthAdjust="spacing" textLength="7.228" x="698.6872" y="232.01">1</text><text fill="#000000" font-family="sans-serif" font-size="13" lengthAdjust="spacing" textLength="7.228" x="1042.3187" y="525.5903">1</text></g><!--link Session to Timer--><g id="link_Session_Timer"><path codeLine="128" d="M1138.1,127.7967 C1121.67,151.4667 1081.23,213.8367 1067.18,273.1067 C1043.29,373.8167 1065.16,501.2667 1072.18,536.8767 " fill="none" id="Session-Timer" style="stroke:#181818;stroke-width:1.0;"/><text fill="#000000" font-family="sans-serif" font-size="13" lengthAdjust="spacing" textLength="53.3131" x="1127.556" y="293.6837">&#129127;inquires</text><path d="M1072.18,303.2067 L1072.18,328.2067 L1236.18,328.2067 L1236.18,313.2067 L1226.18,303.2067 L1072.18,303.2067 " fill="#FEFFDD" style="stroke:#181818;stroke-width:0.5;"/><path d="M1226.18,303.2067 L1226.18,313.2067 L1236.18,313.2067 L1226.18,303.2067 " fill="#FEFFDD" style="stroke:#181818;stroke-width:0.5;"/><text fill="#000000" font-family="sans-serif" font-size="13" lengthAdjust="spacing" textLength="143.0652" x="1078.18" y="320.2837">For conneection timeout.</text><text fill="#000000" font-family="sans-serif" font-size="13" lengthAdjust="spacing" textLength="7.228" x="1126.7832" y="147.5833">1</text><text fill="#000000" font-family="sans-serif" font-size="13" lengthAdjust="spacing" textLength="7.228" x="1062.6913" y="525.7073">1</text></g><!--link Message to Timer--><g id="link_Message_Timer"><path codeLine="132" d="M1274.13,408.3067 C1235.36,435.1067 1127.11,509.9267 1088.27,536.7667 " fill="none" id="Message-Timer" style="stroke:#181818;stroke-width:1.0;"/><text fill="#000000" font-family="sans-serif" font-size="13" lengthAdjust="spacing" textLength="53.3131" x="1283.2661" y="467.1837">&#129127;inquires</text><path d="M1211.64,476.7067 L1211.64,501.7067 L1407.64,501.7067 L1407.64,486.7067 L1397.64,476.7067 L1211.64,476.7067 " fill="#FEFFDD" style="stroke:#181818;stroke-width:0.5;"/><path d="M1397.64,476.7067 L1397.64,486.7067 L1407.64,486.7067 L1397.64,476.7067 " fill="#FEFFDD" style="stroke:#181818;stroke-width:0.5;"/><text fill="#000000" font-family="sans-serif" font-size="13" lengthAdjust="spacing" textLength="175.5652" x="1217.64" y="493.7837">For message-sending timeout.</text><text fill="#000000" font-family="sans-serif" font-size="13" lengthAdjust="spacing" textLength="7.228" x="1259.9381" y="428.015">1</text><text fill="#000000" font-family="sans-serif" font-size="13" lengthAdjust="spacing" textLength="7.228" x="1086.2229" y="525.5465">1</text></g><!--link Verifier to UMLDiagram--><g id="link_Verifier_UMLDiagram"><path codeLine="136" d="M131.96,243.5667 C126.11,263.3167 115.8,308.6267 132.18,341.1067 C142.97,362.5167 166.35,377.7167 184.15,386.7367 " fill="none" id="Verifier-UMLDiagram" style="stroke:#181818;stroke-width:1.0;"/><text fill="#000000" font-family="sans-serif" font-size="13" lengthAdjust="spacing" textLength="40.456" x="133.18" y="311.6837">checks</text><text fill="#000000" font-family="sans-serif" font-size="13" lengthAdjust="spacing" textLength="7.228" x="122.2355" y="263.341">1</text><text fill="#000000" font-family="sans-serif" font-size="13" lengthAdjust="spacing" textLength="7.228" x="165.5961" y="375.9081">1</text></g><!--SRC=[xLRFZjCy4B_dAKPx0Jwf4LqX5Y8X0RiBOg5YHRjxTnstCKtiOa_Ajo2U1N7YzNW4nawJE24BbU2ON99nPdxpVpoPJ0LmQNWkeZkP8mg1cKuZ_yqGZLoMMF_BfTf4KGJqwELxmH6kh33msP-uHwRDfsA5yCINhi3ipQNH_lFtOkx9cSNpLE8mpfbaQyEA06SbSz41m9jjIomPtwnrgT9JdMjpcn9lX4O1HgupRBZE6Sz2fT82WxGYOiybLEe5EsQ-PEbQXAwk_S4Yj8jtpDbgAr5g5TXt8yn019vPgxbaZZV0P-rfHub5Pl2oZqqsNnwgRruk2vsMkJWWSS-QmZaWbNDXRTU903RJ5hjEB6JHSGjBEm1wcZ4qMhlg6FWx8vLiVOidbg8YJ90UXKArHY3f9xN5TYWdjT_3o7seJgwxI0lnFyxnfXFjbGva7M7bfpOKqZxNUHgGhv3bahUHPFRAEKPDFDIOBgnXAt_CX5feTwhB9ckXmBKmSYKxCjYhk20r_Xqq_z7q22OJEFhlAEog17vy_VQzO8gIOtkj25GYVW0rHUOazt2SAUSW56MECa2qSSD-KLeaW8s0sEOAK4EyurkI7shVmAR0qdqt9owHLbgqe5UUlUsD8Mxdqq4IOKiFY-qnGvccv1e9P59LqGi13nPgTCHnV7oBRKHnZKGUagOc42764vZIoHGqvwMnljo0jLCeP2Nh52NP-Wdk4eUP04lpPe_SIs2lqaA_swXNVc-K_XWuiDI8D3Bw7YmoclPqiInpOKDaMMor2GQZRIISaK4HGkaQpvkzhMG7QyxTfRMnzAhdOcMg6uIsvVFk33A-rtKYw_C0Cx0-QUEA-iz9hC6MKgNkxlCm-6la1vGsizYhR0kjEGyoL4_c7cidDXqsDwqhddPa1hh3Ia-5vKJiypGmZEXLZS44fFfGIYF-N1mlj05MefvOjXFnGV6eTRXi7QodrkMJHaOxJAocyu3MEZx_IcjHuKrSjALQ_qPpSorqgwwTy3mJV6FfHeYUaY2MHHvLs-P-3UrjdkEwEQwRuxevhflZkZckc-EwEQwRuxevhfj_ksvUvamXSS5E61-jQNny__X1V79tpjo2i8Nx9p1zd4mV9TCJE9qlmFs-5zsTlLg0rQNXWfOnMwMQvEz55sp7u5sfdA49lDqATN7skZw0SxMJHgl2NSONrxEMuU63oNFfD1go1AvdqPbOCRfJI89hvta2LuiNaqVH6wRM9KKa8U-ZKzegqTpGl_bF]--></g></svg>