<svg xmlns="http://www.w3.org/2000/svg" xmlns:xlink="http://www.w3.org/1999/xlink" contentStyleType="text/css" height="1236px" preserveAspectRatio="none" style="width:1438px;height:1236px;background:#FFFFFF;" version="1.1" viewBox="0 0 1438 1236" width="1438px" zoomAndPan="magnify"><defs/><g><g id="elem_User"><rect fill="#F1F1F1" height="62.3998" style="stroke:#181818;stroke-width:0.5;" width="47.0139" x="1221.73" y="7"/><text fill="#000000" font-family="sans-serif" font-size="14" lengthAdjust="spacing" textLength="29.5539" x="1230.46" y="22.0059">User</text><line style="stroke:#181818;stroke-width:0.5;" x1="1222.73" x2="1267.7439" y1="27.7999" y2="27.7999"/><text fill="#000000" font-family="sans-serif" font-size="14" lengthAdjust="spacing" textLength="10.892" x="1227.73" y="44.8059">id</text><text fill="#000000" font-family="sans-serif" font-size="14" lengthAdjust="spacing" textLength="35.0139" x="1227.73" y="61.6058">name</text></g><g id="elem_UMLProject"><rect fill="#F1F1F1" height="79.1997" style="stroke:#181818;stroke-width:0.5;" width="87.1217" x="627.68" y="337.4"/><text fill="#000000" font-family="sans-serif" font-size="14" lengthAdjust="spacing" textLength="73.1217" x="634.68" y="352.4059">UMLProject</text><line style="stroke:#181818;stroke-width:0.5;" x1="628.68" x2="713.8017" y1="358.1999" y2="358.1999"/><text fill="#000000" font-family="sans-serif" font-size="14" lengthAdjust="spacing" textLength="10.892" x="633.68" y="375.2059">id</text><text fill="#000000" font-family="sans-serif" font-size="14" lengthAdjust="spacing" textLength="35.0139" x="633.68" y="392.0058">name</text><text fill="#000000" font-family="sans-serif" font-size="14" lengthAdjust="spacing" textLength="45.9058" x="633.68" y="408.8057">lastEdit</text></g><g id="elem_UMLDiagram"><rect fill="#F1F1F1" height="95.9996" style="stroke:#181818;stroke-width:0.5;" width="113.9336" x="172.27" y="544.6"/><text fill="#000000" font-family="sans-serif" font-size="14" lengthAdjust="spacing" textLength="82.4457" x="188.0139" y="559.6059">UMLDiagram</text><line style="stroke:#181818;stroke-width:0.5;" x1="173.27" x2="285.2036" y1="565.3999" y2="565.3999"/><text fill="#000000" font-family="sans-serif" font-size="14" lengthAdjust="spacing" textLength="52.9058" x="178.27" y="582.4059">filename</text><text fill="#000000" font-family="sans-serif" font-size="14" lengthAdjust="spacing" textLength="26.4599" x="178.27" y="599.2058">type</text><text fill="#000000" font-family="sans-serif" font-size="14" lengthAdjust="spacing" textLength="101.9336" x="178.27" y="616.0057">backgoundColor</text><text fill="#000000" font-family="sans-serif" font-size="14" lengthAdjust="spacing" textLength="45.9058" x="178.27" y="632.8057">lastEdit</text></g><g id="elem_GMN5"><path d="M320.82,579.8 L320.82,588.6 L286.66,592.6 L320.82,596.6 L320.82,605.4 A0,0 0 0 0 320.82,605.4 L529.6442,605.4 A0,0 0 0 0 529.6442,605.4 L529.6442,589.8 L519.6442,579.8 L320.82,579.8 A0,0 0 0 0 320.82,579.8 " fill="#FEFFDD" style="stroke:#181818;stroke-width:0.5;"/><path d="M519.6442,579.8 L519.6442,589.8 L529.6442,589.8 L519.6442,579.8 " fill="#FEFFDD" style="stroke:#181818;stroke-width:0.5;"/><text fill="#000000" font-family="sans-serif" font-size="13" lengthAdjust="spacing" textLength="187.8242" x="326.82" y="596.877">Each UMLDiagram is a diagram.</text></g><g id="elem_Gadget"><rect fill="#F1F1F1" height="95.9996" style="stroke:#181818;stroke-width:0.5;" width="85.9337" x="186.27" y="753.6"/><text fill="#000000" font-family="sans-serif" font-size="14" lengthAdjust="spacing" textLength="45.9198" x="206.2769" y="768.6059">Gadget</text><line style="stroke:#181818;stroke-width:0.5;" x1="187.27" x2="271.2037" y1="774.3999" y2="774.3999"/><text fill="#000000" font-family="sans-serif" font-size="14" lengthAdjust="spacing" textLength="73.9337" x="192.27" y="791.4059">gadgetType</text><text fill="#000000" font-family="sans-serif" font-size="14" lengthAdjust="spacing" textLength="30.3379" x="192.27" y="808.2058">color</text><text fill="#000000" font-family="sans-serif" font-size="14" lengthAdjust="spacing" textLength="48.2438" x="192.27" y="825.0057">position</text><text fill="#000000" font-family="sans-serif" font-size="14" lengthAdjust="spacing" textLength="30.3379" x="192.27" y="841.8057">layer</text></g><g id="elem_Association"><rect fill="#F1F1F1" height="95.9996" style="stroke:#181818;stroke-width:0.5;" width="113.1496" x="264.66" y="969"/><text fill="#000000" font-family="sans-serif" font-size="14" lengthAdjust="spacing" textLength="71.5817" x="285.4439" y="984.0059">Association</text><line style="stroke:#181818;stroke-width:0.5;" x1="265.66" x2="376.8096" y1="989.7999" y2="989.7999"/><text fill="#000000" font-family="sans-serif" font-size="14" lengthAdjust="spacing" textLength="101.1496" x="270.66" y="1006.8059">associationType</text><text fill="#000000" font-family="sans-serif" font-size="14" lengthAdjust="spacing" textLength="77.0277" x="270.66" y="1023.6058">startPosition</text><text fill="#000000" font-family="sans-serif" font-size="14" lengthAdjust="spacing" textLength="73.1497" x="270.66" y="1040.4057">endPosition</text><text fill="#000000" font-family="sans-serif" font-size="14" lengthAdjust="spacing" textLength="30.3379" x="270.66" y="1057.2057">layer</text></g><g id="elem_Submodule"><rect fill="#F1F1F1" height="95.9996" style="stroke:#181818;stroke-width:0.5;" width="84.8117" x="574.83" y="544.6"/><text fill="#000000" font-family="sans-serif" font-size="14" lengthAdjust="spacing" textLength="70.8117" x="581.83" y="559.6059">Submodule</text><line style="stroke:#181818;stroke-width:0.5;" x1="575.83" x2="658.6417" y1="565.3999" y2="565.3999"/><text fill="#000000" font-family="sans-serif" font-size="14" lengthAdjust="spacing" textLength="10.892" x="580.83" y="582.4059">id</text><text fill="#000000" font-family="sans-serif" font-size="14" lengthAdjust="spacing" textLength="35.0139" x="580.83" y="599.2058">name</text><text fill="#000000" font-family="sans-serif" font-size="14" lengthAdjust="spacing" textLength="52.1358" x="580.83" y="616.0057">Attribute</text><text fill="#000000" font-family="sans-serif" font-size="14" lengthAdjust="spacing" textLength="45.9058" x="580.83" y="632.8057">lastEdit</text></g><g id="elem_Session"><rect fill="#F1F1F1" height="95.9996" style="stroke:#181818;stroke-width:0.5;" width="70.3378" x="1134.07" y="146.4"/><text fill="#000000" font-family="sans-serif" font-size="14" lengthAdjust="spacing" textLength="49.7978" x="1144.34" y="161.4059">Session</text><line style="stroke:#181818;stroke-width:0.5;" x1="1135.07" x2="1203.4078" y1="167.1999" y2="167.1999"/><text fill="#000000" font-family="sans-serif" font-size="14" lengthAdjust="spacing" textLength="10.892" x="1140.07" y="184.2059">id</text><text fill="#000000" font-family="sans-serif" font-size="14" lengthAdjust="spacing" textLength="26.4599" x="1140.07" y="201.0058">host</text><text fill="#000000" font-family="sans-serif" font-size="14" lengthAdjust="spacing" textLength="58.3378" x="1140.07" y="217.8057">startTime</text><text fill="#000000" font-family="sans-serif" font-size="14" lengthAdjust="spacing" textLength="37.3518" x="1140.07" y="234.6057">status</text></g><g id="elem_Chatroom"><rect fill="#F1F1F1" height="36.7999" style="stroke:#181818;stroke-width:0.5;" width="75.4597" x="1203.51" y="358.6"/><text fill="#000000" font-family="sans-serif" font-size="14" lengthAdjust="spacing" textLength="61.4597" x="1210.51" y="373.6059">Chatroom</text><line style="stroke:#181818;stroke-width:0.5;" x1="1204.51" x2="1277.9697" y1="379.3999" y2="379.3999"/></g><g id="elem_Message"><rect fill="#F1F1F1" height="95.9996" style="stroke:#181818;stroke-width:0.5;" width="76.5677" x="1273.95" y="544.6"/><text fill="#000000" font-family="sans-serif" font-size="14" lengthAdjust="spacing" textLength="56.7978" x="1283.835" y="559.6059">Message</text><line style="stroke:#181818;stroke-width:0.5;" x1="1274.95" x2="1349.5177" y1="565.3999" y2="565.3999"/><text fill="#000000" font-family="sans-serif" font-size="14" lengthAdjust="spacing" textLength="10.892" x="1279.95" y="582.4059">id</text><text fill="#000000" font-family="sans-serif" font-size="14" lengthAdjust="spacing" textLength="42.7978" x="1279.95" y="599.2058">sender</text><text fill="#000000" font-family="sans-serif" font-size="14" lengthAdjust="spacing" textLength="45.9198" x="1279.95" y="616.0057">content</text><text fill="#000000" font-family="sans-serif" font-size="14" lengthAdjust="spacing" textLength="64.5677" x="1279.95" y="632.8057">timestamp</text></g><g id="elem_Attribute"><rect fill="#F1F1F1" height="79.1997" style="stroke:#181818;stroke-width:0.5;" width="66.1358" x="138.17" y="1150.4"/><text fill="#000000" font-family="sans-serif" font-size="14" lengthAdjust="spacing" textLength="52.1358" x="145.17" y="1165.4059">Attribute</text><line style="stroke:#181818;stroke-width:0.5;" x1="139.17" x2="203.3058" y1="1171.1999" y2="1171.1999"/><text fill="#000000" font-family="sans-serif" font-size="14" lengthAdjust="spacing" textLength="10.892" x="144.17" y="1188.2059">id</text><text fill="#000000" font-family="sans-serif" font-size="14" lengthAdjust="spacing" textLength="45.9198" x="144.17" y="1205.0058">content</text><text fill="#000000" font-family="sans-serif" font-size="14" lengthAdjust="spacing" textLength="48.2438" x="144.17" y="1221.8057">position</text></g><g id="elem_TextStyle"><rect fill="#F1F1F1" height="112.7996" style="stroke:#181818;stroke-width:0.5;" width="94.4736" x="7" y="960.6"/><text fill="#000000" font-family="sans-serif" font-size="14" lengthAdjust="spacing" textLength="58.3518" x="25.0609" y="975.6059">TextStyle</text><line style="stroke:#181818;stroke-width:0.5;" x1="8" x2="100.4736" y1="981.3999" y2="981.3999"/><text fill="#000000" font-family="sans-serif" font-size="14" lengthAdjust="spacing" textLength="23.3519" x="13" y="998.4059">font</text><text fill="#000000" font-family="sans-serif" font-size="14" lengthAdjust="spacing" textLength="48.2438" x="13" y="1015.2058">fontsize</text><text fill="#000000" font-family="sans-serif" font-size="14" lengthAdjust="spacing" textLength="38.1218" x="13" y="1032.0057">isBold</text><text fill="#000000" font-family="sans-serif" font-size="14" lengthAdjust="spacing" textLength="38.8918" x="13" y="1048.8057">isItalic</text><text fill="#000000" font-family="sans-serif" font-size="14" lengthAdjust="spacing" textLength="82.4736" x="13" y="1065.6056">hasUnderline</text></g><g id="elem_Timer"><rect fill="#F1F1F1" height="45.5999" style="stroke:#181818;stroke-width:0.5;" width="112.3656" x="1042.05" y="778.8"/><text fill="#000000" font-family="sans-serif" font-size="14" lengthAdjust="spacing" textLength="35.7699" x="1080.3479" y="793.8059">Timer</text><line style="stroke:#181818;stroke-width:0.5;" x1="1043.05" x2="1153.4156" y1="799.5999" y2="799.5999"/><text fill="#000000" font-family="sans-serif" font-size="14" lengthAdjust="spacing" textLength="100.3656" x="1048.05" y="816.6059">whenToTimeout</text></g><g id="elem_Verifier"><rect fill="#F1F1F1" height="62.3998" style="stroke:#181818;stroke-width:0.5;" width="58.3378" x="130.07" y="345.8"/><text fill="#000000" font-family="sans-serif" font-size="14" lengthAdjust="spacing" textLength="44.3378" x="137.07" y="360.8059">Verifier</text><line style="stroke:#181818;stroke-width:0.5;" x1="131.07" x2="187.4078" y1="366.5999" y2="366.5999"/><text fill="#000000" font-family="sans-serif" font-size="14" lengthAdjust="spacing" textLength="26.4599" x="136.07" y="383.6059">type</text><text fill="#000000" font-family="sans-serif" font-size="14" lengthAdjust="spacing" textLength="37.3518" x="136.07" y="400.4058">status</text></g><!--link UMLProject to UMLDiagram--><g id="link_UMLProject_UMLDiagram"><path codeLine="92" d="M627.41,379.32 C532.72,383.09 313.37,397.08 261.24,446.6 C235.16,471.37 228,512.2 226.89,544.23 " fill="none" id="UMLProject-UMLDiagram" style="stroke:#181818;stroke-width:1.0;"/><text fill="#000000" font-family="sans-serif" font-size="13" lengthAdjust="spacing" textLength="61.2691" x="262.24" y="484.977">&#129127;manages</text><path d="M329.5091,460.1 L329.5091,501.1 L591.5091,501.1 L591.5091,470.1 L581.5091,460.1 L329.5091,460.1 " fill="#FEFFDD" style="stroke:#181818;stroke-width:0.5;"/><path d="M581.5091,460.1 L581.5091,470.1 L591.5091,470.1 L581.5091,460.1 " fill="#FEFFDD" style="stroke:#181818;stroke-width:0.5;"/><text fill="#000000" font-family="sans-serif" font-size="13" lengthAdjust="spacing" textLength="241.9952" x="335.5091" y="477.177">A UMLroject can has multi UMLDiagrams.</text><text fill="#000000" font-family="sans-serif" font-size="13" lengthAdjust="spacing" textLength="130.7671" x="335.5091" y="492.777">Just like .sln to .vcproj.</text><text fill="#000000" font-family="sans-serif" font-size="13" lengthAdjust="spacing" textLength="7.228" x="612.5897" y="375.5888">1</text><text fill="#000000" font-family="sans-serif" font-size="13" lengthAdjust="spacing" textLength="5.057" x="221.1823" y="533.1452">*</text></g><!--link UMLDiagram to Gadget--><g id="link_UMLDiagram_Gadget"><path codeLine="98" d="M229.24,641.09 C229.24,674.75 229.24,719.72 229.24,753.33 " fill="none" id="UMLDiagram-Gadget" style="stroke:#181818;stroke-width:1.0;"/><text fill="#000000" font-family="sans-serif" font-size="13" lengthAdjust="spacing" textLength="61.412" x="230.24" y="701.677">consists of</text><text fill="#000000" font-family="sans-serif" font-size="13" lengthAdjust="spacing" textLength="7.228" x="221.7854" y="660.731">1</text><text fill="#000000" font-family="sans-serif" font-size="13" lengthAdjust="spacing" textLength="5.057" x="223.862" y="741.9132">*</text></g><!--link Submodule to Gadget--><g id="link_Submodule_Gadget"><path codeLine="99" d="M574.46,623.55 C565.59,629.41 556.21,635.36 547.24,640.6 C451.85,696.33 334.63,752.24 272.57,780.91 " fill="none" id="Submodule-Gadget" style="stroke:#181818;stroke-width:1.0;"/><text fill="#000000" font-family="sans-serif" font-size="13" lengthAdjust="spacing" textLength="69.212" x="488.85" y="701.677">&#129127;consists of</text><text fill="#000000" font-family="sans-serif" font-size="13" lengthAdjust="spacing" textLength="7.228" x="559.5259" y="624.7091">1</text><text fill="#000000" font-family="sans-serif" font-size="13" lengthAdjust="spacing" textLength="5.057" x="280.1658" y="773.3678">*</text></g><!--link Submodule to Association--><g id="link_Submodule_Association"><path codeLine="100" d="M631.02,640.96 C648.55,711.9 669.33,846.41 604.24,930.6 C576.54,966.43 452.51,993.45 378.15,1006.77 " fill="none" id="Submodule-Association" style="stroke:#181818;stroke-width:1.0;"/><text fill="#000000" font-family="sans-serif" font-size="13" lengthAdjust="spacing" textLength="69.212" x="649.65" y="806.177">&#129127;consists of</text><text fill="#000000" font-family="sans-serif" font-size="13" lengthAdjust="spacing" textLength="7.228" x="625.4173" y="660.5835">1</text><text fill="#000000" font-family="sans-serif" font-size="13" lengthAdjust="spacing" textLength="5.057" x="385.7662" y="1001.6138">*</text></g><!--link Gadget to Attribute--><g id="link_Gadget_Attribute"><path codeLine="101" d="M216.09,849.77 C213.42,859.61 210.69,869.93 208.24,879.6 C199.15,915.44 194.93,924.06 189.24,960.6 C178.95,1026.63 174.41,1104.36 172.51,1149.99 " fill="none" id="Gadget-Attribute" style="stroke:#181818;stroke-width:1.0;"/><text fill="#000000" font-family="sans-serif" font-size="13" lengthAdjust="spacing" textLength="56.2121" x="190.24" y="1021.577">&#129127;contains</text><text fill="#000000" font-family="sans-serif" font-size="13" lengthAdjust="spacing" textLength="7.228" x="214.7494" y="869.7178">1</text><text fill="#000000" font-family="sans-serif" font-size="13" lengthAdjust="spacing" textLength="5.057" x="167.3039" y="1138.9528">*</text></g><!--link Association to Attribute--><g id="link_Association_Attribute"><path codeLine="102" d="M279.85,1065.18 C256.18,1092.17 226.87,1125.58 204.67,1150.89 " fill="none" id="Association-Attribute" style="stroke:#181818;stroke-width:1.0;"/><text fill="#000000" font-family="sans-serif" font-size="13" lengthAdjust="spacing" textLength="56.2121" x="247.24" y="1116.477">&#129127;contains</text><text fill="#000000" font-family="sans-serif" font-size="13" lengthAdjust="spacing" textLength="7.228" x="266.5541" y="1085.1292">1</text><text fill="#000000" font-family="sans-serif" font-size="13" lengthAdjust="spacing" textLength="5.057" x="211.7497" y="1138.8498">*</text></g><!--link Gadget to Association--><g id="link_Gadget_Association"><path codeLine="103" d="M218.68,849.82 C215.37,874.86 215.06,905.53 226.24,930.6 C234.54,949.24 249.15,965.51 264.45,978.71 " fill="none" id="Gadget-Association" style="stroke:#181818;stroke-width:1.0;"/><text fill="#000000" font-family="sans-serif" font-size="13" lengthAdjust="spacing" textLength="66.469" x="227.24" y="909.477">Asscotiates</text><path d="M299.709,884.6 L299.709,925.6 L594.709,925.6 L594.709,894.6 L584.709,884.6 L299.709,884.6 " fill="#FEFFDD" style="stroke:#181818;stroke-width:0.5;"/><path d="M584.709,884.6 L584.709,894.6 L594.709,894.6 L584.709,884.6 " fill="#FEFFDD" style="stroke:#181818;stroke-width:0.5;"/><text fill="#000000" font-family="sans-serif" font-size="13" lengthAdjust="spacing" textLength="267.0073" x="305.709" y="901.677">A Gadget : Association = 1 : 1 occurs when an</text><text fill="#000000" font-family="sans-serif" font-size="13" lengthAdjust="spacing" textLength="274.5863" x="305.709" y="917.277">Association connects back to the same Gadget.</text><text fill="#000000" font-family="sans-serif" font-size="13" lengthAdjust="spacing" textLength="25.298" x="190.4586" y="869.7748">1...2</text><text fill="#000000" font-family="sans-serif" font-size="13" lengthAdjust="spacing" textLength="5.057" x="251.4874" y="969.6743">*</text></g><!--link UMLProject to Submodule--><g id="link_UMLProject_Submodule"><path codeLine="108" d="M631.39,416.75 C624.36,425.82 618.08,435.97 614.24,446.6 C602.99,477.74 604.09,515.15 607.82,544.17 " fill="none" id="UMLProject-Submodule" style="stroke:#181818;stroke-width:1.0;"/><text fill="#000000" font-family="sans-serif" font-size="13" lengthAdjust="spacing" textLength="44.642" x="737.8221" y="459.677">&#129127;knows</text><path d="M619.24,469.2 L619.24,510.2 L900.24,510.2 L900.24,479.2 L890.24,469.2 L619.24,469.2 " fill="#FEFFDD" style="stroke:#181818;stroke-width:0.5;"/><path d="M890.24,469.2 L890.24,479.2 L900.24,479.2 L890.24,469.2 " fill="#FEFFDD" style="stroke:#181818;stroke-width:0.5;"/><text fill="#000000" font-family="sans-serif" font-size="13" lengthAdjust="spacing" textLength="260.8063" x="625.24" y="486.277">This enables UMLProject import Submodules</text><text fill="#000000" font-family="sans-serif" font-size="13" lengthAdjust="spacing" textLength="202.2932" x="628.854" y="501.877">to UMLDiagrams under the project.</text><text fill="#000000" font-family="sans-serif" font-size="13" lengthAdjust="spacing" textLength="7.228" x="617.2289" y="436.7025">1</text><text fill="#000000" font-family="sans-serif" font-size="13" lengthAdjust="spacing" textLength="5.057" x="601.074" y="533.0764">*</text></g><!--link User to Session--><g id="link_User_Session"><path codeLine="114" d="M1230.22,69.67 C1219.49,91.43 1204.85,121.15 1192.6,146 " fill="none" id="User-Session" style="stroke:#181818;stroke-width:1.0;"/><text fill="#000000" font-family="sans-serif" font-size="13" lengthAdjust="spacing" textLength="38.87" x="1215.04" y="112.477">&#129127;hosts</text><text fill="#000000" font-family="sans-serif" font-size="13" lengthAdjust="spacing" textLength="7.228" x="1219.5969" y="89.4783">1</text><text fill="#000000" font-family="sans-serif" font-size="13" lengthAdjust="spacing" textLength="7.228" x="1188.5338" y="134.9108">1</text></g><!--link User to Session--><g id="link_User_Session"><path codeLine="115" d="M1221.25,49.27 C1201.65,58.94 1175.28,75.61 1163.24,99.4 C1156.07,113.55 1155.2,130.48 1156.88,146.04 " fill="none" id="User-Session-1" style="stroke:#181818;stroke-width:1.0;"/><text fill="#000000" font-family="sans-serif" font-size="13" lengthAdjust="spacing" textLength="34.528" x="1164.24" y="112.477">&#129127;joins</text><text fill="#000000" font-family="sans-serif" font-size="13" lengthAdjust="spacing" textLength="5.057" x="1208.8086" y="47.4355">*</text><text fill="#000000" font-family="sans-serif" font-size="13" lengthAdjust="spacing" textLength="7.228" x="1147.5675" y="134.9567">1</text></g><!--link Session to UMLProject--><g id="link_Session_UMLProject"><path codeLine="116" d="M1133.93,199.31 C1071.03,207.17 936.31,228.06 831.24,272.4 C789.16,290.16 745.95,318.87 715.06,341.58 " fill="none" id="Session-UMLProject" style="stroke:#181818;stroke-width:1.0;"/><text fill="#000000" font-family="sans-serif" font-size="13" lengthAdjust="spacing" textLength="66.4821" x="832.24" y="294.477">connects to</text><path d="M904.7221,277.4 L904.7221,302.4 L1066.7221,302.4 L1066.7221,287.4 L1056.7221,277.4 L904.7221,277.4 " fill="#FEFFDD" style="stroke:#181818;stroke-width:0.5;"/><path d="M1056.7221,277.4 L1056.7221,287.4 L1066.7221,287.4 L1056.7221,277.4 " fill="#FEFFDD" style="stroke:#181818;stroke-width:0.5;"/><text fill="#000000" font-family="sans-serif" font-size="13" lengthAdjust="spacing" textLength="141.6221" x="910.7221" y="294.477">A Session binds a Projet</text><text fill="#000000" font-family="sans-serif" font-size="13" lengthAdjust="spacing" textLength="7.228" x="1118.9492" y="195.9147">1</text><text fill="#000000" font-family="sans-serif" font-size="13" lengthAdjust="spacing" textLength="7.228" x="722.9161" y="331.5981">1</text></g><!--link Session to Chatroom--><g id="link_Session_Chatroom"><path codeLine="120" d="M1188.15,242.85 C1203.24,280.68 1223.53,331.58 1234.12,358.15 " fill="none" id="Session-Chatroom" style="stroke:#181818;stroke-width:1.0;"/><text fill="#000000" font-family="sans-serif" font-size="13" lengthAdjust="spacing" textLength="48.412" x="1214.8" y="294.477">contains</text><text fill="#000000" font-family="sans-serif" font-size="13" lengthAdjust="spacing" textLength="7.228" x="1183.2362" y="262.4856">1</text><text fill="#000000" font-family="sans-serif" font-size="13" lengthAdjust="spacing" textLength="7.228" x="1223.7713" y="346.9236">1</text></g><!--link Chatroom to Message--><g id="link_Chatroom_Message"><path codeLine="121" d="M1250.53,395.69 C1257.44,409.34 1266.75,428.82 1273.24,446.6 C1284.89,478.56 1294.8,515.62 1301.71,544.27 " fill="none" id="Chatroom-Message" style="stroke:#181818;stroke-width:1.0;"/><text fill="#000000" font-family="sans-serif" font-size="13" lengthAdjust="spacing" textLength="48.412" x="1294.85" y="485.177">contains</text><text fill="#000000" font-family="sans-serif" font-size="13" lengthAdjust="spacing" textLength="7.228" x="1245.2643" y="415.5485">1</text><text fill="#000000" font-family="sans-serif" font-size="13" lengthAdjust="spacing" textLength="5.057" x="1294.8013" y="533.1911">*</text></g><!--link User to Message--><g id="link_User_Message"><path codeLine="122" d="M1256.23,69.84 C1279.66,136.98 1333.88,302.61 1352.24,446.6 C1356.06,476.58 1359.41,485.24 1352.24,514.6 C1349.81,524.55 1345.84,534.65 1341.34,544.11 " fill="none" id="User-Message" style="stroke:#181818;stroke-width:1.0;"/><text fill="#000000" font-family="sans-serif" font-size="13" lengthAdjust="spacing" textLength="34.684" x="1327.04" y="294.477">sends</text><text fill="#000000" font-family="sans-serif" font-size="13" lengthAdjust="spacing" textLength="7.228" x="1250.6801" y="89.4353">1</text><text fill="#000000" font-family="sans-serif" font-size="13" lengthAdjust="spacing" textLength="5.057" x="1340.252" y="533.0076">*</text></g><!--link TextStyle to Attribute--><g id="link_TextStyle_Attribute"><path codeLine="123" d="M66.57,1073.78 C71.68,1089.7 78.71,1106.49 88.24,1120.4 C101.23,1139.37 120.89,1155.95 137.82,1168.06 " fill="none" id="TextStyle-Attribute" style="stroke:#181818;stroke-width:1.0;"/><text fill="#000000" font-family="sans-serif" font-size="13" lengthAdjust="spacing" textLength="55.6271" x="89.24" y="1116.477">describes</text><text fill="#000000" font-family="sans-serif" font-size="13" lengthAdjust="spacing" textLength="7.228" x="60.6045" y="1093.3241">1</text><text fill="#000000" font-family="sans-serif" font-size="13" lengthAdjust="spacing" textLength="7.228" x="122.7691" y="1158.7627">1</text></g><!--link UMLProject to Timer--><g id="link_UMLProject_Timer"><path codeLine="124" d="M715.15,378.16 C768.57,380.82 857.96,393.59 909.24,446.6 C971.07,510.52 916.93,561.85 958.24,640.6 C987.73,696.82 1040.79,749.72 1072.43,778.39 " fill="none" id="UMLProject-Timer" style="stroke:#181818;stroke-width:1.0;"/><text fill="#000000" font-family="sans-serif" font-size="13" lengthAdjust="spacing" textLength="45.5131" x="992.889" y="579.177">inquires</text><path d="M963.24,588.7 L963.24,613.7 L1067.24,613.7 L1067.24,598.7 L1057.24,588.7 L963.24,588.7 " fill="#FEFFDD" style="stroke:#181818;stroke-width:0.5;"/><path d="M1057.24,588.7 L1057.24,598.7 L1067.24,598.7 L1057.24,588.7 " fill="#FEFFDD" style="stroke:#181818;stroke-width:0.5;"/><text fill="#000000" font-family="sans-serif" font-size="13" lengthAdjust="spacing" textLength="83.8111" x="969.24" y="605.777">For auto-save.</text><text fill="#000000" font-family="sans-serif" font-size="13" lengthAdjust="spacing" textLength="7.228" x="722.724" y="374.2744">1</text><text fill="#000000" font-family="sans-serif" font-size="13" lengthAdjust="spacing" textLength="7.228" x="1057.5855" y="767.2943">1</text></g><!--link Session to Timer--><g id="link_Session_Timer"><path codeLine="128" d="M1149.9,242.55 C1130.62,292.3 1102.33,373.46 1091.24,446.6 C1072.38,570.89 1088.12,722.5 1095.21,778.48 " fill="none" id="Session-Timer" style="stroke:#181818;stroke-width:1.0;"/><text fill="#000000" font-family="sans-serif" font-size="13" lengthAdjust="spacing" textLength="53.3131" x="1151.616" y="467.177">&#129127;inquires</text><path d="M1096.24,476.7 L1096.24,501.7 L1260.24,501.7 L1260.24,486.7 L1250.24,476.7 L1096.24,476.7 " fill="#FEFFDD" style="stroke:#181818;stroke-width:0.5;"/><path d="M1250.24,476.7 L1250.24,486.7 L1260.24,486.7 L1250.24,476.7 " fill="#FEFFDD" style="stroke:#181818;stroke-width:0.5;"/><text fill="#000000" font-family="sans-serif" font-size="13" lengthAdjust="spacing" textLength="143.0652" x="1102.24" y="493.777">For conneection timeout.</text><text fill="#000000" font-family="sans-serif" font-size="13" lengthAdjust="spacing" textLength="7.228" x="1139.7043" y="262.495">1</text><text fill="#000000" font-family="sans-serif" font-size="13" lengthAdjust="spacing" textLength="7.228" x="1086.4876" y="767.4085">1</text></g><!--link Message to Timer--><g id="link_Message_Timer"><path codeLine="132" d="M1273.48,631.09 C1229.04,674.08 1157.63,743.15 1121.21,778.38 " fill="none" id="Message-Timer" style="stroke:#181818;stroke-width:1.0;"/><text fill="#000000" font-family="sans-serif" font-size="13" lengthAdjust="spacing" textLength="53.3131" x="1307.3261" y="683.677">&#129127;inquires</text><path d="M1235.7,693.2 L1235.7,718.2 L1431.7,718.2 L1431.7,703.2 L1421.7,693.2 L1235.7,693.2 " fill="#FEFFDD" style="stroke:#181818;stroke-width:0.5;"/><path d="M1421.7,693.2 L1421.7,703.2 L1431.7,703.2 L1421.7,693.2 " fill="#FEFFDD" style="stroke:#181818;stroke-width:0.5;"/><text fill="#000000" font-family="sans-serif" font-size="13" lengthAdjust="spacing" textLength="175.5652" x="1241.7" y="710.277">For message-sending timeout.</text><text fill="#000000" font-family="sans-serif" font-size="13" lengthAdjust="spacing" textLength="7.228" x="1258.7105" y="633.9361">1</text><text fill="#000000" font-family="sans-serif" font-size="13" lengthAdjust="spacing" textLength="7.228" x="1119.4751" y="767.2817">1</text></g><!--link Verifier to UMLDiagram--><g id="link_Verifier_UMLDiagram"><path codeLine="136" d="M151.95,408.51 C146.64,437.02 142.53,480.23 156.24,514.6 C160.47,525.21 166.93,535.2 174.3,544.24 " fill="none" id="Verifier-UMLDiagram" style="stroke:#181818;stroke-width:1.0;"/><text fill="#000000" font-family="sans-serif" font-size="13" lengthAdjust="spacing" textLength="40.456" x="157.24" y="485.177">checks</text><text fill="#000000" font-family="sans-serif" font-size="13" lengthAdjust="spacing" textLength="7.228" x="142.8484" y="428.3262">1</text><text fill="#000000" font-family="sans-serif" font-size="13" lengthAdjust="spacing" textLength="7.228" x="158.7338" y="533.1567">1</text></g><!--SRC=[xLRDZjis4BxhAGPxILB0Ghm8kgc104bsDqMsCRgelNkdATfYB94kENAwAVeiHKzzlJv2XvGbZHnjOg0zIXTfg9bl_eUJwqo1r4uMAdcI1w9KcDliG0X4frSLDZyBRRP9aW0zTlLHIOGxhnpy7a_2exFsquXIHUAFli3ymwspyVFhOk4fXCVhJECmpfKM6oTAXhFMXUe1uCEk8rP2RZUsCjcbBQnxJ4aqmg82fpSvjbpNGkPSgVOW8Ak9D78faqN1dfa_YcoZkAkRUB3aTicUEJlhDMfhc7qFoWr4u8ttLceHU1c-w4vxIZmAXxV7s6JpxQdw5jMgj5bLg1CIzwOjd1DIkL3UzvrWiBdrs7TYgSkUMrZv0T3BNA2pDbJ7mDyvgHIRHppn51NbM7eCAjCPWQIVr9QxePmqVWyZ7qFrSjr7MghVS84FlMYlBPCDXDUVkr1e_zOM6IFVeoYqx28f_5rmZ9fug353M7ahVygLMTfmQgisQrpWNZczrZqPFAeubfhuPir_DZs3oGJElZlZNJM3V_xyw-zI64gEFsf5e1A90wWjiY1vW9F210UXh0hK3D6dBVjDvP40jWfINnX02-bUxaX-g7sPJSpIGpVFGYAzzkZ1hYDxrnj3tC6daoHuIm-B7J2vJ5johGGARUheSS2JXLeTQPgUFs8RKT8YaQUagGq4ntW5KpgPWfMoSZwM6uXk2d5MiivGadsSu25nc2lmD6yEo4S9FAeqxdSNzThlhR6Vc0ChYqWZuzY3PKxJdYwMLQ4yHzRbpZes67qh4OnaHGXLQBnezgwM7QovS9SsnjAhcOkrgM4G-eulkZF8-D4sYMpE6IQpVjR55UstazY0hRJ9mjqNOV3Bo0yeRMTnLDaLMdlECjHCvYFMNcnwR65QrppTo6IwUQLdoaiY3daQ64RqgiVW3BJvjT9EVRiutba7ea8xyMAlqfFYqUW8sJfPJwCh9esC3fXOJ-S1hKry_Y-jPOqt2T7MPlCLpUsrqA-wRiBBNCcjfniXUKs2M9L5akHi3nttot6_7FVBSRySzyjnlnptot6_7FVBSR_yh_lbRI4C4XVibOlHcgRdpyzVf1TF5o8i23juVW7J7sRJbxFf1LmkbX1-FqkUpjylmTlAIKNBcAzJJVBFaXkn5_1BPOAXC_XvfypDrK_D0LoRlNRMbE4olhcVTmpVlvYyrK6Z8qlWVfvSgRMWEuKaf0sUp-1k-MxoClaWpAQYYCp8- -IIjafq3_HlyIy0]--></g></svg>