<svg xmlns="http://www.w3.org/2000/svg" xmlns:xlink="http://www.w3.org/1999/xlink" contentStyleType="text/css" height="1088px" preserveAspectRatio="none" style="width:1164px;height:1088px;background:#FFFFFF;" version="1.1" viewBox="0 0 1164 1088" width="1164px" zoomAndPan="magnify"><defs/><g><rect fill="#FFFFFF" height="219.7461" style="stroke:#181818;stroke-width:1.0;" width="10" x="217.1733" y="116.8242"/><rect fill="#FFFFFF" height="610.9863" style="stroke:#181818;stroke-width:1.0;" width="10" x="217.1733" y="395.8613"/><rect fill="#FFFFFF" height="119.873" style="stroke:#181818;stroke-width:1.0;" width="10" x="437.3467" y="185.4063"/><rect fill="#FFFFFF" height="42.291" style="stroke:#181818;stroke-width:1.0;" width="10" x="442.3467" y="224.6973"/><rect fill="#FFFFFF" height="548.4043" style="stroke:#181818;stroke-width:1.0;" width="10" x="437.3467" y="427.1523"/><rect fill="#FFFFFF" height="485.8223" style="stroke:#181818;stroke-width:1.0;" width="10" x="696.5264" y="458.4434"/><rect fill="#FFFFFF" height="42.291" style="stroke:#181818;stroke-width:1.0;" width="10" x="701.5264" y="497.7344"/><rect fill="#FFFFFF" height="79.582" style="stroke:#181818;stroke-width:1.0;" width="10" x="701.5264" y="693.5195"/><rect fill="#FFFFFF" height="79.582" style="stroke:#181818;stroke-width:1.0;" width="10" x="701.5264" y="819.3926"/><rect fill="#FFFFFF" height="940.6055" style="stroke:#000000;stroke-width:1.5;" width="1155.813" x="3" y="74.2422"/><rect fill="#FFFFFF" height="351.9492" style="stroke:#000000;stroke-width:1.5;" width="505.9209" x="642.8921" y="562.0254"/><line style="stroke:#181818;stroke-width:0.5;stroke-dasharray:5.0,5.0;" x1="221.6631" x2="221.6631" y1="57.2422" y2="344.5703"/><line style="stroke:#A80036;stroke-width:1.0;stroke-dasharray:1.0,4.0;" x1="221.6631" x2="221.6631" y1="344.5703" y2="372.5703"/><line style="stroke:#181818;stroke-width:0.5;stroke-dasharray:5.0,5.0;" x1="221.6631" x2="221.6631" y1="372.5703" y2="1031.8477"/><line style="stroke:#181818;stroke-width:0.5;stroke-dasharray:5.0,5.0;" x1="442.1089" x2="442.1089" y1="57.2422" y2="344.5703"/><line style="stroke:#A80036;stroke-width:1.0;stroke-dasharray:1.0,4.0;" x1="442.1089" x2="442.1089" y1="344.5703" y2="372.5703"/><line style="stroke:#181818;stroke-width:0.5;stroke-dasharray:5.0,5.0;" x1="442.1089" x2="442.1089" y1="372.5703" y2="1031.8477"/><line style="stroke:#181818;stroke-width:0.5;stroke-dasharray:5.0,5.0;" x1="700.8921" x2="700.8921" y1="57.2422" y2="344.5703"/><line style="stroke:#A80036;stroke-width:1.0;stroke-dasharray:1.0,4.0;" x1="700.8921" x2="700.8921" y1="344.5703" y2="372.5703"/><line style="stroke:#181818;stroke-width:0.5;stroke-dasharray:5.0,5.0;" x1="700.8921" x2="700.8921" y1="372.5703" y2="1031.8477"/><line style="stroke:#181818;stroke-width:0.5;stroke-dasharray:5.0,5.0;" x1="1053.6025" x2="1053.6025" y1="613.127" y2="1031.8477"/><rect fill="#E2E2F0" height="32.6211" rx="2.5" ry="2.5" style="stroke:#181818;stroke-width:0.5;" width="91.0205" x="176.6631" y="23.6211"/><text fill="#000000" font-family="sans-serif" font-size="14" lengthAdjust="spacing" textLength="77.0205" x="183.6631" y="45.7285">:UMLProject</text><rect fill="#E2E2F0" height="32.6211" rx="2.5" ry="2.5" style="stroke:#181818;stroke-width:0.5;" width="91.0205" x="176.6631" y="1030.8477"/><text fill="#000000" font-family="sans-serif" font-size="14" lengthAdjust="spacing" textLength="77.0205" x="183.6631" y="1052.9551">:UMLProject</text><rect fill="#E2E2F0" height="51.2422" rx="2.5" ry="2.5" style="stroke:#181818;stroke-width:0.5;" width="110.4756" x="387.1089" y="5"/><text fill="#000000" font-family="sans-serif" font-size="14" lengthAdjust="spacing" textLength="96.4756" x="394.1089" y="27.1074">currentDiagram</text><text fill="#000000" font-family="sans-serif" font-size="14" lengthAdjust="spacing" textLength="91.7998" x="396.4468" y="45.7285">:*UMLDiagram</text><rect fill="#E2E2F0" height="51.2422" rx="2.5" ry="2.5" style="stroke:#181818;stroke-width:0.5;" width="110.4756" x="387.1089" y="1030.8477"/><text fill="#000000" font-family="sans-serif" font-size="14" lengthAdjust="spacing" textLength="96.4756" x="394.1089" y="1052.9551">currentDiagram</text><text fill="#000000" font-family="sans-serif" font-size="14" lengthAdjust="spacing" textLength="91.7998" x="396.4468" y="1071.5762">:*UMLDiagram</text><rect fill="#E2E2F0" height="32.6211" rx="2.5" ry="2.5" style="stroke:#181818;stroke-width:0.5;" width="97.2686" x="652.8921" y="23.6211"/><text fill="#000000" font-family="sans-serif" font-size="14" lengthAdjust="spacing" textLength="83.2686" x="659.8921" y="45.7285">:Components</text><rect fill="#E2E2F0" height="32.6211" rx="2.5" ry="2.5" style="stroke:#181818;stroke-width:0.5;" width="97.2686" x="652.8921" y="1030.8477"/><text fill="#000000" font-family="sans-serif" font-size="14" lengthAdjust="spacing" textLength="83.2686" x="659.8921" y="1052.9551">:Components</text><rect fill="#E2E2F0" height="32.6211" rx="2.5" ry="2.5" style="stroke:#181818;stroke-width:0.5;" width="111.2686" x="998.6025" y="1030.8477"/><text fill="#000000" font-family="sans-serif" font-size="14" lengthAdjust="spacing" textLength="97.2686" x="1005.6025" y="1052.9551">ass:Association</text><rect fill="#FFFFFF" height="219.7461" style="stroke:#181818;stroke-width:1.0;" width="10" x="217.1733" y="116.8242"/><rect fill="#FFFFFF" height="610.9863" style="stroke:#181818;stroke-width:1.0;" width="10" x="217.1733" y="395.8613"/><rect fill="#FFFFFF" height="119.873" style="stroke:#181818;stroke-width:1.0;" width="10" x="437.3467" y="185.4063"/><rect fill="#FFFFFF" height="42.291" style="stroke:#181818;stroke-width:1.0;" width="10" x="442.3467" y="224.6973"/><rect fill="#FFFFFF" height="548.4043" style="stroke:#181818;stroke-width:1.0;" width="10" x="437.3467" y="427.1523"/><rect fill="#FFFFFF" height="485.8223" style="stroke:#181818;stroke-width:1.0;" width="10" x="696.5264" y="458.4434"/><rect fill="#FFFFFF" height="42.291" style="stroke:#181818;stroke-width:1.0;" width="10" x="701.5264" y="497.7344"/><rect fill="#FFFFFF" height="79.582" style="stroke:#181818;stroke-width:1.0;" width="10" x="701.5264" y="693.5195"/><rect fill="#FFFFFF" height="79.582" style="stroke:#181818;stroke-width:1.0;" width="10" x="701.5264" y="819.3926"/><path d="M3,74.2422 L212.6963,74.2422 L212.6963,83.5332 L202.6963,93.5332 L3,93.5332 L3,74.2422 " fill="#FFD700" style="stroke:#000000;stroke-width:1.5;"/><rect fill="none" height="940.6055" style="stroke:#000000;stroke-width:1.5;" width="1155.813" x="3" y="74.2422"/><text fill="#000000" font-family="sans-serif" font-size="13" font-weight="bold" lengthAdjust="spacing" textLength="164.6963" x="18" y="89.2705">addAssociationToDiagram</text><polygon fill="#181818" points="205.1733,112.8242,215.1733,116.8242,205.1733,120.8242,209.1733,116.8242" style="stroke:#181818;stroke-width:1.0;"/><line style="stroke:#181818;stroke-width:1.0;" x1="0" x2="211.1733" y1="116.8242" y2="116.8242"/><text fill="#000000" font-family="sans-serif" font-size="13" font-weight="bold" lengthAdjust="spacing" textLength="7.23" x="7" y="111.5615">1</text><text fill="#000000" font-family="sans-serif" font-size="13" lengthAdjust="spacing" textLength="151.7407" x="18.23" y="111.5615">startAddAssociation(point)</text><path d="M117,129.8242 L117,156.8242 L211,156.8242 L211,139.8242 L201,129.8242 L117,129.8242 " fill="#FF0000" style="stroke:#181818;stroke-width:0.5;"/><path d="M201,129.8242 L201,139.8242 L211,139.8242 L201,129.8242 " fill="#FF0000" style="stroke:#181818;stroke-width:0.5;"/><text fill="#000000" font-family="sans-serif" font-size="13" lengthAdjust="spacing" textLength="73.6963" x="123" y="148.8525">by Controller</text><polygon fill="#181818" points="425.3467,181.4063,435.3467,185.4063,425.3467,189.4063,429.3467,185.4063" style="stroke:#181818;stroke-width:1.0;"/><line style="stroke:#181818;stroke-width:1.0;" x1="227.1733" x2="431.3467" y1="185.4063" y2="185.4063"/><text fill="#000000" font-family="sans-serif" font-size="13" font-weight="bold" lengthAdjust="spacing" textLength="7.23" x="234.1733" y="180.1436">2</text><text fill="#000000" font-family="sans-serif" font-size="13" lengthAdjust="spacing" textLength="151.7407" x="245.4033" y="180.1436">startAddAssociation(point)</text><line style="stroke:#181818;stroke-width:1.0;" x1="447.3467" x2="494.3467" y1="211.6973" y2="211.6973"/><line style="stroke:#181818;stroke-width:1.0;" x1="494.3467" x2="494.3467" y1="211.6973" y2="224.6973"/><line style="stroke:#181818;stroke-width:1.0;" x1="453.3467" x2="494.3467" y1="224.6973" y2="224.6973"/><polygon fill="#181818" points="463.3467,220.6973,453.3467,224.6973,463.3467,228.6973,459.3467,224.6973" style="stroke:#181818;stroke-width:1.0;"/><text fill="#000000" font-family="sans-serif" font-size="13" font-weight="bold" lengthAdjust="spacing" textLength="7.23" x="459.3467" y="206.4346">3</text><text fill="#000000" font-family="sans-serif" font-size="13" lengthAdjust="spacing" textLength="97.9189" x="470.5767" y="206.4346">startPoint = point</text><line style="stroke:#181818;stroke-width:1.0;stroke-dasharray:2.0,2.0;" x1="452.3467" x2="494.3467" y1="265.9883" y2="265.9883"/><line style="stroke:#181818;stroke-width:1.0;stroke-dasharray:2.0,2.0;" x1="494.3467" x2="494.3467" y1="265.9883" y2="278.9883"/><line style="stroke:#181818;stroke-width:1.0;stroke-dasharray:2.0,2.0;" x1="447.3467" x2="494.3467" y1="278.9883" y2="278.9883"/><polygon fill="#181818" points="457.3467,274.9883,447.3467,278.9883,457.3467,282.9883,453.3467,278.9883" style="stroke:#181818;stroke-width:1.0;"/><text fill="#000000" font-family="sans-serif" font-size="13" font-weight="bold" lengthAdjust="spacing" textLength="7.23" x="459.3467" y="260.7256">4</text><text fill="#000000" font-family="sans-serif" font-size="13" lengthAdjust="spacing" textLength="3.6118" x="470.5767" y="260.7256">&#160;</text><polygon fill="#181818" points="238.1733,301.2793,228.1733,305.2793,238.1733,309.2793,234.1733,305.2793" style="stroke:#181818;stroke-width:1.0;"/><line style="stroke:#181818;stroke-width:1.0;stroke-dasharray:2.0,2.0;" x1="232.1733" x2="441.3467" y1="305.2793" y2="305.2793"/><text fill="#000000" font-family="sans-serif" font-size="13" font-weight="bold" lengthAdjust="spacing" textLength="7.23" x="244.1733" y="300.0166">5</text><text fill="#000000" font-family="sans-serif" font-size="13" lengthAdjust="spacing" textLength="3.6118" x="255.4033" y="300.0166">&#160;</text><polygon fill="#181818" points="11,332.5703,1,336.5703,11,340.5703,7,336.5703" style="stroke:#181818;stroke-width:1.0;"/><line style="stroke:#181818;stroke-width:1.0;stroke-dasharray:2.0,2.0;" x1="5" x2="221.1733" y1="336.5703" y2="336.5703"/><text fill="#000000" font-family="sans-serif" font-size="13" font-weight="bold" lengthAdjust="spacing" textLength="7.23" x="17" y="331.3076">6</text><text fill="#000000" font-family="sans-serif" font-size="13" lengthAdjust="spacing" textLength="3.6118" x="28.23" y="331.3076">&#160;</text><polygon fill="#181818" points="205.1733,391.8613,215.1733,395.8613,205.1733,399.8613,209.1733,395.8613" style="stroke:#181818;stroke-width:1.0;"/><line style="stroke:#181818;stroke-width:1.0;" x1="0" x2="211.1733" y1="395.8613" y2="395.8613"/><text fill="#000000" font-family="sans-serif" font-size="13" font-weight="bold" lengthAdjust="spacing" textLength="7.23" x="7" y="390.5986">7</text><text fill="#000000" font-family="sans-serif" font-size="13" lengthAdjust="spacing" textLength="179.9434" x="18.23" y="390.5986">endAddAssociation(type, point)</text><polygon fill="#181818" points="425.3467,423.1523,435.3467,427.1523,425.3467,431.1523,429.3467,427.1523" style="stroke:#181818;stroke-width:1.0;"/><line style="stroke:#181818;stroke-width:1.0;" x1="227.1733" x2="431.3467" y1="427.1523" y2="427.1523"/><text fill="#000000" font-family="sans-serif" font-size="13" font-weight="bold" lengthAdjust="spacing" textLength="7.23" x="234.1733" y="421.8896">8</text><text fill="#000000" font-family="sans-serif" font-size="13" lengthAdjust="spacing" textLength="179.9434" x="245.4033" y="421.8896">endAddAssociation(type, point)</text><polygon fill="#181818" points="684.5264,454.4434,694.5264,458.4434,684.5264,462.4434,688.5264,458.4434" style="stroke:#181818;stroke-width:1.0;"/><line style="stroke:#181818;stroke-width:1.0;" x1="447.3467" x2="690.5264" y1="458.4434" y2="458.4434"/><text fill="#000000" font-family="sans-serif" font-size="13" font-weight="bold" lengthAdjust="spacing" textLength="7.23" x="454.3467" y="453.1807">9</text><text fill="#000000" font-family="sans-serif" font-size="13" lengthAdjust="spacing" textLength="218.9497" x="465.5767" y="453.1807">addAssociation(type, startPoint, point)</text><line style="stroke:#181818;stroke-width:1.0;" x1="706.5264" x2="753.5264" y1="484.7344" y2="484.7344"/><line style="stroke:#181818;stroke-width:1.0;" x1="753.5264" x2="753.5264" y1="484.7344" y2="497.7344"/><line style="stroke:#181818;stroke-width:1.0;" x1="712.5264" x2="753.5264" y1="497.7344" y2="497.7344"/><polygon fill="#181818" points="722.5264,493.7344,712.5264,497.7344,722.5264,501.7344,718.5264,497.7344" style="stroke:#181818;stroke-width:1.0;"/><text fill="#000000" font-family="sans-serif" font-size="13" font-weight="bold" lengthAdjust="spacing" textLength="14.46" x="718.5264" y="479.4717">10</text><text fill="#000000" font-family="sans-serif" font-size="13" lengthAdjust="spacing" textLength="300.2505" x="736.9863" y="479.4717">parents = [findGadget(startPoint), findGadget(point)]</text><line style="stroke:#181818;stroke-width:1.0;stroke-dasharray:2.0,2.0;" x1="711.5264" x2="753.5264" y1="539.0254" y2="539.0254"/><line style="stroke:#181818;stroke-width:1.0;stroke-dasharray:2.0,2.0;" x1="753.5264" x2="753.5264" y1="539.0254" y2="552.0254"/><line style="stroke:#181818;stroke-width:1.0;stroke-dasharray:2.0,2.0;" x1="706.5264" x2="753.5264" y1="552.0254" y2="552.0254"/><polygon fill="#181818" points="716.5264,548.0254,706.5264,552.0254,716.5264,556.0254,712.5264,552.0254" style="stroke:#181818;stroke-width:1.0;"/><text fill="#000000" font-family="sans-serif" font-size="13" font-weight="bold" lengthAdjust="spacing" textLength="14.46" x="718.5264" y="533.7627">11</text><text fill="#000000" font-family="sans-serif" font-size="13" lengthAdjust="spacing" textLength="3.6118" x="736.9863" y="533.7627">&#160;</text><path d="M642.8921,562.0254 L708.103,562.0254 L708.103,571.3164 L698.103,581.3164 L642.8921,581.3164 L642.8921,562.0254 " fill="#FFD700" style="stroke:#000000;stroke-width:1.5;"/><rect fill="none" height="351.9492" style="stroke:#000000;stroke-width:1.5;" width="505.9209" x="642.8921" y="562.0254"/><text fill="#000000" font-family="sans-serif" font-size="13" font-weight="bold" lengthAdjust="spacing" textLength="20.2109" x="657.8921" y="577.0537">opt</text><text fill="#000000" font-family="sans-serif" font-size="11" font-weight="bold" lengthAdjust="spacing" textLength="136.2754" x="723.103" y="575.8955">[both parents are not null]</text><polygon fill="#181818" points="986.6025,600.6074,996.6025,604.6074,986.6025,608.6074,990.6025,604.6074" style="stroke:#181818;stroke-width:1.0;"/><line style="stroke:#181818;stroke-width:1.0;stroke-dasharray:2.0,2.0;" x1="706.5264" x2="992.6025" y1="604.6074" y2="604.6074"/><text fill="#000000" font-family="sans-serif" font-size="13" font-weight="bold" lengthAdjust="spacing" textLength="14.46" x="713.5264" y="599.3447">12</text><text fill="#000000" font-family="sans-serif" font-size="13" lengthAdjust="spacing" textLength="186.4243" x="731.9863" y="599.3447">createAssociation(type, parents)</text><rect fill="#E2E2F0" height="32.6211" rx="2.5" ry="2.5" style="stroke:#181818;stroke-width:0.5;" width="111.2686" x="998.6025" y="581.3164"/><text fill="#000000" font-family="sans-serif" font-size="14" lengthAdjust="spacing" textLength="97.2686" x="1005.6025" y="603.4238">ass:Association</text><path d="M711,629.9375 L711,656.9375 L792,656.9375 L792,639.9375 L782,629.9375 L711,629.9375 " fill="#FF0000" style="stroke:#181818;stroke-width:0.5;"/><path d="M782,629.9375 L782,639.9375 L792,639.9375 L782,629.9375 " fill="#FF0000" style="stroke:#181818;stroke-width:0.5;"/><text fill="#000000" font-family="sans-serif" font-size="13" lengthAdjust="spacing" textLength="60.6899" x="717" y="648.9658">by Creator</text><line style="stroke:#181818;stroke-width:1.0;" x1="706.5264" x2="753.5264" y1="680.5195" y2="680.5195"/><line style="stroke:#181818;stroke-width:1.0;" x1="753.5264" x2="753.5264" y1="680.5195" y2="693.5195"/><line style="stroke:#181818;stroke-width:1.0;" x1="712.5264" x2="753.5264" y1="693.5195" y2="693.5195"/><polygon fill="#181818" points="722.5264,689.5195,712.5264,693.5195,722.5264,697.5195,718.5264,693.5195" style="stroke:#181818;stroke-width:1.0;"/><text fill="#000000" font-family="sans-serif" font-size="13" font-weight="bold" lengthAdjust="spacing" textLength="14.46" x="718.5264" y="675.2568">13</text><text fill="#000000" font-family="sans-serif" font-size="13" lengthAdjust="spacing" textLength="206.667" x="736.9863" y="675.2568">adjustAssociationPath(*association)</text><path d="M716,711.5195 L716,738.5195 L1138,738.5195 L1138,721.5195 L1128,711.5195 L716,711.5195 " fill="#FEFFDD" style="stroke:#181818;stroke-width:0.5;"/><path d="M1128,711.5195 L1128,721.5195 L1138,721.5195 L1128,711.5195 " fill="#FEFFDD" style="stroke:#181818;stroke-width:0.5;"/><text fill="#000000" font-family="sans-serif" font-size="13" lengthAdjust="spacing" textLength="401.813" x="722" y="730.5479">adjust the pathing of newly created association to prevent overlapping</text><line style="stroke:#181818;stroke-width:1.0;stroke-dasharray:2.0,2.0;" x1="711.5264" x2="753.5264" y1="772.1016" y2="772.1016"/><line style="stroke:#181818;stroke-width:1.0;stroke-dasharray:2.0,2.0;" x1="753.5264" x2="753.5264" y1="772.1016" y2="785.1016"/><line style="stroke:#181818;stroke-width:1.0;stroke-dasharray:2.0,2.0;" x1="706.5264" x2="753.5264" y1="785.1016" y2="785.1016"/><polygon fill="#181818" points="716.5264,781.1016,706.5264,785.1016,716.5264,789.1016,712.5264,785.1016" style="stroke:#181818;stroke-width:1.0;"/><text fill="#000000" font-family="sans-serif" font-size="13" font-weight="bold" lengthAdjust="spacing" textLength="14.46" x="718.5264" y="766.8389">14</text><text fill="#000000" font-family="sans-serif" font-size="13" lengthAdjust="spacing" textLength="3.6118" x="736.9863" y="766.8389">&#160;</text><line style="stroke:#181818;stroke-width:1.0;" x1="706.5264" x2="753.5264" y1="806.3926" y2="806.3926"/><line style="stroke:#181818;stroke-width:1.0;" x1="753.5264" x2="753.5264" y1="806.3926" y2="819.3926"/><line style="stroke:#181818;stroke-width:1.0;" x1="712.5264" x2="753.5264" y1="819.3926" y2="819.3926"/><polygon fill="#181818" points="722.5264,815.3926,712.5264,819.3926,722.5264,823.3926,718.5264,819.3926" style="stroke:#181818;stroke-width:1.0;"/><text fill="#000000" font-family="sans-serif" font-size="13" font-weight="bold" lengthAdjust="spacing" textLength="14.46" x="718.5264" y="801.1299">15</text><text fill="#000000" font-family="sans-serif" font-size="13" lengthAdjust="spacing" textLength="235.9487" x="736.9863" y="801.1299">components = append(components, ass)</text><path d="M716,837.3926 L716,864.3926 L937,864.3926 L937,847.3926 L927,837.3926 L716,837.3926 " fill="#FEFFDD" style="stroke:#181818;stroke-width:0.5;"/><path d="M927,837.3926 L927,847.3926 L937,847.3926 L927,837.3926 " fill="#FEFFDD" style="stroke:#181818;stroke-width:0.5;"/><text fill="#000000" font-family="sans-serif" font-size="13" lengthAdjust="spacing" textLength="200.9224" x="722" y="856.4209">append is a golang built-in function</text><line style="stroke:#181818;stroke-width:1.0;stroke-dasharray:2.0,2.0;" x1="711.5264" x2="753.5264" y1="897.9746" y2="897.9746"/><line style="stroke:#181818;stroke-width:1.0;stroke-dasharray:2.0,2.0;" x1="753.5264" x2="753.5264" y1="897.9746" y2="910.9746"/><line style="stroke:#181818;stroke-width:1.0;stroke-dasharray:2.0,2.0;" x1="706.5264" x2="753.5264" y1="910.9746" y2="910.9746"/><polygon fill="#181818" points="716.5264,906.9746,706.5264,910.9746,716.5264,914.9746,712.5264,910.9746" style="stroke:#181818;stroke-width:1.0;"/><text fill="#000000" font-family="sans-serif" font-size="13" font-weight="bold" lengthAdjust="spacing" textLength="14.46" x="718.5264" y="892.7119">16</text><text fill="#000000" font-family="sans-serif" font-size="13" lengthAdjust="spacing" textLength="3.6118" x="736.9863" y="892.7119">&#160;</text><polygon fill="#181818" points="458.3467,940.2656,448.3467,944.2656,458.3467,948.2656,454.3467,944.2656" style="stroke:#181818;stroke-width:1.0;"/><line style="stroke:#181818;stroke-width:1.0;stroke-dasharray:2.0,2.0;" x1="452.3467" x2="700.5264" y1="944.2656" y2="944.2656"/><text fill="#000000" font-family="sans-serif" font-size="13" font-weight="bold" lengthAdjust="spacing" textLength="14.46" x="464.3467" y="939.0029">17</text><text fill="#000000" font-family="sans-serif" font-size="13" lengthAdjust="spacing" textLength="3.6118" x="482.8066" y="939.0029">&#160;</text><polygon fill="#181818" points="238.1733,971.5566,228.1733,975.5566,238.1733,979.5566,234.1733,975.5566" style="stroke:#181818;stroke-width:1.0;"/><line style="stroke:#181818;stroke-width:1.0;stroke-dasharray:2.0,2.0;" x1="232.1733" x2="441.3467" y1="975.5566" y2="975.5566"/><text fill="#000000" font-family="sans-serif" font-size="13" font-weight="bold" lengthAdjust="spacing" textLength="14.46" x="244.1733" y="970.2939">18</text><text fill="#000000" font-family="sans-serif" font-size="13" lengthAdjust="spacing" textLength="3.6118" x="262.6333" y="970.2939">&#160;</text><polygon fill="#181818" points="11,1002.8477,1,1006.8477,11,1010.8477,7,1006.8477" style="stroke:#181818;stroke-width:1.0;"/><line style="stroke:#181818;stroke-width:1.0;stroke-dasharray:2.0,2.0;" x1="5" x2="221.1733" y1="1006.8477" y2="1006.8477"/><text fill="#000000" font-family="sans-serif" font-size="13" font-weight="bold" lengthAdjust="spacing" textLength="14.46" x="17" y="1001.585">19</text><text fill="#000000" font-family="sans-serif" font-size="13" lengthAdjust="spacing" textLength="3.6118" x="35.46" y="1001.585">&#160;</text><!--SRC=[bPJ1JiCm38RlVGfhkspJs0DK0Wc1n0Ma7U047BmsQuEoE4gTeRqzpbRMb1NOUcbZ9T__s_rR34msR5RAPoYFMB3U8YiWcrMUWXjNP4eOVzPQYbYMjqr3XKRMP9_fNcFbSPDTtS0eVtbwN7hwK0MFScWOFT_sjaySQSlJp9AGZ5epqBf_3CPUbJciTd17bZqP8wv0hlwkg5O4xvNbri2RpMUoertzBG_jzJVYR95bfC8rxEb7k5SSlCsIn_QsM2m6fgLi-SCixvoQGsBvuX6SmJnp3FaTRHnPsTG85uUWtIXE10xc4yG0qs6qqCWONzVQbWzOLeed7NGwXwH-47ZlARJZxTN8SI-zA-BwA2Kta2I23SRqJWtuZOQnQVAaxn7CPf13uPLyB0D3FgXCJyZxy7jTrMtwKvqk_P5AFllFruyvGdmv7w7XnCyIkPxCi2jSPEaR25mhwObhRQkuoQfFiskRBo6X0nCuhxPo6cYhl47dvCo9vj3hEYSenN4XMH6sX7pIrURHogKDxY6W9H4WOK5fS1MquIjjOHri4RlwpNvQ4iZ_NtzK-kKV-WK0]--></g></svg>