<svg xmlns="http://www.w3.org/2000/svg" xmlns:xlink="http://www.w3.org/1999/xlink" contentStyleType="text/css" height="870.4px" preserveAspectRatio="none" style="width:954px;height:870px;background:#FFFFFF;" version="1.1" viewBox="0 0 954 870" width="954.4px" zoomAndPan="magnify"><defs/><g><rect fill="#FFFFFF" height="175.7969" style="stroke:#181818;stroke-width:0.8000000000000002;" width="8" x="196.8945" y="93.4594"/><rect fill="#FFFFFF" height="488.7891" style="stroke:#181818;stroke-width:0.8000000000000002;" width="8" x="196.8945" y="316.6891"/><rect fill="#FFFFFF" height="95.8984" style="stroke:#181818;stroke-width:0.8000000000000002;" width="8" x="373.0332" y="148.325"/><rect fill="#FFFFFF" height="33.8328" style="stroke:#181818;stroke-width:0.8000000000000002;" width="8" x="377.0332" y="179.7578"/><rect fill="#FFFFFF" height="438.7234" style="stroke:#181818;stroke-width:0.8000000000000002;" width="8" x="373.0332" y="341.7219"/><rect fill="#FFFFFF" height="388.6578" style="stroke:#181818;stroke-width:0.8000000000000002;" width="8" x="580.377" y="366.7547"/><rect fill="#FFFFFF" height="33.8328" style="stroke:#181818;stroke-width:0.8000000000000002;" width="8" x="584.377" y="398.1875"/><rect fill="#FFFFFF" height="63.6656" style="stroke:#181818;stroke-width:0.8000000000000002;" width="8" x="584.377" y="554.8156"/><rect fill="#FFFFFF" height="63.6656" style="stroke:#181818;stroke-width:0.8000000000000002;" width="8" x="584.377" y="655.5141"/><rect fill="#FFFFFF" height="752.4844" style="stroke:#000000;stroke-width:1.2000000000000002;" width="942.2504" x="8" y="59.3938"/><rect fill="#FFFFFF" height="281.5594" style="stroke:#000000;stroke-width:1.2000000000000002;" width="404.7809" x="537.4695" y="449.6203"/><line style="stroke:#181818;stroke-width:0.4000000000000001;stroke-dasharray:5.0,5.0;" x1="28" x2="28" y1="45.7938" y2="275.6563"/><line style="stroke:#A80036;stroke-width:0.8000000000000002;stroke-dasharray:1.0,4.0;" x1="28" x2="28" y1="275.6563" y2="298.0563"/><line style="stroke:#181818;stroke-width:0.4000000000000001;stroke-dasharray:5.0,5.0;" x1="28" x2="28" y1="298.0563" y2="825.4781"/><line style="stroke:#181818;stroke-width:0.4000000000000001;stroke-dasharray:5.0,5.0;" x1="200.4863" x2="200.4863" y1="45.7938" y2="275.6563"/><line style="stroke:#A80036;stroke-width:0.8000000000000002;stroke-dasharray:1.0,4.0;" x1="200.4863" x2="200.4863" y1="275.6563" y2="298.0563"/><line style="stroke:#181818;stroke-width:0.4000000000000001;stroke-dasharray:5.0,5.0;" x1="200.4863" x2="200.4863" y1="298.0563" y2="825.4781"/><line style="stroke:#181818;stroke-width:0.4000000000000001;stroke-dasharray:5.0,5.0;" x1="376.843" x2="376.843" y1="45.7938" y2="275.6563"/><line style="stroke:#A80036;stroke-width:0.8000000000000002;stroke-dasharray:1.0,4.0;" x1="376.843" x2="376.843" y1="275.6563" y2="298.0563"/><line style="stroke:#181818;stroke-width:0.4000000000000001;stroke-dasharray:5.0,5.0;" x1="376.843" x2="376.843" y1="298.0563" y2="825.4781"/><line style="stroke:#181818;stroke-width:0.4000000000000001;stroke-dasharray:5.0,5.0;" x1="583.8695" x2="583.8695" y1="45.7938" y2="275.6563"/><line style="stroke:#A80036;stroke-width:0.8000000000000002;stroke-dasharray:1.0,4.0;" x1="583.8695" x2="583.8695" y1="275.6563" y2="298.0563"/><line style="stroke:#181818;stroke-width:0.4000000000000001;stroke-dasharray:5.0,5.0;" x1="583.8695" x2="583.8695" y1="298.0563" y2="825.4781"/><line style="stroke:#181818;stroke-width:0.4000000000000001;stroke-dasharray:5.0,5.0;" x1="866.0379" x2="866.0379" y1="490.5016" y2="825.4781"/><rect fill="#E2E2F0" height="26.0969" rx="2" ry="2" style="stroke:#181818;stroke-width:0.4000000000000001;" width="25.5117" x="16" y="18.8969"/><text fill="#000000" font-family="sans-serif" font-size="11.2" lengthAdjust="spacing" textLength="14.3117" x="21.6" y="36.5828">:UI</text><rect fill="#E2E2F0" height="26.0969" rx="2" ry="2" style="stroke:#181818;stroke-width:0.4000000000000001;" width="25.5117" x="16" y="824.6781"/><text fill="#000000" font-family="sans-serif" font-size="11.2" lengthAdjust="spacing" textLength="14.3117" x="21.6" y="842.3641">:UI</text><rect fill="#E2E2F0" height="26.0969" rx="2" ry="2" style="stroke:#181818;stroke-width:0.4000000000000001;" width="72.8164" x="164.4863" y="18.8969"/><text fill="#000000" font-family="sans-serif" font-size="11.2" lengthAdjust="spacing" textLength="61.6164" x="170.0863" y="36.5828">:UMLProject</text><rect fill="#E2E2F0" height="26.0969" rx="2" ry="2" style="stroke:#181818;stroke-width:0.4000000000000001;" width="72.8164" x="164.4863" y="824.6781"/><text fill="#000000" font-family="sans-serif" font-size="11.2" lengthAdjust="spacing" textLength="61.6164" x="170.0863" y="842.3641">:UMLProject</text><rect fill="#E2E2F0" height="40.9938" rx="2" ry="2" style="stroke:#181818;stroke-width:0.4000000000000001;" width="88.3805" x="332.843" y="4"/><text fill="#000000" font-family="sans-serif" font-size="11.2" lengthAdjust="spacing" textLength="77.1805" x="338.443" y="21.6859">currentDiagram</text><text fill="#000000" font-family="sans-serif" font-size="11.2" lengthAdjust="spacing" textLength="73.4398" x="340.3133" y="36.5828">:*UMLDiagram</text><rect fill="#E2E2F0" height="40.9938" rx="2" ry="2" style="stroke:#181818;stroke-width:0.4000000000000001;" width="88.3805" x="332.843" y="824.6781"/><text fill="#000000" font-family="sans-serif" font-size="11.2" lengthAdjust="spacing" textLength="77.1805" x="338.443" y="842.3641">currentDiagram</text><text fill="#000000" font-family="sans-serif" font-size="11.2" lengthAdjust="spacing" textLength="73.4398" x="340.3133" y="857.2609">:*UMLDiagram</text><rect fill="#E2E2F0" height="26.0969" rx="2" ry="2" style="stroke:#181818;stroke-width:0.4000000000000001;" width="77.8148" x="545.4695" y="18.8969"/><text fill="#000000" font-family="sans-serif" font-size="11.2" lengthAdjust="spacing" textLength="66.6148" x="551.0695" y="36.5828">:Components</text><rect fill="#E2E2F0" height="26.0969" rx="2" ry="2" style="stroke:#181818;stroke-width:0.4000000000000001;" width="77.8148" x="545.4695" y="824.6781"/><text fill="#000000" font-family="sans-serif" font-size="11.2" lengthAdjust="spacing" textLength="66.6148" x="551.0695" y="842.3641">:Components</text><rect fill="#E2E2F0" height="26.0969" rx="2" ry="2" style="stroke:#181818;stroke-width:0.4000000000000001;" width="89.0148" x="822.0379" y="824.6781"/><text fill="#000000" font-family="sans-serif" font-size="11.2" lengthAdjust="spacing" textLength="77.8148" x="827.6379" y="842.3641">ass:Association</text><rect fill="#FFFFFF" height="175.7969" style="stroke:#181818;stroke-width:0.8000000000000002;" width="8" x="196.8945" y="93.4594"/><rect fill="#FFFFFF" height="488.7891" style="stroke:#181818;stroke-width:0.8000000000000002;" width="8" x="196.8945" y="316.6891"/><rect fill="#FFFFFF" height="95.8984" style="stroke:#181818;stroke-width:0.8000000000000002;" width="8" x="373.0332" y="148.325"/><rect fill="#FFFFFF" height="33.8328" style="stroke:#181818;stroke-width:0.8000000000000002;" width="8" x="377.0332" y="179.7578"/><rect fill="#FFFFFF" height="438.7234" style="stroke:#181818;stroke-width:0.8000000000000002;" width="8" x="373.0332" y="341.7219"/><rect fill="#FFFFFF" height="388.6578" style="stroke:#181818;stroke-width:0.8000000000000002;" width="8" x="580.377" y="366.7547"/><rect fill="#FFFFFF" height="33.8328" style="stroke:#181818;stroke-width:0.8000000000000002;" width="8" x="584.377" y="398.1875"/><rect fill="#FFFFFF" height="63.6656" style="stroke:#181818;stroke-width:0.8000000000000002;" width="8" x="584.377" y="554.8156"/><rect fill="#FFFFFF" height="63.6656" style="stroke:#181818;stroke-width:0.8000000000000002;" width="8" x="584.377" y="655.5141"/><path d="M8,59.3938 L175.757,59.3938 L175.757,66.8266 L167.757,74.8266 L8,74.8266 L8,59.3938 " fill="#FFD700" style="stroke:#000000;stroke-width:1.2000000000000002;"/><rect fill="none" height="752.4844" style="stroke:#000000;stroke-width:1.2000000000000002;" width="942.2504" x="8" y="59.3938"/><text fill="#000000" font-family="sans-serif" font-size="10.4" font-weight="bold" lengthAdjust="spacing" textLength="131.757" x="20" y="71.4164">addAssociationToDiagram</text><polygon fill="#181818" points="187.2945,90.2594,195.2945,93.4594,187.2945,96.6594,190.4945,93.4594" style="stroke:#181818;stroke-width:0.8000000000000002;"/><line style="stroke:#181818;stroke-width:0.8000000000000002;" x1="28.7559" x2="192.0945" y1="93.4594" y2="93.4594"/><text fill="#000000" font-family="sans-serif" font-size="10.4" font-weight="bold" lengthAdjust="spacing" textLength="5.784" x="34.3559" y="89.2492">1</text><text fill="#000000" font-family="sans-serif" font-size="10.4" lengthAdjust="spacing" textLength="121.3926" x="43.3398" y="89.2492">startAddAssociation(point)</text><path d="M32,103.8594 L32,125.4594 L107.2,125.4594 L107.2,111.8594 L99.2,103.8594 L32,103.8594 " fill="#FF0000" style="stroke:#181818;stroke-width:0.4000000000000001;"/><path d="M99.2,103.8594 L99.2,111.8594 L107.2,111.8594 L99.2,103.8594 " fill="#FF0000" style="stroke:#181818;stroke-width:0.4000000000000001;"/><text fill="#000000" font-family="sans-serif" font-size="10.4" lengthAdjust="spacing" textLength="58.957" x="36.8" y="119.082">by Controller</text><polygon fill="#181818" points="363.4332,145.125,371.4332,148.325,363.4332,151.525,366.6332,148.325" style="stroke:#181818;stroke-width:0.8000000000000002;"/><line style="stroke:#181818;stroke-width:0.8000000000000002;" x1="204.8945" x2="368.2332" y1="148.325" y2="148.325"/><text fill="#000000" font-family="sans-serif" font-size="10.4" font-weight="bold" lengthAdjust="spacing" textLength="5.784" x="210.4945" y="144.1148">2</text><text fill="#000000" font-family="sans-serif" font-size="10.4" lengthAdjust="spacing" textLength="121.3926" x="219.4785" y="144.1148">startAddAssociation(point)</text><line style="stroke:#181818;stroke-width:0.8000000000000002;" x1="381.0332" x2="418.6332" y1="169.3578" y2="169.3578"/><line style="stroke:#181818;stroke-width:0.8000000000000002;" x1="418.6332" x2="418.6332" y1="169.3578" y2="179.7578"/><line style="stroke:#181818;stroke-width:0.8000000000000002;" x1="385.8332" x2="418.6332" y1="179.7578" y2="179.7578"/><polygon fill="#181818" points="393.8332,176.5578,385.8332,179.7578,393.8332,182.9578,390.6332,179.7578" style="stroke:#181818;stroke-width:0.8000000000000002;"/><text fill="#000000" font-family="sans-serif" font-size="10.4" font-weight="bold" lengthAdjust="spacing" textLength="5.784" x="390.6332" y="165.1477">3</text><text fill="#000000" font-family="sans-serif" font-size="10.4" lengthAdjust="spacing" textLength="78.3352" x="399.6172" y="165.1477">startPoint = point</text><line style="stroke:#181818;stroke-width:0.8000000000000002;stroke-dasharray:2.0,2.0;" x1="385.0332" x2="418.6332" y1="212.7906" y2="212.7906"/><line style="stroke:#181818;stroke-width:0.8000000000000002;stroke-dasharray:2.0,2.0;" x1="418.6332" x2="418.6332" y1="212.7906" y2="223.1906"/><line style="stroke:#181818;stroke-width:0.8000000000000002;stroke-dasharray:2.0,2.0;" x1="381.0332" x2="418.6332" y1="223.1906" y2="223.1906"/><polygon fill="#181818" points="389.0332,219.9906,381.0332,223.1906,389.0332,226.3906,385.8332,223.1906" style="stroke:#181818;stroke-width:0.8000000000000002;"/><text fill="#000000" font-family="sans-serif" font-size="10.4" font-weight="bold" lengthAdjust="spacing" textLength="5.784" x="390.6332" y="208.5805">4</text><text fill="#000000" font-family="sans-serif" font-size="10.4" lengthAdjust="spacing" textLength="2.8895" x="399.6172" y="208.5805">&#160;</text><polygon fill="#181818" points="213.6945,241.0234,205.6945,244.2234,213.6945,247.4234,210.4945,244.2234" style="stroke:#181818;stroke-width:0.8000000000000002;"/><line style="stroke:#181818;stroke-width:0.8000000000000002;stroke-dasharray:2.0,2.0;" x1="208.8945" x2="376.2332" y1="244.2234" y2="244.2234"/><text fill="#000000" font-family="sans-serif" font-size="10.4" font-weight="bold" lengthAdjust="spacing" textLength="5.784" x="218.4945" y="240.0133">5</text><text fill="#000000" font-family="sans-serif" font-size="10.4" lengthAdjust="spacing" textLength="2.8895" x="227.4785" y="240.0133">&#160;</text><polygon fill="#181818" points="37.5559,266.0563,29.5559,269.2563,37.5559,272.4563,34.3559,269.2563" style="stroke:#181818;stroke-width:0.8000000000000002;"/><line style="stroke:#181818;stroke-width:0.8000000000000002;stroke-dasharray:2.0,2.0;" x1="32.7559" x2="200.0945" y1="269.2563" y2="269.2563"/><text fill="#000000" font-family="sans-serif" font-size="10.4" font-weight="bold" lengthAdjust="spacing" textLength="5.784" x="42.3559" y="265.0461">6</text><text fill="#000000" font-family="sans-serif" font-size="10.4" lengthAdjust="spacing" textLength="2.8895" x="51.3398" y="265.0461">&#160;</text><polygon fill="#181818" points="187.2945,313.4891,195.2945,316.6891,187.2945,319.8891,190.4945,316.6891" style="stroke:#181818;stroke-width:0.8000000000000002;"/><line style="stroke:#181818;stroke-width:0.8000000000000002;" x1="28.7559" x2="192.0945" y1="316.6891" y2="316.6891"/><text fill="#000000" font-family="sans-serif" font-size="10.4" font-weight="bold" lengthAdjust="spacing" textLength="5.784" x="34.3559" y="312.4789">7</text><text fill="#000000" font-family="sans-serif" font-size="10.4" lengthAdjust="spacing" textLength="143.9547" x="43.3398" y="312.4789">endAddAssociation(type, point)</text><polygon fill="#181818" points="363.4332,338.5219,371.4332,341.7219,363.4332,344.9219,366.6332,341.7219" style="stroke:#181818;stroke-width:0.8000000000000002;"/><line style="stroke:#181818;stroke-width:0.8000000000000002;" x1="204.8945" x2="368.2332" y1="341.7219" y2="341.7219"/><text fill="#000000" font-family="sans-serif" font-size="10.4" font-weight="bold" lengthAdjust="spacing" textLength="5.784" x="210.4945" y="337.5117">8</text><text fill="#000000" font-family="sans-serif" font-size="10.4" lengthAdjust="spacing" textLength="143.9547" x="219.4785" y="337.5117">endAddAssociation(type, point)</text><polygon fill="#181818" points="570.777,363.5547,578.777,366.7547,570.777,369.9547,573.977,366.7547" style="stroke:#181818;stroke-width:0.8000000000000002;"/><line style="stroke:#181818;stroke-width:0.8000000000000002;" x1="381.0332" x2="575.577" y1="366.7547" y2="366.7547"/><text fill="#000000" font-family="sans-serif" font-size="10.4" font-weight="bold" lengthAdjust="spacing" textLength="5.784" x="386.6332" y="362.5445">9</text><text fill="#000000" font-family="sans-serif" font-size="10.4" lengthAdjust="spacing" textLength="175.1598" x="395.6172" y="362.5445">addAssociation(type, startPoint, point)</text><line style="stroke:#181818;stroke-width:0.8000000000000002;" x1="588.377" x2="625.977" y1="387.7875" y2="387.7875"/><line style="stroke:#181818;stroke-width:0.8000000000000002;" x1="625.977" x2="625.977" y1="387.7875" y2="398.1875"/><line style="stroke:#181818;stroke-width:0.8000000000000002;" x1="593.177" x2="625.977" y1="398.1875" y2="398.1875"/><polygon fill="#181818" points="601.177,394.9875,593.177,398.1875,601.177,401.3875,597.977,398.1875" style="stroke:#181818;stroke-width:0.8000000000000002;"/><text fill="#000000" font-family="sans-serif" font-size="10.4" font-weight="bold" lengthAdjust="spacing" textLength="11.568" x="597.977" y="383.5773">10</text><text fill="#000000" font-family="sans-serif" font-size="10.4" lengthAdjust="spacing" textLength="240.2004" x="612.7449" y="383.5773">parents = [findGadget(startPoint), findGadget(point)]</text><line style="stroke:#181818;stroke-width:0.8000000000000002;stroke-dasharray:2.0,2.0;" x1="592.377" x2="625.977" y1="431.2203" y2="431.2203"/><line style="stroke:#181818;stroke-width:0.8000000000000002;stroke-dasharray:2.0,2.0;" x1="625.977" x2="625.977" y1="431.2203" y2="441.6203"/><line style="stroke:#181818;stroke-width:0.8000000000000002;stroke-dasharray:2.0,2.0;" x1="588.377" x2="625.977" y1="441.6203" y2="441.6203"/><polygon fill="#181818" points="596.377,438.4203,588.377,441.6203,596.377,444.8203,593.177,441.6203" style="stroke:#181818;stroke-width:0.8000000000000002;"/><text fill="#000000" font-family="sans-serif" font-size="10.4" font-weight="bold" lengthAdjust="spacing" textLength="11.568" x="597.977" y="427.0102">11</text><text fill="#000000" font-family="sans-serif" font-size="10.4" lengthAdjust="spacing" textLength="2.8895" x="612.7449" y="427.0102">&#160;</text><path d="M537.4695,449.6203 L589.6383,449.6203 L589.6383,457.0531 L581.6383,465.0531 L537.4695,465.0531 L537.4695,449.6203 " fill="#FFD700" style="stroke:#000000;stroke-width:1.2000000000000002;"/><rect fill="none" height="281.5594" style="stroke:#000000;stroke-width:1.2000000000000002;" width="404.7809" x="537.4695" y="449.6203"/><text fill="#000000" font-family="sans-serif" font-size="10.4" font-weight="bold" lengthAdjust="spacing" textLength="16.1688" x="549.4695" y="461.643">opt</text><text fill="#000000" font-family="sans-serif" font-size="8.8" font-weight="bold" lengthAdjust="spacing" textLength="109.0203" x="601.6383" y="460.7164">[both parents are not null]</text><polygon fill="#181818" points="812.4379,480.4859,820.4379,483.6859,812.4379,486.8859,815.6379,483.6859" style="stroke:#181818;stroke-width:0.8000000000000002;"/><line style="stroke:#181818;stroke-width:0.8000000000000002;stroke-dasharray:2.0,2.0;" x1="588.377" x2="817.2379" y1="483.6859" y2="483.6859"/><text fill="#000000" font-family="sans-serif" font-size="10.4" font-weight="bold" lengthAdjust="spacing" textLength="11.568" x="593.977" y="479.4758">12</text><text fill="#000000" font-family="sans-serif" font-size="10.4" lengthAdjust="spacing" textLength="149.1395" x="608.7449" y="479.4758">createAssociation(type, parents)</text><rect fill="#E2E2F0" height="26.0969" rx="2" ry="2" style="stroke:#181818;stroke-width:0.4000000000000001;" width="89.0148" x="822.0379" y="465.0531"/><text fill="#000000" font-family="sans-serif" font-size="11.2" lengthAdjust="spacing" textLength="77.8148" x="827.6379" y="482.7391">ass:Association</text><path d="M592,503.95 L592,525.55 L656.8,525.55 L656.8,511.95 L648.8,503.95 L592,503.95 " fill="#FF0000" style="stroke:#181818;stroke-width:0.4000000000000001;"/><path d="M648.8,503.95 L648.8,511.95 L656.8,511.95 L648.8,503.95 " fill="#FF0000" style="stroke:#181818;stroke-width:0.4000000000000001;"/><text fill="#000000" font-family="sans-serif" font-size="10.4" lengthAdjust="spacing" textLength="48.552" x="596.8" y="519.1727">by Creator</text><line style="stroke:#181818;stroke-width:0.8000000000000002;" x1="588.377" x2="625.977" y1="544.4156" y2="544.4156"/><line style="stroke:#181818;stroke-width:0.8000000000000002;" x1="625.977" x2="625.977" y1="544.4156" y2="554.8156"/><line style="stroke:#181818;stroke-width:0.8000000000000002;" x1="593.177" x2="625.977" y1="554.8156" y2="554.8156"/><polygon fill="#181818" points="601.177,551.6156,593.177,554.8156,601.177,558.0156,597.977,554.8156" style="stroke:#181818;stroke-width:0.8000000000000002;"/><text fill="#000000" font-family="sans-serif" font-size="10.4" font-weight="bold" lengthAdjust="spacing" textLength="11.568" x="597.977" y="540.2055">13</text><text fill="#000000" font-family="sans-serif" font-size="10.4" lengthAdjust="spacing" textLength="165.3336" x="612.7449" y="540.2055">adjustAssociationPath(*association)</text><path d="M596,569.2156 L596,590.8156 L933.6,590.8156 L933.6,577.2156 L925.6,569.2156 L596,569.2156 " fill="#FEFFDD" style="stroke:#181818;stroke-width:0.4000000000000001;"/><path d="M925.6,569.2156 L925.6,577.2156 L933.6,577.2156 L925.6,569.2156 " fill="#FEFFDD" style="stroke:#181818;stroke-width:0.4000000000000001;"/><text fill="#000000" font-family="sans-serif" font-size="10.4" lengthAdjust="spacing" textLength="321.4504" x="600.8" y="584.4383">adjust the pathing of newly created association to prevent overlapping</text><line style="stroke:#181818;stroke-width:0.8000000000000002;stroke-dasharray:2.0,2.0;" x1="592.377" x2="625.977" y1="617.6813" y2="617.6813"/><line style="stroke:#181818;stroke-width:0.8000000000000002;stroke-dasharray:2.0,2.0;" x1="625.977" x2="625.977" y1="617.6813" y2="628.0813"/><line style="stroke:#181818;stroke-width:0.8000000000000002;stroke-dasharray:2.0,2.0;" x1="588.377" x2="625.977" y1="628.0813" y2="628.0813"/><polygon fill="#181818" points="596.377,624.8813,588.377,628.0813,596.377,631.2813,593.177,628.0813" style="stroke:#181818;stroke-width:0.8000000000000002;"/><text fill="#000000" font-family="sans-serif" font-size="10.4" font-weight="bold" lengthAdjust="spacing" textLength="11.568" x="597.977" y="613.4711">14</text><text fill="#000000" font-family="sans-serif" font-size="10.4" lengthAdjust="spacing" textLength="2.8895" x="612.7449" y="613.4711">&#160;</text><line style="stroke:#181818;stroke-width:0.8000000000000002;" x1="588.377" x2="625.977" y1="645.1141" y2="645.1141"/><line style="stroke:#181818;stroke-width:0.8000000000000002;" x1="625.977" x2="625.977" y1="645.1141" y2="655.5141"/><line style="stroke:#181818;stroke-width:0.8000000000000002;" x1="593.177" x2="625.977" y1="655.5141" y2="655.5141"/><polygon fill="#181818" points="601.177,652.3141,593.177,655.5141,601.177,658.7141,597.977,655.5141" style="stroke:#181818;stroke-width:0.8000000000000002;"/><text fill="#000000" font-family="sans-serif" font-size="10.4" font-weight="bold" lengthAdjust="spacing" textLength="11.568" x="597.977" y="640.9039">15</text><text fill="#000000" font-family="sans-serif" font-size="10.4" lengthAdjust="spacing" textLength="188.759" x="612.7449" y="640.9039">components = append(components, ass)</text><path d="M596,669.9141 L596,691.5141 L772.8,691.5141 L772.8,677.9141 L764.8,669.9141 L596,669.9141 " fill="#FEFFDD" style="stroke:#181818;stroke-width:0.4000000000000001;"/><path d="M764.8,669.9141 L764.8,677.9141 L772.8,677.9141 L764.8,669.9141 " fill="#FEFFDD" style="stroke:#181818;stroke-width:0.4000000000000001;"/><text fill="#000000" font-family="sans-serif" font-size="10.4" lengthAdjust="spacing" textLength="160.7379" x="600.8" y="685.1367">append is a golang built-in function</text><line style="stroke:#181818;stroke-width:0.8000000000000002;stroke-dasharray:2.0,2.0;" x1="592.377" x2="625.977" y1="718.3797" y2="718.3797"/><line style="stroke:#181818;stroke-width:0.8000000000000002;stroke-dasharray:2.0,2.0;" x1="625.977" x2="625.977" y1="718.3797" y2="728.7797"/><line style="stroke:#181818;stroke-width:0.8000000000000002;stroke-dasharray:2.0,2.0;" x1="588.377" x2="625.977" y1="728.7797" y2="728.7797"/><polygon fill="#181818" points="596.377,725.5797,588.377,728.7797,596.377,731.9797,593.177,728.7797" style="stroke:#181818;stroke-width:0.8000000000000002;"/><text fill="#000000" font-family="sans-serif" font-size="10.4" font-weight="bold" lengthAdjust="spacing" textLength="11.568" x="597.977" y="714.1695">16</text><text fill="#000000" font-family="sans-serif" font-size="10.4" lengthAdjust="spacing" textLength="2.8895" x="612.7449" y="714.1695">&#160;</text><polygon fill="#181818" points="389.8332,752.2125,381.8332,755.4125,389.8332,758.6125,386.6332,755.4125" style="stroke:#181818;stroke-width:0.8000000000000002;"/><line style="stroke:#181818;stroke-width:0.8000000000000002;stroke-dasharray:2.0,2.0;" x1="385.0332" x2="583.577" y1="755.4125" y2="755.4125"/><text fill="#000000" font-family="sans-serif" font-size="10.4" font-weight="bold" lengthAdjust="spacing" textLength="11.568" x="394.6332" y="751.2023">17</text><text fill="#000000" font-family="sans-serif" font-size="10.4" lengthAdjust="spacing" textLength="2.8895" x="409.4012" y="751.2023">&#160;</text><polygon fill="#181818" points="213.6945,777.2453,205.6945,780.4453,213.6945,783.6453,210.4945,780.4453" style="stroke:#181818;stroke-width:0.8000000000000002;"/><line style="stroke:#181818;stroke-width:0.8000000000000002;stroke-dasharray:2.0,2.0;" x1="208.8945" x2="376.2332" y1="780.4453" y2="780.4453"/><text fill="#000000" font-family="sans-serif" font-size="10.4" font-weight="bold" lengthAdjust="spacing" textLength="11.568" x="218.4945" y="776.2352">18</text><text fill="#000000" font-family="sans-serif" font-size="10.4" lengthAdjust="spacing" textLength="2.8895" x="233.2625" y="776.2352">&#160;</text><polygon fill="#181818" points="37.5559,802.2781,29.5559,805.4781,37.5559,808.6781,34.3559,805.4781" style="stroke:#181818;stroke-width:0.8000000000000002;"/><line style="stroke:#181818;stroke-width:0.8000000000000002;stroke-dasharray:2.0,2.0;" x1="32.7559" x2="200.0945" y1="805.4781" y2="805.4781"/><text fill="#000000" font-family="sans-serif" font-size="10.4" font-weight="bold" lengthAdjust="spacing" textLength="11.568" x="42.3559" y="801.268">19</text><text fill="#000000" font-family="sans-serif" font-size="10.4" lengthAdjust="spacing" textLength="2.8895" x="57.1238" y="801.268">&#160;</text><!--SRC=[bPJFJiCm3CRlVGfhkspJs0DK0Wc1X910sW5Em25hipQeiwFK6ThRuwnbJVU7RRaqiPBVzzbreZmJ-jL2kqJ9L6Lireer42Q58s-71LKv37zA8q6Lv_TrJPbHR0ZVwD6emgbLCaZVdmTmSmSoUNsPE_hM6GzIg5avlkyT6baooEC4INZE52K3BQ4139tEKrXiu86G7LMLc08PFUfM9lFEQUHM_nFJYUneL__hGZl-HrmiCWzKk8KjVGTtcht399gsdzbiTh9O6lCzoxonUWgHyQiBSG7pmcAa3xIoXBAf5guw1kqASY3Gc8yGHvXM1Gkr5FDZQJ1_KdcXUTH1nrE8uet0LqyXAllVw2t8Sg-T5yJbJbO-84q9wAkgT-g8zs1UrNKQrM00amcaa3ajj-T8mHkLyG5v_nx4Ejrz25HooJbVUpM5yAE-VSsHdxdYSZHHNU0gItz0u59BJbmQBC8cr3_Lfaq-XuWEJ62TNijfeBLsbR9MpXneDhyEhirG2hvRIEC8N3f-rCMcmSkr6MuXOAGbGBf5IOOBRog-CGXBZrb8wuJ_NbWWvn-4e7JYLVq5]--></g></svg>