<svg xmlns="http://www.w3.org/2000/svg" xmlns:xlink="http://www.w3.org/1999/xlink" contentStyleType="text/css" height="478.4px" preserveAspectRatio="none" style="width:736px;height:478px;background:#FFFFFF;" version="1.1" viewBox="0 0 736 478" width="736px" zoomAndPan="magnify"><defs/><g><rect fill="#FFFFFF" height="320.425" style="stroke:#181818;stroke-width:0.8000000000000002;" width="8" x="159.3215" y="93.4594"/><rect fill="#FFFFFF" height="240.5266" style="stroke:#181818;stroke-width:0.8000000000000002;" width="8" x="297.8871" y="148.325"/><rect fill="#FFFFFF" height="190.4609" style="stroke:#181818;stroke-width:0.8000000000000002;" width="8" x="436.4527" y="173.3578"/><rect fill="#FFFFFF" height="63.6656" style="stroke:#181818;stroke-width:0.8000000000000002;" width="8" x="440.4527" y="269.5203"/><rect fill="#FFFFFF" height="360.8906" style="stroke:#000000;stroke-width:1.2000000000000002;" width="723.6746" x="8" y="59.3938"/><line style="stroke:#181818;stroke-width:0.4000000000000001;stroke-dasharray:5.0,5.0;" x1="28" x2="28" y1="45.7938" y2="433.8844"/><line style="stroke:#181818;stroke-width:0.4000000000000001;stroke-dasharray:5.0,5.0;" x1="162.9133" x2="162.9133" y1="45.7938" y2="433.8844"/><line style="stroke:#181818;stroke-width:0.4000000000000001;stroke-dasharray:5.0,5.0;" x1="301.6969" x2="301.6969" y1="45.7938" y2="433.8844"/><line style="stroke:#181818;stroke-width:0.4000000000000001;stroke-dasharray:5.0,5.0;" x1="439.9453" x2="439.9453" y1="45.7938" y2="433.8844"/><line style="stroke:#181818;stroke-width:0.4000000000000001;stroke-dasharray:5.0,5.0;" x1="680.7676" x2="680.7676" y1="205.2063" y2="433.8844"/><rect fill="#E2E2F0" height="26.0969" rx="2" ry="2" style="stroke:#181818;stroke-width:0.4000000000000001;" width="25.5117" x="16" y="18.8969"/><text fill="#000000" font-family="sans-serif" font-size="11.2" lengthAdjust="spacing" textLength="14.3117" x="21.6" y="36.5828">:UI</text><rect fill="#E2E2F0" height="26.0969" rx="2" ry="2" style="stroke:#181818;stroke-width:0.4000000000000001;" width="25.5117" x="16" y="433.0844"/><text fill="#000000" font-family="sans-serif" font-size="11.2" lengthAdjust="spacing" textLength="14.3117" x="21.6" y="450.7703">:UI</text><rect fill="#E2E2F0" height="26.0969" rx="2" ry="2" style="stroke:#181818;stroke-width:0.4000000000000001;" width="72.8164" x="126.9133" y="18.8969"/><text fill="#000000" font-family="sans-serif" font-size="11.2" lengthAdjust="spacing" textLength="61.6164" x="132.5133" y="36.5828">:UMLProject</text><rect fill="#E2E2F0" height="26.0969" rx="2" ry="2" style="stroke:#181818;stroke-width:0.4000000000000001;" width="72.8164" x="126.9133" y="433.0844"/><text fill="#000000" font-family="sans-serif" font-size="11.2" lengthAdjust="spacing" textLength="61.6164" x="132.5133" y="450.7703">:UMLProject</text><rect fill="#E2E2F0" height="40.9938" rx="2" ry="2" style="stroke:#181818;stroke-width:0.4000000000000001;" width="88.3805" x="257.6969" y="4"/><text fill="#000000" font-family="sans-serif" font-size="11.2" lengthAdjust="spacing" textLength="77.1805" x="263.2969" y="21.6859">currentDiagram</text><text fill="#000000" font-family="sans-serif" font-size="11.2" lengthAdjust="spacing" textLength="73.4398" x="265.1672" y="36.5828">:*UMLDiagram</text><rect fill="#E2E2F0" height="40.9938" rx="2" ry="2" style="stroke:#181818;stroke-width:0.4000000000000001;" width="88.3805" x="257.6969" y="433.0844"/><text fill="#000000" font-family="sans-serif" font-size="11.2" lengthAdjust="spacing" textLength="77.1805" x="263.2969" y="450.7703">currentDiagram</text><text fill="#000000" font-family="sans-serif" font-size="11.2" lengthAdjust="spacing" textLength="73.4398" x="265.1672" y="465.6672">:*UMLDiagram</text><rect fill="#E2E2F0" height="26.0969" rx="2" ry="2" style="stroke:#181818;stroke-width:0.4000000000000001;" width="77.8148" x="401.5453" y="18.8969"/><text fill="#000000" font-family="sans-serif" font-size="11.2" lengthAdjust="spacing" textLength="66.6148" x="407.1453" y="36.5828">:Components</text><rect fill="#E2E2F0" height="26.0969" rx="2" ry="2" style="stroke:#181818;stroke-width:0.4000000000000001;" width="77.8148" x="401.5453" y="433.0844"/><text fill="#000000" font-family="sans-serif" font-size="11.2" lengthAdjust="spacing" textLength="66.6148" x="407.1453" y="450.7703">:Components</text><rect fill="#E2E2F0" height="26.0969" rx="2" ry="2" style="stroke:#181818;stroke-width:0.4000000000000001;" width="85.307" x="638.3676" y="433.0844"/><text fill="#000000" font-family="sans-serif" font-size="11.2" lengthAdjust="spacing" textLength="74.107" x="643.9676" y="450.7703">gadget:Gadget</text><rect fill="#FFFFFF" height="320.425" style="stroke:#181818;stroke-width:0.8000000000000002;" width="8" x="159.3215" y="93.4594"/><rect fill="#FFFFFF" height="240.5266" style="stroke:#181818;stroke-width:0.8000000000000002;" width="8" x="297.8871" y="148.325"/><rect fill="#FFFFFF" height="190.4609" style="stroke:#181818;stroke-width:0.8000000000000002;" width="8" x="436.4527" y="173.3578"/><rect fill="#FFFFFF" height="63.6656" style="stroke:#181818;stroke-width:0.8000000000000002;" width="8" x="440.4527" y="269.5203"/><path d="M8,59.3938 L152.6363,59.3938 L152.6363,66.8266 L144.6363,74.8266 L8,74.8266 L8,59.3938 " fill="#FFD700" style="stroke:#000000;stroke-width:1.2000000000000002;"/><rect fill="none" height="360.8906" style="stroke:#000000;stroke-width:1.2000000000000002;" width="723.6746" x="8" y="59.3938"/><text fill="#000000" font-family="sans-serif" font-size="10.4" font-weight="bold" lengthAdjust="spacing" textLength="108.6363" x="20" y="71.4164">addGadgetToDiagram</text><polygon fill="#181818" points="149.7215,90.2594,157.7215,93.4594,149.7215,96.6594,152.9215,93.4594" style="stroke:#181818;stroke-width:0.8000000000000002;"/><line style="stroke:#181818;stroke-width:0.8000000000000002;" x1="28.7559" x2="154.5215" y1="93.4594" y2="93.4594"/><text fill="#000000" font-family="sans-serif" font-size="10.4" font-weight="bold" lengthAdjust="spacing" textLength="5.784" x="34.3559" y="89.2492">1</text><text fill="#000000" font-family="sans-serif" font-size="10.4" lengthAdjust="spacing" textLength="106.3816" x="43.3398" y="89.2492">addGadget(type, point)</text><path d="M32,103.8594 L32,125.4594 L107.2,125.4594 L107.2,111.8594 L99.2,103.8594 L32,103.8594 " fill="#FF0000" style="stroke:#181818;stroke-width:0.4000000000000001;"/><path d="M99.2,103.8594 L99.2,111.8594 L107.2,111.8594 L99.2,103.8594 " fill="#FF0000" style="stroke:#181818;stroke-width:0.4000000000000001;"/><text fill="#000000" font-family="sans-serif" font-size="10.4" lengthAdjust="spacing" textLength="58.957" x="36.8" y="119.082">by Controller</text><polygon fill="#181818" points="288.2871,145.125,296.2871,148.325,288.2871,151.525,291.4871,148.325" style="stroke:#181818;stroke-width:0.8000000000000002;"/><line style="stroke:#181818;stroke-width:0.8000000000000002;" x1="167.3215" x2="293.0871" y1="148.325" y2="148.325"/><text fill="#000000" font-family="sans-serif" font-size="10.4" font-weight="bold" lengthAdjust="spacing" textLength="5.784" x="172.9215" y="144.1148">2</text><text fill="#000000" font-family="sans-serif" font-size="10.4" lengthAdjust="spacing" textLength="106.3816" x="181.9055" y="144.1148">addGadget(type, point)</text><polygon fill="#181818" points="426.8527,170.1578,434.8527,173.3578,426.8527,176.5578,430.0527,173.3578" style="stroke:#181818;stroke-width:0.8000000000000002;"/><line style="stroke:#181818;stroke-width:0.8000000000000002;" x1="305.8871" x2="431.6527" y1="173.3578" y2="173.3578"/><text fill="#000000" font-family="sans-serif" font-size="10.4" font-weight="bold" lengthAdjust="spacing" textLength="5.784" x="311.4871" y="169.1477">3</text><text fill="#000000" font-family="sans-serif" font-size="10.4" lengthAdjust="spacing" textLength="106.3816" x="320.4711" y="169.1477">addGadget(type, point)</text><polygon fill="#181818" points="628.7676,195.1906,636.7676,198.3906,628.7676,201.5906,631.9676,198.3906" style="stroke:#181818;stroke-width:0.8000000000000002;"/><line style="stroke:#181818;stroke-width:0.8000000000000002;stroke-dasharray:2.0,2.0;" x1="444.4527" x2="633.5676" y1="198.3906" y2="198.3906"/><text fill="#000000" font-family="sans-serif" font-size="10.4" font-weight="bold" lengthAdjust="spacing" textLength="5.784" x="450.0527" y="194.1805">4</text><text fill="#000000" font-family="sans-serif" font-size="10.4" lengthAdjust="spacing" textLength="117.9344" x="459.0367" y="194.1805">createGadget(type, point)</text><rect fill="#E2E2F0" height="26.0969" rx="2" ry="2" style="stroke:#181818;stroke-width:0.4000000000000001;" width="85.307" x="638.3676" y="179.7578"/><text fill="#000000" font-family="sans-serif" font-size="11.2" lengthAdjust="spacing" textLength="74.107" x="643.9676" y="197.4438">gadget:Gadget</text><path d="M448,218.6547 L448,240.2547 L512.8,240.2547 L512.8,226.6547 L504.8,218.6547 L448,218.6547 " fill="#FF0000" style="stroke:#181818;stroke-width:0.4000000000000001;"/><path d="M504.8,218.6547 L504.8,226.6547 L512.8,226.6547 L504.8,218.6547 " fill="#FF0000" style="stroke:#181818;stroke-width:0.4000000000000001;"/><text fill="#000000" font-family="sans-serif" font-size="10.4" lengthAdjust="spacing" textLength="48.552" x="452.8" y="233.8773">by Creator</text><line style="stroke:#181818;stroke-width:0.8000000000000002;" x1="444.4527" x2="482.0527" y1="259.1203" y2="259.1203"/><line style="stroke:#181818;stroke-width:0.8000000000000002;" x1="482.0527" x2="482.0527" y1="259.1203" y2="269.5203"/><line style="stroke:#181818;stroke-width:0.8000000000000002;" x1="449.2527" x2="482.0527" y1="269.5203" y2="269.5203"/><polygon fill="#181818" points="457.2527,266.3203,449.2527,269.5203,457.2527,272.7203,454.0527,269.5203" style="stroke:#181818;stroke-width:0.8000000000000002;"/><text fill="#000000" font-family="sans-serif" font-size="10.4" font-weight="bold" lengthAdjust="spacing" textLength="5.784" x="454.0527" y="254.9102">5</text><text fill="#000000" font-family="sans-serif" font-size="10.4" lengthAdjust="spacing" textLength="204.3844" x="463.0367" y="254.9102">components = append(components, gadget)</text><path d="M452,283.9203 L452,305.5203 L595.2,305.5203 L595.2,291.9203 L587.2,283.9203 L452,283.9203 " fill="#FEFFDD" style="stroke:#181818;stroke-width:0.4000000000000001;"/><path d="M587.2,283.9203 L587.2,291.9203 L595.2,291.9203 L587.2,283.9203 " fill="#FEFFDD" style="stroke:#181818;stroke-width:0.4000000000000001;"/><text fill="#000000" font-family="sans-serif" font-size="10.4" lengthAdjust="spacing" textLength="126.618" x="456.8" y="299.143">append is a built-in function</text><line style="stroke:#181818;stroke-width:0.8000000000000002;stroke-dasharray:2.0,2.0;" x1="448.4527" x2="482.0527" y1="332.3859" y2="332.3859"/><line style="stroke:#181818;stroke-width:0.8000000000000002;stroke-dasharray:2.0,2.0;" x1="482.0527" x2="482.0527" y1="332.3859" y2="342.7859"/><line style="stroke:#181818;stroke-width:0.8000000000000002;stroke-dasharray:2.0,2.0;" x1="444.4527" x2="482.0527" y1="342.7859" y2="342.7859"/><polygon fill="#181818" points="452.4527,339.5859,444.4527,342.7859,452.4527,345.9859,449.2527,342.7859" style="stroke:#181818;stroke-width:0.8000000000000002;"/><text fill="#000000" font-family="sans-serif" font-size="10.4" font-weight="bold" lengthAdjust="spacing" textLength="5.784" x="454.0527" y="328.1758">6</text><text fill="#000000" font-family="sans-serif" font-size="10.4" lengthAdjust="spacing" textLength="2.8895" x="463.0367" y="328.1758">&#160;</text><polygon fill="#181818" points="314.6871,360.6188,306.6871,363.8188,314.6871,367.0188,311.4871,363.8188" style="stroke:#181818;stroke-width:0.8000000000000002;"/><line style="stroke:#181818;stroke-width:0.8000000000000002;stroke-dasharray:2.0,2.0;" x1="309.8871" x2="439.6527" y1="363.8188" y2="363.8188"/><text fill="#000000" font-family="sans-serif" font-size="10.4" font-weight="bold" lengthAdjust="spacing" textLength="5.784" x="319.4871" y="359.6086">7</text><text fill="#000000" font-family="sans-serif" font-size="10.4" lengthAdjust="spacing" textLength="2.8895" x="328.4711" y="359.6086">&#160;</text><polygon fill="#181818" points="176.1215,385.6516,168.1215,388.8516,176.1215,392.0516,172.9215,388.8516" style="stroke:#181818;stroke-width:0.8000000000000002;"/><line style="stroke:#181818;stroke-width:0.8000000000000002;stroke-dasharray:2.0,2.0;" x1="171.3215" x2="301.0871" y1="388.8516" y2="388.8516"/><text fill="#000000" font-family="sans-serif" font-size="10.4" font-weight="bold" lengthAdjust="spacing" textLength="5.784" x="180.9215" y="384.6414">8</text><text fill="#000000" font-family="sans-serif" font-size="10.4" lengthAdjust="spacing" textLength="2.8895" x="189.9055" y="384.6414">&#160;</text><polygon fill="#181818" points="37.5559,410.6844,29.5559,413.8844,37.5559,417.0844,34.3559,413.8844" style="stroke:#181818;stroke-width:0.8000000000000002;"/><line style="stroke:#181818;stroke-width:0.8000000000000002;stroke-dasharray:2.0,2.0;" x1="32.7559" x2="162.5215" y1="413.8844" y2="413.8844"/><text fill="#000000" font-family="sans-serif" font-size="10.4" font-weight="bold" lengthAdjust="spacing" textLength="5.784" x="42.3559" y="409.6742">9</text><text fill="#000000" font-family="sans-serif" font-size="10.4" lengthAdjust="spacing" textLength="2.8895" x="51.3398" y="409.6742">&#160;</text><!--SRC=[bPB1JiCm38RlVGghlOngVO58S1aIGWA90zouf4sMPMhZo7D0UtkIBj2rI6FaPF-oF_-nB0EZ2qEhgP0nb1tR3yaQq1M6CFZAOA-W-jpPA4gb7gGocb_ntaf3SYW0e1HlZoKqTobuVdeXtEkEIp5Lh_ZezHeyMiStgGCSHXfPisF0RGPKf9M0zWWRT4pOzz4Iv3SZZwEwGAGTPnllJjIn8cSbmCNftz3BZF536nmykbXqk1AQxSxwceGoOvyujPTGrudNaOxBlWQvtDZvW6bp2OVqXv_bnwADdmHkGNgldLfDsXfEtlzbIcGEs0D8Q8FjkR4Eji752ul7jKIHva1pUI6TfJbC-Dyd-GK0]--></g></svg>