<svg xmlns="http://www.w3.org/2000/svg" xmlns:xlink="http://www.w3.org/1999/xlink" contentStyleType="text/css" height="598px" preserveAspectRatio="none" style="width:891px;height:598px;background:#FFFFFF;" version="1.1" viewBox="0 0 891 598" width="891px" zoomAndPan="magnify"><defs/><g><rect fill="#FFFFFF" height="400.5313" style="stroke:#181818;stroke-width:1.0;" width="10" x="170.207" y="116.8242"/><rect fill="#FFFFFF" height="300.6582" style="stroke:#181818;stroke-width:1.0;" width="10" x="343.4141" y="185.4063"/><rect fill="#FFFFFF" height="238.0762" style="stroke:#181818;stroke-width:1.0;" width="10" x="516.6211" y="216.6973"/><rect fill="#FFFFFF" height="79.582" style="stroke:#181818;stroke-width:1.0;" width="10" x="521.6211" y="336.9004"/><rect fill="#FFFFFF" height="451.1133" style="stroke:#000000;stroke-width:1.5;" width="882.6484" x="3" y="74.2422"/><line style="stroke:#181818;stroke-width:0.5;stroke-dasharray:5.0,5.0;" x1="174.6968" x2="174.6968" y1="57.2422" y2="542.3555"/><line style="stroke:#181818;stroke-width:0.5;stroke-dasharray:5.0,5.0;" x1="348.1763" x2="348.1763" y1="57.2422" y2="542.3555"/><line style="stroke:#181818;stroke-width:0.5;stroke-dasharray:5.0,5.0;" x1="520.9868" x2="520.9868" y1="57.2422" y2="542.3555"/><line style="stroke:#181818;stroke-width:0.5;stroke-dasharray:5.0,5.0;" x1="822.0146" x2="822.0146" y1="256.5078" y2="542.3555"/><rect fill="#E2E2F0" height="32.6211" rx="2.5" ry="2.5" style="stroke:#181818;stroke-width:0.5;" width="91.0205" x="129.6968" y="23.6211"/><text fill="#000000" font-family="sans-serif" font-size="14" lengthAdjust="spacing" textLength="77.0205" x="136.6968" y="45.7285">:UMLProject</text><rect fill="#E2E2F0" height="32.6211" rx="2.5" ry="2.5" style="stroke:#181818;stroke-width:0.5;" width="91.0205" x="129.6968" y="541.3555"/><text fill="#000000" font-family="sans-serif" font-size="14" lengthAdjust="spacing" textLength="77.0205" x="136.6968" y="563.4629">:UMLProject</text><rect fill="#E2E2F0" height="51.2422" rx="2.5" ry="2.5" style="stroke:#181818;stroke-width:0.5;" width="110.4756" x="293.1763" y="5"/><text fill="#000000" font-family="sans-serif" font-size="14" lengthAdjust="spacing" textLength="96.4756" x="300.1763" y="27.1074">currentDiagram</text><text fill="#000000" font-family="sans-serif" font-size="14" lengthAdjust="spacing" textLength="91.7998" x="302.5142" y="45.7285">:*UMLDiagram</text><rect fill="#E2E2F0" height="51.2422" rx="2.5" ry="2.5" style="stroke:#181818;stroke-width:0.5;" width="110.4756" x="293.1763" y="541.3555"/><text fill="#000000" font-family="sans-serif" font-size="14" lengthAdjust="spacing" textLength="96.4756" x="300.1763" y="563.4629">currentDiagram</text><text fill="#000000" font-family="sans-serif" font-size="14" lengthAdjust="spacing" textLength="91.7998" x="302.5142" y="582.084">:*UMLDiagram</text><rect fill="#E2E2F0" height="32.6211" rx="2.5" ry="2.5" style="stroke:#181818;stroke-width:0.5;" width="97.2686" x="472.9868" y="23.6211"/><text fill="#000000" font-family="sans-serif" font-size="14" lengthAdjust="spacing" textLength="83.2686" x="479.9868" y="45.7285">:Components</text><rect fill="#E2E2F0" height="32.6211" rx="2.5" ry="2.5" style="stroke:#181818;stroke-width:0.5;" width="97.2686" x="472.9868" y="541.3555"/><text fill="#000000" font-family="sans-serif" font-size="14" lengthAdjust="spacing" textLength="83.2686" x="479.9868" y="563.4629">:Components</text><rect fill="#E2E2F0" height="32.6211" rx="2.5" ry="2.5" style="stroke:#181818;stroke-width:0.5;" width="106.6338" x="769.0146" y="541.3555"/><text fill="#000000" font-family="sans-serif" font-size="14" lengthAdjust="spacing" textLength="92.6338" x="776.0146" y="563.4629">gadget:Gadget</text><rect fill="#FFFFFF" height="400.5313" style="stroke:#181818;stroke-width:1.0;" width="10" x="170.207" y="116.8242"/><rect fill="#FFFFFF" height="300.6582" style="stroke:#181818;stroke-width:1.0;" width="10" x="343.4141" y="185.4063"/><rect fill="#FFFFFF" height="238.0762" style="stroke:#181818;stroke-width:1.0;" width="10" x="516.6211" y="216.6973"/><rect fill="#FFFFFF" height="79.582" style="stroke:#181818;stroke-width:1.0;" width="10" x="521.6211" y="336.9004"/><path d="M3,74.2422 L183.7954,74.2422 L183.7954,83.5332 L173.7954,93.5332 L3,93.5332 L3,74.2422 " fill="#FFD700" style="stroke:#000000;stroke-width:1.5;"/><rect fill="none" height="451.1133" style="stroke:#000000;stroke-width:1.5;" width="882.6484" x="3" y="74.2422"/><text fill="#000000" font-family="sans-serif" font-size="13" font-weight="bold" lengthAdjust="spacing" textLength="135.7954" x="18" y="89.2705">addGadgetToDiagram</text><polygon fill="#181818" points="158.207,112.8242,168.207,116.8242,158.207,120.8242,162.207,116.8242" style="stroke:#181818;stroke-width:1.0;"/><line style="stroke:#181818;stroke-width:1.0;" x1="0" x2="164.207" y1="116.8242" y2="116.8242"/><text fill="#000000" font-family="sans-serif" font-size="13" font-weight="bold" lengthAdjust="spacing" textLength="7.23" x="7" y="111.5615">1</text><text fill="#000000" font-family="sans-serif" font-size="13" lengthAdjust="spacing" textLength="132.9771" x="18.23" y="111.5615">addGadget(type, point)</text><path d="M70,129.8242 L70,156.8242 L164,156.8242 L164,139.8242 L154,129.8242 L70,129.8242 " fill="#FF0000" style="stroke:#181818;stroke-width:0.5;"/><path d="M154,129.8242 L154,139.8242 L164,139.8242 L154,129.8242 " fill="#FF0000" style="stroke:#181818;stroke-width:0.5;"/><text fill="#000000" font-family="sans-serif" font-size="13" lengthAdjust="spacing" textLength="73.6963" x="76" y="148.8525">by Controller</text><polygon fill="#181818" points="331.4141,181.4063,341.4141,185.4063,331.4141,189.4063,335.4141,185.4063" style="stroke:#181818;stroke-width:1.0;"/><line style="stroke:#181818;stroke-width:1.0;" x1="180.207" x2="337.4141" y1="185.4063" y2="185.4063"/><text fill="#000000" font-family="sans-serif" font-size="13" font-weight="bold" lengthAdjust="spacing" textLength="7.23" x="187.207" y="180.1436">2</text><text fill="#000000" font-family="sans-serif" font-size="13" lengthAdjust="spacing" textLength="132.9771" x="198.437" y="180.1436">addGadget(type, point)</text><polygon fill="#181818" points="504.6211,212.6973,514.6211,216.6973,504.6211,220.6973,508.6211,216.6973" style="stroke:#181818;stroke-width:1.0;"/><line style="stroke:#181818;stroke-width:1.0;" x1="353.4141" x2="510.6211" y1="216.6973" y2="216.6973"/><text fill="#000000" font-family="sans-serif" font-size="13" font-weight="bold" lengthAdjust="spacing" textLength="7.23" x="360.4141" y="211.4346">3</text><text fill="#000000" font-family="sans-serif" font-size="13" lengthAdjust="spacing" textLength="132.9771" x="371.644" y="211.4346">addGadget(type, point)</text><polygon fill="#181818" points="757.0146,243.9883,767.0146,247.9883,757.0146,251.9883,761.0146,247.9883" style="stroke:#181818;stroke-width:1.0;"/><line style="stroke:#181818;stroke-width:1.0;stroke-dasharray:2.0,2.0;" x1="526.6211" x2="763.0146" y1="247.9883" y2="247.9883"/><text fill="#000000" font-family="sans-serif" font-size="13" font-weight="bold" lengthAdjust="spacing" textLength="7.23" x="533.6211" y="242.7256">4</text><text fill="#000000" font-family="sans-serif" font-size="13" lengthAdjust="spacing" textLength="147.418" x="544.8511" y="242.7256">createGadget(type, point)</text><rect fill="#E2E2F0" height="32.6211" rx="2.5" ry="2.5" style="stroke:#181818;stroke-width:0.5;" width="106.6338" x="769.0146" y="224.6973"/><text fill="#000000" font-family="sans-serif" font-size="14" lengthAdjust="spacing" textLength="92.6338" x="776.0146" y="246.8047">gadget:Gadget</text><path d="M531,273.3184 L531,300.3184 L612,300.3184 L612,283.3184 L602,273.3184 L531,273.3184 " fill="#FF0000" style="stroke:#181818;stroke-width:0.5;"/><path d="M602,273.3184 L602,283.3184 L612,283.3184 L602,273.3184 " fill="#FF0000" style="stroke:#181818;stroke-width:0.5;"/><text fill="#000000" font-family="sans-serif" font-size="13" lengthAdjust="spacing" textLength="60.6899" x="537" y="292.3467">by Creator</text><line style="stroke:#181818;stroke-width:1.0;" x1="526.6211" x2="573.6211" y1="323.9004" y2="323.9004"/><line style="stroke:#181818;stroke-width:1.0;" x1="573.6211" x2="573.6211" y1="323.9004" y2="336.9004"/><line style="stroke:#181818;stroke-width:1.0;" x1="532.6211" x2="573.6211" y1="336.9004" y2="336.9004"/><polygon fill="#181818" points="542.6211,332.9004,532.6211,336.9004,542.6211,340.9004,538.6211,336.9004" style="stroke:#181818;stroke-width:1.0;"/><text fill="#000000" font-family="sans-serif" font-size="13" font-weight="bold" lengthAdjust="spacing" textLength="7.23" x="538.6211" y="318.6377">5</text><text fill="#000000" font-family="sans-serif" font-size="13" lengthAdjust="spacing" textLength="255.4805" x="549.8511" y="318.6377">components = append(components, gadget)</text><path d="M536,354.9004 L536,381.9004 L715,381.9004 L715,364.9004 L705,354.9004 L536,354.9004 " fill="#FEFFDD" style="stroke:#181818;stroke-width:0.5;"/><path d="M705,354.9004 L705,364.9004 L715,364.9004 L705,354.9004 " fill="#FEFFDD" style="stroke:#181818;stroke-width:0.5;"/><text fill="#000000" font-family="sans-serif" font-size="13" lengthAdjust="spacing" textLength="158.2725" x="542" y="373.9287">append is a built-in function</text><line style="stroke:#181818;stroke-width:1.0;stroke-dasharray:2.0,2.0;" x1="531.6211" x2="573.6211" y1="415.4824" y2="415.4824"/><line style="stroke:#181818;stroke-width:1.0;stroke-dasharray:2.0,2.0;" x1="573.6211" x2="573.6211" y1="415.4824" y2="428.4824"/><line style="stroke:#181818;stroke-width:1.0;stroke-dasharray:2.0,2.0;" x1="526.6211" x2="573.6211" y1="428.4824" y2="428.4824"/><polygon fill="#181818" points="536.6211,424.4824,526.6211,428.4824,536.6211,432.4824,532.6211,428.4824" style="stroke:#181818;stroke-width:1.0;"/><text fill="#000000" font-family="sans-serif" font-size="13" font-weight="bold" lengthAdjust="spacing" textLength="7.23" x="538.6211" y="410.2197">6</text><text fill="#000000" font-family="sans-serif" font-size="13" lengthAdjust="spacing" textLength="3.6118" x="549.8511" y="410.2197">&#160;</text><polygon fill="#181818" points="364.4141,450.7734,354.4141,454.7734,364.4141,458.7734,360.4141,454.7734" style="stroke:#181818;stroke-width:1.0;"/><line style="stroke:#181818;stroke-width:1.0;stroke-dasharray:2.0,2.0;" x1="358.4141" x2="520.6211" y1="454.7734" y2="454.7734"/><text fill="#000000" font-family="sans-serif" font-size="13" font-weight="bold" lengthAdjust="spacing" textLength="7.23" x="370.4141" y="449.5107">7</text><text fill="#000000" font-family="sans-serif" font-size="13" lengthAdjust="spacing" textLength="3.6118" x="381.644" y="449.5107">&#160;</text><polygon fill="#181818" points="191.207,482.0645,181.207,486.0645,191.207,490.0645,187.207,486.0645" style="stroke:#181818;stroke-width:1.0;"/><line style="stroke:#181818;stroke-width:1.0;stroke-dasharray:2.0,2.0;" x1="185.207" x2="347.4141" y1="486.0645" y2="486.0645"/><text fill="#000000" font-family="sans-serif" font-size="13" font-weight="bold" lengthAdjust="spacing" textLength="7.23" x="197.207" y="480.8018">8</text><text fill="#000000" font-family="sans-serif" font-size="13" lengthAdjust="spacing" textLength="3.6118" x="208.437" y="480.8018">&#160;</text><polygon fill="#181818" points="11,513.3555,1,517.3555,11,521.3555,7,517.3555" style="stroke:#181818;stroke-width:1.0;"/><line style="stroke:#181818;stroke-width:1.0;stroke-dasharray:2.0,2.0;" x1="5" x2="174.207" y1="517.3555" y2="517.3555"/><text fill="#000000" font-family="sans-serif" font-size="13" font-weight="bold" lengthAdjust="spacing" textLength="7.23" x="17" y="512.0928">9</text><text fill="#000000" font-family="sans-serif" font-size="13" lengthAdjust="spacing" textLength="3.6118" x="28.23" y="512.0928">&#160;</text><!--SRC=[bPB1JiCm38RlVGghlOngVO58S1aI5v0um8rBsgHPK1j7dWFQsvDqWQv56YEdsFhz-RTb6HXT65jDXOnVsR7zaAm1NM48WwyC3WggpxsDIQdKWrH6ymlUMsb8ZWK0D7TGYjUdnsV2TzrnAMRTXezURy6ZTNoJjE0mSWRTCs2_B8EAj1BG7c67ZWc78Ng2_9RArB4BHDfnzl7cH1qLEIe1BfhuXbvcJ7FjSFJeekXm9JJRNTGr2MMcEd4gBw6k4wyZ7RTz3N9Q75cppvixRp1lBk6G_l2p7YpQ-0dW5gJtsgdDdDl2oVk_J8dC0Ni02Msm0pVMGHzSFB5uNMiKQGwqJAzIPs7-9lplc_m2]--></g></svg>