<svg xmlns="http://www.w3.org/2000/svg" xmlns:xlink="http://www.w3.org/1999/xlink" contentStyleType="text/css" height="669px" preserveAspectRatio="none" style="width:993px;height:669px;background:#FFFFFF;" version="1.1" viewBox="0 0 993 669" width="993px" zoomAndPan="magnify"><defs/><g><rect fill="#FFFFFF" height="471.3652" style="stroke:#181818;stroke-width:1.0;" width="10" x="149.9453" y="116.8242"/><rect fill="#FFFFFF" height="371.4922" style="stroke:#181818;stroke-width:1.0;" width="10" x="364.1582" y="185.4063"/><rect fill="#FFFFFF" height="254.3281" style="stroke:#181818;stroke-width:1.0;" width="10" x="578.3711" y="271.2793"/><rect fill="#FFFFFF" height="42.291" style="stroke:#181818;stroke-width:1.0;" width="10" x="583.3711" y="310.5703"/><rect fill="#FFFFFF" height="31.291" style="stroke:#181818;stroke-width:1.0;" width="10" x="928.1743" y="463.0254"/><rect fill="#FFFFFF" height="521.9473" style="stroke:#000000;stroke-width:1.5;" width="984.5327" x="3" y="74.2422"/><line style="stroke:#181818;stroke-width:0.5;stroke-dasharray:5.0,5.0;" x1="154.4351" x2="154.4351" y1="57.2422" y2="613.1895"/><line style="stroke:#181818;stroke-width:0.5;stroke-dasharray:5.0,5.0;" x1="368.9204" x2="368.9204" y1="57.2422" y2="613.1895"/><line style="stroke:#181818;stroke-width:0.5;stroke-dasharray:5.0,5.0;" x1="582.7368" x2="582.7368" y1="57.2422" y2="613.1895"/><line style="stroke:#181818;stroke-width:0.5;stroke-dasharray:5.0,5.0;" x1="932.8159" x2="932.8159" y1="57.2422" y2="613.1895"/><rect fill="#E2E2F0" height="32.6211" rx="2.5" ry="2.5" style="stroke:#181818;stroke-width:0.5;" width="91.0205" x="109.4351" y="23.6211"/><text fill="#000000" font-family="sans-serif" font-size="14" lengthAdjust="spacing" textLength="77.0205" x="116.4351" y="45.7285">:UMLProject</text><rect fill="#E2E2F0" height="32.6211" rx="2.5" ry="2.5" style="stroke:#181818;stroke-width:0.5;" width="91.0205" x="109.4351" y="612.1895"/><text fill="#000000" font-family="sans-serif" font-size="14" lengthAdjust="spacing" textLength="77.0205" x="116.4351" y="634.2969">:UMLProject</text><rect fill="#E2E2F0" height="51.2422" rx="2.5" ry="2.5" style="stroke:#181818;stroke-width:0.5;" width="110.4756" x="313.9204" y="5"/><text fill="#000000" font-family="sans-serif" font-size="14" lengthAdjust="spacing" textLength="96.4756" x="320.9204" y="27.1074">currentDiagram</text><text fill="#000000" font-family="sans-serif" font-size="14" lengthAdjust="spacing" textLength="91.7998" x="323.2583" y="45.7285">:*UMLDiagram</text><rect fill="#E2E2F0" height="51.2422" rx="2.5" ry="2.5" style="stroke:#181818;stroke-width:0.5;" width="110.4756" x="313.9204" y="612.1895"/><text fill="#000000" font-family="sans-serif" font-size="14" lengthAdjust="spacing" textLength="96.4756" x="320.9204" y="634.2969">currentDiagram</text><text fill="#000000" font-family="sans-serif" font-size="14" lengthAdjust="spacing" textLength="91.7998" x="323.2583" y="652.918">:*UMLDiagram</text><rect fill="#E2E2F0" height="32.6211" rx="2.5" ry="2.5" style="stroke:#181818;stroke-width:0.5;" width="97.2686" x="534.7368" y="23.6211"/><text fill="#000000" font-family="sans-serif" font-size="14" lengthAdjust="spacing" textLength="83.2686" x="541.7368" y="45.7285">:Components</text><rect fill="#E2E2F0" height="32.6211" rx="2.5" ry="2.5" style="stroke:#181818;stroke-width:0.5;" width="97.2686" x="534.7368" y="612.1895"/><text fill="#000000" font-family="sans-serif" font-size="14" lengthAdjust="spacing" textLength="83.2686" x="541.7368" y="634.2969">:Components</text><rect fill="#E2E2F0" height="32.6211" rx="2.5" ry="2.5" style="stroke:#181818;stroke-width:0.5;" width="88.7168" x="888.8159" y="23.6211"/><text fill="#000000" font-family="sans-serif" font-size="14" lengthAdjust="spacing" textLength="74.7168" x="895.8159" y="45.7285">:Submodule</text><rect fill="#E2E2F0" height="32.6211" rx="2.5" ry="2.5" style="stroke:#181818;stroke-width:0.5;" width="88.7168" x="888.8159" y="612.1895"/><text fill="#000000" font-family="sans-serif" font-size="14" lengthAdjust="spacing" textLength="74.7168" x="895.8159" y="634.2969">:Submodule</text><rect fill="#FFFFFF" height="471.3652" style="stroke:#181818;stroke-width:1.0;" width="10" x="149.9453" y="116.8242"/><rect fill="#FFFFFF" height="371.4922" style="stroke:#181818;stroke-width:1.0;" width="10" x="364.1582" y="185.4063"/><rect fill="#FFFFFF" height="254.3281" style="stroke:#181818;stroke-width:1.0;" width="10" x="578.3711" y="271.2793"/><rect fill="#FFFFFF" height="42.291" style="stroke:#181818;stroke-width:1.0;" width="10" x="583.3711" y="310.5703"/><rect fill="#FFFFFF" height="31.291" style="stroke:#181818;stroke-width:1.0;" width="10" x="928.1743" y="463.0254"/><path d="M3,74.2422 L157.7827,74.2422 L157.7827,83.5332 L147.7827,93.5332 L3,93.5332 L3,74.2422 " fill="#FFD700" style="stroke:#000000;stroke-width:1.5;"/><rect fill="none" height="521.9473" style="stroke:#000000;stroke-width:1.5;" width="984.5327" x="3" y="74.2422"/><text fill="#000000" font-family="sans-serif" font-size="13" font-weight="bold" lengthAdjust="spacing" textLength="109.7827" x="18" y="89.2705">copyComponents</text><polygon fill="#181818" points="137.9453,112.8242,147.9453,116.8242,137.9453,120.8242,141.9453,116.8242" style="stroke:#181818;stroke-width:1.0;"/><line style="stroke:#181818;stroke-width:1.0;" x1="0" x2="143.9453" y1="116.8242" y2="116.8242"/><text fill="#000000" font-family="sans-serif" font-size="13" font-weight="bold" lengthAdjust="spacing" textLength="7.23" x="7" y="111.5615">1</text><text fill="#000000" font-family="sans-serif" font-size="13" lengthAdjust="spacing" textLength="112.7153" x="18.23" y="111.5615">CopyComponents()</text><path d="M50,129.8242 L50,156.8242 L144,156.8242 L144,139.8242 L134,129.8242 L50,129.8242 " fill="#FF0000" style="stroke:#181818;stroke-width:0.5;"/><path d="M134,129.8242 L134,139.8242 L144,139.8242 L134,129.8242 " fill="#FF0000" style="stroke:#181818;stroke-width:0.5;"/><text fill="#000000" font-family="sans-serif" font-size="13" lengthAdjust="spacing" textLength="73.6963" x="56" y="148.8525">by Controller</text><polygon fill="#181818" points="352.1582,181.4063,362.1582,185.4063,352.1582,189.4063,356.1582,185.4063" style="stroke:#181818;stroke-width:1.0;"/><line style="stroke:#181818;stroke-width:1.0;" x1="159.9453" x2="358.1582" y1="185.4063" y2="185.4063"/><text fill="#000000" font-family="sans-serif" font-size="13" font-weight="bold" lengthAdjust="spacing" textLength="7.23" x="166.9453" y="180.1436">2</text><text fill="#000000" font-family="sans-serif" font-size="13" lengthAdjust="spacing" textLength="173.9829" x="178.1753" y="180.1436">ExportSubmodule("clipboard")</text><path d="M29,198.4063 L29,242.4063 L279,242.4063 L279,208.4063 L269,198.4063 L29,198.4063 " fill="#FEFFDD" style="stroke:#181818;stroke-width:0.5;"/><path d="M269,198.4063 L269,208.4063 L279,208.4063 L269,198.4063 " fill="#FEFFDD" style="stroke:#181818;stroke-width:0.5;"/><text fill="#000000" font-family="sans-serif" font-size="13" lengthAdjust="spacing" textLength="197.1138" x="35" y="217.4346">"clipboard" is a special submodule</text><text fill="#000000" font-family="sans-serif" font-size="13" lengthAdjust="spacing" textLength="229.8169" x="35" y="234.7256">containing the components user copied.</text><polygon fill="#181818" points="566.3711,267.2793,576.3711,271.2793,566.3711,275.2793,570.3711,271.2793" style="stroke:#181818;stroke-width:1.0;"/><line style="stroke:#181818;stroke-width:1.0;" x1="374.1582" x2="572.3711" y1="271.2793" y2="271.2793"/><text fill="#000000" font-family="sans-serif" font-size="13" font-weight="bold" lengthAdjust="spacing" textLength="7.23" x="381.1582" y="266.0166">3</text><text fill="#000000" font-family="sans-serif" font-size="13" lengthAdjust="spacing" textLength="173.9829" x="392.3882" y="266.0166">ExportSubmodule("clipboard")</text><line style="stroke:#181818;stroke-width:1.0;" x1="588.3711" x2="635.3711" y1="297.5703" y2="297.5703"/><line style="stroke:#181818;stroke-width:1.0;" x1="635.3711" x2="635.3711" y1="297.5703" y2="310.5703"/><line style="stroke:#181818;stroke-width:1.0;" x1="594.3711" x2="635.3711" y1="310.5703" y2="310.5703"/><polygon fill="#181818" points="604.3711,306.5703,594.3711,310.5703,604.3711,314.5703,600.3711,310.5703" style="stroke:#181818;stroke-width:1.0;"/><text fill="#000000" font-family="sans-serif" font-size="13" font-weight="bold" lengthAdjust="spacing" textLength="7.23" x="600.3711" y="292.3076">4</text><text fill="#000000" font-family="sans-serif" font-size="13" lengthAdjust="spacing" textLength="304.5732" x="611.6011" y="292.3076">exportComponents = getGroupComponents().clone()</text><line style="stroke:#181818;stroke-width:1.0;stroke-dasharray:2.0,2.0;" x1="593.3711" x2="635.3711" y1="351.8613" y2="351.8613"/><line style="stroke:#181818;stroke-width:1.0;stroke-dasharray:2.0,2.0;" x1="635.3711" x2="635.3711" y1="351.8613" y2="364.8613"/><line style="stroke:#181818;stroke-width:1.0;stroke-dasharray:2.0,2.0;" x1="588.3711" x2="635.3711" y1="364.8613" y2="364.8613"/><polygon fill="#181818" points="598.3711,360.8613,588.3711,364.8613,598.3711,368.8613,594.3711,364.8613" style="stroke:#181818;stroke-width:1.0;"/><text fill="#000000" font-family="sans-serif" font-size="13" font-weight="bold" lengthAdjust="spacing" textLength="7.23" x="600.3711" y="346.5986">5</text><text fill="#000000" font-family="sans-serif" font-size="13" lengthAdjust="spacing" textLength="3.6118" x="611.6011" y="346.5986">&#160;</text><path d="M408,372.8613 L408,416.8613 L757,416.8613 L757,382.8613 L747,372.8613 L408,372.8613 " fill="#FEFFDD" style="stroke:#181818;stroke-width:0.5;"/><path d="M747,372.8613 L747,382.8613 L757,382.8613 L747,372.8613 " fill="#FEFFDD" style="stroke:#181818;stroke-width:0.5;"/><text fill="#000000" font-family="sans-serif" font-size="13" lengthAdjust="spacing" textLength="328.0786" x="414" y="391.8896">getGroupComponents() return gadgets and associations.</text><text fill="#000000" font-family="sans-serif" font-size="13" lengthAdjust="spacing" textLength="310.7114" x="414" y="409.1807">As for every association, its parents are also included.</text><polygon fill="#181818" points="916.1743,459.0254,926.1743,463.0254,916.1743,467.0254,920.1743,463.0254" style="stroke:#181818;stroke-width:1.0;"/><line style="stroke:#181818;stroke-width:1.0;" x1="588.3711" x2="922.1743" y1="463.0254" y2="463.0254"/><text fill="#000000" font-family="sans-serif" font-size="13" font-weight="bold" lengthAdjust="spacing" textLength="7.23" x="595.3711" y="449.1172">6</text><text fill="#000000" font-family="sans-serif" font-size="13" lengthAdjust="spacing" textLength="44.8018" x="606.6011" y="440.4717">&#171;static&#187;</text><text fill="#000000" font-family="sans-serif" font-size="13" lengthAdjust="spacing" textLength="283.8164" x="606.6011" y="457.7627">ExportSubmodule("clipboard", exportCompoents)</text><polygon fill="#181818" points="599.3711,490.3164,589.3711,494.3164,599.3711,498.3164,595.3711,494.3164" style="stroke:#181818;stroke-width:1.0;"/><line style="stroke:#181818;stroke-width:1.0;stroke-dasharray:2.0,2.0;" x1="593.3711" x2="932.1743" y1="494.3164" y2="494.3164"/><text fill="#000000" font-family="sans-serif" font-size="13" font-weight="bold" lengthAdjust="spacing" textLength="7.23" x="605.3711" y="489.0537">7</text><text fill="#000000" font-family="sans-serif" font-size="13" lengthAdjust="spacing" textLength="3.6118" x="616.6011" y="489.0537">&#160;</text><polygon fill="#181818" points="385.1582,521.6074,375.1582,525.6074,385.1582,529.6074,381.1582,525.6074" style="stroke:#181818;stroke-width:1.0;"/><line style="stroke:#181818;stroke-width:1.0;stroke-dasharray:2.0,2.0;" x1="379.1582" x2="582.3711" y1="525.6074" y2="525.6074"/><text fill="#000000" font-family="sans-serif" font-size="13" font-weight="bold" lengthAdjust="spacing" textLength="7.23" x="391.1582" y="520.3447">8</text><text fill="#000000" font-family="sans-serif" font-size="13" lengthAdjust="spacing" textLength="3.6118" x="402.3882" y="520.3447">&#160;</text><polygon fill="#181818" points="170.9453,552.8984,160.9453,556.8984,170.9453,560.8984,166.9453,556.8984" style="stroke:#181818;stroke-width:1.0;"/><line style="stroke:#181818;stroke-width:1.0;stroke-dasharray:2.0,2.0;" x1="164.9453" x2="368.1582" y1="556.8984" y2="556.8984"/><text fill="#000000" font-family="sans-serif" font-size="13" font-weight="bold" lengthAdjust="spacing" textLength="7.23" x="176.9453" y="551.6357">9</text><text fill="#000000" font-family="sans-serif" font-size="13" lengthAdjust="spacing" textLength="3.6118" x="188.1753" y="551.6357">&#160;</text><polygon fill="#181818" points="11,584.1895,1,588.1895,11,592.1895,7,588.1895" style="stroke:#181818;stroke-width:1.0;"/><line style="stroke:#181818;stroke-width:1.0;stroke-dasharray:2.0,2.0;" x1="5" x2="153.9453" y1="588.1895" y2="588.1895"/><text fill="#000000" font-family="sans-serif" font-size="13" font-weight="bold" lengthAdjust="spacing" textLength="14.46" x="17" y="582.9268">10</text><text fill="#000000" font-family="sans-serif" font-size="13" lengthAdjust="spacing" textLength="3.6118" x="35.46" y="582.9268">&#160;</text><!--SRC=[ZPFDRi8m3CVlF8LLBZ0n7g1YI1ERTjcaITDkNDB4b4nfNEM3ZRUVMqgRZWcHInt7_jl-fH4na8rLWMuYs1Gow8C826GdfQDOJqio2gRVUyrEIVLnGrLD5ctm4-1rluOi_tnxVNVqXJ9aEMn6GRDv6sQ9qmtk0j1kd01JXog7uiY9DZWoXbk1ReqZcreoEiUwJrgKJbHRczznHBVZuiy_DRdm4OkAL3GuowJHTK72gMpUgxRDq07TM7-eEYI1zY30roYrCE3Fkdsev9w5jjgM4FODeFFS43thCp2DQjc7erLjzTvnAdTjfXFX0UYjGmu8azn_nB0L6rpm02M6b-RkqrjSIiFcx5BVOOZENhXJngDw_ubt8b0AnSTCd349xucX1qtMBxVsqSEE720h7jEp1MXEg8LhU-SF2EC9j9KcgXJz5HuzIMuFLYiVM5ckrrjx1VGY1TTetKJcZolPTcRpWunVsIy0]--></g></svg>