<svg xmlns="http://www.w3.org/2000/svg" xmlns:xlink="http://www.w3.org/1999/xlink" contentStyleType="text/css" height="535.2px" preserveAspectRatio="none" style="width:817px;height:535px;background:#FFFFFF;" version="1.1" viewBox="0 0 817 535" width="817.6px" zoomAndPan="magnify"><defs/><g><rect fill="#FFFFFF" height="377.0922" style="stroke:#181818;stroke-width:0.8000000000000002;" width="8" x="143.1121" y="93.4594"/><rect fill="#FFFFFF" height="297.1938" style="stroke:#181818;stroke-width:0.8000000000000002;" width="8" x="314.4824" y="148.325"/><rect fill="#FFFFFF" height="203.4625" style="stroke:#181818;stroke-width:0.8000000000000002;" width="8" x="485.8527" y="217.0234"/><rect fill="#FFFFFF" height="33.8328" style="stroke:#181818;stroke-width:0.8000000000000002;" width="8" x="489.8527" y="248.4563"/><rect fill="#FFFFFF" height="25.0328" style="stroke:#181818;stroke-width:0.8000000000000002;" width="8" x="765.6953" y="370.4203"/><rect fill="#FFFFFF" height="417.5578" style="stroke:#000000;stroke-width:1.2000000000000002;" width="805.182" x="8" y="59.3938"/><line style="stroke:#181818;stroke-width:0.4000000000000001;stroke-dasharray:5.0,5.0;" x1="28" x2="28" y1="45.7938" y2="490.5516"/><line style="stroke:#181818;stroke-width:0.4000000000000001;stroke-dasharray:5.0,5.0;" x1="146.7039" x2="146.7039" y1="45.7938" y2="490.5516"/><line style="stroke:#181818;stroke-width:0.4000000000000001;stroke-dasharray:5.0,5.0;" x1="318.2922" x2="318.2922" y1="45.7938" y2="490.5516"/><line style="stroke:#181818;stroke-width:0.4000000000000001;stroke-dasharray:5.0,5.0;" x1="489.3453" x2="489.3453" y1="45.7938" y2="490.5516"/><line style="stroke:#181818;stroke-width:0.4000000000000001;stroke-dasharray:5.0,5.0;" x1="769.4086" x2="769.4086" y1="45.7938" y2="490.5516"/><rect fill="#E2E2F0" height="26.0969" rx="2" ry="2" style="stroke:#181818;stroke-width:0.4000000000000001;" width="25.5117" x="16" y="18.8969"/><text fill="#000000" font-family="sans-serif" font-size="11.2" lengthAdjust="spacing" textLength="14.3117" x="21.6" y="36.5828">:UI</text><rect fill="#E2E2F0" height="26.0969" rx="2" ry="2" style="stroke:#181818;stroke-width:0.4000000000000001;" width="25.5117" x="16" y="489.7516"/><text fill="#000000" font-family="sans-serif" font-size="11.2" lengthAdjust="spacing" textLength="14.3117" x="21.6" y="507.4375">:UI</text><rect fill="#E2E2F0" height="26.0969" rx="2" ry="2" style="stroke:#181818;stroke-width:0.4000000000000001;" width="72.8164" x="110.7039" y="18.8969"/><text fill="#000000" font-family="sans-serif" font-size="11.2" lengthAdjust="spacing" textLength="61.6164" x="116.3039" y="36.5828">:UMLProject</text><rect fill="#E2E2F0" height="26.0969" rx="2" ry="2" style="stroke:#181818;stroke-width:0.4000000000000001;" width="72.8164" x="110.7039" y="489.7516"/><text fill="#000000" font-family="sans-serif" font-size="11.2" lengthAdjust="spacing" textLength="61.6164" x="116.3039" y="507.4375">:UMLProject</text><rect fill="#E2E2F0" height="40.9938" rx="2" ry="2" style="stroke:#181818;stroke-width:0.4000000000000001;" width="88.3805" x="274.2922" y="4"/><text fill="#000000" font-family="sans-serif" font-size="11.2" lengthAdjust="spacing" textLength="77.1805" x="279.8922" y="21.6859">currentDiagram</text><text fill="#000000" font-family="sans-serif" font-size="11.2" lengthAdjust="spacing" textLength="73.4398" x="281.7625" y="36.5828">:*UMLDiagram</text><rect fill="#E2E2F0" height="40.9938" rx="2" ry="2" style="stroke:#181818;stroke-width:0.4000000000000001;" width="88.3805" x="274.2922" y="489.7516"/><text fill="#000000" font-family="sans-serif" font-size="11.2" lengthAdjust="spacing" textLength="77.1805" x="279.8922" y="507.4375">currentDiagram</text><text fill="#000000" font-family="sans-serif" font-size="11.2" lengthAdjust="spacing" textLength="73.4398" x="281.7625" y="522.3344">:*UMLDiagram</text><rect fill="#E2E2F0" height="26.0969" rx="2" ry="2" style="stroke:#181818;stroke-width:0.4000000000000001;" width="77.8148" x="450.9453" y="18.8969"/><text fill="#000000" font-family="sans-serif" font-size="11.2" lengthAdjust="spacing" textLength="66.6148" x="456.5453" y="36.5828">:Components</text><rect fill="#E2E2F0" height="26.0969" rx="2" ry="2" style="stroke:#181818;stroke-width:0.4000000000000001;" width="77.8148" x="450.9453" y="489.7516"/><text fill="#000000" font-family="sans-serif" font-size="11.2" lengthAdjust="spacing" textLength="66.6148" x="456.5453" y="507.4375">:Components</text><rect fill="#E2E2F0" height="26.0969" rx="2" ry="2" style="stroke:#181818;stroke-width:0.4000000000000001;" width="70.9734" x="734.2086" y="18.8969"/><text fill="#000000" font-family="sans-serif" font-size="11.2" lengthAdjust="spacing" textLength="59.7734" x="739.8086" y="36.5828">:Submodule</text><rect fill="#E2E2F0" height="26.0969" rx="2" ry="2" style="stroke:#181818;stroke-width:0.4000000000000001;" width="70.9734" x="734.2086" y="489.7516"/><text fill="#000000" font-family="sans-serif" font-size="11.2" lengthAdjust="spacing" textLength="59.7734" x="739.8086" y="507.4375">:Submodule</text><rect fill="#FFFFFF" height="377.0922" style="stroke:#181818;stroke-width:0.8000000000000002;" width="8" x="143.1121" y="93.4594"/><rect fill="#FFFFFF" height="297.1938" style="stroke:#181818;stroke-width:0.8000000000000002;" width="8" x="314.4824" y="148.325"/><rect fill="#FFFFFF" height="203.4625" style="stroke:#181818;stroke-width:0.8000000000000002;" width="8" x="485.8527" y="217.0234"/><rect fill="#FFFFFF" height="33.8328" style="stroke:#181818;stroke-width:0.8000000000000002;" width="8" x="489.8527" y="248.4563"/><rect fill="#FFFFFF" height="25.0328" style="stroke:#181818;stroke-width:0.8000000000000002;" width="8" x="765.6953" y="370.4203"/><path d="M8,59.3938 L131.8262,59.3938 L131.8262,66.8266 L123.8262,74.8266 L8,74.8266 L8,59.3938 " fill="#FFD700" style="stroke:#000000;stroke-width:1.2000000000000002;"/><rect fill="none" height="417.5578" style="stroke:#000000;stroke-width:1.2000000000000002;" width="805.182" x="8" y="59.3938"/><text fill="#000000" font-family="sans-serif" font-size="10.4" font-weight="bold" lengthAdjust="spacing" textLength="87.8262" x="20" y="71.4164">copyComponents</text><polygon fill="#181818" points="133.5121,90.2594,141.5121,93.4594,133.5121,96.6594,136.7121,93.4594" style="stroke:#181818;stroke-width:0.8000000000000002;"/><line style="stroke:#181818;stroke-width:0.8000000000000002;" x1="28.7559" x2="138.3121" y1="93.4594" y2="93.4594"/><text fill="#000000" font-family="sans-serif" font-size="10.4" font-weight="bold" lengthAdjust="spacing" textLength="5.784" x="34.3559" y="89.2492">1</text><text fill="#000000" font-family="sans-serif" font-size="10.4" lengthAdjust="spacing" textLength="90.1723" x="43.3398" y="89.2492">CopyComponents()</text><path d="M32,103.8594 L32,125.4594 L107.2,125.4594 L107.2,111.8594 L99.2,103.8594 L32,103.8594 " fill="#FF0000" style="stroke:#181818;stroke-width:0.4000000000000001;"/><path d="M99.2,103.8594 L99.2,111.8594 L107.2,111.8594 L99.2,103.8594 " fill="#FF0000" style="stroke:#181818;stroke-width:0.4000000000000001;"/><text fill="#000000" font-family="sans-serif" font-size="10.4" lengthAdjust="spacing" textLength="58.957" x="36.8" y="119.082">by Controller</text><polygon fill="#181818" points="304.8824,145.125,312.8824,148.325,304.8824,151.525,308.0824,148.325" style="stroke:#181818;stroke-width:0.8000000000000002;"/><line style="stroke:#181818;stroke-width:0.8000000000000002;" x1="151.1121" x2="309.6824" y1="148.325" y2="148.325"/><text fill="#000000" font-family="sans-serif" font-size="10.4" font-weight="bold" lengthAdjust="spacing" textLength="5.784" x="156.7121" y="144.1148">2</text><text fill="#000000" font-family="sans-serif" font-size="10.4" lengthAdjust="spacing" textLength="139.1863" x="165.6961" y="144.1148">ExportSubmodule("clipboard")</text><path d="M46.4,158.725 L46.4,193.925 L246.4,193.925 L246.4,166.725 L238.4,158.725 L46.4,158.725 " fill="#FEFFDD" style="stroke:#181818;stroke-width:0.4000000000000001;"/><path d="M238.4,158.725 L238.4,166.725 L246.4,166.725 L238.4,158.725 " fill="#FEFFDD" style="stroke:#181818;stroke-width:0.4000000000000001;"/><text fill="#000000" font-family="sans-serif" font-size="10.4" lengthAdjust="spacing" textLength="157.691" x="51.2" y="173.9477">"clipboard" is a special submodule</text><text fill="#000000" font-family="sans-serif" font-size="10.4" lengthAdjust="spacing" textLength="183.8535" x="51.2" y="187.7805">containing the components user copied.</text><polygon fill="#181818" points="476.2527,213.8234,484.2527,217.0234,476.2527,220.2234,479.4527,217.0234" style="stroke:#181818;stroke-width:0.8000000000000002;"/><line style="stroke:#181818;stroke-width:0.8000000000000002;" x1="322.4824" x2="481.0527" y1="217.0234" y2="217.0234"/><text fill="#000000" font-family="sans-serif" font-size="10.4" font-weight="bold" lengthAdjust="spacing" textLength="5.784" x="328.0824" y="212.8133">3</text><text fill="#000000" font-family="sans-serif" font-size="10.4" lengthAdjust="spacing" textLength="139.1863" x="337.0664" y="212.8133">ExportSubmodule("clipboard")</text><line style="stroke:#181818;stroke-width:0.8000000000000002;" x1="493.8527" x2="531.4527" y1="238.0563" y2="238.0563"/><line style="stroke:#181818;stroke-width:0.8000000000000002;" x1="531.4527" x2="531.4527" y1="238.0563" y2="248.4563"/><line style="stroke:#181818;stroke-width:0.8000000000000002;" x1="498.6527" x2="531.4527" y1="248.4563" y2="248.4563"/><polygon fill="#181818" points="506.6527,245.2563,498.6527,248.4563,506.6527,251.6563,503.4527,248.4563" style="stroke:#181818;stroke-width:0.8000000000000002;"/><text fill="#000000" font-family="sans-serif" font-size="10.4" font-weight="bold" lengthAdjust="spacing" textLength="5.784" x="503.4527" y="233.8461">4</text><text fill="#000000" font-family="sans-serif" font-size="10.4" lengthAdjust="spacing" textLength="243.6586" x="512.4367" y="233.8461">exportComponents = getGroupComponents().clone()</text><line style="stroke:#181818;stroke-width:0.8000000000000002;stroke-dasharray:2.0,2.0;" x1="497.8527" x2="531.4527" y1="281.4891" y2="281.4891"/><line style="stroke:#181818;stroke-width:0.8000000000000002;stroke-dasharray:2.0,2.0;" x1="531.4527" x2="531.4527" y1="281.4891" y2="291.8891"/><line style="stroke:#181818;stroke-width:0.8000000000000002;stroke-dasharray:2.0,2.0;" x1="493.8527" x2="531.4527" y1="291.8891" y2="291.8891"/><polygon fill="#181818" points="501.8527,288.6891,493.8527,291.8891,501.8527,295.0891,498.6527,291.8891" style="stroke:#181818;stroke-width:0.8000000000000002;"/><text fill="#000000" font-family="sans-serif" font-size="10.4" font-weight="bold" lengthAdjust="spacing" textLength="5.784" x="503.4527" y="277.2789">5</text><text fill="#000000" font-family="sans-serif" font-size="10.4" lengthAdjust="spacing" textLength="2.8895" x="512.4367" y="277.2789">&#160;</text><path d="M349.6,298.2891 L349.6,333.4891 L628.8,333.4891 L628.8,306.2891 L620.8,298.2891 L349.6,298.2891 " fill="#FEFFDD" style="stroke:#181818;stroke-width:0.4000000000000001;"/><path d="M620.8,298.2891 L620.8,306.2891 L628.8,306.2891 L620.8,298.2891 " fill="#FEFFDD" style="stroke:#181818;stroke-width:0.4000000000000001;"/><text fill="#000000" font-family="sans-serif" font-size="10.4" lengthAdjust="spacing" textLength="262.4629" x="354.4" y="313.5117">getGroupComponents() return gadgets and associations.</text><text fill="#000000" font-family="sans-serif" font-size="10.4" lengthAdjust="spacing" textLength="248.5691" x="354.4" y="327.3445">As for every association, its parents are also included.</text><polygon fill="#181818" points="756.0953,367.2203,764.0953,370.4203,756.0953,373.6203,759.2953,370.4203" style="stroke:#181818;stroke-width:0.8000000000000002;"/><line style="stroke:#181818;stroke-width:0.8000000000000002;" x1="493.8527" x2="760.8953" y1="370.4203" y2="370.4203"/><text fill="#000000" font-family="sans-serif" font-size="10.4" font-weight="bold" lengthAdjust="spacing" textLength="5.784" x="499.4527" y="359.2938">6</text><text fill="#000000" font-family="sans-serif" font-size="10.4" lengthAdjust="spacing" textLength="35.8414" x="508.4367" y="352.3773">&#171;static&#187;</text><text fill="#000000" font-family="sans-serif" font-size="10.4" lengthAdjust="spacing" textLength="227.0531" x="508.4367" y="366.2102">ExportSubmodule("clipboard", exportCompoents)</text><polygon fill="#181818" points="502.6527,392.2531,494.6527,395.4531,502.6527,398.6531,499.4527,395.4531" style="stroke:#181818;stroke-width:0.8000000000000002;"/><line style="stroke:#181818;stroke-width:0.8000000000000002;stroke-dasharray:2.0,2.0;" x1="497.8527" x2="768.8953" y1="395.4531" y2="395.4531"/><text fill="#000000" font-family="sans-serif" font-size="10.4" font-weight="bold" lengthAdjust="spacing" textLength="5.784" x="507.4527" y="391.243">7</text><text fill="#000000" font-family="sans-serif" font-size="10.4" lengthAdjust="spacing" textLength="2.8895" x="516.4367" y="391.243">&#160;</text><polygon fill="#181818" points="331.2824,417.2859,323.2824,420.4859,331.2824,423.6859,328.0824,420.4859" style="stroke:#181818;stroke-width:0.8000000000000002;"/><line style="stroke:#181818;stroke-width:0.8000000000000002;stroke-dasharray:2.0,2.0;" x1="326.4824" x2="489.0527" y1="420.4859" y2="420.4859"/><text fill="#000000" font-family="sans-serif" font-size="10.4" font-weight="bold" lengthAdjust="spacing" textLength="5.784" x="336.0824" y="416.2758">8</text><text fill="#000000" font-family="sans-serif" font-size="10.4" lengthAdjust="spacing" textLength="2.8895" x="345.0664" y="416.2758">&#160;</text><polygon fill="#181818" points="159.9121,442.3188,151.9121,445.5188,159.9121,448.7188,156.7121,445.5188" style="stroke:#181818;stroke-width:0.8000000000000002;"/><line style="stroke:#181818;stroke-width:0.8000000000000002;stroke-dasharray:2.0,2.0;" x1="155.1121" x2="317.6824" y1="445.5188" y2="445.5188"/><text fill="#000000" font-family="sans-serif" font-size="10.4" font-weight="bold" lengthAdjust="spacing" textLength="5.784" x="164.7121" y="441.3086">9</text><text fill="#000000" font-family="sans-serif" font-size="10.4" lengthAdjust="spacing" textLength="2.8895" x="173.6961" y="441.3086">&#160;</text><polygon fill="#181818" points="37.5559,467.3516,29.5559,470.5516,37.5559,473.7516,34.3559,470.5516" style="stroke:#181818;stroke-width:0.8000000000000002;"/><line style="stroke:#181818;stroke-width:0.8000000000000002;stroke-dasharray:2.0,2.0;" x1="32.7559" x2="146.3121" y1="470.5516" y2="470.5516"/><text fill="#000000" font-family="sans-serif" font-size="10.4" font-weight="bold" lengthAdjust="spacing" textLength="11.568" x="42.3559" y="466.3414">10</text><text fill="#000000" font-family="sans-serif" font-size="10.4" lengthAdjust="spacing" textLength="2.8895" x="57.1238" y="466.3414">&#160;</text><!--SRC=[ZPFDQiCm383lVGgHNjhHzG52LnZT68CD1cEtNXpRJJmSAyXsjxxzb3JDprfASucjI9_aBuc80LqiCqqJmKiXWzcBe07T92UCrJH7gs3wKnWEIgmE6omhTDe5Fm6-alJhDO7xTRruV_iW_DOo92biHgcpUPFia25ayY80xjhIAMcLGdRW2XS8hUL9eBr6pAQ9Z4GCV38Y9r5kNNh76UsEkpx_LaZXCsObgcZrB97ML1aAKicyepPJu5xJcDztxOl0U13WAosDiE1Ft2vLyip2EEDo24NjvtHWY9xvxCjejUpIjLDDzovmR7VjJ4UrlSbR3zah7DHUWEa6reVW0N8TNkfNFtnzIsbvEJldamwHt5buw7ZKxnAyXK0k53zcuwn9U8yiFHXqVhbrZnvsIA2PU1W-Mu3XWafGCplVG5YFO9oqKGtLN_7HcUJnOBNoWSbolTwwAw8NGt4rwoOp_qA3RRkiFv3nJ_O7]--></g></svg>