<svg xmlns="http://www.w3.org/2000/svg" xmlns:xlink="http://www.w3.org/1999/xlink" contentStyleType="text/css" height="649px" preserveAspectRatio="none" style="width:1016px;height:649px;background:#FFFFFF;" version="1.1" viewBox="0 0 1016 649" width="1016px" zoomAndPan="magnify"><defs/><g><rect fill="#FFFFFF" height="451.7832" style="stroke:#181818;stroke-width:1.0;" width="10" x="150.6753" y="116.8242"/><rect fill="#FFFFFF" height="351.9102" style="stroke:#181818;stroke-width:1.0;" width="10" x="304.3506" y="185.4063"/><rect fill="#FFFFFF" height="289.3281" style="stroke:#181818;stroke-width:1.0;" width="10" x="458.0259" y="216.6973"/><rect fill="#FFFFFF" height="47.4365" style="stroke:#181818;stroke-width:1.0;" width="10" x="463.0259" y="255.9883"/><rect fill="#FFFFFF" height="79.582" style="stroke:#181818;stroke-width:1.0;" width="10" x="463.0259" y="381.1523"/><rect fill="#FFFFFF" height="502.3652" style="stroke:#000000;stroke-width:1.5;" width="1007.8784" x="3" y="74.2422"/><rect fill="#FFFFFF" height="145.1641" style="stroke:#000000;stroke-width:1.5;" width="281.2769" x="404.3916" y="330.5703"/><line style="stroke:#181818;stroke-width:0.5;stroke-dasharray:5.0,5.0;" x1="155.165" x2="155.165" y1="57.2422" y2="593.6074"/><line style="stroke:#181818;stroke-width:0.5;stroke-dasharray:5.0,5.0;" x1="309.1128" x2="309.1128" y1="57.2422" y2="593.6074"/><line style="stroke:#181818;stroke-width:0.5;stroke-dasharray:5.0,5.0;" x1="462.3916" x2="462.3916" y1="57.2422" y2="593.6074"/><rect fill="#E2E2F0" height="32.6211" rx="2.5" ry="2.5" style="stroke:#181818;stroke-width:0.5;" width="91.0205" x="110.165" y="23.6211"/><text fill="#000000" font-family="sans-serif" font-size="14" lengthAdjust="spacing" textLength="77.0205" x="117.165" y="45.7285">:UMLProject</text><rect fill="#E2E2F0" height="32.6211" rx="2.5" ry="2.5" style="stroke:#181818;stroke-width:0.5;" width="91.0205" x="110.165" y="592.6074"/><text fill="#000000" font-family="sans-serif" font-size="14" lengthAdjust="spacing" textLength="77.0205" x="117.165" y="614.7148">:UMLProject</text><rect fill="#E2E2F0" height="51.2422" rx="2.5" ry="2.5" style="stroke:#181818;stroke-width:0.5;" width="110.4756" x="254.1128" y="5"/><text fill="#000000" font-family="sans-serif" font-size="14" lengthAdjust="spacing" textLength="96.4756" x="261.1128" y="27.1074">currentDiagram</text><text fill="#000000" font-family="sans-serif" font-size="14" lengthAdjust="spacing" textLength="91.7998" x="263.4507" y="45.7285">:*UMLDiagram</text><rect fill="#E2E2F0" height="51.2422" rx="2.5" ry="2.5" style="stroke:#181818;stroke-width:0.5;" width="110.4756" x="254.1128" y="592.6074"/><text fill="#000000" font-family="sans-serif" font-size="14" lengthAdjust="spacing" textLength="96.4756" x="261.1128" y="614.7148">currentDiagram</text><text fill="#000000" font-family="sans-serif" font-size="14" lengthAdjust="spacing" textLength="91.7998" x="263.4507" y="633.3359">:*UMLDiagram</text><rect fill="#E2E2F0" height="32.6211" rx="2.5" ry="2.5" style="stroke:#181818;stroke-width:0.5;" width="97.2686" x="414.3916" y="23.6211"/><text fill="#000000" font-family="sans-serif" font-size="14" lengthAdjust="spacing" textLength="83.2686" x="421.3916" y="45.7285">:Components</text><rect fill="#E2E2F0" height="32.6211" rx="2.5" ry="2.5" style="stroke:#181818;stroke-width:0.5;" width="97.2686" x="414.3916" y="592.6074"/><text fill="#000000" font-family="sans-serif" font-size="14" lengthAdjust="spacing" textLength="83.2686" x="421.3916" y="614.7148">:Components</text><rect fill="#FFFFFF" height="451.7832" style="stroke:#181818;stroke-width:1.0;" width="10" x="150.6753" y="116.8242"/><rect fill="#FFFFFF" height="351.9102" style="stroke:#181818;stroke-width:1.0;" width="10" x="304.3506" y="185.4063"/><rect fill="#FFFFFF" height="289.3281" style="stroke:#181818;stroke-width:1.0;" width="10" x="458.0259" y="216.6973"/><rect fill="#FFFFFF" height="47.4365" style="stroke:#181818;stroke-width:1.0;" width="10" x="463.0259" y="255.9883"/><rect fill="#FFFFFF" height="79.582" style="stroke:#181818;stroke-width:1.0;" width="10" x="463.0259" y="381.1523"/><path d="M3,74.2422 L157.7827,74.2422 L157.7827,83.5332 L147.7827,93.5332 L3,93.5332 L3,74.2422 " fill="#FFD700" style="stroke:#000000;stroke-width:1.5;"/><rect fill="none" height="502.3652" style="stroke:#000000;stroke-width:1.5;" width="1007.8784" x="3" y="74.2422"/><text fill="#000000" font-family="sans-serif" font-size="13" font-weight="bold" lengthAdjust="spacing" textLength="109.7827" x="18" y="89.2705">deleteComponent</text><polygon fill="#181818" points="138.6753,112.8242,148.6753,116.8242,138.6753,120.8242,142.6753,116.8242" style="stroke:#181818;stroke-width:1.0;"/><line style="stroke:#181818;stroke-width:1.0;" x1="0" x2="144.6753" y1="116.8242" y2="116.8242"/><text fill="#000000" font-family="sans-serif" font-size="13" font-weight="bold" lengthAdjust="spacing" textLength="7.23" x="7" y="111.5615">1</text><text fill="#000000" font-family="sans-serif" font-size="13" lengthAdjust="spacing" textLength="113.4453" x="18.23" y="111.5615">DeleteComponent()</text><path d="M50,129.8242 L50,156.8242 L144,156.8242 L144,139.8242 L134,129.8242 L50,129.8242 " fill="#FF0000" style="stroke:#181818;stroke-width:0.5;"/><path d="M134,129.8242 L134,139.8242 L144,139.8242 L134,129.8242 " fill="#FF0000" style="stroke:#181818;stroke-width:0.5;"/><text fill="#000000" font-family="sans-serif" font-size="13" lengthAdjust="spacing" textLength="73.6963" x="56" y="148.8525">by Controller</text><polygon fill="#181818" points="292.3506,181.4063,302.3506,185.4063,292.3506,189.4063,296.3506,185.4063" style="stroke:#181818;stroke-width:1.0;"/><line style="stroke:#181818;stroke-width:1.0;" x1="160.6753" x2="298.3506" y1="185.4063" y2="185.4063"/><text fill="#000000" font-family="sans-serif" font-size="13" font-weight="bold" lengthAdjust="spacing" textLength="7.23" x="167.6753" y="180.1436">2</text><text fill="#000000" font-family="sans-serif" font-size="13" lengthAdjust="spacing" textLength="113.4453" x="178.9053" y="180.1436">DeleteComponent()</text><polygon fill="#181818" points="446.0259,212.6973,456.0259,216.6973,446.0259,220.6973,450.0259,216.6973" style="stroke:#181818;stroke-width:1.0;"/><line style="stroke:#181818;stroke-width:1.0;" x1="314.3506" x2="452.0259" y1="216.6973" y2="216.6973"/><text fill="#000000" font-family="sans-serif" font-size="13" font-weight="bold" lengthAdjust="spacing" textLength="7.23" x="321.3506" y="211.4346">3</text><text fill="#000000" font-family="sans-serif" font-size="13" lengthAdjust="spacing" textLength="113.4453" x="332.5806" y="211.4346">DeleteComponent()</text><line style="stroke:#181818;stroke-width:1.0;" x1="468.0259" x2="515.0259" y1="242.9883" y2="242.9883"/><line style="stroke:#181818;stroke-width:1.0;" x1="515.0259" x2="515.0259" y1="242.9883" y2="255.9883"/><line style="stroke:#181818;stroke-width:1.0;" x1="474.0259" x2="515.0259" y1="255.9883" y2="255.9883"/><polygon fill="#181818" points="484.0259,251.9883,474.0259,255.9883,484.0259,259.9883,480.0259,255.9883" style="stroke:#181818;stroke-width:1.0;"/><text fill="#000000" font-family="sans-serif" font-size="13" font-weight="bold" lengthAdjust="spacing" textLength="7.23" x="480.0259" y="237.7256">4</text><text fill="#000000" font-family="sans-serif" font-size="13" lengthAdjust="spacing" textLength="268.4424" x="491.2559" y="237.7256">removeComponents = getGroupComponents()</text><line style="stroke:#181818;stroke-width:1.0;stroke-dasharray:2.0,2.0;" x1="473.0259" x2="515.0259" y1="302.4248" y2="302.4248"/><line style="stroke:#181818;stroke-width:1.0;stroke-dasharray:2.0,2.0;" x1="515.0259" x2="515.0259" y1="302.4248" y2="315.4248"/><line style="stroke:#181818;stroke-width:1.0;stroke-dasharray:2.0,2.0;" x1="468.0259" x2="515.0259" y1="315.4248" y2="315.4248"/><polygon fill="#181818" points="478.0259,311.4248,468.0259,315.4248,478.0259,319.4248,474.0259,315.4248" style="stroke:#181818;stroke-width:1.0;"/><text fill="#000000" font-family="sans-serif" font-size="13" font-weight="bold" lengthAdjust="spacing" textLength="7.23" x="480.0259" y="297.1621">5</text><text fill="#000000" font-family="sans-serif" font-size="13" lengthAdjust="spacing" textLength="3.6118" x="491.2559" y="297.1621">&#160;</text><path d="M543,273.9883 L543,317.9883 L985,317.9883 L985,283.9883 L975,273.9883 L543,273.9883 " fill="#FEFFDD" style="stroke:#181818;stroke-width:0.5;"/><path d="M975,273.9883 L975,283.9883 L985,283.9883 L975,273.9883 " fill="#FEFFDD" style="stroke:#181818;stroke-width:0.5;"/><text fill="#000000" font-family="sans-serif" font-size="13" lengthAdjust="spacing" textLength="421.8525" x="549" y="293.0166">":Components": getGroupComponents() return gadgets and associations.</text><text fill="#000000" font-family="sans-serif" font-size="13" lengthAdjust="spacing" textLength="310.7114" x="549" y="310.3076">As for every association, its parents are also included.</text><path d="M404.3916,330.5703 L476.8262,330.5703 L476.8262,339.8613 L466.8262,349.8613 L404.3916,349.8613 L404.3916,330.5703 " fill="#FFD700" style="stroke:#000000;stroke-width:1.5;"/><rect fill="none" height="145.1641" style="stroke:#000000;stroke-width:1.5;" width="281.2769" x="404.3916" y="330.5703"/><text fill="#000000" font-family="sans-serif" font-size="13" font-weight="bold" lengthAdjust="spacing" textLength="27.4346" x="419.3916" y="345.5986">loop</text><text fill="#000000" font-family="sans-serif" font-size="11" font-weight="bold" lengthAdjust="spacing" textLength="188.8423" x="491.8262" y="344.4404">[component in removeComponents]</text><line style="stroke:#181818;stroke-width:1.0;" x1="468.0259" x2="515.0259" y1="368.1523" y2="368.1523"/><line style="stroke:#181818;stroke-width:1.0;" x1="515.0259" x2="515.0259" y1="368.1523" y2="381.1523"/><line style="stroke:#181818;stroke-width:1.0;" x1="474.0259" x2="515.0259" y1="381.1523" y2="381.1523"/><polygon fill="#181818" points="484.0259,377.1523,474.0259,381.1523,484.0259,385.1523,480.0259,381.1523" style="stroke:#181818;stroke-width:1.0;"/><text fill="#000000" font-family="sans-serif" font-size="13" font-weight="bold" lengthAdjust="spacing" textLength="7.23" x="480.0259" y="362.8896">6</text><text fill="#000000" font-family="sans-serif" font-size="13" lengthAdjust="spacing" textLength="108.3989" x="491.2559" y="362.8896">delete(component)</text><path d="M478,399.1523 L478,426.1523 L649,426.1523 L649,409.1523 L639,399.1523 L478,399.1523 " fill="#FEFFDD" style="stroke:#181818;stroke-width:0.5;"/><path d="M639,399.1523 L639,409.1523 L649,409.1523 L639,399.1523 " fill="#FEFFDD" style="stroke:#181818;stroke-width:0.5;"/><text fill="#000000" font-family="sans-serif" font-size="13" lengthAdjust="spacing" textLength="150.3125" x="484" y="418.1807">delete is a built-in function</text><line style="stroke:#181818;stroke-width:1.0;stroke-dasharray:2.0,2.0;" x1="473.0259" x2="515.0259" y1="459.7344" y2="459.7344"/><line style="stroke:#181818;stroke-width:1.0;stroke-dasharray:2.0,2.0;" x1="515.0259" x2="515.0259" y1="459.7344" y2="472.7344"/><line style="stroke:#181818;stroke-width:1.0;stroke-dasharray:2.0,2.0;" x1="468.0259" x2="515.0259" y1="472.7344" y2="472.7344"/><polygon fill="#181818" points="478.0259,468.7344,468.0259,472.7344,478.0259,476.7344,474.0259,472.7344" style="stroke:#181818;stroke-width:1.0;"/><text fill="#000000" font-family="sans-serif" font-size="13" font-weight="bold" lengthAdjust="spacing" textLength="7.23" x="480.0259" y="454.4717">7</text><text fill="#000000" font-family="sans-serif" font-size="13" lengthAdjust="spacing" textLength="3.6118" x="491.2559" y="454.4717">&#160;</text><polygon fill="#181818" points="325.3506,502.0254,315.3506,506.0254,325.3506,510.0254,321.3506,506.0254" style="stroke:#181818;stroke-width:1.0;"/><line style="stroke:#181818;stroke-width:1.0;stroke-dasharray:2.0,2.0;" x1="319.3506" x2="462.0259" y1="506.0254" y2="506.0254"/><text fill="#000000" font-family="sans-serif" font-size="13" font-weight="bold" lengthAdjust="spacing" textLength="7.23" x="331.3506" y="500.7627">8</text><text fill="#000000" font-family="sans-serif" font-size="13" lengthAdjust="spacing" textLength="3.6118" x="342.5806" y="500.7627">&#160;</text><polygon fill="#181818" points="171.6753,533.3164,161.6753,537.3164,171.6753,541.3164,167.6753,537.3164" style="stroke:#181818;stroke-width:1.0;"/><line style="stroke:#181818;stroke-width:1.0;stroke-dasharray:2.0,2.0;" x1="165.6753" x2="308.3506" y1="537.3164" y2="537.3164"/><text fill="#000000" font-family="sans-serif" font-size="13" font-weight="bold" lengthAdjust="spacing" textLength="7.23" x="177.6753" y="532.0537">9</text><text fill="#000000" font-family="sans-serif" font-size="13" lengthAdjust="spacing" textLength="3.6118" x="188.9053" y="532.0537">&#160;</text><polygon fill="#181818" points="11,564.6074,1,568.6074,11,572.6074,7,568.6074" style="stroke:#181818;stroke-width:1.0;"/><line style="stroke:#181818;stroke-width:1.0;stroke-dasharray:2.0,2.0;" x1="5" x2="154.6753" y1="568.6074" y2="568.6074"/><text fill="#000000" font-family="sans-serif" font-size="13" font-weight="bold" lengthAdjust="spacing" textLength="14.46" x="17" y="563.3447">10</text><text fill="#000000" font-family="sans-serif" font-size="13" lengthAdjust="spacing" textLength="3.6118" x="35.46" y="563.3447">&#160;</text><!--SRC=[ZPFDRi8m3CVlF8K55vZ67g3I9aqWxR99k-osIqZSBbCQ8yTXuktdGWS42bekJLp_V_w8Ox9GpEqAUMHqQwpuZH44YgE6AQyd3GK7avylhqQ70GKNrAufOfGHw9e_mRZwU7jzP_f6A-CAbgNNTBRpYwI0WBK0rQK29eokWjKM5XI5AGHD1lfLUdR1R6PMxDARXatx6QixzUXFLwCVS3VL-s8EsZI8AtcdtWDonfOsHtc2HsXGNhhE7erdEJ9AvbYOTirZttp9zUZL8BcdGMES_avWeWEJ4bbln5DC3mNmEK5D3BX1tfwwtODNxThmhWRzW0c9m4SRiaDNGb13T0aNna1KpfBzIr8f5sqgfF_fytuofmVex89mRE5-00VauBKsM6KVPAv9rJdQhlWBrC05QSstxl3as6-x9fqzfry0]--></g></svg>