<svg xmlns="http://www.w3.org/2000/svg" xmlns:xlink="http://www.w3.org/1999/xlink" contentStyleType="text/css" height="519.2px" preserveAspectRatio="none" style="width:836px;height:519px;background:#FFFFFF;" version="1.1" viewBox="0 0 836 519" width="836px" zoomAndPan="magnify"><defs/><g><rect fill="#FFFFFF" height="361.4266" style="stroke:#181818;stroke-width:0.8000000000000002;" width="8" x="143.6961" y="93.4594"/><rect fill="#FFFFFF" height="281.5281" style="stroke:#181818;stroke-width:0.8000000000000002;" width="8" x="266.6363" y="148.325"/><rect fill="#FFFFFF" height="231.4625" style="stroke:#181818;stroke-width:0.8000000000000002;" width="8" x="389.5766" y="173.3578"/><rect fill="#FFFFFF" height="37.9492" style="stroke:#181818;stroke-width:0.8000000000000002;" width="8" x="393.5766" y="204.7906"/><rect fill="#FFFFFF" height="63.6656" style="stroke:#181818;stroke-width:0.8000000000000002;" width="8" x="393.5766" y="304.9219"/><rect fill="#FFFFFF" height="401.8922" style="stroke:#000000;stroke-width:1.2000000000000002;" width="823.8586" x="8" y="59.3938"/><rect fill="#FFFFFF" height="116.1313" style="stroke:#000000;stroke-width:1.2000000000000002;" width="225.0215" x="346.6691" y="264.4563"/><line style="stroke:#181818;stroke-width:0.4000000000000001;stroke-dasharray:5.0,5.0;" x1="28" x2="28" y1="45.7938" y2="474.8859"/><line style="stroke:#181818;stroke-width:0.4000000000000001;stroke-dasharray:5.0,5.0;" x1="147.2879" x2="147.2879" y1="45.7938" y2="474.8859"/><line style="stroke:#181818;stroke-width:0.4000000000000001;stroke-dasharray:5.0,5.0;" x1="270.4461" x2="270.4461" y1="45.7938" y2="474.8859"/><line style="stroke:#181818;stroke-width:0.4000000000000001;stroke-dasharray:5.0,5.0;" x1="393.0691" x2="393.0691" y1="45.7938" y2="474.8859"/><rect fill="#E2E2F0" height="26.0969" rx="2" ry="2" style="stroke:#181818;stroke-width:0.4000000000000001;" width="25.5117" x="16" y="18.8969"/><text fill="#000000" font-family="sans-serif" font-size="11.2" lengthAdjust="spacing" textLength="14.3117" x="21.6" y="36.5828">:UI</text><rect fill="#E2E2F0" height="26.0969" rx="2" ry="2" style="stroke:#181818;stroke-width:0.4000000000000001;" width="25.5117" x="16" y="474.0859"/><text fill="#000000" font-family="sans-serif" font-size="11.2" lengthAdjust="spacing" textLength="14.3117" x="21.6" y="491.7719">:UI</text><rect fill="#E2E2F0" height="26.0969" rx="2" ry="2" style="stroke:#181818;stroke-width:0.4000000000000001;" width="72.8164" x="111.2879" y="18.8969"/><text fill="#000000" font-family="sans-serif" font-size="11.2" lengthAdjust="spacing" textLength="61.6164" x="116.8879" y="36.5828">:UMLProject</text><rect fill="#E2E2F0" height="26.0969" rx="2" ry="2" style="stroke:#181818;stroke-width:0.4000000000000001;" width="72.8164" x="111.2879" y="474.0859"/><text fill="#000000" font-family="sans-serif" font-size="11.2" lengthAdjust="spacing" textLength="61.6164" x="116.8879" y="491.7719">:UMLProject</text><rect fill="#E2E2F0" height="40.9938" rx="2" ry="2" style="stroke:#181818;stroke-width:0.4000000000000001;" width="88.3805" x="226.4461" y="4"/><text fill="#000000" font-family="sans-serif" font-size="11.2" lengthAdjust="spacing" textLength="77.1805" x="232.0461" y="21.6859">currentDiagram</text><text fill="#000000" font-family="sans-serif" font-size="11.2" lengthAdjust="spacing" textLength="73.4398" x="233.9164" y="36.5828">:*UMLDiagram</text><rect fill="#E2E2F0" height="40.9938" rx="2" ry="2" style="stroke:#181818;stroke-width:0.4000000000000001;" width="88.3805" x="226.4461" y="474.0859"/><text fill="#000000" font-family="sans-serif" font-size="11.2" lengthAdjust="spacing" textLength="77.1805" x="232.0461" y="491.7719">currentDiagram</text><text fill="#000000" font-family="sans-serif" font-size="11.2" lengthAdjust="spacing" textLength="73.4398" x="233.9164" y="506.6688">:*UMLDiagram</text><rect fill="#E2E2F0" height="26.0969" rx="2" ry="2" style="stroke:#181818;stroke-width:0.4000000000000001;" width="77.8148" x="354.6691" y="18.8969"/><text fill="#000000" font-family="sans-serif" font-size="11.2" lengthAdjust="spacing" textLength="66.6148" x="360.2691" y="36.5828">:Components</text><rect fill="#E2E2F0" height="26.0969" rx="2" ry="2" style="stroke:#181818;stroke-width:0.4000000000000001;" width="77.8148" x="354.6691" y="474.0859"/><text fill="#000000" font-family="sans-serif" font-size="11.2" lengthAdjust="spacing" textLength="66.6148" x="360.2691" y="491.7719">:Components</text><rect fill="#FFFFFF" height="361.4266" style="stroke:#181818;stroke-width:0.8000000000000002;" width="8" x="143.6961" y="93.4594"/><rect fill="#FFFFFF" height="281.5281" style="stroke:#181818;stroke-width:0.8000000000000002;" width="8" x="266.6363" y="148.325"/><rect fill="#FFFFFF" height="231.4625" style="stroke:#181818;stroke-width:0.8000000000000002;" width="8" x="389.5766" y="173.3578"/><rect fill="#FFFFFF" height="37.9492" style="stroke:#181818;stroke-width:0.8000000000000002;" width="8" x="393.5766" y="204.7906"/><rect fill="#FFFFFF" height="63.6656" style="stroke:#181818;stroke-width:0.8000000000000002;" width="8" x="393.5766" y="304.9219"/><path d="M8,59.3938 L131.8262,59.3938 L131.8262,66.8266 L123.8262,74.8266 L8,74.8266 L8,59.3938 " fill="#FFD700" style="stroke:#000000;stroke-width:1.2000000000000002;"/><rect fill="none" height="401.8922" style="stroke:#000000;stroke-width:1.2000000000000002;" width="823.8586" x="8" y="59.3938"/><text fill="#000000" font-family="sans-serif" font-size="10.4" font-weight="bold" lengthAdjust="spacing" textLength="87.8262" x="20" y="71.4164">deleteComponent</text><polygon fill="#181818" points="134.0961,90.2594,142.0961,93.4594,134.0961,96.6594,137.2961,93.4594" style="stroke:#181818;stroke-width:0.8000000000000002;"/><line style="stroke:#181818;stroke-width:0.8000000000000002;" x1="28.7559" x2="138.8961" y1="93.4594" y2="93.4594"/><text fill="#000000" font-family="sans-serif" font-size="10.4" font-weight="bold" lengthAdjust="spacing" textLength="5.784" x="34.3559" y="89.2492">1</text><text fill="#000000" font-family="sans-serif" font-size="10.4" lengthAdjust="spacing" textLength="90.7563" x="43.3398" y="89.2492">DeleteComponent()</text><path d="M32,103.8594 L32,125.4594 L107.2,125.4594 L107.2,111.8594 L99.2,103.8594 L32,103.8594 " fill="#FF0000" style="stroke:#181818;stroke-width:0.4000000000000001;"/><path d="M99.2,103.8594 L99.2,111.8594 L107.2,111.8594 L99.2,103.8594 " fill="#FF0000" style="stroke:#181818;stroke-width:0.4000000000000001;"/><text fill="#000000" font-family="sans-serif" font-size="10.4" lengthAdjust="spacing" textLength="58.957" x="36.8" y="119.082">by Controller</text><polygon fill="#181818" points="257.0363,145.125,265.0363,148.325,257.0363,151.525,260.2363,148.325" style="stroke:#181818;stroke-width:0.8000000000000002;"/><line style="stroke:#181818;stroke-width:0.8000000000000002;" x1="151.6961" x2="261.8363" y1="148.325" y2="148.325"/><text fill="#000000" font-family="sans-serif" font-size="10.4" font-weight="bold" lengthAdjust="spacing" textLength="5.784" x="157.2961" y="144.1148">2</text><text fill="#000000" font-family="sans-serif" font-size="10.4" lengthAdjust="spacing" textLength="90.7563" x="166.2801" y="144.1148">DeleteComponent()</text><polygon fill="#181818" points="379.9766,170.1578,387.9766,173.3578,379.9766,176.5578,383.1766,173.3578" style="stroke:#181818;stroke-width:0.8000000000000002;"/><line style="stroke:#181818;stroke-width:0.8000000000000002;" x1="274.6363" x2="384.7766" y1="173.3578" y2="173.3578"/><text fill="#000000" font-family="sans-serif" font-size="10.4" font-weight="bold" lengthAdjust="spacing" textLength="5.784" x="280.2363" y="169.1477">3</text><text fill="#000000" font-family="sans-serif" font-size="10.4" lengthAdjust="spacing" textLength="90.7563" x="289.2203" y="169.1477">DeleteComponent()</text><line style="stroke:#181818;stroke-width:0.8000000000000002;" x1="397.5766" x2="435.1766" y1="194.3906" y2="194.3906"/><line style="stroke:#181818;stroke-width:0.8000000000000002;" x1="435.1766" x2="435.1766" y1="194.3906" y2="204.7906"/><line style="stroke:#181818;stroke-width:0.8000000000000002;" x1="402.3766" x2="435.1766" y1="204.7906" y2="204.7906"/><polygon fill="#181818" points="410.3766,201.5906,402.3766,204.7906,410.3766,207.9906,407.1766,204.7906" style="stroke:#181818;stroke-width:0.8000000000000002;"/><text fill="#000000" font-family="sans-serif" font-size="10.4" font-weight="bold" lengthAdjust="spacing" textLength="5.784" x="407.1766" y="190.1805">4</text><text fill="#000000" font-family="sans-serif" font-size="10.4" lengthAdjust="spacing" textLength="214.7539" x="416.1605" y="190.1805">removeComponents = getGroupComponents()</text><line style="stroke:#181818;stroke-width:0.8000000000000002;stroke-dasharray:2.0,2.0;" x1="401.5766" x2="435.1766" y1="241.9398" y2="241.9398"/><line style="stroke:#181818;stroke-width:0.8000000000000002;stroke-dasharray:2.0,2.0;" x1="435.1766" x2="435.1766" y1="241.9398" y2="252.3398"/><line style="stroke:#181818;stroke-width:0.8000000000000002;stroke-dasharray:2.0,2.0;" x1="397.5766" x2="435.1766" y1="252.3398" y2="252.3398"/><polygon fill="#181818" points="405.5766,249.1398,397.5766,252.3398,405.5766,255.5398,402.3766,252.3398" style="stroke:#181818;stroke-width:0.8000000000000002;"/><text fill="#000000" font-family="sans-serif" font-size="10.4" font-weight="bold" lengthAdjust="spacing" textLength="5.784" x="407.1766" y="237.7297">5</text><text fill="#000000" font-family="sans-serif" font-size="10.4" lengthAdjust="spacing" textLength="2.8895" x="416.1605" y="237.7297">&#160;</text><path d="M456.8,219.1906 L456.8,254.3906 L810.4,254.3906 L810.4,227.1906 L802.4,219.1906 L456.8,219.1906 " fill="#FEFFDD" style="stroke:#181818;stroke-width:0.4000000000000001;"/><path d="M802.4,219.1906 L802.4,227.1906 L810.4,227.1906 L802.4,219.1906 " fill="#FEFFDD" style="stroke:#181818;stroke-width:0.4000000000000001;"/><text fill="#000000" font-family="sans-serif" font-size="10.4" lengthAdjust="spacing" textLength="337.482" x="461.6" y="234.4133">":Components": getGroupComponents() return gadgets and associations.</text><text fill="#000000" font-family="sans-serif" font-size="10.4" lengthAdjust="spacing" textLength="248.5691" x="461.6" y="248.2461">As for every association, its parents are also included.</text><path d="M346.6691,264.4563 L404.6168,264.4563 L404.6168,271.8891 L396.6168,279.8891 L346.6691,279.8891 L346.6691,264.4563 " fill="#FFD700" style="stroke:#000000;stroke-width:1.2000000000000002;"/><rect fill="none" height="116.1313" style="stroke:#000000;stroke-width:1.2000000000000002;" width="225.0215" x="346.6691" y="264.4563"/><text fill="#000000" font-family="sans-serif" font-size="10.4" font-weight="bold" lengthAdjust="spacing" textLength="21.9477" x="358.6691" y="276.4789">loop</text><text fill="#000000" font-family="sans-serif" font-size="8.8" font-weight="bold" lengthAdjust="spacing" textLength="151.0738" x="416.6168" y="275.5523">[component in removeComponents]</text><line style="stroke:#181818;stroke-width:0.8000000000000002;" x1="397.5766" x2="435.1766" y1="294.5219" y2="294.5219"/><line style="stroke:#181818;stroke-width:0.8000000000000002;" x1="435.1766" x2="435.1766" y1="294.5219" y2="304.9219"/><line style="stroke:#181818;stroke-width:0.8000000000000002;" x1="402.3766" x2="435.1766" y1="304.9219" y2="304.9219"/><polygon fill="#181818" points="410.3766,301.7219,402.3766,304.9219,410.3766,308.1219,407.1766,304.9219" style="stroke:#181818;stroke-width:0.8000000000000002;"/><text fill="#000000" font-family="sans-serif" font-size="10.4" font-weight="bold" lengthAdjust="spacing" textLength="5.784" x="407.1766" y="290.3117">6</text><text fill="#000000" font-family="sans-serif" font-size="10.4" lengthAdjust="spacing" textLength="86.7191" x="416.1605" y="290.3117">delete(component)</text><path d="M404.8,319.3219 L404.8,340.9219 L541.6,340.9219 L541.6,327.3219 L533.6,319.3219 L404.8,319.3219 " fill="#FEFFDD" style="stroke:#181818;stroke-width:0.4000000000000001;"/><path d="M533.6,319.3219 L533.6,327.3219 L541.6,327.3219 L533.6,319.3219 " fill="#FEFFDD" style="stroke:#181818;stroke-width:0.4000000000000001;"/><text fill="#000000" font-family="sans-serif" font-size="10.4" lengthAdjust="spacing" textLength="120.25" x="409.6" y="334.5445">delete is a built-in function</text><line style="stroke:#181818;stroke-width:0.8000000000000002;stroke-dasharray:2.0,2.0;" x1="401.5766" x2="435.1766" y1="367.7875" y2="367.7875"/><line style="stroke:#181818;stroke-width:0.8000000000000002;stroke-dasharray:2.0,2.0;" x1="435.1766" x2="435.1766" y1="367.7875" y2="378.1875"/><line style="stroke:#181818;stroke-width:0.8000000000000002;stroke-dasharray:2.0,2.0;" x1="397.5766" x2="435.1766" y1="378.1875" y2="378.1875"/><polygon fill="#181818" points="405.5766,374.9875,397.5766,378.1875,405.5766,381.3875,402.3766,378.1875" style="stroke:#181818;stroke-width:0.8000000000000002;"/><text fill="#000000" font-family="sans-serif" font-size="10.4" font-weight="bold" lengthAdjust="spacing" textLength="5.784" x="407.1766" y="363.5773">7</text><text fill="#000000" font-family="sans-serif" font-size="10.4" lengthAdjust="spacing" textLength="2.8895" x="416.1605" y="363.5773">&#160;</text><polygon fill="#181818" points="283.4363,401.6203,275.4363,404.8203,283.4363,408.0203,280.2363,404.8203" style="stroke:#181818;stroke-width:0.8000000000000002;"/><line style="stroke:#181818;stroke-width:0.8000000000000002;stroke-dasharray:2.0,2.0;" x1="278.6363" x2="392.7766" y1="404.8203" y2="404.8203"/><text fill="#000000" font-family="sans-serif" font-size="10.4" font-weight="bold" lengthAdjust="spacing" textLength="5.784" x="288.2363" y="400.6102">8</text><text fill="#000000" font-family="sans-serif" font-size="10.4" lengthAdjust="spacing" textLength="2.8895" x="297.2203" y="400.6102">&#160;</text><polygon fill="#181818" points="160.4961,426.6531,152.4961,429.8531,160.4961,433.0531,157.2961,429.8531" style="stroke:#181818;stroke-width:0.8000000000000002;"/><line style="stroke:#181818;stroke-width:0.8000000000000002;stroke-dasharray:2.0,2.0;" x1="155.6961" x2="269.8363" y1="429.8531" y2="429.8531"/><text fill="#000000" font-family="sans-serif" font-size="10.4" font-weight="bold" lengthAdjust="spacing" textLength="5.784" x="165.2961" y="425.643">9</text><text fill="#000000" font-family="sans-serif" font-size="10.4" lengthAdjust="spacing" textLength="2.8895" x="174.2801" y="425.643">&#160;</text><polygon fill="#181818" points="37.5559,451.6859,29.5559,454.8859,37.5559,458.0859,34.3559,454.8859" style="stroke:#181818;stroke-width:0.8000000000000002;"/><line style="stroke:#181818;stroke-width:0.8000000000000002;stroke-dasharray:2.0,2.0;" x1="32.7559" x2="146.8961" y1="454.8859" y2="454.8859"/><text fill="#000000" font-family="sans-serif" font-size="10.4" font-weight="bold" lengthAdjust="spacing" textLength="11.568" x="42.3559" y="450.6758">10</text><text fill="#000000" font-family="sans-serif" font-size="10.4" lengthAdjust="spacing" textLength="2.8895" x="57.1238" y="450.6758">&#160;</text><!--SRC=[ZPFDRi8m3CVlF8L5Bp2DFK2bJPf0cYPjqYwxxH8IjsHAuyf9c7ZxkT01AGKjbpgk_pz_954faa_D6dcYn5GwsgsA2EGdDLDgYvgSWU9dOyLfq6749JKjUVHn0hAcvUVh51PFdV7-zi7qZJfEIrZbiRFvFjgJODZMcmXKzTg2qPImti6IV6HoJcg1VcNGVHQTc8MtigfcrNpvyauY-jtLj4VSJVMXYwCsZE9otddqY9oneUr97k0HQemltM1Fpa6DZ36nprodgLtFNewIUnhKoiZl0CeRK26GjYfQyk4X0pu7g8W1jyYxyx1xiA9j5Uzxa0ye5mYirouPD3a49KLNSEPqHFbLqdz52kLYJ9dqFtC-NCpP4Jg_80mlteWShFG6wsHTN4XHLVAwQ_u2DN90qlEjCppRzcOtfC5h-WK0]--></g></svg>