<svg xmlns="http://www.w3.org/2000/svg" xmlns:xlink="http://www.w3.org/1999/xlink" contentStyleType="text/css" height="1311px" preserveAspectRatio="none" style="width:1438px;height:1311px;background:#FFFFFF;" version="1.1" viewBox="0 0 1438 1311" width="1438px" zoomAndPan="magnify"><defs/><g><g id="elem_User"><rect fill="#F1F1F1" height="67.8633" style="stroke:#181818;stroke-width:0.5;" width="47.0205" x="1213.5" y="7"/><text fill="#000000" font-family="sans-serif" font-size="14" lengthAdjust="spacing" textLength="29.5586" x="1222.231" y="24.1074">User</text><line style="stroke:#181818;stroke-width:0.5;" x1="1214.5" x2="1259.5205" y1="29.6211" y2="29.6211"/><text fill="#000000" font-family="sans-serif" font-size="14" lengthAdjust="spacing" textLength="10.8965" x="1219.5" y="48.7285">id</text><text fill="#000000" font-family="sans-serif" font-size="14" lengthAdjust="spacing" textLength="35.0205" x="1219.5" y="67.3496">name</text></g><g id="elem_UMLProject"><rect fill="#F1F1F1" height="86.4844" style="stroke:#181818;stroke-width:0.5;" width="87.1309" x="627.5" y="356"/><text fill="#000000" font-family="sans-serif" font-size="14" lengthAdjust="spacing" textLength="73.1309" x="634.5" y="373.1074">UMLProject</text><line style="stroke:#181818;stroke-width:0.5;" x1="628.5" x2="713.6309" y1="378.6211" y2="378.6211"/><text fill="#000000" font-family="sans-serif" font-size="14" lengthAdjust="spacing" textLength="10.8965" x="633.5" y="397.7285">id</text><text fill="#000000" font-family="sans-serif" font-size="14" lengthAdjust="spacing" textLength="35.0205" x="633.5" y="416.3496">name</text><text fill="#000000" font-family="sans-serif" font-size="14" lengthAdjust="spacing" textLength="45.9102" x="633.5" y="434.9707">lastEdit</text></g><g id="elem_UMLDiagram"><rect fill="#F1F1F1" height="105.1055" style="stroke:#181818;stroke-width:0.5;" width="113.958" x="172" y="575"/><text fill="#000000" font-family="sans-serif" font-size="14" lengthAdjust="spacing" textLength="82.4619" x="187.748" y="592.1074">UMLDiagram</text><line style="stroke:#181818;stroke-width:0.5;" x1="173" x2="284.958" y1="597.6211" y2="597.6211"/><text fill="#000000" font-family="sans-serif" font-size="14" lengthAdjust="spacing" textLength="52.917" x="178" y="616.7285">filename</text><text fill="#000000" font-family="sans-serif" font-size="14" lengthAdjust="spacing" textLength="26.4619" x="178" y="635.3496">type</text><text fill="#000000" font-family="sans-serif" font-size="14" lengthAdjust="spacing" textLength="101.958" x="178" y="653.9707">backgoundColor</text><text fill="#000000" font-family="sans-serif" font-size="14" lengthAdjust="spacing" textLength="45.9102" x="178" y="672.5918">lastEdit</text></g><g id="elem_GMN5"><path d="M321.5,614 L321.5,623.5 L286.33,627.5 L321.5,631.5 L321.5,641.291 A0,0 0 0 0 321.5,641.291 L530.3462,641.291 A0,0 0 0 0 530.3462,641.291 L530.3462,624 L520.3462,614 L321.5,614 A0,0 0 0 0 321.5,614 " fill="#FEFFDD" style="stroke:#181818;stroke-width:0.5;"/><path d="M520.3462,614 L520.3462,624 L530.3462,624 L520.3462,614 " fill="#FEFFDD" style="stroke:#181818;stroke-width:0.5;"/><text fill="#000000" font-family="sans-serif" font-size="13" lengthAdjust="spacing" textLength="187.8462" x="327.5" y="633.0283">Each UMLDiagram is a diagram.</text></g><g id="elem_Gadget"><rect fill="#F1F1F1" height="105.1055" style="stroke:#181818;stroke-width:0.5;" width="85.9443" x="186" y="796"/><text fill="#000000" font-family="sans-serif" font-size="14" lengthAdjust="spacing" textLength="45.9238" x="206.0103" y="813.1074">Gadget</text><line style="stroke:#181818;stroke-width:0.5;" x1="187" x2="270.9443" y1="818.6211" y2="818.6211"/><text fill="#000000" font-family="sans-serif" font-size="14" lengthAdjust="spacing" textLength="73.9443" x="192" y="837.7285">gadgetType</text><text fill="#000000" font-family="sans-serif" font-size="14" lengthAdjust="spacing" textLength="30.3447" x="192" y="856.3496">color</text><text fill="#000000" font-family="sans-serif" font-size="14" lengthAdjust="spacing" textLength="48.2549" x="192" y="874.9707">position</text><text fill="#000000" font-family="sans-serif" font-size="14" lengthAdjust="spacing" textLength="30.3447" x="192" y="893.5918">layer</text></g><g id="elem_Association"><rect fill="#F1F1F1" height="105.1055" style="stroke:#181818;stroke-width:0.5;" width="113.165" x="256.5" y="1024.5"/><text fill="#000000" font-family="sans-serif" font-size="14" lengthAdjust="spacing" textLength="71.5928" x="277.2861" y="1041.6074">Association</text><line style="stroke:#181818;stroke-width:0.5;" x1="257.5" x2="368.665" y1="1047.1211" y2="1047.1211"/><text fill="#000000" font-family="sans-serif" font-size="14" lengthAdjust="spacing" textLength="101.165" x="262.5" y="1066.2285">associationType</text><text fill="#000000" font-family="sans-serif" font-size="14" lengthAdjust="spacing" textLength="77.0342" x="262.5" y="1084.8496">startPosition</text><text fill="#000000" font-family="sans-serif" font-size="14" lengthAdjust="spacing" textLength="73.165" x="262.5" y="1103.4707">endPosition</text><text fill="#000000" font-family="sans-serif" font-size="14" lengthAdjust="spacing" textLength="30.3447" x="262.5" y="1122.0918">layer</text></g><g id="elem_Submodule"><rect fill="#F1F1F1" height="105.1055" style="stroke:#181818;stroke-width:0.5;" width="84.8271" x="574.5" y="575"/><text fill="#000000" font-family="sans-serif" font-size="14" lengthAdjust="spacing" textLength="70.8271" x="581.5" y="592.1074">Submodule</text><line style="stroke:#181818;stroke-width:0.5;" x1="575.5" x2="658.3271" y1="597.6211" y2="597.6211"/><text fill="#000000" font-family="sans-serif" font-size="14" lengthAdjust="spacing" textLength="10.8965" x="580.5" y="616.7285">id</text><text fill="#000000" font-family="sans-serif" font-size="14" lengthAdjust="spacing" textLength="35.0205" x="580.5" y="635.3496">name</text><text fill="#000000" font-family="sans-serif" font-size="14" lengthAdjust="spacing" textLength="52.1377" x="580.5" y="653.9707">Attribute</text><text fill="#000000" font-family="sans-serif" font-size="14" lengthAdjust="spacing" textLength="45.9102" x="580.5" y="672.5918">lastEdit</text></g><g id="elem_Session"><rect fill="#F1F1F1" height="105.1055" style="stroke:#181818;stroke-width:0.5;" width="70.3379" x="1134" y="154"/><text fill="#000000" font-family="sans-serif" font-size="14" lengthAdjust="spacing" textLength="49.8066" x="1144.2656" y="171.1074">Session</text><line style="stroke:#181818;stroke-width:0.5;" x1="1135" x2="1203.3379" y1="176.6211" y2="176.6211"/><text fill="#000000" font-family="sans-serif" font-size="14" lengthAdjust="spacing" textLength="10.8965" x="1140" y="195.7285">id</text><text fill="#000000" font-family="sans-serif" font-size="14" lengthAdjust="spacing" textLength="26.4619" x="1140" y="214.3496">host</text><text fill="#000000" font-family="sans-serif" font-size="14" lengthAdjust="spacing" textLength="58.3379" x="1140" y="232.9707">startTime</text><text fill="#000000" font-family="sans-serif" font-size="14" lengthAdjust="spacing" textLength="37.3516" x="1140" y="251.5918">status</text></g><g id="elem_Chatroom"><rect fill="#F1F1F1" height="38.6211" style="stroke:#181818;stroke-width:0.5;" width="75.4688" x="1203.5" y="379.5"/><text fill="#000000" font-family="sans-serif" font-size="14" lengthAdjust="spacing" textLength="61.4688" x="1210.5" y="396.6074">Chatroom</text><line style="stroke:#181818;stroke-width:0.5;" x1="1204.5" x2="1277.9688" y1="402.1211" y2="402.1211"/></g><g id="elem_Message"><rect fill="#F1F1F1" height="105.1055" style="stroke:#181818;stroke-width:0.5;" width="76.5723" x="1273.5" y="575"/><text fill="#000000" font-family="sans-serif" font-size="14" lengthAdjust="spacing" textLength="56.8066" x="1283.3828" y="592.1074">Message</text><line style="stroke:#181818;stroke-width:0.5;" x1="1274.5" x2="1349.0723" y1="597.6211" y2="597.6211"/><text fill="#000000" font-family="sans-serif" font-size="14" lengthAdjust="spacing" textLength="10.8965" x="1279.5" y="616.7285">id</text><text fill="#000000" font-family="sans-serif" font-size="14" lengthAdjust="spacing" textLength="42.8066" x="1279.5" y="635.3496">sender</text><text fill="#000000" font-family="sans-serif" font-size="14" lengthAdjust="spacing" textLength="45.9238" x="1279.5" y="653.9707">content</text><text fill="#000000" font-family="sans-serif" font-size="14" lengthAdjust="spacing" textLength="64.5723" x="1279.5" y="672.5918">timestamp</text></g><g id="elem_Attribute"><rect fill="#F1F1F1" height="86.4844" style="stroke:#181818;stroke-width:0.5;" width="66.1377" x="138" y="1218"/><text fill="#000000" font-family="sans-serif" font-size="14" lengthAdjust="spacing" textLength="52.1377" x="145" y="1235.1074">Attribute</text><line style="stroke:#181818;stroke-width:0.5;" x1="139" x2="203.1377" y1="1240.6211" y2="1240.6211"/><text fill="#000000" font-family="sans-serif" font-size="14" lengthAdjust="spacing" textLength="10.8965" x="144" y="1259.7285">id</text><text fill="#000000" font-family="sans-serif" font-size="14" lengthAdjust="spacing" textLength="45.9238" x="144" y="1278.3496">content</text><text fill="#000000" font-family="sans-serif" font-size="14" lengthAdjust="spacing" textLength="48.2549" x="144" y="1296.9707">position</text></g><g id="elem_TextStyle"><rect fill="#F1F1F1" height="123.7266" style="stroke:#181818;stroke-width:0.5;" width="94.4961" x="7" y="1015"/><text fill="#000000" font-family="sans-serif" font-size="14" lengthAdjust="spacing" textLength="58.3516" x="25.0723" y="1032.1074">TextStyle</text><line style="stroke:#181818;stroke-width:0.5;" x1="8" x2="100.4961" y1="1037.6211" y2="1037.6211"/><text fill="#000000" font-family="sans-serif" font-size="14" lengthAdjust="spacing" textLength="23.3516" x="13" y="1056.7285">font</text><text fill="#000000" font-family="sans-serif" font-size="14" lengthAdjust="spacing" textLength="48.248" x="13" y="1075.3496">fontsize</text><text fill="#000000" font-family="sans-serif" font-size="14" lengthAdjust="spacing" textLength="38.1309" x="13" y="1093.9707">isBold</text><text fill="#000000" font-family="sans-serif" font-size="14" lengthAdjust="spacing" textLength="38.8965" x="13" y="1112.5918">isItalic</text><text fill="#000000" font-family="sans-serif" font-size="14" lengthAdjust="spacing" textLength="82.4961" x="13" y="1131.2129">hasUnderline</text></g><g id="elem_Timer"><rect fill="#F1F1F1" height="49.2422" style="stroke:#181818;stroke-width:0.5;" width="112.3789" x="1042" y="824"/><text fill="#000000" font-family="sans-serif" font-size="14" lengthAdjust="spacing" textLength="35.7725" x="1080.3032" y="841.1074">Timer</text><line style="stroke:#181818;stroke-width:0.5;" x1="1043" x2="1153.3789" y1="846.6211" y2="846.6211"/><text fill="#000000" font-family="sans-serif" font-size="14" lengthAdjust="spacing" textLength="100.3789" x="1048" y="865.7285">whenToTimeout</text></g><g id="elem_Verifier"><rect fill="#F1F1F1" height="67.8633" style="stroke:#181818;stroke-width:0.5;" width="58.3447" x="138" y="365"/><text fill="#000000" font-family="sans-serif" font-size="14" lengthAdjust="spacing" textLength="44.3447" x="145" y="382.1074">Verifier</text><line style="stroke:#181818;stroke-width:0.5;" x1="139" x2="195.3447" y1="387.6211" y2="387.6211"/><text fill="#000000" font-family="sans-serif" font-size="14" lengthAdjust="spacing" textLength="26.4619" x="144" y="406.7285">type</text><text fill="#000000" font-family="sans-serif" font-size="14" lengthAdjust="spacing" textLength="37.3516" x="144" y="425.3496">status</text></g><!--link UMLProject to UMLDiagram--><g id="link_UMLProject_UMLDiagram"><path codeLine="92" d="M627.3,401.97 C534.02,407.07 319.67,423.85 268,472 C240.07,498.03 230.92,540.89 228.42,574.87 " fill="none" id="UMLProject-UMLDiagram" style="stroke:#181818;stroke-width:1.0;"/><text fill="#000000" font-family="sans-serif" font-size="13" lengthAdjust="spacing" textLength="53.479" x="269" y="514.1738">manages</text><path d="M328.479,486.5 L328.479,530.5 L591.479,530.5 L591.479,496.5 L581.479,486.5 L328.479,486.5 " fill="#FEFFDD" style="stroke:#181818;stroke-width:0.5;"/><path d="M581.479,486.5 L581.479,496.5 L591.479,496.5 L581.479,486.5 " fill="#FEFFDD" style="stroke:#181818;stroke-width:0.5;"/><text fill="#000000" font-family="sans-serif" font-size="13" lengthAdjust="spacing" textLength="242.0171" x="334.479" y="505.5283">A UMLroject can has multi UMLDiagrams.</text><text fill="#000000" font-family="sans-serif" font-size="13" lengthAdjust="spacing" textLength="130.7681" x="334.479" y="522.8193">Just like .sln to .vcproj.</text><text fill="#000000" font-family="sans-serif" font-size="13" lengthAdjust="spacing" textLength="7.23" x="612.196" y="398.0312">1</text><text fill="#000000" font-family="sans-serif" font-size="13" lengthAdjust="spacing" textLength="5.0591" x="223.0129" y="563.6964">*</text></g><!--link UMLDiagram to Gadget--><g id="link_UMLDiagram_Gadget"><path codeLine="98" d="M229,680.12 C229,715.02 229,760.94 229,795.84 " fill="none" id="UMLDiagram-Gadget" style="stroke:#181818;stroke-width:1.0;"/><text fill="#000000" font-family="sans-serif" font-size="13" lengthAdjust="spacing" textLength="61.4136" x="230" y="743.5283">consists of</text><text fill="#000000" font-family="sans-serif" font-size="13" lengthAdjust="spacing" textLength="7.23" x="221.569" y="701.9912">1</text><text fill="#000000" font-family="sans-serif" font-size="13" lengthAdjust="spacing" textLength="5.0591" x="223.6718" y="784.6624">*</text></g><!--link Submodule to Gadget--><g id="link_Submodule_Gadget"><path codeLine="99" d="M574.3,661.99 C565.76,668.22 556.73,674.5 548,680 C453.14,739.78 334.72,797.97 272.25,827.48 " fill="none" id="Submodule-Gadget" style="stroke:#181818;stroke-width:1.0;"/><text fill="#000000" font-family="sans-serif" font-size="13" lengthAdjust="spacing" textLength="61.4136" x="498" y="743.5283">consists of</text><text fill="#000000" font-family="sans-serif" font-size="13" lengthAdjust="spacing" textLength="7.23" x="559.394" y="663.5013">1</text><text fill="#000000" font-family="sans-serif" font-size="13" lengthAdjust="spacing" textLength="5.0591" x="279.8368" y="819.6344">*</text></g><!--link Submodule to Association--><g id="link_Submodule_Association"><path codeLine="100" d="M631.98,680.05 C650.48,755.36 671.84,896.15 604,985 C549.07,1056.94 437.68,1073.38 369.77,1076.36 " fill="none" id="Submodule-Association" style="stroke:#181818;stroke-width:1.0;"/><text fill="#000000" font-family="sans-serif" font-size="13" lengthAdjust="spacing" textLength="61.4136" x="651" y="854.0283">consists of</text><text fill="#000000" font-family="sans-serif" font-size="13" lengthAdjust="spacing" textLength="7.23" x="626.5497" y="702.2944">1</text><text fill="#000000" font-family="sans-serif" font-size="13" lengthAdjust="spacing" textLength="5.0591" x="377.7273" y="1072.1726">*</text></g><!--link Gadget to Attribute--><g id="link_Gadget_Attribute"><path codeLine="101" d="M215.44,901.18 C212.91,911.07 210.34,921.34 208,931 C199,968.2 194.64,977.14 189,1015 C178.47,1085.66 174.02,1168.74 172.19,1217.74 " fill="none" id="Gadget-Attribute" style="stroke:#181818;stroke-width:1.0;"/><text fill="#000000" font-family="sans-serif" font-size="13" lengthAdjust="spacing" textLength="48.4199" x="190" y="1082.5283">contains</text><text fill="#000000" font-family="sans-serif" font-size="13" lengthAdjust="spacing" textLength="7.23" x="206.2725" y="923.0589">1</text><text fill="#000000" font-family="sans-serif" font-size="13" lengthAdjust="spacing" textLength="5.0591" x="166.9834" y="1206.8278">*</text></g><!--link Association to Attribute--><g id="link_Association_Attribute"><path codeLine="102" d="M272.69,1129.67 C250.96,1157.52 224.48,1191.45 203.99,1217.71 " fill="none" id="Association-Attribute" style="stroke:#181818;stroke-width:1.0;"/><text fill="#000000" font-family="sans-serif" font-size="13" lengthAdjust="spacing" textLength="48.4199" x="243" y="1184.0283">contains</text><text fill="#000000" font-family="sans-serif" font-size="13" lengthAdjust="spacing" textLength="7.23" x="260.081" y="1151.5476">1</text><text fill="#000000" font-family="sans-serif" font-size="13" lengthAdjust="spacing" textLength="5.0591" x="203.6528" y="1206.7932">*</text></g><!--link Gadget to Association--><g id="link_Gadget_Association"><path codeLine="103" d="M218.5,901.08 C215.49,927.12 215.44,958.68 226,985 C232.67,1001.63 244,1016.95 256.31,1030.08 " fill="none" id="Gadget-Association" style="stroke:#181818;stroke-width:1.0;"/><text fill="#000000" font-family="sans-serif" font-size="13" lengthAdjust="spacing" textLength="66.4727" x="227" y="963.6738">Asscotiates</text><path d="M299.4727,936 L299.4727,980 L594.4727,980 L594.4727,946 L584.4727,936 L299.4727,936 " fill="#FEFFDD" style="stroke:#181818;stroke-width:0.5;"/><path d="M584.4727,936 L584.4727,946 L594.4727,946 L584.4727,936 " fill="#FEFFDD" style="stroke:#181818;stroke-width:0.5;"/><text fill="#000000" font-family="sans-serif" font-size="13" lengthAdjust="spacing" textLength="267.0142" x="305.4727" y="955.0283">A Gadget : Association = 1 : 1 occurs when an</text><text fill="#000000" font-family="sans-serif" font-size="13" lengthAdjust="spacing" textLength="274.5996" x="305.4727" y="972.3193">Association connects back to the same Gadget.</text><text fill="#000000" font-family="sans-serif" font-size="13" lengthAdjust="spacing" textLength="25.2954" x="218.7787" y="922.9461">1...2</text><text fill="#000000" font-family="sans-serif" font-size="13" lengthAdjust="spacing" textLength="5.0591" x="243.3492" y="1019.6737">*</text></g><!--link UMLProject to Submodule--><g id="link_UMLProject_Submodule"><path codeLine="108" d="M630.26,442.1 C623.59,451.3 617.67,461.46 614,472 C602.54,504.94 603.49,544.27 607.21,575 " fill="none" id="UMLProject-Submodule" style="stroke:#181818;stroke-width:1.0;"/><text fill="#000000" font-family="sans-serif" font-size="13" lengthAdjust="spacing" textLength="36.8481" x="741.4949" y="487.0283">knows</text><path d="M619,496.291 L619,540.291 L900,540.291 L900,506.291 L890,496.291 L619,496.291 " fill="#FEFFDD" style="stroke:#181818;stroke-width:0.5;"/><path d="M890,496.291 L890,506.291 L900,506.291 L890,496.291 " fill="#FEFFDD" style="stroke:#181818;stroke-width:0.5;"/><text fill="#000000" font-family="sans-serif" font-size="13" lengthAdjust="spacing" textLength="260.8379" x="625" y="515.3193">This enables UMLProject import Submodules</text><text fill="#000000" font-family="sans-serif" font-size="13" lengthAdjust="spacing" textLength="202.3125" x="628.6118" y="532.6104">to UMLDiagrams under the project.</text><text fill="#000000" font-family="sans-serif" font-size="13" lengthAdjust="spacing" textLength="7.23" x="615.941" y="464.6586">1</text><text fill="#000000" font-family="sans-serif" font-size="13" lengthAdjust="spacing" textLength="5.0591" x="600.5741" y="563.8439">*</text></g><!--link User to Session--><g id="link_User_Session"><path codeLine="114" d="M1223.24,75.09 C1213.85,97.67 1201.22,128.04 1190.51,153.79 " fill="none" id="User-Session" style="stroke:#181818;stroke-width:1.0;"/><text fill="#000000" font-family="sans-serif" font-size="13" lengthAdjust="spacing" textLength="31.0718" x="1210" y="120.0283">hosts</text><text fill="#000000" font-family="sans-serif" font-size="13" lengthAdjust="spacing" textLength="7.23" x="1213.077" y="97.0103">1</text><text fill="#000000" font-family="sans-serif" font-size="13" lengthAdjust="spacing" textLength="7.23" x="1185.9228" y="142.6057">1</text></g><!--link User to Session--><g id="link_User_Session"><path codeLine="115" d="M1213.34,55.74 C1196.95,66.73 1176.45,83.79 1167,105 C1160.29,120.07 1158.81,137.7 1159.61,153.96 " fill="none" id="User-Session-1" style="stroke:#181818;stroke-width:1.0;"/><text fill="#000000" font-family="sans-serif" font-size="13" lengthAdjust="spacing" textLength="26.7363" x="1168" y="120.0283">joins</text><text fill="#000000" font-family="sans-serif" font-size="13" lengthAdjust="spacing" textLength="5.0591" x="1200.3344" y="54.7448">*</text><text fill="#000000" font-family="sans-serif" font-size="13" lengthAdjust="spacing" textLength="7.23" x="1150.8707" y="142.7985">1</text></g><!--link Session to UMLProject--><g id="link_Session_UMLProject"><path codeLine="116" d="M1133.84,211.72 C1070.89,220.2 935.71,242.58 831,289 C788.6,307.8 745.42,338.01 714.62,361.86 " fill="none" id="Session-UMLProject" style="stroke:#181818;stroke-width:1.0;"/><text fill="#000000" font-family="sans-serif" font-size="13" lengthAdjust="spacing" textLength="66.4854" x="832" y="313.0283">connects to</text><path d="M904.4854,294 L904.4854,321 L1066.4854,321 L1066.4854,304 L1056.4854,294 L904.4854,294 " fill="#FEFFDD" style="stroke:#181818;stroke-width:0.5;"/><path d="M1056.4854,294 L1056.4854,304 L1066.4854,304 L1056.4854,294 " fill="#FEFFDD" style="stroke:#181818;stroke-width:0.5;"/><text fill="#000000" font-family="sans-serif" font-size="13" lengthAdjust="spacing" textLength="141.6353" x="910.4854" y="313.0283">A Session binds a Projet</text><text fill="#000000" font-family="sans-serif" font-size="13" lengthAdjust="spacing" textLength="7.23" x="1118.8552" y="208.091">1</text><text fill="#000000" font-family="sans-serif" font-size="13" lengthAdjust="spacing" textLength="7.23" x="722.7273" y="351.0273">1</text></g><!--link Session to Chatroom--><g id="link_Session_Chatroom"><path codeLine="120" d="M1188.48,259.05 C1203.56,298.94 1223.57,351.88 1234,379.48 " fill="none" id="Session-Chatroom" style="stroke:#181818;stroke-width:1.0;"/><text fill="#000000" font-family="sans-serif" font-size="13" lengthAdjust="spacing" textLength="48.4199" x="1214" y="313.0283">contains</text><text fill="#000000" font-family="sans-serif" font-size="13" lengthAdjust="spacing" textLength="7.23" x="1183.6201" y="281.2944">1</text><text fill="#000000" font-family="sans-serif" font-size="13" lengthAdjust="spacing" textLength="7.23" x="1223.8806" y="368.3758">1</text></g><!--link Chatroom to Message--><g id="link_Chatroom_Message"><path codeLine="121" d="M1250.32,418.59 C1257.25,432.93 1266.57,453.38 1273,472 C1284.61,505.6 1294.39,544.39 1301.25,574.71 " fill="none" id="Chatroom-Message" style="stroke:#181818;stroke-width:1.0;"/><text fill="#000000" font-family="sans-serif" font-size="13" lengthAdjust="spacing" textLength="48.4199" x="1294" y="514.0283">contains</text><text fill="#000000" font-family="sans-serif" font-size="13" lengthAdjust="spacing" textLength="7.23" x="1244.852" y="440.2575">1</text><text fill="#000000" font-family="sans-serif" font-size="13" lengthAdjust="spacing" textLength="5.0591" x="1294.5835" y="563.8974">*</text></g><!--link User to Message--><g id="link_User_Message"><path codeLine="122" d="M1248.96,75.13 C1274,146.5 1331.27,320.55 1351,472 C1355.19,504.17 1358.18,513.36 1351,545 C1348.74,554.94 1345.12,565.09 1340.97,574.7 " fill="none" id="User-Message" style="stroke:#181818;stroke-width:1.0;"/><text fill="#000000" font-family="sans-serif" font-size="13" lengthAdjust="spacing" textLength="34.6899" x="1323" y="313.0283">sends</text><text fill="#000000" font-family="sans-serif" font-size="13" lengthAdjust="spacing" textLength="7.23" x="1243.4856" y="96.7899">1</text><text fill="#000000" font-family="sans-serif" font-size="13" lengthAdjust="spacing" textLength="5.0591" x="1339.3927" y="563.8861">*</text></g><!--link TextStyle to Attribute--><g id="link_TextStyle_Attribute"><path codeLine="123" d="M66.38,1139.19 C71.45,1155.87 78.44,1173.35 88,1188 C100.92,1207.81 120.8,1225.32 137.86,1238.11 " fill="none" id="TextStyle-Attribute" style="stroke:#181818;stroke-width:1.0;"/><text fill="#000000" font-family="sans-serif" font-size="13" lengthAdjust="spacing" textLength="55.6372" x="89" y="1184.0283">describes</text><text fill="#000000" font-family="sans-serif" font-size="13" lengthAdjust="spacing" textLength="7.23" x="60.282" y="1160.5373">1</text><text fill="#000000" font-family="sans-serif" font-size="13" lengthAdjust="spacing" textLength="7.23" x="122.8551" y="1228.2506">1</text></g><!--link UMLProject to Timer--><g id="link_UMLProject_Timer"><path codeLine="124" d="M714.64,400.69 C768.2,403.98 858.16,417.88 909,472 C974.03,541.22 915.51,595.06 958,680 C987.08,738.13 1040.03,793.55 1071.81,823.8 " fill="none" id="UMLProject-Timer" style="stroke:#181818;stroke-width:1.0;"/><text fill="#000000" font-family="sans-serif" font-size="13" lengthAdjust="spacing" textLength="42.6372" x="994.0886" y="614.5283">inqures</text><path d="M963,623.791 L963,650.791 L1067,650.791 L1067,633.791 L1057,623.791 L963,623.791 " fill="#FEFFDD" style="stroke:#181818;stroke-width:0.5;"/><path d="M1057,623.791 L1057,633.791 L1067,633.791 L1057,623.791 " fill="#FEFFDD" style="stroke:#181818;stroke-width:0.5;"/><text fill="#000000" font-family="sans-serif" font-size="13" lengthAdjust="spacing" textLength="83.8145" x="969" y="642.8193">For auto-save.</text><text fill="#000000" font-family="sans-serif" font-size="13" lengthAdjust="spacing" textLength="7.23" x="722.7507" y="396.5312">1</text><text fill="#000000" font-family="sans-serif" font-size="13" lengthAdjust="spacing" textLength="7.23" x="1057.5549" y="812.7418">1</text></g><!--link Session to Timer--><g id="link_Session_Timer"><path codeLine="128" d="M1148.94,259.21 C1129.68,311.82 1101.95,396.19 1091,472 C1071.99,603.65 1087.72,763.93 1094.9,823.61 " fill="none" id="Session-Timer" style="stroke:#181818;stroke-width:1.0;"/><text fill="#000000" font-family="sans-serif" font-size="13" lengthAdjust="spacing" textLength="42.6372" x="1156.7195" y="495.5283">inqures</text><path d="M1096,504.791 L1096,531.791 L1260,531.791 L1260,514.791 L1250,504.791 L1096,504.791 " fill="#FEFFDD" style="stroke:#181818;stroke-width:0.5;"/><path d="M1250,504.791 L1250,514.791 L1260,514.791 L1250,504.791 " fill="#FEFFDD" style="stroke:#181818;stroke-width:0.5;"/><text fill="#000000" font-family="sans-serif" font-size="13" lengthAdjust="spacing" textLength="143.0762" x="1102" y="523.8193">For conneection timeout.</text><text fill="#000000" font-family="sans-serif" font-size="13" lengthAdjust="spacing" textLength="7.23" x="1138.9145" y="281.0927">1</text><text fill="#000000" font-family="sans-serif" font-size="13" lengthAdjust="spacing" textLength="7.23" x="1086.3565" y="812.9225">1</text></g><!--link Message to Timer--><g id="link_Message_Timer"><path codeLine="132" d="M1273.49,667.91 C1229.09,713.35 1157.54,786.57 1121.03,823.93 " fill="none" id="Message-Timer" style="stroke:#181818;stroke-width:1.0;"/><text fill="#000000" font-family="sans-serif" font-size="13" lengthAdjust="spacing" textLength="42.6372" x="1311.9727" y="725.0283">inqures</text><path d="M1235,734.291 L1235,761.291 L1431,761.291 L1431,744.291 L1421,734.291 L1235,734.291 " fill="#FEFFDD" style="stroke:#181818;stroke-width:0.5;"/><path d="M1421,734.291 L1421,744.291 L1431,744.291 L1421,734.291 " fill="#FEFFDD" style="stroke:#181818;stroke-width:0.5;"/><text fill="#000000" font-family="sans-serif" font-size="13" lengthAdjust="spacing" textLength="175.5825" x="1241" y="753.3193">For message-sending timeout.</text><text fill="#000000" font-family="sans-serif" font-size="13" lengthAdjust="spacing" textLength="7.23" x="1258.284" y="671.2389">1</text><text fill="#000000" font-family="sans-serif" font-size="13" lengthAdjust="spacing" textLength="7.23" x="1118.7723" y="812.9035">1</text></g><!--link Verifier to UMLDiagram--><g id="link_Verifier_UMLDiagram"><path codeLine="136" d="M159.85,433.28 C154.88,463.36 151.19,508.4 164,545 C167.65,555.42 173.25,565.5 179.66,574.82 " fill="none" id="Verifier-UMLDiagram" style="stroke:#181818;stroke-width:1.0;"/><text fill="#000000" font-family="sans-serif" font-size="13" lengthAdjust="spacing" textLength="40.46" x="165" y="514.0283">checks</text><text fill="#000000" font-family="sans-serif" font-size="13" lengthAdjust="spacing" textLength="7.23" x="150.9427" y="454.9666">1</text><text fill="#000000" font-family="sans-serif" font-size="13" lengthAdjust="spacing" textLength="7.23" x="165.5779" y="563.6397">1</text></g><!--SRC=[xLPVRzis47_NfpZaPUq02tLGB9s00MkJj6XMOy7iv9scQ8krHBhaoLqwxBllI5lIoL5Qh-YZz28TTVUx_yShTAv0QYTBbVnK1A9IMDZyG0X4fvSrDZzBRJP9aW0zTlbHIOGxhnpy4q_2e_FsquXAHUBVli3imwspyVFhOk4fXSVhNECmpfKMQoSgXhFIfUe1uCEs8vP2RjQsDlcbBQrxIaaqmg82fzS5jbpNGXPSgVOW8DyJQUHI9e-2FJFVYNojkAlhUB3WTicUELlhDMfhc7qFoWr4uBNtLceHU1c-w4vxIZmAXxV7s6JpxQdwvlMoidbTgXCIzxejd1DIELVUzvrWi8Nrs7TYeQkUMrZx0T3BGg2pDbJ7mDyPgHJh9ppn51NbM7eCAjCPWQIVr5RRePmqVWyZ7qFrSjr7MgY_SOuFlMYlB9CDXDTVkb1e_yQMEIFVeoYrx28f_5rmZ9fug353M7ahVowKMTXmQkisQrpWNZczqZqPFAeubfhuPir_DZs3oGJEVZxZNPL19GmbnX-r8L1vnE7J5bYGEa19OO9pKDKbQeRcqvRzflP801i5gIyDe8Lq9xSaFzIwp1vcvQ6Jiv14hprwiAl8tlN5TtFpLduiSi3Y_6sPHMuKskmZne5E4cYnqpGzVy8UegH58az9I-iun_WDfdGo1IjbxNmiBH3TnE6iP9sXfFeuhKEYi53WQROSa8yITbHLtESkqXbiZFtCZ5zQH1eDnzOl2fhgT84iI-Kvggwsrh41w5k9O20hEAX3WqMJjtlPmVeATsPZABsQ-PV5OUSxdkZ68wQFjabUSyQmcDLP5qkqtqvS0xRK9WztMuJ1nz4UKDhEsgFYQizPLfh9UyJQYqcFBKpZFKyt4fbkNjcvyfA8Gtu6XWszzcCk0sq-rKvzkoRUMWUYHZlnOgVIayBnVrKqQcAwoDm0X_kvEw2mYSmFK5ZjeIOXnDgilwAqdVNzKkl6jYoKt7WQyydl98XrLIP9mPRBSMaSbyPnQHoNnd5f79V6SMaSbyPnQHoNni6byROK1eaBTih564tJynVdBzEBPtCHRlqjlBY0wQ_Pz5KslO3B-GB2x-V9izdx1NXREwbem_Bx_9Byy-H6x0JyLPjWQ0P_RfMvkVgZEO1hizFEcYhSi3VtiuxXbvUJDpfeT6G9tC-IAxKIT5cGXBJ1ympk5cydhv8FmgnhYaX6tYUNj2gYUw1_y_y0]--></g></svg>