<svg xmlns="http://www.w3.org/2000/svg" xmlns:xlink="http://www.w3.org/1999/xlink" contentStyleType="text/css" height="872.1px" preserveAspectRatio="none" style="width:1258px;height:872px;background:#FFFFFF;" version="1.1" viewBox="0 0 1258 872" width="1258.2px" zoomAndPan="magnify"><defs/><g><g id="elem_User"><rect fill="#F1F1F1" height="34.759" style="stroke:#181818;stroke-width:0.45;" width="39.2027" x="943.2" y="6.3"/><text fill="#000000" font-family="sans-serif" font-size="12.6" lengthAdjust="spacing" textLength="26.6027" x="949.5" y="21.6967">User</text><line style="stroke:#181818;stroke-width:0.45;" x1="944.1" x2="981.5027" y1="26.659" y2="26.659"/></g><g id="elem_UMLProject"><rect fill="#F1F1F1" height="34.759" style="stroke:#181818;stroke-width:0.45;" width="78.4178" x="634.95" y="234.9"/><text fill="#000000" font-family="sans-serif" font-size="12.6" lengthAdjust="spacing" textLength="65.8178" x="641.25" y="250.2967">UMLProject</text><line style="stroke:#181818;stroke-width:0.45;" x1="635.85" x2="712.4678" y1="255.259" y2="255.259"/></g><g id="elem_UMLDiagram"><rect fill="#F1F1F1" height="34.759" style="stroke:#181818;stroke-width:0.45;" width="86.8157" x="143.1" y="419.4"/><text fill="#000000" font-family="sans-serif" font-size="12.6" lengthAdjust="spacing" textLength="74.2157" x="149.4" y="434.7967">UMLDiagram</text><line style="stroke:#181818;stroke-width:0.45;" x1="144" x2="229.0157" y1="439.759" y2="439.759"/></g><g id="elem_GMN5"><path d="M261.45,424.8 L261.45,433.35 L229.59,436.95 L261.45,440.55 L261.45,449.3619 A0,0 0 0 0 261.45,449.3619 L449.4116,449.3619 A0,0 0 0 0 449.4116,449.3619 L449.4116,433.8 L440.4116,424.8 L261.45,424.8 A0,0 0 0 0 261.45,424.8 " fill="#FEFFDD" style="stroke:#181818;stroke-width:0.45;"/><path d="M440.4116,424.8 L440.4116,433.8 L449.4116,433.8 L440.4116,424.8 " fill="#FEFFDD" style="stroke:#181818;stroke-width:0.45;"/><text fill="#000000" font-family="sans-serif" font-size="11.7" lengthAdjust="spacing" textLength="169.0616" x="266.85" y="441.9255">Each UMLDiagram is a diagram.</text></g><g id="elem_Gadget"><rect fill="#F1F1F1" height="34.759" style="stroke:#181818;stroke-width:0.45;" width="53.9314" x="159.3" y="588.6"/><text fill="#000000" font-family="sans-serif" font-size="12.6" lengthAdjust="spacing" textLength="41.3314" x="165.6" y="603.9967">Gadget</text><line style="stroke:#181818;stroke-width:0.45;" x1="160.2" x2="212.3314" y1="608.959" y2="608.959"/></g><g id="elem_Association"><rect fill="#F1F1F1" height="34.759" style="stroke:#181818;stroke-width:0.45;" width="77.0335" x="210.6" y="726.3"/><text fill="#000000" font-family="sans-serif" font-size="12.6" lengthAdjust="spacing" textLength="64.4335" x="216.9" y="741.6967">Association</text><line style="stroke:#181818;stroke-width:0.45;" x1="211.5" x2="286.7335" y1="746.659" y2="746.659"/></g><g id="elem_Submodule"><rect fill="#F1F1F1" height="34.759" style="stroke:#181818;stroke-width:0.45;" width="76.3444" x="492.75" y="419.4"/><text fill="#000000" font-family="sans-serif" font-size="12.6" lengthAdjust="spacing" textLength="63.7444" x="499.05" y="434.7967">Submodule</text><line style="stroke:#181818;stroke-width:0.45;" x1="493.65" x2="568.1944" y1="439.759" y2="439.759"/></g><g id="elem_Session"><rect fill="#F1F1F1" height="34.759" style="stroke:#181818;stroke-width:0.45;" width="57.426" x="935.1" y="112.5"/><text fill="#000000" font-family="sans-serif" font-size="12.6" lengthAdjust="spacing" textLength="44.826" x="941.4" y="127.8967">Session</text><line style="stroke:#181818;stroke-width:0.45;" x1="936" x2="991.626" y1="132.859" y2="132.859"/></g><g id="elem_Chatroom"><rect fill="#F1F1F1" height="34.759" style="stroke:#181818;stroke-width:0.45;" width="67.9219" x="1059.75" y="234.9"/><text fill="#000000" font-family="sans-serif" font-size="12.6" lengthAdjust="spacing" textLength="55.3219" x="1066.05" y="250.2967">Chatroom</text><line style="stroke:#181818;stroke-width:0.45;" x1="1060.65" x2="1126.7719" y1="255.259" y2="255.259"/></g><g id="elem_Message"><rect fill="#F1F1F1" height="94.5949" style="stroke:#181818;stroke-width:0.45;" width="68.915" x="1121.85" y="389.7"/><text fill="#000000" font-family="sans-serif" font-size="12.6" lengthAdjust="spacing" textLength="51.126" x="1130.7445" y="405.0967">Message</text><line style="stroke:#181818;stroke-width:0.45;" x1="1122.75" x2="1189.865" y1="410.059" y2="410.059"/><text fill="#000000" font-family="sans-serif" font-size="12.6" lengthAdjust="spacing" textLength="9.8068" x="1127.25" y="427.2557">id</text><text fill="#000000" font-family="sans-serif" font-size="12.6" lengthAdjust="spacing" textLength="38.526" x="1127.25" y="444.0146">sender</text><text fill="#000000" font-family="sans-serif" font-size="12.6" lengthAdjust="spacing" textLength="41.3314" x="1127.25" y="460.7736">content</text><text fill="#000000" font-family="sans-serif" font-size="12.6" lengthAdjust="spacing" textLength="58.115" x="1127.25" y="477.5326">timestamp</text></g><g id="elem_Attribute"><rect fill="#F1F1F1" height="34.759" style="stroke:#181818;stroke-width:0.45;" width="59.5239" x="104.4" y="832.5"/><text fill="#000000" font-family="sans-serif" font-size="12.6" lengthAdjust="spacing" textLength="46.9239" x="110.7" y="847.8967">Attribute</text><line style="stroke:#181818;stroke-width:0.45;" x1="105.3" x2="163.0239" y1="852.859" y2="852.859"/></g><g id="elem_TextStyle"><rect fill="#F1F1F1" height="34.759" style="stroke:#181818;stroke-width:0.45;" width="65.1164" x="6.3" y="726.3"/><text fill="#000000" font-family="sans-serif" font-size="12.6" lengthAdjust="spacing" textLength="52.5164" x="12.6" y="741.6967">TextStyle</text><line style="stroke:#181818;stroke-width:0.45;" x1="7.2" x2="70.5164" y1="746.659" y2="746.659"/></g><g id="elem_Timer"><rect fill="#F1F1F1" height="34.759" style="stroke:#181818;stroke-width:0.45;" width="44.7952" x="941.4" y="588.6"/><text fill="#000000" font-family="sans-serif" font-size="12.6" lengthAdjust="spacing" textLength="32.1952" x="947.7" y="603.9967">Timer</text><line style="stroke:#181818;stroke-width:0.45;" x1="942.3" x2="985.2952" y1="608.959" y2="608.959"/></g><g id="elem_Verifier"><rect fill="#F1F1F1" height="34.759" style="stroke:#181818;stroke-width:0.45;" width="52.5103" x="99.9" y="234.9"/><text fill="#000000" font-family="sans-serif" font-size="12.6" lengthAdjust="spacing" textLength="39.9103" x="106.2" y="250.2967">Verifier</text><line style="stroke:#181818;stroke-width:0.45;" x1="100.8" x2="151.5103" y1="255.259" y2="255.259"/></g><!--link User to UMLProject--><g id="link_User_UMLProject"><path codeLine="93" d="M943.191,29.889 C893.142,43.929 760.878,87.813 693.9,174.6 C680.328,192.186 675.999,218.088 674.649,234.891 " fill="none" id="User-UMLProject" style="stroke:#181818;stroke-width:0.9;"/><text fill="#000000" font-family="sans-serif" font-size="11.7" lengthAdjust="spacing" textLength="48.1311" x="757.8" y="135.0255">manages</text><text fill="#000000" font-family="sans-serif" font-size="11.7" lengthAdjust="spacing" textLength="6.507" x="929.3859" y="26.7807">1</text><text fill="#000000" font-family="sans-serif" font-size="11.7" lengthAdjust="spacing" textLength="4.5532" x="669.6398" y="224.8999">*</text></g><!--link UMLProject to UMLDiagram--><g id="link_UMLProject_UMLDiagram"><path codeLine="94" d="M634.878,254.34 C528.534,257.409 240.579,268.299 209.7,297 C175.725,328.581 179.226,389.601 183.339,419.166 " fill="none" id="UMLProject-UMLDiagram" style="stroke:#181818;stroke-width:0.9;"/><text fill="#000000" font-family="sans-serif" font-size="11.7" lengthAdjust="spacing" textLength="48.1311" x="210.6" y="334.9564">manages</text><path d="M264.1311,310.05 L264.1311,349.65 L500.8311,349.65 L500.8311,319.05 L491.8311,310.05 L264.1311,310.05 " fill="#FEFFDD" style="stroke:#181818;stroke-width:0.45;"/><path d="M491.8311,310.05 L491.8311,319.05 L500.8311,319.05 L491.8311,310.05 " fill="#FEFFDD" style="stroke:#181818;stroke-width:0.45;"/><text fill="#000000" font-family="sans-serif" font-size="11.7" lengthAdjust="spacing" textLength="217.8154" x="269.5311" y="327.1755">A UMLroject can has multi UMLDiagrams.</text><text fill="#000000" font-family="sans-serif" font-size="11.7" lengthAdjust="spacing" textLength="117.6913" x="269.5311" y="342.7374">Just like .sln to .vcproj.</text><text fill="#000000" font-family="sans-serif" font-size="11.7" lengthAdjust="spacing" textLength="6.507" x="621.303" y="268.657">1</text><text fill="#000000" font-family="sans-serif" font-size="11.7" lengthAdjust="spacing" textLength="4.5532" x="177.255" y="409.1088">*</text></g><!--link UMLDiagram to Gadget--><g id="link_UMLDiagram_Gadget"><path codeLine="100" d="M186.3,454.509 C186.3,486.513 186.3,556.263 186.3,588.402 " fill="none" id="UMLDiagram-Gadget" style="stroke:#181818;stroke-width:0.9;"/><text fill="#000000" font-family="sans-serif" font-size="11.7" lengthAdjust="spacing" textLength="55.2722" x="187.2" y="541.3755">consists of</text><text fill="#000000" font-family="sans-serif" font-size="11.7" lengthAdjust="spacing" textLength="6.507" x="179.1254" y="473.9904">1</text><text fill="#000000" font-family="sans-serif" font-size="11.7" lengthAdjust="spacing" textLength="4.5532" x="181.1569" y="578.3554">*</text></g><!--link Submodule to Gadget--><g id="link_Submodule_Gadget"><path codeLine="101" d="M509.535,454.68 C497.043,464.04 480.753,475.515 465.3,484.2 C376.92,533.853 264.168,577.116 213.318,595.647 " fill="none" id="Submodule-Gadget" style="stroke:#181818;stroke-width:0.9;"/><text fill="#000000" font-family="sans-serif" font-size="11.7" lengthAdjust="spacing" textLength="55.2722" x="414" y="541.3755">consists of</text><text fill="#000000" font-family="sans-serif" font-size="11.7" lengthAdjust="spacing" textLength="6.507" x="496.9739" y="473.8864">1</text><text fill="#000000" font-family="sans-serif" font-size="11.7" lengthAdjust="spacing" textLength="4.5532" x="220.4669" y="588.6212">*</text></g><!--link Submodule to Association--><g id="link_Submodule_Association"><path codeLine="102" d="M537.012,454.824 C552.078,500.697 585.954,628.488 523.8,699.3 C493.479,733.842 356.283,741.15 288.063,742.626 " fill="none" id="Submodule-Association" style="stroke:#181818;stroke-width:0.9;"/><text fill="#000000" font-family="sans-serif" font-size="11.7" lengthAdjust="spacing" textLength="55.2722" x="560.7" y="611.1255">consists of</text><text fill="#000000" font-family="sans-serif" font-size="11.7" lengthAdjust="spacing" textLength="6.507" x="531.4918" y="474.0673">1</text><text fill="#000000" font-family="sans-serif" font-size="11.7" lengthAdjust="spacing" textLength="4.5532" x="294.8905" y="738.5317">*</text></g><!--link Gadget to Attribute--><g id="link_Gadget_Attribute"><path codeLine="103" d="M179.172,623.88 C175.905,631.917 172.125,641.727 169.2,650.7 C158.445,683.73 155.961,692.19 149.4,726.3 C142.173,763.866 137.601,808.587 135.486,832.347 " fill="none" id="Gadget-Attribute" style="stroke:#181818;stroke-width:0.9;"/><text fill="#000000" font-family="sans-serif" font-size="11.7" lengthAdjust="spacing" textLength="43.5779" x="150.3" y="748.8255">contains</text><text fill="#000000" font-family="sans-serif" font-size="11.7" lengthAdjust="spacing" textLength="6.507" x="170.2736" y="643.0864">1</text><text fill="#000000" font-family="sans-serif" font-size="11.7" lengthAdjust="spacing" textLength="4.5532" x="130.7218" y="822.3136">*</text></g><!--link Association to Attribute--><g id="link_Association_Attribute"><path codeLine="104" d="M230.787,761.526 C209.295,781.002 174.042,812.952 152.559,832.419 " fill="none" id="Association-Attribute" style="stroke:#181818;stroke-width:0.9;"/><text fill="#000000" font-family="sans-serif" font-size="11.7" lengthAdjust="spacing" textLength="43.5779" x="199.8" y="801.9255">contains</text><text fill="#000000" font-family="sans-serif" font-size="11.7" lengthAdjust="spacing" textLength="6.507" x="218.7421" y="781.0389">1</text><text fill="#000000" font-family="sans-serif" font-size="11.7" lengthAdjust="spacing" textLength="4.5532" x="152.81" y="822.4067">*</text></g><!--link Gadget to Association--><g id="link_Gadget_Association"><path codeLine="105" d="M181.053,623.844 C176.022,643.266 170.883,675.576 183.6,699.3 C189.684,710.649 200.16,719.541 210.978,726.264 " fill="none" id="Gadget-Association" style="stroke:#181818;stroke-width:0.9;"/><text fill="#000000" font-family="sans-serif" font-size="11.7" lengthAdjust="spacing" textLength="59.8254" x="184.5" y="680.1064">Asscotiates</text><path d="M249.7254,655.2 L249.7254,694.8 L515.2254,694.8 L515.2254,664.2 L506.2254,655.2 L249.7254,655.2 " fill="#FEFFDD" style="stroke:#181818;stroke-width:0.45;"/><path d="M506.2254,655.2 L506.2254,664.2 L515.2254,664.2 L506.2254,655.2 " fill="#FEFFDD" style="stroke:#181818;stroke-width:0.45;"/><text fill="#000000" font-family="sans-serif" font-size="11.7" lengthAdjust="spacing" textLength="240.3127" x="255.1254" y="672.3255">A Gadget : Association = 1 : 1 occurs when an</text><text fill="#000000" font-family="sans-serif" font-size="11.7" lengthAdjust="spacing" textLength="247.1396" x="255.1254" y="687.8874">Association connects back to the same Gadget.</text><text fill="#000000" font-family="sans-serif" font-size="11.7" lengthAdjust="spacing" textLength="22.7659" x="182.6341" y="643.0411">1...2</text><text fill="#000000" font-family="sans-serif" font-size="11.7" lengthAdjust="spacing" textLength="4.5532" x="198.784" y="718.8363">*</text></g><!--link UMLProject to Submodule--><g id="link_UMLProject_Submodule"><path codeLine="110" d="M634.68,253.071 C600.426,255.195 552.6,264.357 528.3,297 C501.264,333.315 515.277,391.023 524.718,419.31 " fill="none" id="UMLProject-Submodule" style="stroke:#181818;stroke-width:0.9;"/><text fill="#000000" font-family="sans-serif" font-size="11.7" lengthAdjust="spacing" textLength="33.1633" x="643.0454" y="310.5255">knows</text><path d="M532.8,318.8619 L532.8,358.4619 L785.7,358.4619 L785.7,327.8619 L776.7,318.8619 L532.8,318.8619 " fill="#FEFFDD" style="stroke:#181818;stroke-width:0.45;"/><path d="M776.7,318.8619 L776.7,327.8619 L785.7,327.8619 L776.7,318.8619 " fill="#FEFFDD" style="stroke:#181818;stroke-width:0.45;"/><text fill="#000000" font-family="sans-serif" font-size="11.7" lengthAdjust="spacing" textLength="234.7541" x="538.2" y="335.9874">This enables UMLProject import Submodules</text><text fill="#000000" font-family="sans-serif" font-size="11.7" lengthAdjust="spacing" textLength="182.0813" x="541.4506" y="351.5493">to UMLDiagrams under the project.</text><text fill="#000000" font-family="sans-serif" font-size="11.7" lengthAdjust="spacing" textLength="6.507" x="621.3367" y="249.2822">1</text><text fill="#000000" font-family="sans-serif" font-size="11.7" lengthAdjust="spacing" textLength="4.5532" x="517.7424" y="409.2951">*</text></g><!--link User to Session--><g id="link_User_Session"><path codeLine="116" d="M943.884,41.49 C932.859,53.262 922.221,69.678 927.9,85.5 C931.482,95.481 938.457,104.814 945.315,112.266 " fill="none" id="User-Session" style="stroke:#181818;stroke-width:0.9;"/><text fill="#000000" font-family="sans-serif" font-size="11.7" lengthAdjust="spacing" textLength="27.9646" x="928.8" y="81.9255">hosts</text><text fill="#000000" font-family="sans-serif" font-size="11.7" lengthAdjust="spacing" textLength="6.507" x="931.6812" y="60.9932">1</text><text fill="#000000" font-family="sans-serif" font-size="11.7" lengthAdjust="spacing" textLength="6.507" x="932.6863" y="102.2088">1</text></g><!--link User to Session--><g id="link_User_Session"><path codeLine="117" d="M963.144,41.526 C963.315,61.002 963.585,92.952 963.756,112.419 " fill="none" id="User-Session-1" style="stroke:#181818;stroke-width:0.9;"/><text fill="#000000" font-family="sans-serif" font-size="11.7" lengthAdjust="spacing" textLength="24.0627" x="963.9" y="81.9255">joins</text><text fill="#000000" font-family="sans-serif" font-size="11.7" lengthAdjust="spacing" textLength="4.5532" x="958.1385" y="61.0389">*</text><text fill="#000000" font-family="sans-serif" font-size="11.7" lengthAdjust="spacing" textLength="6.507" x="956.5443" y="102.4067">1</text></g><!--link Session to UMLProject--><g id="link_Session_UMLProject"><path codeLine="118" d="M934.893,133.326 C878.778,138.393 757.881,151.677 723.6,174.6 C701.811,189.171 687.546,216.927 680.157,234.819 " fill="none" id="Session-UMLProject" style="stroke:#181818;stroke-width:0.9;"/><text fill="#000000" font-family="sans-serif" font-size="11.7" lengthAdjust="spacing" textLength="59.8368" x="724.5" y="196.2255">connects to</text><path d="M789.7368,179.1 L789.7368,203.4 L935.5368,203.4 L935.5368,188.1 L926.5368,179.1 L789.7368,179.1 " fill="#FEFFDD" style="stroke:#181818;stroke-width:0.45;"/><path d="M926.5368,179.1 L926.5368,188.1 L935.5368,188.1 L926.5368,179.1 " fill="#FEFFDD" style="stroke:#181818;stroke-width:0.45;"/><text fill="#000000" font-family="sans-serif" font-size="11.7" lengthAdjust="spacing" textLength="127.4717" x="795.1368" y="196.2255">A Session binds a Projet</text><text fill="#000000" font-family="sans-serif" font-size="11.7" lengthAdjust="spacing" textLength="6.507" x="921.2007" y="129.7097">1</text><text fill="#000000" font-family="sans-serif" font-size="11.7" lengthAdjust="spacing" textLength="6.507" x="682.8747" y="224.8067">1</text></g><!--link Session to Chatroom--><g id="link_Session_Chatroom"><path codeLine="122" d="M981.918,147.717 C1006.542,170.631 1050.453,211.491 1075.212,234.531 " fill="none" id="Session-Chatroom" style="stroke:#181818;stroke-width:0.9;"/><text fill="#000000" font-family="sans-serif" font-size="11.7" lengthAdjust="spacing" textLength="43.5779" x="1044.9" y="196.2255">contains</text><text fill="#000000" font-family="sans-serif" font-size="11.7" lengthAdjust="spacing" textLength="6.507" x="979.665" y="167.2275">1</text><text fill="#000000" font-family="sans-serif" font-size="11.7" lengthAdjust="spacing" textLength="6.507" x="1062.8523" y="224.75">1</text></g><!--link Chatroom to Message--><g id="link_Chatroom_Message"><path codeLine="123" d="M1105.974,270.054 C1111.356,277.902 1117.332,287.586 1121.4,297 C1134.189,326.592 1143.027,361.827 1148.634,389.43 " fill="none" id="Chatroom-Message" style="stroke:#181818;stroke-width:0.9;"/><text fill="#000000" font-family="sans-serif" font-size="11.7" lengthAdjust="spacing" textLength="43.5779" x="1142.1" y="334.8255">contains</text><text fill="#000000" font-family="sans-serif" font-size="11.7" lengthAdjust="spacing" textLength="6.507" x="1102.1509" y="289.5475">1</text><text fill="#000000" font-family="sans-serif" font-size="11.7" lengthAdjust="spacing" textLength="4.5532" x="1142.866" y="379.6975">*</text></g><!--link User to Message--><g id="link_User_Message"><path codeLine="124" d="M982.863,39.393 C1030.788,76.167 1151.901,178.02 1193.4,297 C1203.012,324.567 1200.141,334.287 1193.4,362.7 C1191.258,371.718 1187.829,380.88 1183.896,389.538 " fill="none" id="User-Message" style="stroke:#181818;stroke-width:0.9;"/><text fill="#000000" font-family="sans-serif" font-size="11.7" lengthAdjust="spacing" textLength="31.2209" x="1145.7" y="196.2255">sends</text><text fill="#000000" font-family="sans-serif" font-size="11.7" lengthAdjust="spacing" textLength="6.507" x="989.7118" y="39.1256">1</text><text fill="#000000" font-family="sans-serif" font-size="11.7" lengthAdjust="spacing" textLength="4.5532" x="1182.8044" y="379.4758">*</text></g><!--link TextStyle to Attribute--><g id="link_TextStyle_Attribute"><path codeLine="125" d="M41.121,761.517 C43.749,774.666 49.032,792.819 59.4,805.5 C71.091,819.801 88.794,830.439 104.031,837.63 " fill="none" id="TextStyle-Attribute" style="stroke:#181818;stroke-width:0.9;"/><text fill="#000000" font-family="sans-serif" font-size="11.7" lengthAdjust="spacing" textLength="50.0735" x="60.3" y="801.9255">describes</text><text fill="#000000" font-family="sans-serif" font-size="11.7" lengthAdjust="spacing" textLength="6.507" x="34.6104" y="781.0275">1</text><text fill="#000000" font-family="sans-serif" font-size="11.7" lengthAdjust="spacing" textLength="6.507" x="90.8881" y="830.8782">1</text></g><!--link UMLProject to Timer--><g id="link_UMLProject_Timer"><path codeLine="126" d="M713.457,257.967 C739.845,263.115 773.379,274.014 793.8,297 C850.563,360.909 795.546,409.95 837.9,484.2 C863.982,529.911 912.582,569.268 941.202,589.878 " fill="none" id="UMLProject-Timer" style="stroke:#181818;stroke-width:0.9;"/><text fill="#000000" font-family="sans-serif" font-size="11.7" lengthAdjust="spacing" textLength="38.3735" x="870.3798" y="425.2755">inqures</text><path d="M842.4,433.6119 L842.4,457.9119 L936,457.9119 L936,442.6119 L927,433.6119 L842.4,433.6119 " fill="#FEFFDD" style="stroke:#181818;stroke-width:0.45;"/><path d="M927,433.6119 L927,442.6119 L936,442.6119 L927,433.6119 " fill="#FEFFDD" style="stroke:#181818;stroke-width:0.45;"/><text fill="#000000" font-family="sans-serif" font-size="11.7" lengthAdjust="spacing" textLength="75.433" x="847.8" y="450.7374">For auto-save.</text><text fill="#000000" font-family="sans-serif" font-size="11.7" lengthAdjust="spacing" textLength="6.507" x="720.5046" y="254.9891">1</text><text fill="#000000" font-family="sans-serif" font-size="11.7" lengthAdjust="spacing" textLength="6.507" x="927.6902" y="580.5602">1</text></g><!--link Session to Timer--><g id="link_Session_Timer"><path codeLine="130" d="M963.054,147.681 C961.587,177.615 958.635,242.343 957.6,297 C955.485,408.312 960.966,542.241 963.099,588.546 " fill="none" id="Session-Timer" style="stroke:#181818;stroke-width:0.9;"/><text fill="#000000" font-family="sans-serif" font-size="11.7" lengthAdjust="spacing" textLength="38.3735" x="1016.7475" y="318.1755">inqures</text><path d="M962.1,326.5119 L962.1,350.8119 L1109.7,350.8119 L1109.7,335.5119 L1100.7,326.5119 L962.1,326.5119 " fill="#FEFFDD" style="stroke:#181818;stroke-width:0.45;"/><path d="M1100.7,326.5119 L1100.7,335.5119 L1109.7,335.5119 L1100.7,326.5119 " fill="#FEFFDD" style="stroke:#181818;stroke-width:0.45;"/><text fill="#000000" font-family="sans-serif" font-size="11.7" lengthAdjust="spacing" textLength="128.7686" x="967.5" y="343.6374">For conneection timeout.</text><text fill="#000000" font-family="sans-serif" font-size="11.7" lengthAdjust="spacing" textLength="6.507" x="955.7313" y="167.1818">1</text><text fill="#000000" font-family="sans-serif" font-size="11.7" lengthAdjust="spacing" textLength="6.507" x="955.6989" y="578.5417">1</text></g><!--link Message to Timer--><g id="link_Message_Timer"><path codeLine="134" d="M1121.625,468.162 C1081.08,503.406 1015.605,560.304 983.259,588.42 " fill="none" id="Message-Timer" style="stroke:#181818;stroke-width:0.9;"/><text fill="#000000" font-family="sans-serif" font-size="11.7" lengthAdjust="spacing" textLength="38.3735" x="1144.7754" y="524.7255">inqures</text><path d="M1075.5,533.0619 L1075.5,557.3619 L1251.9,557.3619 L1251.9,542.0619 L1242.9,533.0619 L1075.5,533.0619 " fill="#FEFFDD" style="stroke:#181818;stroke-width:0.45;"/><path d="M1242.9,533.0619 L1242.9,542.0619 L1251.9,542.0619 L1242.9,533.0619 " fill="#FEFFDD" style="stroke:#181818;stroke-width:0.45;"/><text fill="#000000" font-family="sans-serif" font-size="11.7" lengthAdjust="spacing" textLength="158.0243" x="1080.9" y="550.1874">For message-sending timeout.</text><text fill="#000000" font-family="sans-serif" font-size="11.7" lengthAdjust="spacing" textLength="6.507" x="1108.1329" y="469.9949">1</text><text fill="#000000" font-family="sans-serif" font-size="11.7" lengthAdjust="spacing" textLength="6.507" x="981.7809" y="578.3787">1</text></g><!--link Verifier to UMLDiagram--><g id="link_Verifier_UMLDiagram"><path codeLine="138" d="M121.815,270.288 C117.189,292.329 111.816,331.713 123.3,362.7 C131.697,385.371 150.579,405.738 165.501,419.229 " fill="none" id="Verifier-UMLDiagram" style="stroke:#181818;stroke-width:0.9;"/><text fill="#000000" font-family="sans-serif" font-size="11.7" lengthAdjust="spacing" textLength="36.414" x="124.2" y="334.8255">checks</text><text fill="#000000" font-family="sans-serif" font-size="11.7" lengthAdjust="spacing" textLength="6.507" x="113.6222" y="289.522">1</text><text fill="#000000" font-family="sans-serif" font-size="11.7" lengthAdjust="spacing" textLength="6.507" x="152.1353" y="409.1903">1</text></g><!--SRC=[xLRTRzCm47_FNt7Qom2fOPqGWqX8Z6sW3IeGxVRkEcvZcjZ5lfGDnF_EEMaIfqq_G23nqBmavzpzxljyYOm5S6buAeBZn16Pm4J7Iq9f544G03rw_4LmX5ih3Fm8Zc7voBZvLYmJ1U_FjiZWmoUZYyzjWZMLCejNiSHkg4l9fePbFjH4fg8DWGzpZnepFflgNCKNEjLcewB24d8OZ9mcvQ5xhXXFVCNI0eEu9CA2IwXu6IdFr7SidegD7hSDv6sxvjfAb5er9z-lLIpkEm9oRgtcaZdkVwrgc8yp7UUfs2-BvuX6ZdFSBx53OUqM7n9jiQ4iCeCZwMkZ8ynj1_15mj1exUgbu- -0rBAfyyZJMcDINeK9ciWf5Agf2oG3I6qsxqfBvVmcXogmzKIiWut4FGxneHtu2G4yRPDMVlSY8kqRdSO-VOqibTmBAhEtpiDKggwsTG5kjVgtHAYHTiSwhtFeIzm98oUoBTIkldQQYdSnK8xwHz3hmT6J8tzQH90nHUaf1RmVRVQgCTliJIS3rHNvEAipT-wabb2SAHS8oF8KfOTcmvhz9hT803C1eKqLe8PmmUSatzNzdZsUbSjX4BcyMsdHWfuKx4rJ_J6tFmBMHPPOFdzTcmKtCgdAYFb0UmdKs64OdcwmXoYkaSXzqb8xxcEyWZwTz45pdXjRL24mrKXvh6ITegJQOkAxH64YmD9OMYAl96obgdoVcqX7C5FwcsVyM2FIF5crVfJGnK3Nq3WLraULsLmRRthQMi8Pw1KSvAuP2vFdfMndVVdjGgzgS4R5ZBGDJ-766jCNNIMlElEmMgrNnnBrxiHLO6EfOdSz5Z2u7kqEfVM0NYck-jpBIZMkLrXNHqZ3vaPuoTCCKK-tNzcni9o8pSE6NkL8Z42ghxaHkslYhJR0SjGzonOYt2iSlwkYKbEaYynrS5YEw0w5LMJ-WiAiXEgv44irtQAqlXRQfTQCRPu8FhDq7mIlIH3pB0s2n5jCknRG7MlcZjNndovykxQqxQlLjjteVrnljkyhczUAxVl3OKCuR0Y73U6m8HmsXCE6i653-9GoXSG52s6A6FN3qvFJP-7Peo5pb-OSJiwW_pBgluZwPt0n787x_JXuDBWUWTMvuO9kTLlcb-GV1pTimU1phfoX4NoS2tLp-RuwW2kra4Qhp5sIDtU3Xk7vizuRwJGQiWJk1i6bc32wB4Y2Q-Tv1BUZjxqNmGUcfZb592BlWmjDkEQ1_Wr_0G00]--></g></svg>