<svg xmlns="http://www.w3.org/2000/svg" xmlns:xlink="http://www.w3.org/1999/xlink" contentStyleType="text/css" height="662.4px" preserveAspectRatio="none" style="width:736px;height:662px;background:#FFFFFF;" version="1.1" viewBox="0 0 736 662" width="736px" zoomAndPan="magnify"><defs/><g><rect fill="#FFFFFF" height="534.2563" style="stroke:#181818;stroke-width:0.8000000000000002;" width="8" x="128.0758" y="78.5625"/><rect fill="#FFFFFF" height="484.1906" style="stroke:#181818;stroke-width:0.8000000000000002;" width="8" x="253.3941" y="103.5953"/><rect fill="#FFFFFF" height="434.125" style="stroke:#181818;stroke-width:0.8000000000000002;" width="8" x="381.2117" y="128.6281"/><rect fill="#FFFFFF" height="63.6656" style="stroke:#181818;stroke-width:0.8000000000000002;" width="8" x="385.2117" y="303.8578"/><rect fill="#FFFFFF" height="25.0328" style="stroke:#181818;stroke-width:0.8000000000000002;" width="8" x="513.9461" y="195.7266"/><rect fill="#FFFFFF" height="25.0328" style="stroke:#181818;stroke-width:0.8000000000000002;" width="8" x="639.3055" y="247.3922"/><rect fill="#FFFFFF" height="25.0328" style="stroke:#181818;stroke-width:0.8000000000000002;" width="8" x="639.3055" y="451.4219"/><rect fill="#FFFFFF" height="25.0328" style="stroke:#181818;stroke-width:0.8000000000000002;" width="8" x="639.3055" y="501.4875"/><rect fill="#FFFFFF" height="574.7219" style="stroke:#000000;stroke-width:1.2000000000000002;" width="723.4293" x="8" y="44.4969"/><rect fill="#FFFFFF" height="244.4953" style="stroke:#000000;stroke-width:1.2000000000000002;" width="393.125" x="330.3043" y="140.6281"/><rect fill="#FFFFFF" height="217.8625" style="stroke:#000000;stroke-width:1.2000000000000002;" width="377.125" x="338.3043" y="161.6609"/><rect fill="#FFFFFF" height="152.3641" style="stroke:none;stroke-width:0.8000000000000002;" width="377.125" x="338.3043" y="227.1594"/><rect fill="#FFFFFF" height="142.1969" style="stroke:#000000;stroke-width:1.2000000000000002;" width="393.125" x="330.3043" y="396.3234"/><rect fill="#FFFFFF" height="115.5641" style="stroke:#000000;stroke-width:1.2000000000000002;" width="377.125" x="338.3043" y="417.3563"/><line style="stroke:#181818;stroke-width:0.4000000000000001;stroke-dasharray:5.0,5.0;" x1="28" x2="28" y1="30.8969" y2="632.8188"/><line style="stroke:#181818;stroke-width:0.4000000000000001;stroke-dasharray:5.0,5.0;" x1="131.6676" x2="131.6676" y1="30.8969" y2="632.8188"/><line style="stroke:#181818;stroke-width:0.4000000000000001;stroke-dasharray:5.0,5.0;" x1="257.284" x2="257.284" y1="30.8969" y2="632.8188"/><line style="stroke:#181818;stroke-width:0.4000000000000001;stroke-dasharray:5.0,5.0;" x1="384.7043" x2="384.7043" y1="30.8969" y2="632.8188"/><line style="stroke:#181818;stroke-width:0.4000000000000001;stroke-dasharray:5.0,5.0;" x1="517.5105" x2="517.5105" y1="30.8969" y2="632.8188"/><line style="stroke:#181818;stroke-width:0.4000000000000001;stroke-dasharray:5.0,5.0;" x1="643.1816" x2="643.1816" y1="30.8969" y2="632.8188"/><rect fill="#E2E2F0" height="26.0969" rx="2" ry="2" style="stroke:#181818;stroke-width:0.4000000000000001;" width="25.5117" x="16" y="4"/><text fill="#000000" font-family="sans-serif" font-size="11.2" lengthAdjust="spacing" textLength="14.3117" x="21.6" y="21.6859">:UI</text><rect fill="#E2E2F0" height="26.0969" rx="2" ry="2" style="stroke:#181818;stroke-width:0.4000000000000001;" width="25.5117" x="16" y="632.0188"/><text fill="#000000" font-family="sans-serif" font-size="11.2" lengthAdjust="spacing" textLength="14.3117" x="21.6" y="649.7047">:UI</text><rect fill="#E2E2F0" height="26.0969" rx="2" ry="2" style="stroke:#181818;stroke-width:0.4000000000000001;" width="72.8164" x="95.6676" y="4"/><text fill="#000000" font-family="sans-serif" font-size="11.2" lengthAdjust="spacing" textLength="61.6164" x="101.2676" y="21.6859">:UMLProject</text><rect fill="#E2E2F0" height="26.0969" rx="2" ry="2" style="stroke:#181818;stroke-width:0.4000000000000001;" width="72.8164" x="95.6676" y="632.0188"/><text fill="#000000" font-family="sans-serif" font-size="11.2" lengthAdjust="spacing" textLength="61.6164" x="101.2676" y="649.7047">:UMLProject</text><rect fill="#E2E2F0" height="26.0969" rx="2" ry="2" style="stroke:#181818;stroke-width:0.4000000000000001;" width="161.8203" x="176.484" y="4"/><text fill="#000000" font-family="sans-serif" font-size="11.2" lengthAdjust="spacing" textLength="150.6203" x="182.084" y="21.6859">currentDiagram:*UMLDiagram</text><rect fill="#E2E2F0" height="26.0969" rx="2" ry="2" style="stroke:#181818;stroke-width:0.4000000000000001;" width="161.8203" x="176.484" y="632.0188"/><text fill="#000000" font-family="sans-serif" font-size="11.2" lengthAdjust="spacing" textLength="150.6203" x="182.084" y="649.7047">currentDiagram:*UMLDiagram</text><rect fill="#E2E2F0" height="26.0969" rx="2" ry="2" style="stroke:#181818;stroke-width:0.4000000000000001;" width="77.8148" x="346.3043" y="4"/><text fill="#000000" font-family="sans-serif" font-size="11.2" lengthAdjust="spacing" textLength="66.6148" x="351.9043" y="21.6859">:Components</text><rect fill="#E2E2F0" height="26.0969" rx="2" ry="2" style="stroke:#181818;stroke-width:0.4000000000000001;" width="77.8148" x="346.3043" y="632.0188"/><text fill="#000000" font-family="sans-serif" font-size="11.2" lengthAdjust="spacing" textLength="66.6148" x="351.9043" y="649.7047">:Components</text><rect fill="#E2E2F0" height="26.0969" rx="2" ry="2" style="stroke:#181818;stroke-width:0.4000000000000001;" width="106.4711" x="464.7105" y="4"/><text fill="#000000" font-family="sans-serif" font-size="11.2" lengthAdjust="spacing" textLength="95.2711" x="470.3105" y="21.6859">gadget:Component</text><rect fill="#E2E2F0" height="26.0969" rx="2" ry="2" style="stroke:#181818;stroke-width:0.4000000000000001;" width="106.4711" x="464.7105" y="632.0188"/><text fill="#000000" font-family="sans-serif" font-size="11.2" lengthAdjust="spacing" textLength="95.2711" x="470.3105" y="649.7047">gadget:Component</text><rect fill="#E2E2F0" height="26.0969" rx="2" ry="2" style="stroke:#181818;stroke-width:0.4000000000000001;" width="128.2477" x="579.1816" y="4"/><text fill="#000000" font-family="sans-serif" font-size="11.2" lengthAdjust="spacing" textLength="117.0477" x="584.7816" y="21.6859">association:Component</text><rect fill="#E2E2F0" height="26.0969" rx="2" ry="2" style="stroke:#181818;stroke-width:0.4000000000000001;" width="128.2477" x="579.1816" y="632.0188"/><text fill="#000000" font-family="sans-serif" font-size="11.2" lengthAdjust="spacing" textLength="117.0477" x="584.7816" y="649.7047">association:Component</text><rect fill="#FFFFFF" height="534.2563" style="stroke:#181818;stroke-width:0.8000000000000002;" width="8" x="128.0758" y="78.5625"/><rect fill="#FFFFFF" height="484.1906" style="stroke:#181818;stroke-width:0.8000000000000002;" width="8" x="253.3941" y="103.5953"/><rect fill="#FFFFFF" height="434.125" style="stroke:#181818;stroke-width:0.8000000000000002;" width="8" x="381.2117" y="128.6281"/><rect fill="#FFFFFF" height="63.6656" style="stroke:#181818;stroke-width:0.8000000000000002;" width="8" x="385.2117" y="303.8578"/><rect fill="#FFFFFF" height="25.0328" style="stroke:#181818;stroke-width:0.8000000000000002;" width="8" x="513.9461" y="195.7266"/><rect fill="#FFFFFF" height="25.0328" style="stroke:#181818;stroke-width:0.8000000000000002;" width="8" x="639.3055" y="247.3922"/><rect fill="#FFFFFF" height="25.0328" style="stroke:#181818;stroke-width:0.8000000000000002;" width="8" x="639.3055" y="451.4219"/><rect fill="#FFFFFF" height="25.0328" style="stroke:#181818;stroke-width:0.8000000000000002;" width="8" x="639.3055" y="501.4875"/><path d="M8,44.4969 L81.5629,44.4969 L81.5629,51.9297 L73.5629,59.9297 L8,59.9297 L8,44.4969 " fill="#FFD700" style="stroke:#000000;stroke-width:1.2000000000000002;"/><rect fill="none" height="574.7219" style="stroke:#000000;stroke-width:1.2000000000000002;" width="723.4293" x="8" y="44.4969"/><text fill="#000000" font-family="sans-serif" font-size="10.4" font-weight="bold" lengthAdjust="spacing" textLength="37.5629" x="20" y="56.5195">drawAll</text><polygon fill="#181818" points="118.4758,75.3625,126.4758,78.5625,118.4758,81.7625,121.6758,78.5625" style="stroke:#181818;stroke-width:0.8000000000000002;"/><line style="stroke:#181818;stroke-width:0.8000000000000002;" x1="28.7559" x2="123.2758" y1="78.5625" y2="78.5625"/><text fill="#000000" font-family="sans-serif" font-size="10.4" font-weight="bold" lengthAdjust="spacing" textLength="5.784" x="34.3559" y="74.3523">1</text><text fill="#000000" font-family="sans-serif" font-size="10.4" lengthAdjust="spacing" textLength="75.1359" x="43.3398" y="74.3523">drawAll(graphic)</text><polygon fill="#181818" points="243.7941,100.3953,251.7941,103.5953,243.7941,106.7953,246.9941,103.5953" style="stroke:#181818;stroke-width:0.8000000000000002;"/><line style="stroke:#181818;stroke-width:0.8000000000000002;" x1="136.0758" x2="248.5941" y1="103.5953" y2="103.5953"/><text fill="#000000" font-family="sans-serif" font-size="10.4" font-weight="bold" lengthAdjust="spacing" textLength="5.784" x="141.6758" y="99.3852">2</text><text fill="#000000" font-family="sans-serif" font-size="10.4" lengthAdjust="spacing" textLength="75.1359" x="150.6598" y="99.3852">drawAll(graphic)</text><polygon fill="#181818" points="371.6117,125.4281,379.6117,128.6281,371.6117,131.8281,374.8117,128.6281" style="stroke:#181818;stroke-width:0.8000000000000002;"/><line style="stroke:#181818;stroke-width:0.8000000000000002;" x1="261.3941" x2="376.4117" y1="128.6281" y2="128.6281"/><text fill="#000000" font-family="sans-serif" font-size="10.4" font-weight="bold" lengthAdjust="spacing" textLength="5.784" x="266.9941" y="124.418">3</text><text fill="#000000" font-family="sans-serif" font-size="10.4" lengthAdjust="spacing" textLength="75.1359" x="275.9781" y="124.418">drawAll(graphic)</text><path d="M330.3043,140.6281 L388.252,140.6281 L388.252,148.0609 L380.252,156.0609 L330.3043,156.0609 L330.3043,140.6281 " fill="#FFD700" style="stroke:#000000;stroke-width:1.2000000000000002;"/><rect fill="none" height="244.4953" style="stroke:#000000;stroke-width:1.2000000000000002;" width="393.125" x="330.3043" y="140.6281"/><text fill="#000000" font-family="sans-serif" font-size="10.4" font-weight="bold" lengthAdjust="spacing" textLength="21.9477" x="342.3043" y="152.6508">loop</text><text fill="#000000" font-family="sans-serif" font-size="8.8" font-weight="bold" lengthAdjust="spacing" textLength="118.3059" x="400.252" y="151.7242">[component in components]</text><path d="M338.3043,161.6609 L386.441,161.6609 L386.441,169.0938 L378.441,177.0938 L338.3043,177.0938 L338.3043,161.6609 " fill="#FFD700" style="stroke:#000000;stroke-width:1.2000000000000002;"/><rect fill="none" height="217.8625" style="stroke:#000000;stroke-width:1.2000000000000002;" width="377.125" x="338.3043" y="161.6609"/><text fill="#000000" font-family="sans-serif" font-size="10.4" font-weight="bold" lengthAdjust="spacing" textLength="12.1367" x="350.3043" y="173.6836">alt</text><text fill="#000000" font-family="sans-serif" font-size="8.8" font-weight="bold" lengthAdjust="spacing" textLength="101.6941" x="398.441" y="172.757">[component is a gadget]</text><polygon fill="#181818" points="504.3461,192.5266,512.3461,195.7266,504.3461,198.9266,507.5461,195.7266" style="stroke:#181818;stroke-width:0.8000000000000002;"/><line style="stroke:#181818;stroke-width:0.8000000000000002;" x1="389.2117" x2="509.1461" y1="195.7266" y2="195.7266"/><text fill="#000000" font-family="sans-serif" font-size="10.4" font-weight="bold" lengthAdjust="spacing" textLength="5.784" x="394.8117" y="191.5164">4</text><text fill="#000000" font-family="sans-serif" font-size="10.4" lengthAdjust="spacing" textLength="63.5781" x="403.7957" y="191.5164">draw(graphic)</text><polygon fill="#181818" points="398.0117,217.5594,390.0117,220.7594,398.0117,223.9594,394.8117,220.7594" style="stroke:#181818;stroke-width:0.8000000000000002;"/><line style="stroke:#181818;stroke-width:0.8000000000000002;stroke-dasharray:2.0,2.0;" x1="393.2117" x2="517.1461" y1="220.7594" y2="220.7594"/><text fill="#000000" font-family="sans-serif" font-size="10.4" font-weight="bold" lengthAdjust="spacing" textLength="5.784" x="402.8117" y="216.5492">5</text><text fill="#000000" font-family="sans-serif" font-size="10.4" lengthAdjust="spacing" textLength="2.8895" x="411.7957" y="216.5492">&#160;</text><line style="stroke:#000000;stroke-width:0.8000000000000002;stroke-dasharray:2.0,2.0;" x1="338.3043" x2="715.4293" y1="227.9594" y2="227.9594"/><polygon fill="#181818" points="629.7055,244.1922,637.7055,247.3922,629.7055,250.5922,632.9055,247.3922" style="stroke:#181818;stroke-width:0.8000000000000002;"/><line style="stroke:#181818;stroke-width:0.8000000000000002;" x1="389.2117" x2="634.5055" y1="247.3922" y2="247.3922"/><text fill="#000000" font-family="sans-serif" font-size="10.4" font-weight="bold" lengthAdjust="spacing" textLength="5.784" x="394.8117" y="243.182">6</text><text fill="#000000" font-family="sans-serif" font-size="10.4" lengthAdjust="spacing" textLength="103.7664" x="403.7957" y="243.182">parents = getParents()</text><polygon fill="#181818" points="398.0117,269.225,390.0117,272.425,398.0117,275.625,394.8117,272.425" style="stroke:#181818;stroke-width:0.8000000000000002;"/><line style="stroke:#181818;stroke-width:0.8000000000000002;stroke-dasharray:2.0,2.0;" x1="393.2117" x2="642.5055" y1="272.425" y2="272.425"/><text fill="#000000" font-family="sans-serif" font-size="10.4" font-weight="bold" lengthAdjust="spacing" textLength="5.784" x="402.8117" y="268.2148">7</text><text fill="#000000" font-family="sans-serif" font-size="10.4" lengthAdjust="spacing" textLength="2.8895" x="411.7957" y="268.2148">&#160;</text><line style="stroke:#181818;stroke-width:0.8000000000000002;" x1="389.2117" x2="426.8117" y1="293.4578" y2="293.4578"/><line style="stroke:#181818;stroke-width:0.8000000000000002;" x1="426.8117" x2="426.8117" y1="293.4578" y2="303.8578"/><line style="stroke:#181818;stroke-width:0.8000000000000002;" x1="394.0117" x2="426.8117" y1="303.8578" y2="303.8578"/><polygon fill="#181818" points="402.0117,300.6578,394.0117,303.8578,402.0117,307.0578,398.8117,303.8578" style="stroke:#181818;stroke-width:0.8000000000000002;"/><text fill="#000000" font-family="sans-serif" font-size="10.4" font-weight="bold" lengthAdjust="spacing" textLength="5.784" x="398.8117" y="289.2477">8</text><text fill="#000000" font-family="sans-serif" font-size="10.4" lengthAdjust="spacing" textLength="96.5504" x="407.7957" y="289.2477">routeMap[parents]++</text><path d="M396.8,318.2578 L396.8,339.8578 L631.2,339.8578 L631.2,326.2578 L623.2,318.2578 L396.8,318.2578 " fill="#FEFFDD" style="stroke:#181818;stroke-width:0.4000000000000001;"/><path d="M623.2,318.2578 L623.2,326.2578 L631.2,326.2578 L623.2,318.2578 " fill="#FEFFDD" style="stroke:#181818;stroke-width:0.4000000000000001;"/><text fill="#000000" font-family="sans-serif" font-size="10.4" lengthAdjust="spacing" textLength="217.9328" x="401.6" y="333.4805">routeMap is to assist in drawing the association</text><line style="stroke:#181818;stroke-width:0.8000000000000002;stroke-dasharray:2.0,2.0;" x1="393.2117" x2="426.8117" y1="366.7234" y2="366.7234"/><line style="stroke:#181818;stroke-width:0.8000000000000002;stroke-dasharray:2.0,2.0;" x1="426.8117" x2="426.8117" y1="366.7234" y2="377.1234"/><line style="stroke:#181818;stroke-width:0.8000000000000002;stroke-dasharray:2.0,2.0;" x1="389.2117" x2="426.8117" y1="377.1234" y2="377.1234"/><polygon fill="#181818" points="397.2117,373.9234,389.2117,377.1234,397.2117,380.3234,394.0117,377.1234" style="stroke:#181818;stroke-width:0.8000000000000002;"/><text fill="#000000" font-family="sans-serif" font-size="10.4" font-weight="bold" lengthAdjust="spacing" textLength="5.784" x="398.8117" y="362.5133">9</text><text fill="#000000" font-family="sans-serif" font-size="10.4" lengthAdjust="spacing" textLength="2.8895" x="407.7957" y="362.5133">&#160;</text><path d="M330.3043,396.3234 L388.252,396.3234 L388.252,403.7563 L380.252,411.7563 L330.3043,411.7563 L330.3043,396.3234 " fill="#FFD700" style="stroke:#000000;stroke-width:1.2000000000000002;"/><rect fill="none" height="142.1969" style="stroke:#000000;stroke-width:1.2000000000000002;" width="393.125" x="330.3043" y="396.3234"/><text fill="#000000" font-family="sans-serif" font-size="10.4" font-weight="bold" lengthAdjust="spacing" textLength="21.9477" x="342.3043" y="408.3461">loop</text><text fill="#000000" font-family="sans-serif" font-size="8.8" font-weight="bold" lengthAdjust="spacing" textLength="118.3059" x="400.252" y="407.4195">[component in components]</text><path d="M338.3043,417.3563 L390.473,417.3563 L390.473,424.7891 L382.473,432.7891 L338.3043,432.7891 L338.3043,417.3563 " fill="#FFD700" style="stroke:#000000;stroke-width:1.2000000000000002;"/><rect fill="none" height="115.5641" style="stroke:#000000;stroke-width:1.2000000000000002;" width="377.125" x="338.3043" y="417.3563"/><text fill="#000000" font-family="sans-serif" font-size="10.4" font-weight="bold" lengthAdjust="spacing" textLength="16.1688" x="350.3043" y="429.3789">opt</text><text fill="#000000" font-family="sans-serif" font-size="8.8" font-weight="bold" lengthAdjust="spacing" textLength="121.2664" x="402.473" y="428.4523">[component is a association]</text><polygon fill="#181818" points="629.7055,448.2219,637.7055,451.4219,629.7055,454.6219,632.9055,451.4219" style="stroke:#181818;stroke-width:0.8000000000000002;"/><line style="stroke:#181818;stroke-width:0.8000000000000002;" x1="389.2117" x2="634.5055" y1="451.4219" y2="451.4219"/><text fill="#000000" font-family="sans-serif" font-size="10.4" font-weight="bold" lengthAdjust="spacing" textLength="11.568" x="394.8117" y="447.2117">10</text><text fill="#000000" font-family="sans-serif" font-size="10.4" lengthAdjust="spacing" textLength="103.7664" x="409.5797" y="447.2117">parents = getParents()</text><polygon fill="#181818" points="398.0117,473.2547,390.0117,476.4547,398.0117,479.6547,394.8117,476.4547" style="stroke:#181818;stroke-width:0.8000000000000002;"/><line style="stroke:#181818;stroke-width:0.8000000000000002;stroke-dasharray:2.0,2.0;" x1="393.2117" x2="642.5055" y1="476.4547" y2="476.4547"/><text fill="#000000" font-family="sans-serif" font-size="10.4" font-weight="bold" lengthAdjust="spacing" textLength="11.568" x="402.8117" y="472.2445">11</text><text fill="#000000" font-family="sans-serif" font-size="10.4" lengthAdjust="spacing" textLength="2.8895" x="417.5797" y="472.2445">&#160;</text><polygon fill="#181818" points="629.7055,498.2875,637.7055,501.4875,629.7055,504.6875,632.9055,501.4875" style="stroke:#181818;stroke-width:0.8000000000000002;"/><line style="stroke:#181818;stroke-width:0.8000000000000002;" x1="389.2117" x2="634.5055" y1="501.4875" y2="501.4875"/><text fill="#000000" font-family="sans-serif" font-size="10.4" font-weight="bold" lengthAdjust="spacing" textLength="11.568" x="394.8117" y="497.2773">12</text><text fill="#000000" font-family="sans-serif" font-size="10.4" lengthAdjust="spacing" textLength="160.6871" x="409.5797" y="497.2773">draw(graphic, routeMap[parents]--)</text><polygon fill="#181818" points="398.0117,523.3203,390.0117,526.5203,398.0117,529.7203,394.8117,526.5203" style="stroke:#181818;stroke-width:0.8000000000000002;"/><line style="stroke:#181818;stroke-width:0.8000000000000002;stroke-dasharray:2.0,2.0;" x1="393.2117" x2="642.5055" y1="526.5203" y2="526.5203"/><text fill="#000000" font-family="sans-serif" font-size="10.4" font-weight="bold" lengthAdjust="spacing" textLength="11.568" x="402.8117" y="522.3102">13</text><text fill="#000000" font-family="sans-serif" font-size="10.4" lengthAdjust="spacing" textLength="2.8895" x="417.5797" y="522.3102">&#160;</text><polygon fill="#181818" points="270.1941,559.5531,262.1941,562.7531,270.1941,565.9531,266.9941,562.7531" style="stroke:#181818;stroke-width:0.8000000000000002;"/><line style="stroke:#181818;stroke-width:0.8000000000000002;stroke-dasharray:2.0,2.0;" x1="265.3941" x2="384.4117" y1="562.7531" y2="562.7531"/><text fill="#000000" font-family="sans-serif" font-size="10.4" font-weight="bold" lengthAdjust="spacing" textLength="11.568" x="274.9941" y="558.543">14</text><text fill="#000000" font-family="sans-serif" font-size="10.4" lengthAdjust="spacing" textLength="2.8895" x="289.7621" y="558.543">&#160;</text><polygon fill="#181818" points="144.8758,584.5859,136.8758,587.7859,144.8758,590.9859,141.6758,587.7859" style="stroke:#181818;stroke-width:0.8000000000000002;"/><line style="stroke:#181818;stroke-width:0.8000000000000002;stroke-dasharray:2.0,2.0;" x1="140.0758" x2="256.5941" y1="587.7859" y2="587.7859"/><text fill="#000000" font-family="sans-serif" font-size="10.4" font-weight="bold" lengthAdjust="spacing" textLength="11.568" x="149.6758" y="583.5758">15</text><text fill="#000000" font-family="sans-serif" font-size="10.4" lengthAdjust="spacing" textLength="2.8895" x="164.4438" y="583.5758">&#160;</text><polygon fill="#181818" points="37.5559,609.6188,29.5559,612.8188,37.5559,616.0188,34.3559,612.8188" style="stroke:#181818;stroke-width:0.8000000000000002;"/><line style="stroke:#181818;stroke-width:0.8000000000000002;stroke-dasharray:2.0,2.0;" x1="32.7559" x2="131.2758" y1="612.8188" y2="612.8188"/><text fill="#000000" font-family="sans-serif" font-size="10.4" font-weight="bold" lengthAdjust="spacing" textLength="11.568" x="42.3559" y="608.6086">16</text><text fill="#000000" font-family="sans-serif" font-size="10.4" lengthAdjust="spacing" textLength="2.8895" x="57.1238" y="608.6086">&#160;</text><!--SRC=[nLDDJyCm3BttLrZTPMFq3rG22S45YKcxS48SJ1lIe3IE4fVzVT8lhLK_O0W9NsedVlRBiuiLawdAD-4Y32vch3wH1P29fAFARYJf73QdGeN3tE7fJkieJfyVOqXk8JY7fwEZ3v5ndFRtM-dG5YhRHH1ibDE0iievOVX1OKWiqwjmt_bBDPewAx2MopsLban8yMjrQjD4uvTbFHIKEGT-1AeDDI_XF218pANW2QgLOK2luTicduyxqlECUtE2AsScLq9xySEsw3rb2bcH6VMsMAlhuGO2gsCRR2yYCTzlF9QmKomEQ5-wTg_xFSmMCXJaTKeM3FI-LALMdGd2avHlHbSBg8m4BWGC7dgHb2QFrk9VxmxPrTtvZkx_JtAftt1hhwSJJfBTN-a_W7Hkzmb9_H__1G00]--></g></svg>