<svg xmlns="http://www.w3.org/2000/svg" xmlns:xlink="http://www.w3.org/1999/xlink" contentStyleType="text/css" height="828px" preserveAspectRatio="none" style="width:891px;height:828px;background:#FFFFFF;" version="1.1" viewBox="0 0 891 828" width="891px" zoomAndPan="magnify"><defs/><g><rect fill="#FFFFFF" height="667.8203" style="stroke:#181818;stroke-width:1.0;" width="10" x="131.1499" y="98.2031"/><rect fill="#FFFFFF" height="605.2383" style="stroke:#181818;stroke-width:1.0;" width="10" x="287.7979" y="129.4941"/><rect fill="#FFFFFF" height="542.6563" style="stroke:#181818;stroke-width:1.0;" width="10" x="447.5698" y="160.7852"/><rect fill="#FFFFFF" height="79.582" style="stroke:#181818;stroke-width:1.0;" width="10" x="452.5698" y="379.8223"/><rect fill="#FFFFFF" height="31.291" style="stroke:#181818;stroke-width:1.0;" width="10" x="613.4878" y="244.6582"/><rect fill="#FFFFFF" height="31.291" style="stroke:#181818;stroke-width:1.0;" width="10" x="770.187" y="309.2402"/><rect fill="#FFFFFF" height="31.291" style="stroke:#181818;stroke-width:1.0;" width="10" x="770.187" y="564.2773"/><rect fill="#FFFFFF" height="31.291" style="stroke:#181818;stroke-width:1.0;" width="10" x="770.187" y="626.8594"/><rect fill="#FFFFFF" height="718.4023" style="stroke:#000000;stroke-width:1.5;" width="882.3418" x="3" y="55.6211"/><rect fill="#FFFFFF" height="305.6191" style="stroke:#000000;stroke-width:1.5;" width="491.4063" x="383.9355" y="175.7852"/><rect fill="#FFFFFF" height="272.3281" style="stroke:#000000;stroke-width:1.5;" width="471.4063" x="393.9355" y="202.0762"/><rect fill="#FFFFFF" height="190.4551" style="stroke:none;stroke-width:1.0;" width="471.4063" x="393.9355" y="283.9492"/><rect fill="#FFFFFF" height="177.7461" style="stroke:#000000;stroke-width:1.5;" width="491.4063" x="383.9355" y="495.4043"/><rect fill="#FFFFFF" height="144.4551" style="stroke:#000000;stroke-width:1.5;" width="471.4063" x="393.9355" y="521.6953"/><line style="stroke:#181818;stroke-width:0.5;stroke-dasharray:5.0,5.0;" x1="135.6396" x2="135.6396" y1="38.6211" y2="791.0234"/><line style="stroke:#181818;stroke-width:0.5;stroke-dasharray:5.0,5.0;" x1="292.6602" x2="292.6602" y1="38.6211" y2="791.0234"/><line style="stroke:#181818;stroke-width:0.5;stroke-dasharray:5.0,5.0;" x1="451.9355" x2="451.9355" y1="38.6211" y2="791.0234"/><line style="stroke:#181818;stroke-width:0.5;stroke-dasharray:5.0,5.0;" x1="617.9434" x2="617.9434" y1="38.6211" y2="791.0234"/><line style="stroke:#181818;stroke-width:0.5;stroke-dasharray:5.0,5.0;" x1="775.0322" x2="775.0322" y1="38.6211" y2="791.0234"/><rect fill="#E2E2F0" height="32.6211" rx="2.5" ry="2.5" style="stroke:#181818;stroke-width:0.5;" width="91.0205" x="90.6396" y="5"/><text fill="#000000" font-family="sans-serif" font-size="14" lengthAdjust="spacing" textLength="77.0205" x="97.6396" y="27.1074">:UMLProject</text><rect fill="#E2E2F0" height="32.6211" rx="2.5" ry="2.5" style="stroke:#181818;stroke-width:0.5;" width="91.0205" x="90.6396" y="790.0234"/><text fill="#000000" font-family="sans-serif" font-size="14" lengthAdjust="spacing" textLength="77.0205" x="97.6396" y="812.1309">:UMLProject</text><rect fill="#E2E2F0" height="32.6211" rx="2.5" ry="2.5" style="stroke:#181818;stroke-width:0.5;" width="202.2754" x="191.6602" y="5"/><text fill="#000000" font-family="sans-serif" font-size="14" lengthAdjust="spacing" textLength="188.2754" x="198.6602" y="27.1074">currentDiagram:*UMLDiagram</text><rect fill="#E2E2F0" height="32.6211" rx="2.5" ry="2.5" style="stroke:#181818;stroke-width:0.5;" width="202.2754" x="191.6602" y="790.0234"/><text fill="#000000" font-family="sans-serif" font-size="14" lengthAdjust="spacing" textLength="188.2754" x="198.6602" y="812.1309">currentDiagram:*UMLDiagram</text><rect fill="#E2E2F0" height="32.6211" rx="2.5" ry="2.5" style="stroke:#181818;stroke-width:0.5;" width="97.2686" x="403.9355" y="5"/><text fill="#000000" font-family="sans-serif" font-size="14" lengthAdjust="spacing" textLength="83.2686" x="410.9355" y="27.1074">:Components</text><rect fill="#E2E2F0" height="32.6211" rx="2.5" ry="2.5" style="stroke:#181818;stroke-width:0.5;" width="97.2686" x="403.9355" y="790.0234"/><text fill="#000000" font-family="sans-serif" font-size="14" lengthAdjust="spacing" textLength="83.2686" x="410.9355" y="812.1309">:Components</text><rect fill="#E2E2F0" height="32.6211" rx="2.5" ry="2.5" style="stroke:#181818;stroke-width:0.5;" width="133.0889" x="551.9434" y="5"/><text fill="#000000" font-family="sans-serif" font-size="14" lengthAdjust="spacing" textLength="119.0889" x="558.9434" y="27.1074">gadget:Component</text><rect fill="#E2E2F0" height="32.6211" rx="2.5" ry="2.5" style="stroke:#181818;stroke-width:0.5;" width="133.0889" x="551.9434" y="790.0234"/><text fill="#000000" font-family="sans-serif" font-size="14" lengthAdjust="spacing" textLength="119.0889" x="558.9434" y="812.1309">gadget:Component</text><rect fill="#E2E2F0" height="32.6211" rx="2.5" ry="2.5" style="stroke:#181818;stroke-width:0.5;" width="160.3096" x="695.0322" y="5"/><text fill="#000000" font-family="sans-serif" font-size="14" lengthAdjust="spacing" textLength="146.3096" x="702.0322" y="27.1074">association:Component</text><rect fill="#E2E2F0" height="32.6211" rx="2.5" ry="2.5" style="stroke:#181818;stroke-width:0.5;" width="160.3096" x="695.0322" y="790.0234"/><text fill="#000000" font-family="sans-serif" font-size="14" lengthAdjust="spacing" textLength="146.3096" x="702.0322" y="812.1309">association:Component</text><rect fill="#FFFFFF" height="667.8203" style="stroke:#181818;stroke-width:1.0;" width="10" x="131.1499" y="98.2031"/><rect fill="#FFFFFF" height="605.2383" style="stroke:#181818;stroke-width:1.0;" width="10" x="287.7979" y="129.4941"/><rect fill="#FFFFFF" height="542.6563" style="stroke:#181818;stroke-width:1.0;" width="10" x="447.5698" y="160.7852"/><rect fill="#FFFFFF" height="79.582" style="stroke:#181818;stroke-width:1.0;" width="10" x="452.5698" y="379.8223"/><rect fill="#FFFFFF" height="31.291" style="stroke:#181818;stroke-width:1.0;" width="10" x="613.4878" y="244.6582"/><rect fill="#FFFFFF" height="31.291" style="stroke:#181818;stroke-width:1.0;" width="10" x="770.187" y="309.2402"/><rect fill="#FFFFFF" height="31.291" style="stroke:#181818;stroke-width:1.0;" width="10" x="770.187" y="564.2773"/><rect fill="#FFFFFF" height="31.291" style="stroke:#181818;stroke-width:1.0;" width="10" x="770.187" y="626.8594"/><path d="M3,55.6211 L94.9536,55.6211 L94.9536,64.9121 L84.9536,74.9121 L3,74.9121 L3,55.6211 " fill="#FFD700" style="stroke:#000000;stroke-width:1.5;"/><rect fill="none" height="718.4023" style="stroke:#000000;stroke-width:1.5;" width="882.3418" x="3" y="55.6211"/><text fill="#000000" font-family="sans-serif" font-size="13" font-weight="bold" lengthAdjust="spacing" textLength="46.9536" x="18" y="70.6494">drawAll</text><polygon fill="#181818" points="119.1499,94.2031,129.1499,98.2031,119.1499,102.2031,123.1499,98.2031" style="stroke:#181818;stroke-width:1.0;"/><line style="stroke:#181818;stroke-width:1.0;" x1="0" x2="125.1499" y1="98.2031" y2="98.2031"/><text fill="#000000" font-family="sans-serif" font-size="13" font-weight="bold" lengthAdjust="spacing" textLength="7.23" x="7" y="92.9404">1</text><text fill="#000000" font-family="sans-serif" font-size="13" lengthAdjust="spacing" textLength="93.9199" x="18.23" y="92.9404">drawAll(graphic)</text><polygon fill="#181818" points="275.7979,125.4941,285.7979,129.4941,275.7979,133.4941,279.7979,129.4941" style="stroke:#181818;stroke-width:1.0;"/><line style="stroke:#181818;stroke-width:1.0;" x1="141.1499" x2="281.7979" y1="129.4941" y2="129.4941"/><text fill="#000000" font-family="sans-serif" font-size="13" font-weight="bold" lengthAdjust="spacing" textLength="7.23" x="148.1499" y="124.2314">2</text><text fill="#000000" font-family="sans-serif" font-size="13" lengthAdjust="spacing" textLength="93.9199" x="159.3799" y="124.2314">drawAll(graphic)</text><polygon fill="#181818" points="435.5698,156.7852,445.5698,160.7852,435.5698,164.7852,439.5698,160.7852" style="stroke:#181818;stroke-width:1.0;"/><line style="stroke:#181818;stroke-width:1.0;" x1="297.7979" x2="441.5698" y1="160.7852" y2="160.7852"/><text fill="#000000" font-family="sans-serif" font-size="13" font-weight="bold" lengthAdjust="spacing" textLength="7.23" x="304.7979" y="155.5225">3</text><text fill="#000000" font-family="sans-serif" font-size="13" lengthAdjust="spacing" textLength="93.9199" x="316.0278" y="155.5225">drawAll(graphic)</text><path d="M383.9355,175.7852 L456.3701,175.7852 L456.3701,185.0762 L446.3701,195.0762 L383.9355,195.0762 L383.9355,175.7852 " fill="#FFD700" style="stroke:#000000;stroke-width:1.5;"/><rect fill="none" height="305.6191" style="stroke:#000000;stroke-width:1.5;" width="491.4063" x="383.9355" y="175.7852"/><text fill="#000000" font-family="sans-serif" font-size="13" font-weight="bold" lengthAdjust="spacing" textLength="27.4346" x="398.9355" y="190.8135">loop</text><text fill="#000000" font-family="sans-serif" font-size="11" font-weight="bold" lengthAdjust="spacing" textLength="147.8823" x="471.3701" y="189.6553">[component in components]</text><path d="M393.9355,202.0762 L454.1064,202.0762 L454.1064,211.3672 L444.1064,221.3672 L393.9355,221.3672 L393.9355,202.0762 " fill="#FFD700" style="stroke:#000000;stroke-width:1.5;"/><rect fill="none" height="272.3281" style="stroke:#000000;stroke-width:1.5;" width="471.4063" x="393.9355" y="202.0762"/><text fill="#000000" font-family="sans-serif" font-size="13" font-weight="bold" lengthAdjust="spacing" textLength="15.1709" x="408.9355" y="217.1045">alt</text><text fill="#000000" font-family="sans-serif" font-size="11" font-weight="bold" lengthAdjust="spacing" textLength="127.1177" x="469.1064" y="215.9463">[component is a gadget]</text><polygon fill="#181818" points="601.4878,240.6582,611.4878,244.6582,601.4878,248.6582,605.4878,244.6582" style="stroke:#181818;stroke-width:1.0;"/><line style="stroke:#181818;stroke-width:1.0;" x1="457.5698" x2="607.4878" y1="244.6582" y2="244.6582"/><text fill="#000000" font-family="sans-serif" font-size="13" font-weight="bold" lengthAdjust="spacing" textLength="7.23" x="464.5698" y="239.3955">4</text><text fill="#000000" font-family="sans-serif" font-size="13" lengthAdjust="spacing" textLength="79.4727" x="475.7998" y="239.3955">draw(graphic)</text><polygon fill="#181818" points="468.5698,271.9492,458.5698,275.9492,468.5698,279.9492,464.5698,275.9492" style="stroke:#181818;stroke-width:1.0;"/><line style="stroke:#181818;stroke-width:1.0;stroke-dasharray:2.0,2.0;" x1="462.5698" x2="617.4878" y1="275.9492" y2="275.9492"/><text fill="#000000" font-family="sans-serif" font-size="13" font-weight="bold" lengthAdjust="spacing" textLength="7.23" x="474.5698" y="270.6865">5</text><text fill="#000000" font-family="sans-serif" font-size="13" lengthAdjust="spacing" textLength="3.6118" x="485.7998" y="270.6865">&#160;</text><line style="stroke:#000000;stroke-width:1.0;stroke-dasharray:2.0,2.0;" x1="393.9355" x2="865.3418" y1="284.9492" y2="284.9492"/><polygon fill="#181818" points="758.187,305.2402,768.187,309.2402,758.187,313.2402,762.187,309.2402" style="stroke:#181818;stroke-width:1.0;"/><line style="stroke:#181818;stroke-width:1.0;" x1="457.5698" x2="764.187" y1="309.2402" y2="309.2402"/><text fill="#000000" font-family="sans-serif" font-size="13" font-weight="bold" lengthAdjust="spacing" textLength="7.23" x="464.5698" y="303.9775">6</text><text fill="#000000" font-family="sans-serif" font-size="13" lengthAdjust="spacing" textLength="129.708" x="475.7998" y="303.9775">parents = getParents()</text><polygon fill="#181818" points="468.5698,336.5313,458.5698,340.5313,468.5698,344.5313,464.5698,340.5313" style="stroke:#181818;stroke-width:1.0;"/><line style="stroke:#181818;stroke-width:1.0;stroke-dasharray:2.0,2.0;" x1="462.5698" x2="774.187" y1="340.5313" y2="340.5313"/><text fill="#000000" font-family="sans-serif" font-size="13" font-weight="bold" lengthAdjust="spacing" textLength="7.23" x="474.5698" y="335.2686">7</text><text fill="#000000" font-family="sans-serif" font-size="13" lengthAdjust="spacing" textLength="3.6118" x="485.7998" y="335.2686">&#160;</text><line style="stroke:#181818;stroke-width:1.0;" x1="457.5698" x2="504.5698" y1="366.8223" y2="366.8223"/><line style="stroke:#181818;stroke-width:1.0;" x1="504.5698" x2="504.5698" y1="366.8223" y2="379.8223"/><line style="stroke:#181818;stroke-width:1.0;" x1="463.5698" x2="504.5698" y1="379.8223" y2="379.8223"/><polygon fill="#181818" points="473.5698,375.8223,463.5698,379.8223,473.5698,383.8223,469.5698,379.8223" style="stroke:#181818;stroke-width:1.0;"/><text fill="#000000" font-family="sans-serif" font-size="13" font-weight="bold" lengthAdjust="spacing" textLength="7.23" x="469.5698" y="361.5596">8</text><text fill="#000000" font-family="sans-serif" font-size="13" lengthAdjust="spacing" textLength="120.688" x="480.7998" y="361.5596">routeMap[parents]++</text><path d="M467,397.8223 L467,424.8223 L760,424.8223 L760,407.8223 L750,397.8223 L467,397.8223 " fill="#FEFFDD" style="stroke:#181818;stroke-width:0.5;"/><path d="M750,397.8223 L750,407.8223 L760,407.8223 L750,397.8223 " fill="#FEFFDD" style="stroke:#181818;stroke-width:0.5;"/><text fill="#000000" font-family="sans-serif" font-size="13" lengthAdjust="spacing" textLength="272.416" x="473" y="416.8506">routeMap is to assist in drawing the association</text><line style="stroke:#181818;stroke-width:1.0;stroke-dasharray:2.0,2.0;" x1="462.5698" x2="504.5698" y1="458.4043" y2="458.4043"/><line style="stroke:#181818;stroke-width:1.0;stroke-dasharray:2.0,2.0;" x1="504.5698" x2="504.5698" y1="458.4043" y2="471.4043"/><line style="stroke:#181818;stroke-width:1.0;stroke-dasharray:2.0,2.0;" x1="457.5698" x2="504.5698" y1="471.4043" y2="471.4043"/><polygon fill="#181818" points="467.5698,467.4043,457.5698,471.4043,467.5698,475.4043,463.5698,471.4043" style="stroke:#181818;stroke-width:1.0;"/><text fill="#000000" font-family="sans-serif" font-size="13" font-weight="bold" lengthAdjust="spacing" textLength="7.23" x="469.5698" y="453.1416">9</text><text fill="#000000" font-family="sans-serif" font-size="13" lengthAdjust="spacing" textLength="3.6118" x="480.7998" y="453.1416">&#160;</text><path d="M383.9355,495.4043 L456.3701,495.4043 L456.3701,504.6953 L446.3701,514.6953 L383.9355,514.6953 L383.9355,495.4043 " fill="#FFD700" style="stroke:#000000;stroke-width:1.5;"/><rect fill="none" height="177.7461" style="stroke:#000000;stroke-width:1.5;" width="491.4063" x="383.9355" y="495.4043"/><text fill="#000000" font-family="sans-serif" font-size="13" font-weight="bold" lengthAdjust="spacing" textLength="27.4346" x="398.9355" y="510.4326">loop</text><text fill="#000000" font-family="sans-serif" font-size="11" font-weight="bold" lengthAdjust="spacing" textLength="147.8823" x="471.3701" y="509.2744">[component in components]</text><path d="M393.9355,521.6953 L459.1465,521.6953 L459.1465,530.9863 L449.1465,540.9863 L393.9355,540.9863 L393.9355,521.6953 " fill="#FFD700" style="stroke:#000000;stroke-width:1.5;"/><rect fill="none" height="144.4551" style="stroke:#000000;stroke-width:1.5;" width="471.4063" x="393.9355" y="521.6953"/><text fill="#000000" font-family="sans-serif" font-size="13" font-weight="bold" lengthAdjust="spacing" textLength="20.2109" x="408.9355" y="536.7236">opt</text><text fill="#000000" font-family="sans-serif" font-size="11" font-weight="bold" lengthAdjust="spacing" textLength="151.583" x="474.1465" y="535.5654">[component is a association]</text><polygon fill="#181818" points="758.187,560.2773,768.187,564.2773,758.187,568.2773,762.187,564.2773" style="stroke:#181818;stroke-width:1.0;"/><line style="stroke:#181818;stroke-width:1.0;" x1="457.5698" x2="764.187" y1="564.2773" y2="564.2773"/><text fill="#000000" font-family="sans-serif" font-size="13" font-weight="bold" lengthAdjust="spacing" textLength="14.46" x="464.5698" y="559.0146">10</text><text fill="#000000" font-family="sans-serif" font-size="13" lengthAdjust="spacing" textLength="129.708" x="483.0298" y="559.0146">parents = getParents()</text><polygon fill="#181818" points="468.5698,591.5684,458.5698,595.5684,468.5698,599.5684,464.5698,595.5684" style="stroke:#181818;stroke-width:1.0;"/><line style="stroke:#181818;stroke-width:1.0;stroke-dasharray:2.0,2.0;" x1="462.5698" x2="774.187" y1="595.5684" y2="595.5684"/><text fill="#000000" font-family="sans-serif" font-size="13" font-weight="bold" lengthAdjust="spacing" textLength="14.46" x="474.5698" y="590.3057">11</text><text fill="#000000" font-family="sans-serif" font-size="13" lengthAdjust="spacing" textLength="3.6118" x="493.0298" y="590.3057">&#160;</text><polygon fill="#181818" points="758.187,622.8594,768.187,626.8594,758.187,630.8594,762.187,626.8594" style="stroke:#181818;stroke-width:1.0;"/><line style="stroke:#181818;stroke-width:1.0;" x1="457.5698" x2="764.187" y1="626.8594" y2="626.8594"/><text fill="#000000" font-family="sans-serif" font-size="13" font-weight="bold" lengthAdjust="spacing" textLength="14.46" x="464.5698" y="621.5967">12</text><text fill="#000000" font-family="sans-serif" font-size="13" lengthAdjust="spacing" textLength="200.8589" x="483.0298" y="621.5967">draw(graphic, routeMap[parents]--)</text><polygon fill="#181818" points="468.5698,654.1504,458.5698,658.1504,468.5698,662.1504,464.5698,658.1504" style="stroke:#181818;stroke-width:1.0;"/><line style="stroke:#181818;stroke-width:1.0;stroke-dasharray:2.0,2.0;" x1="462.5698" x2="774.187" y1="658.1504" y2="658.1504"/><text fill="#000000" font-family="sans-serif" font-size="13" font-weight="bold" lengthAdjust="spacing" textLength="14.46" x="474.5698" y="652.8877">13</text><text fill="#000000" font-family="sans-serif" font-size="13" lengthAdjust="spacing" textLength="3.6118" x="493.0298" y="652.8877">&#160;</text><polygon fill="#181818" points="308.7979,699.4414,298.7979,703.4414,308.7979,707.4414,304.7979,703.4414" style="stroke:#181818;stroke-width:1.0;"/><line style="stroke:#181818;stroke-width:1.0;stroke-dasharray:2.0,2.0;" x1="302.7979" x2="451.5698" y1="703.4414" y2="703.4414"/><text fill="#000000" font-family="sans-serif" font-size="13" font-weight="bold" lengthAdjust="spacing" textLength="14.46" x="314.7979" y="698.1787">14</text><text fill="#000000" font-family="sans-serif" font-size="13" lengthAdjust="spacing" textLength="3.6118" x="333.2578" y="698.1787">&#160;</text><polygon fill="#181818" points="152.1499,730.7324,142.1499,734.7324,152.1499,738.7324,148.1499,734.7324" style="stroke:#181818;stroke-width:1.0;"/><line style="stroke:#181818;stroke-width:1.0;stroke-dasharray:2.0,2.0;" x1="146.1499" x2="291.7979" y1="734.7324" y2="734.7324"/><text fill="#000000" font-family="sans-serif" font-size="13" font-weight="bold" lengthAdjust="spacing" textLength="14.46" x="158.1499" y="729.4697">15</text><text fill="#000000" font-family="sans-serif" font-size="13" lengthAdjust="spacing" textLength="3.6118" x="176.6099" y="729.4697">&#160;</text><polygon fill="#181818" points="11,762.0234,1,766.0234,11,770.0234,7,766.0234" style="stroke:#181818;stroke-width:1.0;"/><line style="stroke:#181818;stroke-width:1.0;stroke-dasharray:2.0,2.0;" x1="5" x2="135.1499" y1="766.0234" y2="766.0234"/><text fill="#000000" font-family="sans-serif" font-size="13" font-weight="bold" lengthAdjust="spacing" textLength="14.46" x="17" y="760.7607">16</text><text fill="#000000" font-family="sans-serif" font-size="13" lengthAdjust="spacing" textLength="3.6118" x="35.46" y="760.7607">&#160;</text><!--SRC=[nLDDJyCm3BttLrZRPMFq3rG22S6HIRjmGXnC6z9CQHmbBllx9FtGMdKj327XI-F4ptv-Th5cCdNrBbo2uOWvgqza0MGIwQYsQqcwWFMfLE6oS7Xwq3f9xs6LlUoV3uwE8kTLrhzif4DRgdoRGB1H34HGNZid33yf385LTXFUk_DSZYRF0gn9cprIPSc44B-K9vec6lUKzr1Gvkpu4IWQQfx3UK2GM4Z14rGhmu1UmxSDFbztf2ypxiq9hfsPF0djnG_BelUKAsH5PbJRObJNmnq4LeVMsLn5udAzyLZ2Dh7OettjohtjTd0naQ4WhrEoPA2FkInHTIO8BIdVZ2uAg8m4BWKC6hrAIbCaI_wlTuViukvyH_V_9pbNRxYrjzC9f-dsh_GVGBfZzmb1_H__1G00]--></g></svg>