<svg xmlns="http://www.w3.org/2000/svg" xmlns:xlink="http://www.w3.org/1999/xlink" contentStyleType="text/css" height="730px" preserveAspectRatio="none" style="width:1464px;height:730px;background:#FFFFFF;" version="1.1" viewBox="0 0 1464 730" width="1464px" zoomAndPan="magnify"><defs/><g><rect fill="#FFFFFF" height="532.6563" style="stroke:#181818;stroke-width:1.0;" width="10" x="282.186" y="116.8242"/><rect fill="#FFFFFF" height="432.7832" style="stroke:#181818;stroke-width:1.0;" width="10" x="567.3721" y="185.4063"/><rect fill="#FFFFFF" height="370.2012" style="stroke:#181818;stroke-width:1.0;" width="10" x="852.5581" y="216.6973"/><rect fill="#FFFFFF" height="79.582" style="stroke:#181818;stroke-width:1.0;" width="10" x="857.5581" y="462.0254"/><rect fill="#FFFFFF" height="31.291" style="stroke:#181818;stroke-width:1.0;" width="10" x="1219.7432" y="265.2793"/><rect fill="#FFFFFF" height="31.291" style="stroke:#181818;stroke-width:1.0;" width="10" x="1353.8701" y="391.4434"/><rect fill="#FFFFFF" height="583.2383" style="stroke:#000000;stroke-width:1.5;" width="1455.6387" x="3" y="74.2422"/><rect fill="#FFFFFF" height="207.7461" style="stroke:#000000;stroke-width:1.5;" width="649.7148" x="798.9238" y="348.8613"/><line style="stroke:#181818;stroke-width:0.5;stroke-dasharray:5.0,5.0;" x1="286.6758" x2="286.6758" y1="57.2422" y2="674.4805"/><line style="stroke:#181818;stroke-width:0.5;stroke-dasharray:5.0,5.0;" x1="572.1343" x2="572.1343" y1="57.2422" y2="674.4805"/><line style="stroke:#181818;stroke-width:0.5;stroke-dasharray:5.0,5.0;" x1="856.9238" x2="856.9238" y1="57.2422" y2="674.4805"/><line style="stroke:#181818;stroke-width:0.5;stroke-dasharray:5.0,5.0;" x1="1224.3848" x2="1224.3848" y1="57.2422" y2="674.4805"/><line style="stroke:#181818;stroke-width:0.5;stroke-dasharray:5.0,5.0;" x1="1358.1016" x2="1358.1016" y1="57.2422" y2="674.4805"/><rect fill="#E2E2F0" height="32.6211" rx="2.5" ry="2.5" style="stroke:#181818;stroke-width:0.5;" width="91.0205" x="241.6758" y="23.6211"/><text fill="#000000" font-family="sans-serif" font-size="14" lengthAdjust="spacing" textLength="77.0205" x="248.6758" y="45.7285">:UMLProject</text><rect fill="#E2E2F0" height="32.6211" rx="2.5" ry="2.5" style="stroke:#181818;stroke-width:0.5;" width="91.0205" x="241.6758" y="673.4805"/><text fill="#000000" font-family="sans-serif" font-size="14" lengthAdjust="spacing" textLength="77.0205" x="248.6758" y="695.5879">:UMLProject</text><rect fill="#E2E2F0" height="51.2422" rx="2.5" ry="2.5" style="stroke:#181818;stroke-width:0.5;" width="110.4756" x="517.1343" y="5"/><text fill="#000000" font-family="sans-serif" font-size="14" lengthAdjust="spacing" textLength="96.4756" x="524.1343" y="27.1074">currentDiagram</text><text fill="#000000" font-family="sans-serif" font-size="14" lengthAdjust="spacing" textLength="91.7998" x="526.4722" y="45.7285">:*UMLDiagram</text><rect fill="#E2E2F0" height="51.2422" rx="2.5" ry="2.5" style="stroke:#181818;stroke-width:0.5;" width="110.4756" x="517.1343" y="673.4805"/><text fill="#000000" font-family="sans-serif" font-size="14" lengthAdjust="spacing" textLength="96.4756" x="524.1343" y="695.5879">currentDiagram</text><text fill="#000000" font-family="sans-serif" font-size="14" lengthAdjust="spacing" textLength="91.7998" x="526.4722" y="714.209">:*UMLDiagram</text><rect fill="#E2E2F0" height="32.6211" rx="2.5" ry="2.5" style="stroke:#181818;stroke-width:0.5;" width="97.2686" x="808.9238" y="23.6211"/><text fill="#000000" font-family="sans-serif" font-size="14" lengthAdjust="spacing" textLength="83.2686" x="815.9238" y="45.7285">:Components</text><rect fill="#E2E2F0" height="32.6211" rx="2.5" ry="2.5" style="stroke:#181818;stroke-width:0.5;" width="97.2686" x="808.9238" y="673.4805"/><text fill="#000000" font-family="sans-serif" font-size="14" lengthAdjust="spacing" textLength="83.2686" x="815.9238" y="695.5879">:Components</text><rect fill="#E2E2F0" height="32.6211" rx="2.5" ry="2.5" style="stroke:#181818;stroke-width:0.5;" width="88.7168" x="1180.3848" y="23.6211"/><text fill="#000000" font-family="sans-serif" font-size="14" lengthAdjust="spacing" textLength="74.7168" x="1187.3848" y="45.7285">:Submodule</text><rect fill="#E2E2F0" height="32.6211" rx="2.5" ry="2.5" style="stroke:#181818;stroke-width:0.5;" width="88.7168" x="1180.3848" y="673.4805"/><text fill="#000000" font-family="sans-serif" font-size="14" lengthAdjust="spacing" textLength="74.7168" x="1187.3848" y="695.5879">:Submodule</text><rect fill="#E2E2F0" height="32.6211" rx="2.5" ry="2.5" style="stroke:#181818;stroke-width:0.5;" width="159.5371" x="1279.1016" y="23.6211"/><text fill="#000000" font-family="sans-serif" font-size="14" lengthAdjust="spacing" textLength="145.5371" x="1286.1016" y="45.7285">component:Component</text><rect fill="#E2E2F0" height="32.6211" rx="2.5" ry="2.5" style="stroke:#181818;stroke-width:0.5;" width="159.5371" x="1279.1016" y="673.4805"/><text fill="#000000" font-family="sans-serif" font-size="14" lengthAdjust="spacing" textLength="145.5371" x="1286.1016" y="695.5879">component:Component</text><rect fill="#FFFFFF" height="532.6563" style="stroke:#181818;stroke-width:1.0;" width="10" x="282.186" y="116.8242"/><rect fill="#FFFFFF" height="432.7832" style="stroke:#181818;stroke-width:1.0;" width="10" x="567.3721" y="185.4063"/><rect fill="#FFFFFF" height="370.2012" style="stroke:#181818;stroke-width:1.0;" width="10" x="852.5581" y="216.6973"/><rect fill="#FFFFFF" height="79.582" style="stroke:#181818;stroke-width:1.0;" width="10" x="857.5581" y="462.0254"/><rect fill="#FFFFFF" height="31.291" style="stroke:#181818;stroke-width:1.0;" width="10" x="1219.7432" y="265.2793"/><rect fill="#FFFFFF" height="31.291" style="stroke:#181818;stroke-width:1.0;" width="10" x="1353.8701" y="391.4434"/><path d="M3,74.2422 L159.2173,74.2422 L159.2173,83.5332 L149.2173,93.5332 L3,93.5332 L3,74.2422 " fill="#FFD700" style="stroke:#000000;stroke-width:1.5;"/><rect fill="none" height="583.2383" style="stroke:#000000;stroke-width:1.5;" width="1455.6387" x="3" y="74.2422"/><text fill="#000000" font-family="sans-serif" font-size="13" font-weight="bold" lengthAdjust="spacing" textLength="111.2173" x="18" y="89.2705">importSubmodule</text><polygon fill="#181818" points="270.186,112.8242,280.186,116.8242,270.186,120.8242,274.186,116.8242" style="stroke:#181818;stroke-width:1.0;"/><line style="stroke:#181818;stroke-width:1.0;" x1="0" x2="276.186" y1="116.8242" y2="116.8242"/><text fill="#000000" font-family="sans-serif" font-size="13" font-weight="bold" lengthAdjust="spacing" textLength="7.23" x="7" y="111.5615">1</text><text fill="#000000" font-family="sans-serif" font-size="13" lengthAdjust="spacing" textLength="244.9561" x="18.23" y="111.5615">ImportSubmodule(submoduleName, point)</text><path d="M182,129.8242 L182,156.8242 L276,156.8242 L276,139.8242 L266,129.8242 L182,129.8242 " fill="#FF0000" style="stroke:#181818;stroke-width:0.5;"/><path d="M266,129.8242 L266,139.8242 L276,139.8242 L266,129.8242 " fill="#FF0000" style="stroke:#181818;stroke-width:0.5;"/><text fill="#000000" font-family="sans-serif" font-size="13" lengthAdjust="spacing" textLength="73.6963" x="188" y="148.8525">by Controller</text><polygon fill="#181818" points="555.3721,181.4063,565.3721,185.4063,555.3721,189.4063,559.3721,185.4063" style="stroke:#181818;stroke-width:1.0;"/><line style="stroke:#181818;stroke-width:1.0;" x1="292.186" x2="561.3721" y1="185.4063" y2="185.4063"/><text fill="#000000" font-family="sans-serif" font-size="13" font-weight="bold" lengthAdjust="spacing" textLength="7.23" x="299.186" y="180.1436">2</text><text fill="#000000" font-family="sans-serif" font-size="13" lengthAdjust="spacing" textLength="244.9561" x="310.416" y="180.1436">ImportSubmodule(submoduleName, point)</text><polygon fill="#181818" points="840.5581,212.6973,850.5581,216.6973,840.5581,220.6973,844.5581,216.6973" style="stroke:#181818;stroke-width:1.0;"/><line style="stroke:#181818;stroke-width:1.0;" x1="577.3721" x2="846.5581" y1="216.6973" y2="216.6973"/><text fill="#000000" font-family="sans-serif" font-size="13" font-weight="bold" lengthAdjust="spacing" textLength="7.23" x="584.3721" y="211.4346">3</text><text fill="#000000" font-family="sans-serif" font-size="13" lengthAdjust="spacing" textLength="244.9561" x="595.6021" y="211.4346">ImportSubmodule(submoduleName, point)</text><polygon fill="#181818" points="1207.7432,261.2793,1217.7432,265.2793,1207.7432,269.2793,1211.7432,265.2793" style="stroke:#181818;stroke-width:1.0;"/><line style="stroke:#181818;stroke-width:1.0;" x1="862.5581" x2="1213.7432" y1="265.2793" y2="265.2793"/><text fill="#000000" font-family="sans-serif" font-size="13" font-weight="bold" lengthAdjust="spacing" textLength="7.23" x="869.5581" y="251.3711">4</text><text fill="#000000" font-family="sans-serif" font-size="13" lengthAdjust="spacing" textLength="44.8018" x="880.7881" y="242.7256">&#171;static&#187;</text><text fill="#000000" font-family="sans-serif" font-size="13" lengthAdjust="spacing" textLength="326.9551" x="880.7881" y="260.0166">importCompnents = ImportSubmodule(submoduleName)</text><polygon fill="#181818" points="873.5581,292.5703,863.5581,296.5703,873.5581,300.5703,869.5581,296.5703" style="stroke:#181818;stroke-width:1.0;"/><line style="stroke:#181818;stroke-width:1.0;stroke-dasharray:2.0,2.0;" x1="867.5581" x2="1223.7432" y1="296.5703" y2="296.5703"/><text fill="#000000" font-family="sans-serif" font-size="13" font-weight="bold" lengthAdjust="spacing" textLength="7.23" x="879.5581" y="291.3076">5</text><text fill="#000000" font-family="sans-serif" font-size="13" lengthAdjust="spacing" textLength="3.6118" x="890.7881" y="291.3076">&#160;</text><path d="M867,309.5703 L867,336.5703 L1357,336.5703 L1357,319.5703 L1347,309.5703 L867,309.5703 " fill="#FF0000" style="stroke:#181818;stroke-width:0.5;"/><path d="M1347,309.5703 L1347,319.5703 L1357,319.5703 L1347,309.5703 " fill="#FF0000" style="stroke:#181818;stroke-width:0.5;"/><text fill="#000000" font-family="sans-serif" font-size="13" lengthAdjust="spacing" textLength="469.6821" x="873" y="328.5986">y by Expert (components class wants to know the components in that submodule)</text><path d="M798.9238,348.8613 L871.3584,348.8613 L871.3584,358.1523 L861.3584,368.1523 L798.9238,368.1523 L798.9238,348.8613 " fill="#FFD700" style="stroke:#000000;stroke-width:1.5;"/><rect fill="none" height="207.7461" style="stroke:#000000;stroke-width:1.5;" width="649.7148" x="798.9238" y="348.8613"/><text fill="#000000" font-family="sans-serif" font-size="13" font-weight="bold" lengthAdjust="spacing" textLength="27.4346" x="813.9238" y="363.8896">loop</text><text fill="#000000" font-family="sans-serif" font-size="11" font-weight="bold" lengthAdjust="spacing" textLength="183.9277" x="886.3584" y="362.7314">[component in importComponents]</text><polygon fill="#181818" points="1341.8701,387.4434,1351.8701,391.4434,1341.8701,395.4434,1345.8701,391.4434" style="stroke:#181818;stroke-width:1.0;"/><line style="stroke:#181818;stroke-width:1.0;" x1="862.5581" x2="1347.8701" y1="391.4434" y2="391.4434"/><text fill="#000000" font-family="sans-serif" font-size="13" font-weight="bold" lengthAdjust="spacing" textLength="7.23" x="869.5581" y="386.1807">6</text><text fill="#000000" font-family="sans-serif" font-size="13" lengthAdjust="spacing" textLength="98.9854" x="880.7881" y="386.1807">moveDelta(point)</text><polygon fill="#181818" points="873.5581,418.7344,863.5581,422.7344,873.5581,426.7344,869.5581,422.7344" style="stroke:#181818;stroke-width:1.0;"/><line style="stroke:#181818;stroke-width:1.0;stroke-dasharray:2.0,2.0;" x1="867.5581" x2="1357.8701" y1="422.7344" y2="422.7344"/><text fill="#000000" font-family="sans-serif" font-size="13" font-weight="bold" lengthAdjust="spacing" textLength="7.23" x="879.5581" y="417.4717">7</text><text fill="#000000" font-family="sans-serif" font-size="13" lengthAdjust="spacing" textLength="3.6118" x="890.7881" y="417.4717">&#160;</text><line style="stroke:#181818;stroke-width:1.0;" x1="862.5581" x2="909.5581" y1="449.0254" y2="449.0254"/><line style="stroke:#181818;stroke-width:1.0;" x1="909.5581" x2="909.5581" y1="449.0254" y2="462.0254"/><line style="stroke:#181818;stroke-width:1.0;" x1="868.5581" x2="909.5581" y1="462.0254" y2="462.0254"/><polygon fill="#181818" points="878.5581,458.0254,868.5581,462.0254,878.5581,466.0254,874.5581,462.0254" style="stroke:#181818;stroke-width:1.0;"/><text fill="#000000" font-family="sans-serif" font-size="13" font-weight="bold" lengthAdjust="spacing" textLength="7.23" x="874.5581" y="443.7627">8</text><text fill="#000000" font-family="sans-serif" font-size="13" lengthAdjust="spacing" textLength="280.0396" x="885.7881" y="443.7627">components = append(components, component)</text><path d="M872,480.0254 L872,507.0254 L1051,507.0254 L1051,490.0254 L1041,480.0254 L872,480.0254 " fill="#FEFFDD" style="stroke:#181818;stroke-width:0.5;"/><path d="M1041,480.0254 L1041,490.0254 L1051,490.0254 L1041,480.0254 " fill="#FEFFDD" style="stroke:#181818;stroke-width:0.5;"/><text fill="#000000" font-family="sans-serif" font-size="13" lengthAdjust="spacing" textLength="158.2725" x="878" y="499.0537">append is a built-in function</text><line style="stroke:#181818;stroke-width:1.0;stroke-dasharray:2.0,2.0;" x1="867.5581" x2="909.5581" y1="540.6074" y2="540.6074"/><line style="stroke:#181818;stroke-width:1.0;stroke-dasharray:2.0,2.0;" x1="909.5581" x2="909.5581" y1="540.6074" y2="553.6074"/><line style="stroke:#181818;stroke-width:1.0;stroke-dasharray:2.0,2.0;" x1="862.5581" x2="909.5581" y1="553.6074" y2="553.6074"/><polygon fill="#181818" points="872.5581,549.6074,862.5581,553.6074,872.5581,557.6074,868.5581,553.6074" style="stroke:#181818;stroke-width:1.0;"/><text fill="#000000" font-family="sans-serif" font-size="13" font-weight="bold" lengthAdjust="spacing" textLength="7.23" x="874.5581" y="535.3447">9</text><text fill="#000000" font-family="sans-serif" font-size="13" lengthAdjust="spacing" textLength="3.6118" x="885.7881" y="535.3447">&#160;</text><polygon fill="#181818" points="588.3721,582.8984,578.3721,586.8984,588.3721,590.8984,584.3721,586.8984" style="stroke:#181818;stroke-width:1.0;"/><line style="stroke:#181818;stroke-width:1.0;stroke-dasharray:2.0,2.0;" x1="582.3721" x2="856.5581" y1="586.8984" y2="586.8984"/><text fill="#000000" font-family="sans-serif" font-size="13" font-weight="bold" lengthAdjust="spacing" textLength="14.46" x="594.3721" y="581.6357">10</text><text fill="#000000" font-family="sans-serif" font-size="13" lengthAdjust="spacing" textLength="3.6118" x="612.832" y="581.6357">&#160;</text><polygon fill="#181818" points="303.186,614.1895,293.186,618.1895,303.186,622.1895,299.186,618.1895" style="stroke:#181818;stroke-width:1.0;"/><line style="stroke:#181818;stroke-width:1.0;stroke-dasharray:2.0,2.0;" x1="297.186" x2="571.3721" y1="618.1895" y2="618.1895"/><text fill="#000000" font-family="sans-serif" font-size="13" font-weight="bold" lengthAdjust="spacing" textLength="14.46" x="309.186" y="612.9268">11</text><text fill="#000000" font-family="sans-serif" font-size="13" lengthAdjust="spacing" textLength="3.6118" x="327.646" y="612.9268">&#160;</text><polygon fill="#181818" points="11,645.4805,1,649.4805,11,653.4805,7,649.4805" style="stroke:#181818;stroke-width:1.0;"/><line style="stroke:#181818;stroke-width:1.0;stroke-dasharray:2.0,2.0;" x1="5" x2="286.186" y1="649.4805" y2="649.4805"/><text fill="#000000" font-family="sans-serif" font-size="13" font-weight="bold" lengthAdjust="spacing" textLength="14.46" x="17" y="644.2178">12</text><text fill="#000000" font-family="sans-serif" font-size="13" lengthAdjust="spacing" textLength="3.6118" x="35.46" y="644.2178">&#160;</text><!--SRC=[dLFBRi8m4Bpp5Ikuq0f-808kq4EbjgfKzSR5IPRWrjcDd3MKlw_pQ8XLY4fzMjipi-EnhPmmkJn6ErA-L8deWn84fb5csHMJZ4qAa-DU-qMT5spbpSKvfyxW2FoOhs0SlJy_lLh-m4J64Jo6g6dvKxse76TGi2Qvgxd4NjJWJe1teGfCBAOHn2TOCubbOxn1Q4U8h0mapbeasMYLMPLlARhtY7PsawEknQ1YS-WrUrdoeF9_BVe2ZM97zuAmM9IYH2UhrPQQu2jy3OVbSB-maKLnbeAbEdYhitsRVDz9dVofYlxXgq0hC4swNKYCAaiuggeMXa_Y8yWUeGVHv5UKGESeT6EOmqVLKIlc-Q2DMa2zd5h7F-_u-78-u0QDgEc5wA-aSkLMWdlk7NG9gYYGqbu-i_F-xuu3eKUj5EWI5CHE6vdxD7QE_7za-ejvpnwwzTwqBUjsuIlw1W00]--></g></svg>