<svg xmlns="http://www.w3.org/2000/svg" xmlns:xlink="http://www.w3.org/1999/xlink" contentStyleType="text/css" height="584px" preserveAspectRatio="none" style="width:1194px;height:584px;background:#FFFFFF;" version="1.1" viewBox="0 0 1194 584" width="1194.4px" zoomAndPan="magnify"><defs/><g><rect fill="#FFFFFF" height="426.125" style="stroke:#181818;stroke-width:0.8000000000000002;" width="8" x="248.9047" y="93.4594"/><rect fill="#FFFFFF" height="346.2266" style="stroke:#181818;stroke-width:0.8000000000000002;" width="8" x="477.0535" y="148.325"/><rect fill="#FFFFFF" height="296.1609" style="stroke:#181818;stroke-width:0.8000000000000002;" width="8" x="705.2023" y="173.3578"/><rect fill="#FFFFFF" height="63.6656" style="stroke:#181818;stroke-width:0.8000000000000002;" width="8" x="709.2023" y="369.6203"/><rect fill="#FFFFFF" height="25.0328" style="stroke:#181818;stroke-width:0.8000000000000002;" width="8" x="998.9504" y="212.2234"/><rect fill="#FFFFFF" height="25.0328" style="stroke:#181818;stroke-width:0.8000000000000002;" width="8" x="1106.252" y="313.1547"/><rect fill="#FFFFFF" height="466.5906" style="stroke:#000000;stroke-width:1.2000000000000002;" width="1182.0668" x="8" y="59.3938"/><rect fill="#FFFFFF" height="166.1969" style="stroke:#000000;stroke-width:1.2000000000000002;" width="519.7719" x="662.2949" y="279.0891"/><line style="stroke:#181818;stroke-width:0.4000000000000001;stroke-dasharray:5.0,5.0;" x1="28" x2="28" y1="45.7938" y2="539.5844"/><line style="stroke:#181818;stroke-width:0.4000000000000001;stroke-dasharray:5.0,5.0;" x1="252.4965" x2="252.4965" y1="45.7938" y2="539.5844"/><line style="stroke:#181818;stroke-width:0.4000000000000001;stroke-dasharray:5.0,5.0;" x1="480.8633" x2="480.8633" y1="45.7938" y2="539.5844"/><line style="stroke:#181818;stroke-width:0.4000000000000001;stroke-dasharray:5.0,5.0;" x1="708.6949" x2="708.6949" y1="45.7938" y2="539.5844"/><line style="stroke:#181818;stroke-width:0.4000000000000001;stroke-dasharray:5.0,5.0;" x1="1002.6637" x2="1002.6637" y1="45.7938" y2="539.5844"/><line style="stroke:#181818;stroke-width:0.4000000000000001;stroke-dasharray:5.0,5.0;" x1="1109.6371" x2="1109.6371" y1="45.7938" y2="539.5844"/><rect fill="#E2E2F0" height="26.0969" rx="2" ry="2" style="stroke:#181818;stroke-width:0.4000000000000001;" width="25.5117" x="16" y="18.8969"/><text fill="#000000" font-family="sans-serif" font-size="11.2" lengthAdjust="spacing" textLength="14.3117" x="21.6" y="36.5828">:UI</text><rect fill="#E2E2F0" height="26.0969" rx="2" ry="2" style="stroke:#181818;stroke-width:0.4000000000000001;" width="25.5117" x="16" y="538.7844"/><text fill="#000000" font-family="sans-serif" font-size="11.2" lengthAdjust="spacing" textLength="14.3117" x="21.6" y="556.4703">:UI</text><rect fill="#E2E2F0" height="26.0969" rx="2" ry="2" style="stroke:#181818;stroke-width:0.4000000000000001;" width="72.8164" x="216.4965" y="18.8969"/><text fill="#000000" font-family="sans-serif" font-size="11.2" lengthAdjust="spacing" textLength="61.6164" x="222.0965" y="36.5828">:UMLProject</text><rect fill="#E2E2F0" height="26.0969" rx="2" ry="2" style="stroke:#181818;stroke-width:0.4000000000000001;" width="72.8164" x="216.4965" y="538.7844"/><text fill="#000000" font-family="sans-serif" font-size="11.2" lengthAdjust="spacing" textLength="61.6164" x="222.0965" y="556.4703">:UMLProject</text><rect fill="#E2E2F0" height="40.9938" rx="2" ry="2" style="stroke:#181818;stroke-width:0.4000000000000001;" width="88.3805" x="436.8633" y="4"/><text fill="#000000" font-family="sans-serif" font-size="11.2" lengthAdjust="spacing" textLength="77.1805" x="442.4633" y="21.6859">currentDiagram</text><text fill="#000000" font-family="sans-serif" font-size="11.2" lengthAdjust="spacing" textLength="73.4398" x="444.3336" y="36.5828">:*UMLDiagram</text><rect fill="#E2E2F0" height="40.9938" rx="2" ry="2" style="stroke:#181818;stroke-width:0.4000000000000001;" width="88.3805" x="436.8633" y="538.7844"/><text fill="#000000" font-family="sans-serif" font-size="11.2" lengthAdjust="spacing" textLength="77.1805" x="442.4633" y="556.4703">currentDiagram</text><text fill="#000000" font-family="sans-serif" font-size="11.2" lengthAdjust="spacing" textLength="73.4398" x="444.3336" y="571.3672">:*UMLDiagram</text><rect fill="#E2E2F0" height="26.0969" rx="2" ry="2" style="stroke:#181818;stroke-width:0.4000000000000001;" width="77.8148" x="670.2949" y="18.8969"/><text fill="#000000" font-family="sans-serif" font-size="11.2" lengthAdjust="spacing" textLength="66.6148" x="675.8949" y="36.5828">:Components</text><rect fill="#E2E2F0" height="26.0969" rx="2" ry="2" style="stroke:#181818;stroke-width:0.4000000000000001;" width="77.8148" x="670.2949" y="538.7844"/><text fill="#000000" font-family="sans-serif" font-size="11.2" lengthAdjust="spacing" textLength="66.6148" x="675.8949" y="556.4703">:Components</text><rect fill="#E2E2F0" height="26.0969" rx="2" ry="2" style="stroke:#181818;stroke-width:0.4000000000000001;" width="70.9734" x="967.4637" y="18.8969"/><text fill="#000000" font-family="sans-serif" font-size="11.2" lengthAdjust="spacing" textLength="59.7734" x="973.0637" y="36.5828">:Submodule</text><rect fill="#E2E2F0" height="26.0969" rx="2" ry="2" style="stroke:#181818;stroke-width:0.4000000000000001;" width="70.9734" x="967.4637" y="538.7844"/><text fill="#000000" font-family="sans-serif" font-size="11.2" lengthAdjust="spacing" textLength="59.7734" x="973.0637" y="556.4703">:Submodule</text><rect fill="#E2E2F0" height="26.0969" rx="2" ry="2" style="stroke:#181818;stroke-width:0.4000000000000001;" width="127.6297" x="1046.4371" y="18.8969"/><text fill="#000000" font-family="sans-serif" font-size="11.2" lengthAdjust="spacing" textLength="116.4297" x="1052.0371" y="36.5828">component:Component</text><rect fill="#E2E2F0" height="26.0969" rx="2" ry="2" style="stroke:#181818;stroke-width:0.4000000000000001;" width="127.6297" x="1046.4371" y="538.7844"/><text fill="#000000" font-family="sans-serif" font-size="11.2" lengthAdjust="spacing" textLength="116.4297" x="1052.0371" y="556.4703">component:Component</text><rect fill="#FFFFFF" height="426.125" style="stroke:#181818;stroke-width:0.8000000000000002;" width="8" x="248.9047" y="93.4594"/><rect fill="#FFFFFF" height="346.2266" style="stroke:#181818;stroke-width:0.8000000000000002;" width="8" x="477.0535" y="148.325"/><rect fill="#FFFFFF" height="296.1609" style="stroke:#181818;stroke-width:0.8000000000000002;" width="8" x="705.2023" y="173.3578"/><rect fill="#FFFFFF" height="63.6656" style="stroke:#181818;stroke-width:0.8000000000000002;" width="8" x="709.2023" y="369.6203"/><rect fill="#FFFFFF" height="25.0328" style="stroke:#181818;stroke-width:0.8000000000000002;" width="8" x="998.9504" y="212.2234"/><rect fill="#FFFFFF" height="25.0328" style="stroke:#181818;stroke-width:0.8000000000000002;" width="8" x="1106.252" y="313.1547"/><path d="M8,59.3938 L132.9738,59.3938 L132.9738,66.8266 L124.9738,74.8266 L8,74.8266 L8,59.3938 " fill="#FFD700" style="stroke:#000000;stroke-width:1.2000000000000002;"/><rect fill="none" height="466.5906" style="stroke:#000000;stroke-width:1.2000000000000002;" width="1182.0668" x="8" y="59.3938"/><text fill="#000000" font-family="sans-serif" font-size="10.4" font-weight="bold" lengthAdjust="spacing" textLength="88.9738" x="20" y="71.4164">importSubmodule</text><polygon fill="#181818" points="239.3047,90.2594,247.3047,93.4594,239.3047,96.6594,242.5047,93.4594" style="stroke:#181818;stroke-width:0.8000000000000002;"/><line style="stroke:#181818;stroke-width:0.8000000000000002;" x1="28.7559" x2="244.1047" y1="93.4594" y2="93.4594"/><text fill="#000000" font-family="sans-serif" font-size="10.4" font-weight="bold" lengthAdjust="spacing" textLength="5.784" x="34.3559" y="89.2492">1</text><text fill="#000000" font-family="sans-serif" font-size="10.4" lengthAdjust="spacing" textLength="195.9648" x="43.3398" y="89.2492">ImportSubmodule(submoduleName, point)</text><path d="M32,103.8594 L32,125.4594 L107.2,125.4594 L107.2,111.8594 L99.2,103.8594 L32,103.8594 " fill="#FF0000" style="stroke:#181818;stroke-width:0.4000000000000001;"/><path d="M99.2,103.8594 L99.2,111.8594 L107.2,111.8594 L99.2,103.8594 " fill="#FF0000" style="stroke:#181818;stroke-width:0.4000000000000001;"/><text fill="#000000" font-family="sans-serif" font-size="10.4" lengthAdjust="spacing" textLength="58.957" x="36.8" y="119.082">by Controller</text><polygon fill="#181818" points="467.4535,145.125,475.4535,148.325,467.4535,151.525,470.6535,148.325" style="stroke:#181818;stroke-width:0.8000000000000002;"/><line style="stroke:#181818;stroke-width:0.8000000000000002;" x1="256.9047" x2="472.2535" y1="148.325" y2="148.325"/><text fill="#000000" font-family="sans-serif" font-size="10.4" font-weight="bold" lengthAdjust="spacing" textLength="5.784" x="262.5047" y="144.1148">2</text><text fill="#000000" font-family="sans-serif" font-size="10.4" lengthAdjust="spacing" textLength="195.9648" x="271.4887" y="144.1148">ImportSubmodule(submoduleName, point)</text><polygon fill="#181818" points="695.6023,170.1578,703.6023,173.3578,695.6023,176.5578,698.8023,173.3578" style="stroke:#181818;stroke-width:0.8000000000000002;"/><line style="stroke:#181818;stroke-width:0.8000000000000002;" x1="485.0535" x2="700.4023" y1="173.3578" y2="173.3578"/><text fill="#000000" font-family="sans-serif" font-size="10.4" font-weight="bold" lengthAdjust="spacing" textLength="5.784" x="490.6535" y="169.1477">3</text><text fill="#000000" font-family="sans-serif" font-size="10.4" lengthAdjust="spacing" textLength="195.9648" x="499.6375" y="169.1477">ImportSubmodule(submoduleName, point)</text><polygon fill="#181818" points="989.3504,209.0234,997.3504,212.2234,989.3504,215.4234,992.5504,212.2234" style="stroke:#181818;stroke-width:0.8000000000000002;"/><line style="stroke:#181818;stroke-width:0.8000000000000002;" x1="713.2023" x2="994.1504" y1="212.2234" y2="212.2234"/><text fill="#000000" font-family="sans-serif" font-size="10.4" font-weight="bold" lengthAdjust="spacing" textLength="5.784" x="718.8023" y="201.0969">4</text><text fill="#000000" font-family="sans-serif" font-size="10.4" lengthAdjust="spacing" textLength="35.8414" x="727.7863" y="194.1805">&#171;static&#187;</text><text fill="#000000" font-family="sans-serif" font-size="10.4" lengthAdjust="spacing" textLength="261.5641" x="727.7863" y="208.0133">importCompnents = ImportSubmodule(submoduleName)</text><polygon fill="#181818" points="722.0023,234.0563,714.0023,237.2563,722.0023,240.4563,718.8023,237.2563" style="stroke:#181818;stroke-width:0.8000000000000002;"/><line style="stroke:#181818;stroke-width:0.8000000000000002;stroke-dasharray:2.0,2.0;" x1="717.2023" x2="1002.1504" y1="237.2563" y2="237.2563"/><text fill="#000000" font-family="sans-serif" font-size="10.4" font-weight="bold" lengthAdjust="spacing" textLength="5.784" x="726.8023" y="233.0461">5</text><text fill="#000000" font-family="sans-serif" font-size="10.4" lengthAdjust="spacing" textLength="2.8895" x="735.7863" y="233.0461">&#160;</text><path d="M716.8,247.6563 L716.8,269.2563 L1108.8,269.2563 L1108.8,255.6563 L1100.8,247.6563 L716.8,247.6563 " fill="#FF0000" style="stroke:#181818;stroke-width:0.4000000000000001;"/><path d="M1100.8,247.6563 L1100.8,255.6563 L1108.8,255.6563 L1100.8,247.6563 " fill="#FF0000" style="stroke:#181818;stroke-width:0.4000000000000001;"/><text fill="#000000" font-family="sans-serif" font-size="10.4" lengthAdjust="spacing" textLength="375.7457" x="721.6" y="262.8789">y by Expert (components class wants to know the components in that submodule)</text><path d="M662.2949,279.0891 L720.2426,279.0891 L720.2426,286.5219 L712.2426,294.5219 L662.2949,294.5219 L662.2949,279.0891 " fill="#FFD700" style="stroke:#000000;stroke-width:1.2000000000000002;"/><rect fill="none" height="166.1969" style="stroke:#000000;stroke-width:1.2000000000000002;" width="519.7719" x="662.2949" y="279.0891"/><text fill="#000000" font-family="sans-serif" font-size="10.4" font-weight="bold" lengthAdjust="spacing" textLength="21.9477" x="674.2949" y="291.1117">loop</text><text fill="#000000" font-family="sans-serif" font-size="8.8" font-weight="bold" lengthAdjust="spacing" textLength="147.1422" x="732.2426" y="290.1852">[component in importComponents]</text><polygon fill="#181818" points="1096.652,309.9547,1104.652,313.1547,1096.652,316.3547,1099.852,313.1547" style="stroke:#181818;stroke-width:0.8000000000000002;"/><line style="stroke:#181818;stroke-width:0.8000000000000002;" x1="713.2023" x2="1101.452" y1="313.1547" y2="313.1547"/><text fill="#000000" font-family="sans-serif" font-size="10.4" font-weight="bold" lengthAdjust="spacing" textLength="5.784" x="718.8023" y="308.9445">6</text><text fill="#000000" font-family="sans-serif" font-size="10.4" lengthAdjust="spacing" textLength="79.1883" x="727.7863" y="308.9445">moveDelta(point)</text><polygon fill="#181818" points="722.0023,334.9875,714.0023,338.1875,722.0023,341.3875,718.8023,338.1875" style="stroke:#181818;stroke-width:0.8000000000000002;"/><line style="stroke:#181818;stroke-width:0.8000000000000002;stroke-dasharray:2.0,2.0;" x1="717.2023" x2="1109.452" y1="338.1875" y2="338.1875"/><text fill="#000000" font-family="sans-serif" font-size="10.4" font-weight="bold" lengthAdjust="spacing" textLength="5.784" x="726.8023" y="333.9773">7</text><text fill="#000000" font-family="sans-serif" font-size="10.4" lengthAdjust="spacing" textLength="2.8895" x="735.7863" y="333.9773">&#160;</text><line style="stroke:#181818;stroke-width:0.8000000000000002;" x1="713.2023" x2="750.8023" y1="359.2203" y2="359.2203"/><line style="stroke:#181818;stroke-width:0.8000000000000002;" x1="750.8023" x2="750.8023" y1="359.2203" y2="369.6203"/><line style="stroke:#181818;stroke-width:0.8000000000000002;" x1="718.0023" x2="750.8023" y1="369.6203" y2="369.6203"/><polygon fill="#181818" points="726.0023,366.4203,718.0023,369.6203,726.0023,372.8203,722.8023,369.6203" style="stroke:#181818;stroke-width:0.8000000000000002;"/><text fill="#000000" font-family="sans-serif" font-size="10.4" font-weight="bold" lengthAdjust="spacing" textLength="5.784" x="722.8023" y="355.0102">8</text><text fill="#000000" font-family="sans-serif" font-size="10.4" lengthAdjust="spacing" textLength="224.0316" x="731.7863" y="355.0102">components = append(components, component)</text><path d="M720.8,384.0203 L720.8,405.6203 L864,405.6203 L864,392.0203 L856,384.0203 L720.8,384.0203 " fill="#FEFFDD" style="stroke:#181818;stroke-width:0.4000000000000001;"/><path d="M856,384.0203 L856,392.0203 L864,392.0203 L856,384.0203 " fill="#FEFFDD" style="stroke:#181818;stroke-width:0.4000000000000001;"/><text fill="#000000" font-family="sans-serif" font-size="10.4" lengthAdjust="spacing" textLength="126.618" x="725.6" y="399.243">append is a built-in function</text><line style="stroke:#181818;stroke-width:0.8000000000000002;stroke-dasharray:2.0,2.0;" x1="717.2023" x2="750.8023" y1="432.4859" y2="432.4859"/><line style="stroke:#181818;stroke-width:0.8000000000000002;stroke-dasharray:2.0,2.0;" x1="750.8023" x2="750.8023" y1="432.4859" y2="442.8859"/><line style="stroke:#181818;stroke-width:0.8000000000000002;stroke-dasharray:2.0,2.0;" x1="713.2023" x2="750.8023" y1="442.8859" y2="442.8859"/><polygon fill="#181818" points="721.2023,439.6859,713.2023,442.8859,721.2023,446.0859,718.0023,442.8859" style="stroke:#181818;stroke-width:0.8000000000000002;"/><text fill="#000000" font-family="sans-serif" font-size="10.4" font-weight="bold" lengthAdjust="spacing" textLength="5.784" x="722.8023" y="428.2758">9</text><text fill="#000000" font-family="sans-serif" font-size="10.4" lengthAdjust="spacing" textLength="2.8895" x="731.7863" y="428.2758">&#160;</text><polygon fill="#181818" points="493.8535,466.3188,485.8535,469.5188,493.8535,472.7188,490.6535,469.5188" style="stroke:#181818;stroke-width:0.8000000000000002;"/><line style="stroke:#181818;stroke-width:0.8000000000000002;stroke-dasharray:2.0,2.0;" x1="489.0535" x2="708.4023" y1="469.5188" y2="469.5188"/><text fill="#000000" font-family="sans-serif" font-size="10.4" font-weight="bold" lengthAdjust="spacing" textLength="11.568" x="498.6535" y="465.3086">10</text><text fill="#000000" font-family="sans-serif" font-size="10.4" lengthAdjust="spacing" textLength="2.8895" x="513.4215" y="465.3086">&#160;</text><polygon fill="#181818" points="265.7047,491.3516,257.7047,494.5516,265.7047,497.7516,262.5047,494.5516" style="stroke:#181818;stroke-width:0.8000000000000002;"/><line style="stroke:#181818;stroke-width:0.8000000000000002;stroke-dasharray:2.0,2.0;" x1="260.9047" x2="480.2535" y1="494.5516" y2="494.5516"/><text fill="#000000" font-family="sans-serif" font-size="10.4" font-weight="bold" lengthAdjust="spacing" textLength="11.568" x="270.5047" y="490.3414">11</text><text fill="#000000" font-family="sans-serif" font-size="10.4" lengthAdjust="spacing" textLength="2.8895" x="285.2727" y="490.3414">&#160;</text><polygon fill="#181818" points="37.5559,516.3844,29.5559,519.5844,37.5559,522.7844,34.3559,519.5844" style="stroke:#181818;stroke-width:0.8000000000000002;"/><line style="stroke:#181818;stroke-width:0.8000000000000002;stroke-dasharray:2.0,2.0;" x1="32.7559" x2="252.1047" y1="519.5844" y2="519.5844"/><text fill="#000000" font-family="sans-serif" font-size="10.4" font-weight="bold" lengthAdjust="spacing" textLength="11.568" x="42.3559" y="515.3742">12</text><text fill="#000000" font-family="sans-serif" font-size="10.4" lengthAdjust="spacing" textLength="2.8895" x="57.1238" y="515.3742">&#160;</text><!--SRC=[dLDDJyCm3BtlLrZRPQ3j3rJRBXk7IO2G4BTTqZRh0gbTfSx6_Ztk1rq3em9oSlpndlsSAC-4Fe-r6oanLSBcg5W3uIXpv8j9HZQ5oUbWn6doWXm_-pYdr5iz0ZdZw6KxXlcgCXxkdnozweJ74Mp3t6dvQJsgNC-W88DyKoCW2RGpsO61zYtUnEaqWlWCQq9sPAtq1-q9Y6hcn3kdaJT6PKxbEunk9QEz_QcLZc8GiPbsJGABabJ-Zw8Fq21svG88YqN9YasoMksmqRtAhzDXESmN4ZdDtc7W-gfulvDQ-NCb_TrxeHt3DEcYa5XLbd1IbSq4RqWdu8E6Nef1yIY6hgEm6qiKlgckjAgy3DgW1QNNLUlgBn6HBwUZtcZBQdf5-XzK-M4hmPvxWov15ON6jAVFx1B_pZWWUjH2WIb1GUoDvRceiVSetv7mDyrBzT3MUzVMhEd2L_G1]--></g></svg>