<svg xmlns="http://www.w3.org/2000/svg" xmlns:xlink="http://www.w3.org/1999/xlink" contentStyleType="text/css" height="738.4px" preserveAspectRatio="none" style="width:811px;height:738px;background:#FFFFFF;" version="1.1" viewBox="0 0 811 738" width="811.2px" zoomAndPan="magnify"><defs/><g><rect fill="#FFFFFF" height="175.7969" style="stroke:#181818;stroke-width:0.8000000000000002;" width="8" x="146.5855" y="78.5625"/><rect fill="#FFFFFF" height="386.6922" style="stroke:#181818;stroke-width:0.8000000000000002;" width="8" x="146.5855" y="301.7922"/><rect fill="#FFFFFF" height="95.8984" style="stroke:#181818;stroke-width:0.8000000000000002;" width="8" x="272.4152" y="133.4281"/><rect fill="#FFFFFF" height="33.8328" style="stroke:#181818;stroke-width:0.8000000000000002;" width="8" x="276.4152" y="164.8609"/><rect fill="#FFFFFF" height="306.7938" style="stroke:#181818;stroke-width:0.8000000000000002;" width="8" x="272.4152" y="356.6578"/><rect fill="#FFFFFF" height="33.8328" style="stroke:#181818;stroke-width:0.8000000000000002;" width="8" x="276.4152" y="598.9859"/><rect fill="#FFFFFF" height="185.8625" style="stroke:#181818;stroke-width:0.8000000000000002;" width="8" x="539.2898" y="381.6906"/><rect fill="#FFFFFF" height="82.5313" style="stroke:#181818;stroke-width:0.8000000000000002;" width="8" x="656.4461" y="448.7891"/><rect fill="#FFFFFF" height="650.3875" style="stroke:#000000;stroke-width:1.2000000000000002;" width="799.0418" x="8" y="44.4969"/><rect fill="none" height="149.6297" style="stroke:#000000;stroke-width:1.2000000000000002;" width="395.0418" x="404" y="393.6906"/><rect fill="#FFFFFF" height="122.9969" style="stroke:#000000;stroke-width:1.2000000000000002;" width="379.0418" x="412" y="414.7234"/><line style="stroke:#181818;stroke-width:0.4000000000000001;stroke-dasharray:5.0,5.0;" x1="28" x2="28" y1="30.8969" y2="260.7594"/><line style="stroke:#A80036;stroke-width:0.8000000000000002;stroke-dasharray:1.0,4.0;" x1="28" x2="28" y1="260.7594" y2="283.1594"/><line style="stroke:#181818;stroke-width:0.4000000000000001;stroke-dasharray:5.0,5.0;" x1="28" x2="28" y1="283.1594" y2="708.4844"/><line style="stroke:#181818;stroke-width:0.4000000000000001;stroke-dasharray:5.0,5.0;" x1="150.1773" x2="150.1773" y1="30.8969" y2="260.7594"/><line style="stroke:#A80036;stroke-width:0.8000000000000002;stroke-dasharray:1.0,4.0;" x1="150.1773" x2="150.1773" y1="260.7594" y2="283.1594"/><line style="stroke:#181818;stroke-width:0.4000000000000001;stroke-dasharray:5.0,5.0;" x1="150.1773" x2="150.1773" y1="283.1594" y2="708.4844"/><line style="stroke:#181818;stroke-width:0.4000000000000001;stroke-dasharray:5.0,5.0;" x1="276.3051" x2="276.3051" y1="30.8969" y2="260.7594"/><line style="stroke:#A80036;stroke-width:0.8000000000000002;stroke-dasharray:1.0,4.0;" x1="276.3051" x2="276.3051" y1="260.7594" y2="283.1594"/><line style="stroke:#181818;stroke-width:0.4000000000000001;stroke-dasharray:5.0,5.0;" x1="276.3051" x2="276.3051" y1="283.1594" y2="708.4844"/><line style="stroke:#181818;stroke-width:0.4000000000000001;stroke-dasharray:5.0,5.0;" x1="542.7824" x2="542.7824" y1="30.8969" y2="260.7594"/><line style="stroke:#A80036;stroke-width:0.8000000000000002;stroke-dasharray:1.0,4.0;" x1="542.7824" x2="542.7824" y1="260.7594" y2="283.1594"/><line style="stroke:#181818;stroke-width:0.4000000000000001;stroke-dasharray:5.0,5.0;" x1="542.7824" x2="542.7824" y1="283.1594" y2="708.4844"/><line style="stroke:#181818;stroke-width:0.4000000000000001;stroke-dasharray:5.0,5.0;" x1="659.8313" x2="659.8313" y1="30.8969" y2="260.7594"/><line style="stroke:#A80036;stroke-width:0.8000000000000002;stroke-dasharray:1.0,4.0;" x1="659.8313" x2="659.8313" y1="260.7594" y2="283.1594"/><line style="stroke:#181818;stroke-width:0.4000000000000001;stroke-dasharray:5.0,5.0;" x1="659.8313" x2="659.8313" y1="283.1594" y2="708.4844"/><rect fill="#E2E2F0" height="26.0969" rx="2" ry="2" style="stroke:#181818;stroke-width:0.4000000000000001;" width="25.5117" x="16" y="4"/><text fill="#000000" font-family="sans-serif" font-size="11.2" lengthAdjust="spacing" textLength="14.3117" x="21.6" y="21.6859">:UI</text><rect fill="#E2E2F0" height="26.0969" rx="2" ry="2" style="stroke:#181818;stroke-width:0.4000000000000001;" width="25.5117" x="16" y="707.6844"/><text fill="#000000" font-family="sans-serif" font-size="11.2" lengthAdjust="spacing" textLength="14.3117" x="21.6" y="725.3703">:UI</text><rect fill="#E2E2F0" height="26.0969" rx="2" ry="2" style="stroke:#181818;stroke-width:0.4000000000000001;" width="72.8164" x="114.1773" y="4"/><text fill="#000000" font-family="sans-serif" font-size="11.2" lengthAdjust="spacing" textLength="61.6164" x="119.7773" y="21.6859">:UMLProject</text><rect fill="#E2E2F0" height="26.0969" rx="2" ry="2" style="stroke:#181818;stroke-width:0.4000000000000001;" width="72.8164" x="114.1773" y="707.6844"/><text fill="#000000" font-family="sans-serif" font-size="11.2" lengthAdjust="spacing" textLength="61.6164" x="119.7773" y="725.3703">:UMLProject</text><rect fill="#E2E2F0" height="26.0969" rx="2" ry="2" style="stroke:#181818;stroke-width:0.4000000000000001;" width="161.8203" x="195.5051" y="4"/><text fill="#000000" font-family="sans-serif" font-size="11.2" lengthAdjust="spacing" textLength="150.6203" x="201.1051" y="21.6859">currentDiagram:*UMLDiagram</text><rect fill="#E2E2F0" height="26.0969" rx="2" ry="2" style="stroke:#181818;stroke-width:0.4000000000000001;" width="161.8203" x="195.5051" y="707.6844"/><text fill="#000000" font-family="sans-serif" font-size="11.2" lengthAdjust="spacing" textLength="150.6203" x="201.1051" y="725.3703">currentDiagram:*UMLDiagram</text><rect fill="#E2E2F0" height="26.0969" rx="2" ry="2" style="stroke:#181818;stroke-width:0.4000000000000001;" width="77.8148" x="504.3824" y="4"/><text fill="#000000" font-family="sans-serif" font-size="11.2" lengthAdjust="spacing" textLength="66.6148" x="509.9824" y="21.6859">:Components</text><rect fill="#E2E2F0" height="26.0969" rx="2" ry="2" style="stroke:#181818;stroke-width:0.4000000000000001;" width="77.8148" x="504.3824" y="707.6844"/><text fill="#000000" font-family="sans-serif" font-size="11.2" lengthAdjust="spacing" textLength="66.6148" x="509.9824" y="725.3703">:Components</text><rect fill="#E2E2F0" height="26.0969" rx="2" ry="2" style="stroke:#181818;stroke-width:0.4000000000000001;" width="127.6297" x="596.6313" y="4"/><text fill="#000000" font-family="sans-serif" font-size="11.2" lengthAdjust="spacing" textLength="116.4297" x="602.2313" y="21.6859">component:Component</text><rect fill="#E2E2F0" height="26.0969" rx="2" ry="2" style="stroke:#181818;stroke-width:0.4000000000000001;" width="127.6297" x="596.6313" y="707.6844"/><text fill="#000000" font-family="sans-serif" font-size="11.2" lengthAdjust="spacing" textLength="116.4297" x="602.2313" y="725.3703">component:Component</text><rect fill="#FFFFFF" height="175.7969" style="stroke:#181818;stroke-width:0.8000000000000002;" width="8" x="146.5855" y="78.5625"/><rect fill="#FFFFFF" height="386.6922" style="stroke:#181818;stroke-width:0.8000000000000002;" width="8" x="146.5855" y="301.7922"/><rect fill="#FFFFFF" height="95.8984" style="stroke:#181818;stroke-width:0.8000000000000002;" width="8" x="272.4152" y="133.4281"/><rect fill="#FFFFFF" height="33.8328" style="stroke:#181818;stroke-width:0.8000000000000002;" width="8" x="276.4152" y="164.8609"/><rect fill="#FFFFFF" height="306.7938" style="stroke:#181818;stroke-width:0.8000000000000002;" width="8" x="272.4152" y="356.6578"/><rect fill="#FFFFFF" height="33.8328" style="stroke:#181818;stroke-width:0.8000000000000002;" width="8" x="276.4152" y="598.9859"/><rect fill="#FFFFFF" height="185.8625" style="stroke:#181818;stroke-width:0.8000000000000002;" width="8" x="539.2898" y="381.6906"/><rect fill="#FFFFFF" height="82.5313" style="stroke:#181818;stroke-width:0.8000000000000002;" width="8" x="656.4461" y="448.7891"/><path d="M8,44.4969 L128.9367,44.4969 L128.9367,51.9297 L120.9367,59.9297 L8,59.9297 L8,44.4969 " fill="#FFD700" style="stroke:#000000;stroke-width:1.2000000000000002;"/><rect fill="none" height="650.3875" style="stroke:#000000;stroke-width:1.2000000000000002;" width="799.0418" x="8" y="44.4969"/><text fill="#000000" font-family="sans-serif" font-size="10.4" font-weight="bold" lengthAdjust="spacing" textLength="84.9367" x="20" y="56.5195">moveComponent</text><polygon fill="#181818" points="136.9855,75.3625,144.9855,78.5625,136.9855,81.7625,140.1855,78.5625" style="stroke:#181818;stroke-width:0.8000000000000002;"/><line style="stroke:#181818;stroke-width:0.8000000000000002;" x1="28.7559" x2="141.7855" y1="78.5625" y2="78.5625"/><text fill="#000000" font-family="sans-serif" font-size="10.4" font-weight="bold" lengthAdjust="spacing" textLength="5.784" x="34.3559" y="74.3523">1</text><text fill="#000000" font-family="sans-serif" font-size="10.4" lengthAdjust="spacing" textLength="93.6457" x="43.3398" y="74.3523">StartDragging(point)</text><path d="M32,88.9625 L32,110.5625 L107.2,110.5625 L107.2,96.9625 L99.2,88.9625 L32,88.9625 " fill="#FF0000" style="stroke:#181818;stroke-width:0.4000000000000001;"/><path d="M99.2,88.9625 L99.2,96.9625 L107.2,96.9625 L99.2,88.9625 " fill="#FF0000" style="stroke:#181818;stroke-width:0.4000000000000001;"/><text fill="#000000" font-family="sans-serif" font-size="10.4" lengthAdjust="spacing" textLength="58.957" x="36.8" y="104.1852">by Controller</text><polygon fill="#181818" points="262.8152,130.2281,270.8152,133.4281,262.8152,136.6281,266.0152,133.4281" style="stroke:#181818;stroke-width:0.8000000000000002;"/><line style="stroke:#181818;stroke-width:0.8000000000000002;" x1="154.5855" x2="267.6152" y1="133.4281" y2="133.4281"/><text fill="#000000" font-family="sans-serif" font-size="10.4" font-weight="bold" lengthAdjust="spacing" textLength="5.784" x="160.1855" y="129.218">2</text><text fill="#000000" font-family="sans-serif" font-size="10.4" lengthAdjust="spacing" textLength="93.6457" x="169.1695" y="129.218">StartDragging(point)</text><line style="stroke:#181818;stroke-width:0.8000000000000002;" x1="280.4152" x2="318.0152" y1="154.4609" y2="154.4609"/><line style="stroke:#181818;stroke-width:0.8000000000000002;" x1="318.0152" x2="318.0152" y1="154.4609" y2="164.8609"/><line style="stroke:#181818;stroke-width:0.8000000000000002;" x1="285.2152" x2="318.0152" y1="164.8609" y2="164.8609"/><polygon fill="#181818" points="293.2152,161.6609,285.2152,164.8609,293.2152,168.0609,290.0152,164.8609" style="stroke:#181818;stroke-width:0.8000000000000002;"/><text fill="#000000" font-family="sans-serif" font-size="10.4" font-weight="bold" lengthAdjust="spacing" textLength="5.784" x="290.0152" y="150.2508">3</text><text fill="#000000" font-family="sans-serif" font-size="10.4" lengthAdjust="spacing" textLength="105.5031" x="298.9992" y="150.2508">moveStartPoint = point</text><line style="stroke:#181818;stroke-width:0.8000000000000002;stroke-dasharray:2.0,2.0;" x1="284.4152" x2="318.0152" y1="197.8938" y2="197.8938"/><line style="stroke:#181818;stroke-width:0.8000000000000002;stroke-dasharray:2.0,2.0;" x1="318.0152" x2="318.0152" y1="197.8938" y2="208.2938"/><line style="stroke:#181818;stroke-width:0.8000000000000002;stroke-dasharray:2.0,2.0;" x1="280.4152" x2="318.0152" y1="208.2938" y2="208.2938"/><polygon fill="#181818" points="288.4152,205.0938,280.4152,208.2938,288.4152,211.4938,285.2152,208.2938" style="stroke:#181818;stroke-width:0.8000000000000002;"/><text fill="#000000" font-family="sans-serif" font-size="10.4" font-weight="bold" lengthAdjust="spacing" textLength="5.784" x="290.0152" y="193.6836">4</text><text fill="#000000" font-family="sans-serif" font-size="10.4" lengthAdjust="spacing" textLength="2.8895" x="298.9992" y="193.6836">&#160;</text><polygon fill="#181818" points="163.3855,226.1266,155.3855,229.3266,163.3855,232.5266,160.1855,229.3266" style="stroke:#181818;stroke-width:0.8000000000000002;"/><line style="stroke:#181818;stroke-width:0.8000000000000002;stroke-dasharray:2.0,2.0;" x1="158.5855" x2="275.6152" y1="229.3266" y2="229.3266"/><text fill="#000000" font-family="sans-serif" font-size="10.4" font-weight="bold" lengthAdjust="spacing" textLength="5.784" x="168.1855" y="225.1164">5</text><text fill="#000000" font-family="sans-serif" font-size="10.4" lengthAdjust="spacing" textLength="2.8895" x="177.1695" y="225.1164">&#160;</text><polygon fill="#181818" points="37.5559,251.1594,29.5559,254.3594,37.5559,257.5594,34.3559,254.3594" style="stroke:#181818;stroke-width:0.8000000000000002;"/><line style="stroke:#181818;stroke-width:0.8000000000000002;stroke-dasharray:2.0,2.0;" x1="32.7559" x2="149.7855" y1="254.3594" y2="254.3594"/><text fill="#000000" font-family="sans-serif" font-size="10.4" font-weight="bold" lengthAdjust="spacing" textLength="5.784" x="42.3559" y="250.1492">6</text><text fill="#000000" font-family="sans-serif" font-size="10.4" lengthAdjust="spacing" textLength="2.8895" x="51.3398" y="250.1492">&#160;</text><polygon fill="#181818" points="136.9855,298.5922,144.9855,301.7922,136.9855,304.9922,140.1855,301.7922" style="stroke:#181818;stroke-width:0.8000000000000002;"/><line style="stroke:#181818;stroke-width:0.8000000000000002;" x1="28.7559" x2="141.7855" y1="301.7922" y2="301.7922"/><text fill="#000000" font-family="sans-serif" font-size="10.4" font-weight="bold" lengthAdjust="spacing" textLength="5.784" x="34.3559" y="297.582">7</text><text fill="#000000" font-family="sans-serif" font-size="10.4" lengthAdjust="spacing" textLength="93.077" x="43.3398" y="297.582">StopDragging(point)</text><path d="M32,312.1922 L32,333.7922 L107.2,333.7922 L107.2,320.1922 L99.2,312.1922 L32,312.1922 " fill="#FF0000" style="stroke:#181818;stroke-width:0.4000000000000001;"/><path d="M99.2,312.1922 L99.2,320.1922 L107.2,320.1922 L99.2,312.1922 " fill="#FF0000" style="stroke:#181818;stroke-width:0.4000000000000001;"/><text fill="#000000" font-family="sans-serif" font-size="10.4" lengthAdjust="spacing" textLength="58.957" x="36.8" y="327.4148">by Controller</text><polygon fill="#181818" points="262.8152,353.4578,270.8152,356.6578,262.8152,359.8578,266.0152,356.6578" style="stroke:#181818;stroke-width:0.8000000000000002;"/><line style="stroke:#181818;stroke-width:0.8000000000000002;" x1="154.5855" x2="267.6152" y1="356.6578" y2="356.6578"/><text fill="#000000" font-family="sans-serif" font-size="10.4" font-weight="bold" lengthAdjust="spacing" textLength="5.784" x="160.1855" y="352.4477">8</text><text fill="#000000" font-family="sans-serif" font-size="10.4" lengthAdjust="spacing" textLength="93.077" x="169.1695" y="352.4477">StopDragging(point)</text><polygon fill="#181818" points="529.6898,378.4906,537.6898,381.6906,529.6898,384.8906,532.8898,381.6906" style="stroke:#181818;stroke-width:0.8000000000000002;"/><line style="stroke:#181818;stroke-width:0.8000000000000002;" x1="280.4152" x2="534.4898" y1="381.6906" y2="381.6906"/><text fill="#000000" font-family="sans-serif" font-size="10.4" font-weight="bold" lengthAdjust="spacing" textLength="5.784" x="286.0152" y="377.4805">9</text><text fill="#000000" font-family="sans-serif" font-size="10.4" lengthAdjust="spacing" textLength="234.6906" x="294.9992" y="377.4805">MoveSelectedComponents(point - moveStartPoint)</text><path d="M404,393.6906 L461.9477,393.6906 L461.9477,401.1234 L453.9477,409.1234 L404,409.1234 L404,393.6906 " fill="#FFD700" style="stroke:#000000;stroke-width:1.2000000000000002;"/><rect fill="none" height="149.6297" style="stroke:#000000;stroke-width:1.2000000000000002;" width="395.0418" x="404" y="393.6906"/><text fill="#000000" font-family="sans-serif" font-size="10.4" font-weight="bold" lengthAdjust="spacing" textLength="21.9477" x="416" y="405.7133">loop</text><text fill="#000000" font-family="sans-serif" font-size="8.8" font-weight="bold" lengthAdjust="spacing" textLength="154.9883" x="473.9477" y="404.7867">[component in selectedComponents]</text><path d="M412,414.7234 L464.1688,414.7234 L464.1688,422.1563 L456.1688,430.1563 L412,430.1563 L412,414.7234 " fill="#FFD700" style="stroke:#000000;stroke-width:1.2000000000000002;"/><rect fill="none" height="122.9969" style="stroke:#000000;stroke-width:1.2000000000000002;" width="379.0418" x="412" y="414.7234"/><text fill="#000000" font-family="sans-serif" font-size="10.4" font-weight="bold" lengthAdjust="spacing" textLength="16.1688" x="424" y="426.7461">opt</text><text fill="#000000" font-family="sans-serif" font-size="8.8" font-weight="bold" lengthAdjust="spacing" textLength="101.6941" x="476.1688" y="425.8195">[component is a gadget]</text><polygon fill="#181818" points="646.8461,445.5891,654.8461,448.7891,646.8461,451.9891,650.0461,448.7891" style="stroke:#181818;stroke-width:0.8000000000000002;"/><line style="stroke:#181818;stroke-width:0.8000000000000002;" x1="547.2898" x2="651.6461" y1="448.7891" y2="448.7891"/><text fill="#000000" font-family="sans-serif" font-size="10.4" font-weight="bold" lengthAdjust="spacing" textLength="11.568" x="552.8898" y="444.5789">10</text><text fill="#000000" font-family="sans-serif" font-size="10.4" lengthAdjust="spacing" textLength="79.1883" x="567.6578" y="444.5789">moveDelta(delta)</text><path d="M420,459.1891 L420,507.9891 L782.4,507.9891 L782.4,467.1891 L774.4,459.1891 L420,459.1891 " fill="#FEFFDD" style="stroke:#181818;stroke-width:0.4000000000000001;"/><path d="M774.4,459.1891 L774.4,467.1891 L782.4,467.1891 L774.4,459.1891 " fill="#FEFFDD" style="stroke:#181818;stroke-width:0.4000000000000001;"/><text fill="#000000" font-family="sans-serif" font-size="10.4" lengthAdjust="spacing" textLength="140.4762" x="424.8" y="474.4117">For a gadget, move it by delta.</text><text fill="#000000" font-family="sans-serif" font-size="10.4" lengthAdjust="spacing" textLength="346.2418" x="424.8" y="488.2445">For an association, it will automatically reroute if either of parents is moved.</text><text fill="#000000" font-family="sans-serif" font-size="10.4" lengthAdjust="spacing" textLength="252.6316" x="424.8" y="502.0773">(By subscribing to the events of its connected gadgets)</text><polygon fill="#181818" points="556.0898,528.1203,548.0898,531.3203,556.0898,534.5203,552.8898,531.3203" style="stroke:#181818;stroke-width:0.8000000000000002;"/><line style="stroke:#181818;stroke-width:0.8000000000000002;stroke-dasharray:2.0,2.0;" x1="551.2898" x2="659.6461" y1="531.3203" y2="531.3203"/><text fill="#000000" font-family="sans-serif" font-size="10.4" font-weight="bold" lengthAdjust="spacing" textLength="11.568" x="560.8898" y="527.1102">11</text><text fill="#000000" font-family="sans-serif" font-size="10.4" lengthAdjust="spacing" textLength="2.8895" x="575.6578" y="527.1102">&#160;</text><polygon fill="#181818" points="289.2152,564.3531,281.2152,567.5531,289.2152,570.7531,286.0152,567.5531" style="stroke:#181818;stroke-width:0.8000000000000002;"/><line style="stroke:#181818;stroke-width:0.8000000000000002;stroke-dasharray:2.0,2.0;" x1="284.4152" x2="542.4898" y1="567.5531" y2="567.5531"/><text fill="#000000" font-family="sans-serif" font-size="10.4" font-weight="bold" lengthAdjust="spacing" textLength="11.568" x="294.0152" y="563.343">12</text><text fill="#000000" font-family="sans-serif" font-size="10.4" lengthAdjust="spacing" textLength="2.8895" x="308.7832" y="563.343">&#160;</text><line style="stroke:#181818;stroke-width:0.8000000000000002;" x1="280.4152" x2="318.0152" y1="588.5859" y2="588.5859"/><line style="stroke:#181818;stroke-width:0.8000000000000002;" x1="318.0152" x2="318.0152" y1="588.5859" y2="598.9859"/><line style="stroke:#181818;stroke-width:0.8000000000000002;" x1="285.2152" x2="318.0152" y1="598.9859" y2="598.9859"/><polygon fill="#181818" points="293.2152,595.7859,285.2152,598.9859,293.2152,602.1859,290.0152,598.9859" style="stroke:#181818;stroke-width:0.8000000000000002;"/><text fill="#000000" font-family="sans-serif" font-size="10.4" font-weight="bold" lengthAdjust="spacing" textLength="11.568" x="290.0152" y="584.3758">13</text><text fill="#000000" font-family="sans-serif" font-size="10.4" lengthAdjust="spacing" textLength="88.7352" x="304.7832" y="584.3758">moveStartPoint = 0</text><line style="stroke:#181818;stroke-width:0.8000000000000002;stroke-dasharray:2.0,2.0;" x1="284.4152" x2="318.0152" y1="632.0188" y2="632.0188"/><line style="stroke:#181818;stroke-width:0.8000000000000002;stroke-dasharray:2.0,2.0;" x1="318.0152" x2="318.0152" y1="632.0188" y2="642.4188"/><line style="stroke:#181818;stroke-width:0.8000000000000002;stroke-dasharray:2.0,2.0;" x1="280.4152" x2="318.0152" y1="642.4188" y2="642.4188"/><polygon fill="#181818" points="288.4152,639.2188,280.4152,642.4188,288.4152,645.6188,285.2152,642.4188" style="stroke:#181818;stroke-width:0.8000000000000002;"/><text fill="#000000" font-family="sans-serif" font-size="10.4" font-weight="bold" lengthAdjust="spacing" textLength="11.568" x="290.0152" y="627.8086">14</text><text fill="#000000" font-family="sans-serif" font-size="10.4" lengthAdjust="spacing" textLength="2.8895" x="304.7832" y="627.8086">&#160;</text><polygon fill="#181818" points="163.3855,660.2516,155.3855,663.4516,163.3855,666.6516,160.1855,663.4516" style="stroke:#181818;stroke-width:0.8000000000000002;"/><line style="stroke:#181818;stroke-width:0.8000000000000002;stroke-dasharray:2.0,2.0;" x1="158.5855" x2="275.6152" y1="663.4516" y2="663.4516"/><text fill="#000000" font-family="sans-serif" font-size="10.4" font-weight="bold" lengthAdjust="spacing" textLength="11.568" x="168.1855" y="659.2414">15</text><text fill="#000000" font-family="sans-serif" font-size="10.4" lengthAdjust="spacing" textLength="2.8895" x="182.9535" y="659.2414">&#160;</text><polygon fill="#181818" points="37.5559,685.2844,29.5559,688.4844,37.5559,691.6844,34.3559,688.4844" style="stroke:#181818;stroke-width:0.8000000000000002;"/><line style="stroke:#181818;stroke-width:0.8000000000000002;stroke-dasharray:2.0,2.0;" x1="32.7559" x2="149.7855" y1="688.4844" y2="688.4844"/><text fill="#000000" font-family="sans-serif" font-size="10.4" font-weight="bold" lengthAdjust="spacing" textLength="11.568" x="42.3559" y="684.2742">16</text><text fill="#000000" font-family="sans-serif" font-size="10.4" lengthAdjust="spacing" textLength="2.8895" x="57.1238" y="684.2742">&#160;</text><!--SRC=[lLHHQy8m47xlhpZqHOUMFHUsXoc3mGHXx0UaROmPQQuaLyL_lqkiMhNEmM1vQDAat_TTlhkhQ0XjK-NI9OANeY2z4IG1RQ8SDlLGeIbXk5rhtgnm8sTOrMYbfIGPP9zl0vW-0oyMxqk7NxAW0MJmGSBHt0cbj5MZ6hMbSMAH6PnMQm9SmHuxTBBC8D_132qvD8R301xdX46XQ9nZqRaMoeagU-3pTdrJ4Dhn8_O-TxXqv5y6MdY2I7zaTv8QPvFEiftID3rPTEqGrlzhqBNUh_t9ZZdtWMiH3966bMLvEjcpmlJ2hvDC60QnhQZY00HjmL-ndQ72m9hEIh63zo10YL99kaBjhUg67wqwl9zE3ecUIqDYL8Rdk9Sj9ea_T1UyatxQNevNTCUG9r4MD8KaHztqDiQ2y1uBBKYZdGJGLXi3eN4htYk4CJkkGkvR3bAlG6fQSwHSJRK86VR1hA1NzekCNdRWczmNJkTSA408J01o4x5CetagqDgOhVO6ljyeQSjeLkzXfsakCCabHoYPv0RkBvtTqzYFzviwH7Js5_m6]--></g></svg>