<svg xmlns="http://www.w3.org/2000/svg" xmlns:xlink="http://www.w3.org/1999/xlink" contentStyleType="text/css" height="923px" preserveAspectRatio="none" style="width:985px;height:923px;background:#FFFFFF;" version="1.1" viewBox="0 0 985 923" width="985px" zoomAndPan="magnify"><defs/><g><rect fill="#FFFFFF" height="219.7461" style="stroke:#181818;stroke-width:1.0;" width="10" x="154.2871" y="98.2031"/><rect fill="#FFFFFF" height="483.3652" style="stroke:#181818;stroke-width:1.0;" width="10" x="154.2871" y="377.2402"/><rect fill="#FFFFFF" height="119.873" style="stroke:#181818;stroke-width:1.0;" width="10" x="311.5742" y="166.7852"/><rect fill="#FFFFFF" height="42.291" style="stroke:#181818;stroke-width:1.0;" width="10" x="316.5742" y="206.0762"/><rect fill="#FFFFFF" height="383.4922" style="stroke:#181818;stroke-width:1.0;" width="10" x="311.5742" y="445.8223"/><rect fill="#FFFFFF" height="42.291" style="stroke:#181818;stroke-width:1.0;" width="10" x="316.5742" y="748.7324"/><rect fill="#FFFFFF" height="232.3281" style="stroke:#181818;stroke-width:1.0;" width="10" x="645.1675" y="477.1133"/><rect fill="#FFFFFF" height="103.1641" style="stroke:#181818;stroke-width:1.0;" width="10" x="791.6128" y="560.9863"/><rect fill="#FFFFFF" height="812.9844" style="stroke:#000000;stroke-width:1.5;" width="976.8022" x="3" y="55.6211"/><rect fill="none" height="187.0371" style="stroke:#000000;stroke-width:1.5;" width="493.8022" x="476" y="492.1133"/><rect fill="#FFFFFF" height="153.7461" style="stroke:#000000;stroke-width:1.5;" width="473.8022" x="486" y="518.4043"/><line style="stroke:#181818;stroke-width:0.5;stroke-dasharray:5.0,5.0;" x1="158.7769" x2="158.7769" y1="38.6211" y2="325.9492"/><line style="stroke:#A80036;stroke-width:1.0;stroke-dasharray:1.0,4.0;" x1="158.7769" x2="158.7769" y1="325.9492" y2="353.9492"/><line style="stroke:#181818;stroke-width:0.5;stroke-dasharray:5.0,5.0;" x1="158.7769" x2="158.7769" y1="353.9492" y2="885.6055"/><line style="stroke:#181818;stroke-width:0.5;stroke-dasharray:5.0,5.0;" x1="316.4365" x2="316.4365" y1="38.6211" y2="325.9492"/><line style="stroke:#A80036;stroke-width:1.0;stroke-dasharray:1.0,4.0;" x1="316.4365" x2="316.4365" y1="325.9492" y2="353.9492"/><line style="stroke:#181818;stroke-width:0.5;stroke-dasharray:5.0,5.0;" x1="316.4365" x2="316.4365" y1="353.9492" y2="885.6055"/><line style="stroke:#181818;stroke-width:0.5;stroke-dasharray:5.0,5.0;" x1="649.5332" x2="649.5332" y1="38.6211" y2="325.9492"/><line style="stroke:#A80036;stroke-width:1.0;stroke-dasharray:1.0,4.0;" x1="649.5332" x2="649.5332" y1="325.9492" y2="353.9492"/><line style="stroke:#181818;stroke-width:0.5;stroke-dasharray:5.0,5.0;" x1="649.5332" x2="649.5332" y1="353.9492" y2="885.6055"/><line style="stroke:#181818;stroke-width:0.5;stroke-dasharray:5.0,5.0;" x1="795.8442" x2="795.8442" y1="38.6211" y2="325.9492"/><line style="stroke:#A80036;stroke-width:1.0;stroke-dasharray:1.0,4.0;" x1="795.8442" x2="795.8442" y1="325.9492" y2="353.9492"/><line style="stroke:#181818;stroke-width:0.5;stroke-dasharray:5.0,5.0;" x1="795.8442" x2="795.8442" y1="353.9492" y2="885.6055"/><rect fill="#E2E2F0" height="32.6211" rx="2.5" ry="2.5" style="stroke:#181818;stroke-width:0.5;" width="91.0205" x="113.7769" y="5"/><text fill="#000000" font-family="sans-serif" font-size="14" lengthAdjust="spacing" textLength="77.0205" x="120.7769" y="27.1074">:UMLProject</text><rect fill="#E2E2F0" height="32.6211" rx="2.5" ry="2.5" style="stroke:#181818;stroke-width:0.5;" width="91.0205" x="113.7769" y="884.6055"/><text fill="#000000" font-family="sans-serif" font-size="14" lengthAdjust="spacing" textLength="77.0205" x="120.7769" y="906.7129">:UMLProject</text><rect fill="#E2E2F0" height="32.6211" rx="2.5" ry="2.5" style="stroke:#181818;stroke-width:0.5;" width="202.2754" x="215.4365" y="5"/><text fill="#000000" font-family="sans-serif" font-size="14" lengthAdjust="spacing" textLength="188.2754" x="222.4365" y="27.1074">currentDiagram:*UMLDiagram</text><rect fill="#E2E2F0" height="32.6211" rx="2.5" ry="2.5" style="stroke:#181818;stroke-width:0.5;" width="202.2754" x="215.4365" y="884.6055"/><text fill="#000000" font-family="sans-serif" font-size="14" lengthAdjust="spacing" textLength="188.2754" x="222.4365" y="906.7129">currentDiagram:*UMLDiagram</text><rect fill="#E2E2F0" height="32.6211" rx="2.5" ry="2.5" style="stroke:#181818;stroke-width:0.5;" width="97.2686" x="601.5332" y="5"/><text fill="#000000" font-family="sans-serif" font-size="14" lengthAdjust="spacing" textLength="83.2686" x="608.5332" y="27.1074">:Components</text><rect fill="#E2E2F0" height="32.6211" rx="2.5" ry="2.5" style="stroke:#181818;stroke-width:0.5;" width="97.2686" x="601.5332" y="884.6055"/><text fill="#000000" font-family="sans-serif" font-size="14" lengthAdjust="spacing" textLength="83.2686" x="608.5332" y="906.7129">:Components</text><rect fill="#E2E2F0" height="32.6211" rx="2.5" ry="2.5" style="stroke:#181818;stroke-width:0.5;" width="159.5371" x="716.8442" y="5"/><text fill="#000000" font-family="sans-serif" font-size="14" lengthAdjust="spacing" textLength="145.5371" x="723.8442" y="27.1074">component:Component</text><rect fill="#E2E2F0" height="32.6211" rx="2.5" ry="2.5" style="stroke:#181818;stroke-width:0.5;" width="159.5371" x="716.8442" y="884.6055"/><text fill="#000000" font-family="sans-serif" font-size="14" lengthAdjust="spacing" textLength="145.5371" x="723.8442" y="906.7129">component:Component</text><rect fill="#FFFFFF" height="219.7461" style="stroke:#181818;stroke-width:1.0;" width="10" x="154.2871" y="98.2031"/><rect fill="#FFFFFF" height="483.3652" style="stroke:#181818;stroke-width:1.0;" width="10" x="154.2871" y="377.2402"/><rect fill="#FFFFFF" height="119.873" style="stroke:#181818;stroke-width:1.0;" width="10" x="311.5742" y="166.7852"/><rect fill="#FFFFFF" height="42.291" style="stroke:#181818;stroke-width:1.0;" width="10" x="316.5742" y="206.0762"/><rect fill="#FFFFFF" height="383.4922" style="stroke:#181818;stroke-width:1.0;" width="10" x="311.5742" y="445.8223"/><rect fill="#FFFFFF" height="42.291" style="stroke:#181818;stroke-width:1.0;" width="10" x="316.5742" y="748.7324"/><rect fill="#FFFFFF" height="232.3281" style="stroke:#181818;stroke-width:1.0;" width="10" x="645.1675" y="477.1133"/><rect fill="#FFFFFF" height="103.1641" style="stroke:#181818;stroke-width:1.0;" width="10" x="791.6128" y="560.9863"/><path d="M3,55.6211 L154.1709,55.6211 L154.1709,64.9121 L144.1709,74.9121 L3,74.9121 L3,55.6211 " fill="#FFD700" style="stroke:#000000;stroke-width:1.5;"/><rect fill="none" height="812.9844" style="stroke:#000000;stroke-width:1.5;" width="976.8022" x="3" y="55.6211"/><text fill="#000000" font-family="sans-serif" font-size="13" font-weight="bold" lengthAdjust="spacing" textLength="106.1709" x="18" y="70.6494">moveComponent</text><polygon fill="#181818" points="142.2871,94.2031,152.2871,98.2031,142.2871,102.2031,146.2871,98.2031" style="stroke:#181818;stroke-width:1.0;"/><line style="stroke:#181818;stroke-width:1.0;" x1="0" x2="148.2871" y1="98.2031" y2="98.2031"/><text fill="#000000" font-family="sans-serif" font-size="13" font-weight="bold" lengthAdjust="spacing" textLength="7.23" x="7" y="92.9404">1</text><text fill="#000000" font-family="sans-serif" font-size="13" lengthAdjust="spacing" textLength="117.0571" x="18.23" y="92.9404">StartDragging(point)</text><path d="M54,111.2031 L54,138.2031 L148,138.2031 L148,121.2031 L138,111.2031 L54,111.2031 " fill="#FF0000" style="stroke:#181818;stroke-width:0.5;"/><path d="M138,111.2031 L138,121.2031 L148,121.2031 L138,111.2031 " fill="#FF0000" style="stroke:#181818;stroke-width:0.5;"/><text fill="#000000" font-family="sans-serif" font-size="13" lengthAdjust="spacing" textLength="73.6963" x="60" y="130.2314">by Controller</text><polygon fill="#181818" points="299.5742,162.7852,309.5742,166.7852,299.5742,170.7852,303.5742,166.7852" style="stroke:#181818;stroke-width:1.0;"/><line style="stroke:#181818;stroke-width:1.0;" x1="164.2871" x2="305.5742" y1="166.7852" y2="166.7852"/><text fill="#000000" font-family="sans-serif" font-size="13" font-weight="bold" lengthAdjust="spacing" textLength="7.23" x="171.2871" y="161.5225">2</text><text fill="#000000" font-family="sans-serif" font-size="13" lengthAdjust="spacing" textLength="117.0571" x="182.5171" y="161.5225">StartDragging(point)</text><line style="stroke:#181818;stroke-width:1.0;" x1="321.5742" x2="368.5742" y1="193.0762" y2="193.0762"/><line style="stroke:#181818;stroke-width:1.0;" x1="368.5742" x2="368.5742" y1="193.0762" y2="206.0762"/><line style="stroke:#181818;stroke-width:1.0;" x1="327.5742" x2="368.5742" y1="206.0762" y2="206.0762"/><polygon fill="#181818" points="337.5742,202.0762,327.5742,206.0762,337.5742,210.0762,333.5742,206.0762" style="stroke:#181818;stroke-width:1.0;"/><text fill="#000000" font-family="sans-serif" font-size="13" font-weight="bold" lengthAdjust="spacing" textLength="7.23" x="333.5742" y="187.8135">3</text><text fill="#000000" font-family="sans-serif" font-size="13" lengthAdjust="spacing" textLength="131.8789" x="344.8042" y="187.8135">moveStartPoint = point</text><line style="stroke:#181818;stroke-width:1.0;stroke-dasharray:2.0,2.0;" x1="326.5742" x2="368.5742" y1="247.3672" y2="247.3672"/><line style="stroke:#181818;stroke-width:1.0;stroke-dasharray:2.0,2.0;" x1="368.5742" x2="368.5742" y1="247.3672" y2="260.3672"/><line style="stroke:#181818;stroke-width:1.0;stroke-dasharray:2.0,2.0;" x1="321.5742" x2="368.5742" y1="260.3672" y2="260.3672"/><polygon fill="#181818" points="331.5742,256.3672,321.5742,260.3672,331.5742,264.3672,327.5742,260.3672" style="stroke:#181818;stroke-width:1.0;"/><text fill="#000000" font-family="sans-serif" font-size="13" font-weight="bold" lengthAdjust="spacing" textLength="7.23" x="333.5742" y="242.1045">4</text><text fill="#000000" font-family="sans-serif" font-size="13" lengthAdjust="spacing" textLength="3.6118" x="344.8042" y="242.1045">&#160;</text><polygon fill="#181818" points="175.2871,282.6582,165.2871,286.6582,175.2871,290.6582,171.2871,286.6582" style="stroke:#181818;stroke-width:1.0;"/><line style="stroke:#181818;stroke-width:1.0;stroke-dasharray:2.0,2.0;" x1="169.2871" x2="315.5742" y1="286.6582" y2="286.6582"/><text fill="#000000" font-family="sans-serif" font-size="13" font-weight="bold" lengthAdjust="spacing" textLength="7.23" x="181.2871" y="281.3955">5</text><text fill="#000000" font-family="sans-serif" font-size="13" lengthAdjust="spacing" textLength="3.6118" x="192.5171" y="281.3955">&#160;</text><polygon fill="#181818" points="11,313.9492,1,317.9492,11,321.9492,7,317.9492" style="stroke:#181818;stroke-width:1.0;"/><line style="stroke:#181818;stroke-width:1.0;stroke-dasharray:2.0,2.0;" x1="5" x2="158.2871" y1="317.9492" y2="317.9492"/><text fill="#000000" font-family="sans-serif" font-size="13" font-weight="bold" lengthAdjust="spacing" textLength="7.23" x="17" y="312.6865">6</text><text fill="#000000" font-family="sans-serif" font-size="13" lengthAdjust="spacing" textLength="3.6118" x="28.23" y="312.6865">&#160;</text><polygon fill="#181818" points="142.2871,373.2402,152.2871,377.2402,142.2871,381.2402,146.2871,377.2402" style="stroke:#181818;stroke-width:1.0;"/><line style="stroke:#181818;stroke-width:1.0;" x1="0" x2="148.2871" y1="377.2402" y2="377.2402"/><text fill="#000000" font-family="sans-serif" font-size="13" font-weight="bold" lengthAdjust="spacing" textLength="7.23" x="7" y="371.9775">7</text><text fill="#000000" font-family="sans-serif" font-size="13" lengthAdjust="spacing" textLength="116.3462" x="18.23" y="371.9775">StopDragging(point)</text><path d="M54,390.2402 L54,417.2402 L148,417.2402 L148,400.2402 L138,390.2402 L54,390.2402 " fill="#FF0000" style="stroke:#181818;stroke-width:0.5;"/><path d="M138,390.2402 L138,400.2402 L148,400.2402 L138,390.2402 " fill="#FF0000" style="stroke:#181818;stroke-width:0.5;"/><text fill="#000000" font-family="sans-serif" font-size="13" lengthAdjust="spacing" textLength="73.6963" x="60" y="409.2686">by Controller</text><polygon fill="#181818" points="299.5742,441.8223,309.5742,445.8223,299.5742,449.8223,303.5742,445.8223" style="stroke:#181818;stroke-width:1.0;"/><line style="stroke:#181818;stroke-width:1.0;" x1="164.2871" x2="305.5742" y1="445.8223" y2="445.8223"/><text fill="#000000" font-family="sans-serif" font-size="13" font-weight="bold" lengthAdjust="spacing" textLength="7.23" x="171.2871" y="440.5596">8</text><text fill="#000000" font-family="sans-serif" font-size="13" lengthAdjust="spacing" textLength="116.3462" x="182.5171" y="440.5596">StopDragging(point)</text><polygon fill="#181818" points="633.1675,473.1133,643.1675,477.1133,633.1675,481.1133,637.1675,477.1133" style="stroke:#181818;stroke-width:1.0;"/><line style="stroke:#181818;stroke-width:1.0;" x1="321.5742" x2="639.1675" y1="477.1133" y2="477.1133"/><text fill="#000000" font-family="sans-serif" font-size="13" font-weight="bold" lengthAdjust="spacing" textLength="7.23" x="328.5742" y="471.8506">9</text><text fill="#000000" font-family="sans-serif" font-size="13" lengthAdjust="spacing" textLength="293.3633" x="339.8042" y="471.8506">MoveSelectedComponents(point - moveStartPoint)</text><path d="M476,492.1133 L548.4346,492.1133 L548.4346,501.4043 L538.4346,511.4043 L476,511.4043 L476,492.1133 " fill="#FFD700" style="stroke:#000000;stroke-width:1.5;"/><rect fill="none" height="187.0371" style="stroke:#000000;stroke-width:1.5;" width="493.8022" x="476" y="492.1133"/><text fill="#000000" font-family="sans-serif" font-size="13" font-weight="bold" lengthAdjust="spacing" textLength="27.4346" x="491" y="507.1416">loop</text><text fill="#000000" font-family="sans-serif" font-size="11" font-weight="bold" lengthAdjust="spacing" textLength="193.7354" x="563.4346" y="505.9834">[component in selectedComponents]</text><path d="M486,518.4043 L551.2109,518.4043 L551.2109,527.6953 L541.2109,537.6953 L486,537.6953 L486,518.4043 " fill="#FFD700" style="stroke:#000000;stroke-width:1.5;"/><rect fill="none" height="153.7461" style="stroke:#000000;stroke-width:1.5;" width="473.8022" x="486" y="518.4043"/><text fill="#000000" font-family="sans-serif" font-size="13" font-weight="bold" lengthAdjust="spacing" textLength="20.2109" x="501" y="533.4326">opt</text><text fill="#000000" font-family="sans-serif" font-size="11" font-weight="bold" lengthAdjust="spacing" textLength="127.1177" x="566.2109" y="532.2744">[component is a gadget]</text><polygon fill="#181818" points="779.6128,556.9863,789.6128,560.9863,779.6128,564.9863,783.6128,560.9863" style="stroke:#181818;stroke-width:1.0;"/><line style="stroke:#181818;stroke-width:1.0;" x1="655.1675" x2="785.6128" y1="560.9863" y2="560.9863"/><text fill="#000000" font-family="sans-serif" font-size="13" font-weight="bold" lengthAdjust="spacing" textLength="14.46" x="662.1675" y="555.7236">10</text><text fill="#000000" font-family="sans-serif" font-size="13" lengthAdjust="spacing" textLength="98.9854" x="680.6274" y="555.7236">moveDelta(delta)</text><path d="M496,573.9863 L496,634.9863 L949,634.9863 L949,583.9863 L939,573.9863 L496,573.9863 " fill="#FEFFDD" style="stroke:#181818;stroke-width:0.5;"/><path d="M939,573.9863 L939,583.9863 L949,583.9863 L939,573.9863 " fill="#FEFFDD" style="stroke:#181818;stroke-width:0.5;"/><text fill="#000000" font-family="sans-serif" font-size="13" lengthAdjust="spacing" textLength="175.5952" x="502" y="593.0146">For a gadget, move it by delta.</text><text fill="#000000" font-family="sans-serif" font-size="13" lengthAdjust="spacing" textLength="432.8022" x="502" y="610.3057">For an association, it will automatically reroute if either of parents is moved.</text><text fill="#000000" font-family="sans-serif" font-size="13" lengthAdjust="spacing" textLength="315.7896" x="502" y="627.5967">(By subscribing to the events of its connected gadgets)</text><polygon fill="#181818" points="666.1675,660.1504,656.1675,664.1504,666.1675,668.1504,662.1675,664.1504" style="stroke:#181818;stroke-width:1.0;"/><line style="stroke:#181818;stroke-width:1.0;stroke-dasharray:2.0,2.0;" x1="660.1675" x2="795.6128" y1="664.1504" y2="664.1504"/><text fill="#000000" font-family="sans-serif" font-size="13" font-weight="bold" lengthAdjust="spacing" textLength="14.46" x="672.1675" y="658.8877">11</text><text fill="#000000" font-family="sans-serif" font-size="13" lengthAdjust="spacing" textLength="3.6118" x="690.6274" y="658.8877">&#160;</text><polygon fill="#181818" points="332.5742,705.4414,322.5742,709.4414,332.5742,713.4414,328.5742,709.4414" style="stroke:#181818;stroke-width:1.0;"/><line style="stroke:#181818;stroke-width:1.0;stroke-dasharray:2.0,2.0;" x1="326.5742" x2="649.1675" y1="709.4414" y2="709.4414"/><text fill="#000000" font-family="sans-serif" font-size="13" font-weight="bold" lengthAdjust="spacing" textLength="14.46" x="338.5742" y="704.1787">12</text><text fill="#000000" font-family="sans-serif" font-size="13" lengthAdjust="spacing" textLength="3.6118" x="357.0342" y="704.1787">&#160;</text><line style="stroke:#181818;stroke-width:1.0;" x1="321.5742" x2="368.5742" y1="735.7324" y2="735.7324"/><line style="stroke:#181818;stroke-width:1.0;" x1="368.5742" x2="368.5742" y1="735.7324" y2="748.7324"/><line style="stroke:#181818;stroke-width:1.0;" x1="327.5742" x2="368.5742" y1="748.7324" y2="748.7324"/><polygon fill="#181818" points="337.5742,744.7324,327.5742,748.7324,337.5742,752.7324,333.5742,748.7324" style="stroke:#181818;stroke-width:1.0;"/><text fill="#000000" font-family="sans-serif" font-size="13" font-weight="bold" lengthAdjust="spacing" textLength="14.46" x="333.5742" y="730.4697">13</text><text fill="#000000" font-family="sans-serif" font-size="13" lengthAdjust="spacing" textLength="110.9189" x="352.0342" y="730.4697">moveStartPoint = 0</text><line style="stroke:#181818;stroke-width:1.0;stroke-dasharray:2.0,2.0;" x1="326.5742" x2="368.5742" y1="790.0234" y2="790.0234"/><line style="stroke:#181818;stroke-width:1.0;stroke-dasharray:2.0,2.0;" x1="368.5742" x2="368.5742" y1="790.0234" y2="803.0234"/><line style="stroke:#181818;stroke-width:1.0;stroke-dasharray:2.0,2.0;" x1="321.5742" x2="368.5742" y1="803.0234" y2="803.0234"/><polygon fill="#181818" points="331.5742,799.0234,321.5742,803.0234,331.5742,807.0234,327.5742,803.0234" style="stroke:#181818;stroke-width:1.0;"/><text fill="#000000" font-family="sans-serif" font-size="13" font-weight="bold" lengthAdjust="spacing" textLength="14.46" x="333.5742" y="784.7607">14</text><text fill="#000000" font-family="sans-serif" font-size="13" lengthAdjust="spacing" textLength="3.6118" x="352.0342" y="784.7607">&#160;</text><polygon fill="#181818" points="175.2871,825.3145,165.2871,829.3145,175.2871,833.3145,171.2871,829.3145" style="stroke:#181818;stroke-width:1.0;"/><line style="stroke:#181818;stroke-width:1.0;stroke-dasharray:2.0,2.0;" x1="169.2871" x2="315.5742" y1="829.3145" y2="829.3145"/><text fill="#000000" font-family="sans-serif" font-size="13" font-weight="bold" lengthAdjust="spacing" textLength="14.46" x="181.2871" y="824.0518">15</text><text fill="#000000" font-family="sans-serif" font-size="13" lengthAdjust="spacing" textLength="3.6118" x="199.7471" y="824.0518">&#160;</text><polygon fill="#181818" points="11,856.6055,1,860.6055,11,864.6055,7,860.6055" style="stroke:#181818;stroke-width:1.0;"/><line style="stroke:#181818;stroke-width:1.0;stroke-dasharray:2.0,2.0;" x1="5" x2="158.2871" y1="860.6055" y2="860.6055"/><text fill="#000000" font-family="sans-serif" font-size="13" font-weight="bold" lengthAdjust="spacing" textLength="14.46" x="17" y="855.3428">16</text><text fill="#000000" font-family="sans-serif" font-size="13" lengthAdjust="spacing" textLength="3.6118" x="35.46" y="855.3428">&#160;</text><!--SRC=[nLHDRy8m3BttLrZZ0XDKErVQ3WFjD2IaQJyWjA5aIkCgSK7y-zcXV9Ko9ksm7DeqoNlFURQh6aBNL4lj4yLJbPFPADA0BYazDlMWH5l0OBisl5ZXHa-ngj5fHqaoUO67x7F-ll3ufNDwW0m-I7cQULMMnfN36esZKUAGiLQl273LGGoyBZ9Oxc2AZZnQot40ZyjJ8fGtthFgpAZIgofxvFrsVbCNsl4ZzZwtt3hoBuGMdY7I7zczfiQxv6pQlj8q5O-kBSBwNnowblsrGTanwq6uvkA8jgoiYzFEdXKc7SDECZ8iObjJ-G48na6uOhj0oS2QBehn31z0GQcAKjCLQc_LUVZHgiFtQUUGwPcsf8Q5F4UzR35NVD1tUCVzjBqSR-YF8O-ZB1YI94VTz3R6WGe1SwF8e1iBQ6ki1MdTYjToPUsEov0xbuCqAz26rXmfLrMj9CD1p1Azebza-Bg3q2n3xisI2mK8WGb0RoAMQGo_SdGkPgkzGUWtIhiYcjMxUTOr7KpIvP2IIMxW_jBQFPtzTB-h9QAB_-0t]--></g></svg>