<svg xmlns="http://www.w3.org/2000/svg" xmlns:xlink="http://www.w3.org/1999/xlink" contentStyleType="text/css" height="874px" preserveAspectRatio="none" style="width:808px;height:874px;background:#FFFFFF;" version="1.1" viewBox="0 0 808 874" width="808px" zoomAndPan="magnify"><defs/><g><rect fill="#FFFFFF" height="676.5684" style="stroke:#181818;stroke-width:1.0;" width="10" x="220.0361" y="116.8242"/><rect fill="#FFFFFF" height="42.291" style="stroke:#181818;stroke-width:1.0;" width="10" x="225.0361" y="193.4063"/><rect fill="#FFFFFF" height="116.873" style="stroke:#181818;stroke-width:1.0;" width="10" x="225.0361" y="356.5703"/><rect fill="#FFFFFF" height="31.291" style="stroke:#181818;stroke-width:1.0;" width="10" x="698.9707" y="656.2285"/><rect fill="#FFFFFF" height="305.9492" style="stroke:#000000;stroke-width:1.5;" width="799.1992" x="3" y="495.4434"/><line style="stroke:#181818;stroke-width:0.5;stroke-dasharray:5.0,5.0;" x1="224.5259" x2="224.5259" y1="57.2422" y2="818.3926"/><line style="stroke:#181818;stroke-width:0.5;stroke-dasharray:5.0,5.0;" x1="562.8022" x2="562.8022" y1="546.5449" y2="818.3926"/><line style="stroke:#181818;stroke-width:0.5;stroke-dasharray:5.0,5.0;" x1="703.7329" x2="703.7329" y1="57.2422" y2="818.3926"/><rect fill="#E2E2F0" height="32.6211" rx="2.5" ry="2.5" style="stroke:#181818;stroke-width:0.5;" width="91.0205" x="179.5259" y="23.6211"/><text fill="#000000" font-family="sans-serif" font-size="14" lengthAdjust="spacing" textLength="77.0205" x="186.5259" y="45.7285">:UMLProject</text><rect fill="#E2E2F0" height="32.6211" rx="2.5" ry="2.5" style="stroke:#181818;stroke-width:0.5;" width="91.0205" x="179.5259" y="817.3926"/><text fill="#000000" font-family="sans-serif" font-size="14" lengthAdjust="spacing" textLength="77.0205" x="186.5259" y="839.5">:UMLProject</text><rect fill="#E2E2F0" height="32.6211" rx="2.5" ry="2.5" style="stroke:#181818;stroke-width:0.5;" width="150.9307" x="487.8022" y="817.3926"/><text fill="#000000" font-family="sans-serif" font-size="14" lengthAdjust="spacing" textLength="136.9307" x="494.8022" y="839.5">diagram:UMLDiagram</text><rect fill="#E2E2F0" height="51.2422" rx="2.5" ry="2.5" style="stroke:#181818;stroke-width:0.5;" width="110.4756" x="648.7329" y="5"/><text fill="#000000" font-family="sans-serif" font-size="14" lengthAdjust="spacing" textLength="96.4756" x="655.7329" y="27.1074">activeDiagrams</text><text fill="#000000" font-family="sans-serif" font-size="14" lengthAdjust="spacing" textLength="94.1309" x="656.9053" y="45.7285">:[]UMLDiagram</text><rect fill="#E2E2F0" height="51.2422" rx="2.5" ry="2.5" style="stroke:#181818;stroke-width:0.5;" width="110.4756" x="648.7329" y="817.3926"/><text fill="#000000" font-family="sans-serif" font-size="14" lengthAdjust="spacing" textLength="96.4756" x="655.7329" y="839.5">activeDiagrams</text><text fill="#000000" font-family="sans-serif" font-size="14" lengthAdjust="spacing" textLength="94.1309" x="656.9053" y="858.1211">:[]UMLDiagram</text><rect fill="#FFFFFF" height="676.5684" style="stroke:#181818;stroke-width:1.0;" width="10" x="220.0361" y="116.8242"/><rect fill="#FFFFFF" height="42.291" style="stroke:#181818;stroke-width:1.0;" width="10" x="225.0361" y="193.4063"/><rect fill="#FFFFFF" height="116.873" style="stroke:#181818;stroke-width:1.0;" width="10" x="225.0361" y="356.5703"/><rect fill="#FFFFFF" height="31.291" style="stroke:#181818;stroke-width:1.0;" width="10" x="698.9707" y="656.2285"/><polygon fill="#181818" points="208.0361,112.8242,218.0361,116.8242,208.0361,120.8242,212.0361,116.8242" style="stroke:#181818;stroke-width:1.0;"/><line style="stroke:#181818;stroke-width:1.0;" x1="0" x2="214.0361" y1="116.8242" y2="116.8242"/><text fill="#000000" font-family="sans-serif" font-size="13" font-weight="bold" lengthAdjust="spacing" textLength="7.23" x="7" y="111.5615">1</text><text fill="#000000" font-family="sans-serif" font-size="13" lengthAdjust="spacing" textLength="78.0381" x="18.23" y="111.5615">openProject()</text><path d="M120,129.8242 L120,156.8242 L214,156.8242 L214,139.8242 L204,129.8242 L120,129.8242 " fill="#FF0000" style="stroke:#181818;stroke-width:0.5;"/><path d="M204,129.8242 L204,139.8242 L214,139.8242 L204,129.8242 " fill="#FF0000" style="stroke:#181818;stroke-width:0.5;"/><text fill="#000000" font-family="sans-serif" font-size="13" lengthAdjust="spacing" textLength="73.6963" x="126" y="148.8525">by Controller</text><line style="stroke:#181818;stroke-width:1.0;" x1="230.0361" x2="277.0361" y1="180.4063" y2="180.4063"/><line style="stroke:#181818;stroke-width:1.0;" x1="277.0361" x2="277.0361" y1="180.4063" y2="193.4063"/><line style="stroke:#181818;stroke-width:1.0;" x1="236.0361" x2="277.0361" y1="193.4063" y2="193.4063"/><polygon fill="#181818" points="246.0361,189.4063,236.0361,193.4063,246.0361,197.4063,242.0361,193.4063" style="stroke:#181818;stroke-width:1.0;"/><text fill="#000000" font-family="sans-serif" font-size="13" font-weight="bold" lengthAdjust="spacing" textLength="7.23" x="242.0361" y="175.1436">2</text><text fill="#000000" font-family="sans-serif" font-size="13" lengthAdjust="spacing" textLength="206.2734" x="253.2661" y="175.1436">diagrams = GetAvailableDiagrams()</text><line style="stroke:#181818;stroke-width:1.0;stroke-dasharray:2.0,2.0;" x1="235.0361" x2="277.0361" y1="234.6973" y2="234.6973"/><line style="stroke:#181818;stroke-width:1.0;stroke-dasharray:2.0,2.0;" x1="277.0361" x2="277.0361" y1="234.6973" y2="247.6973"/><line style="stroke:#181818;stroke-width:1.0;stroke-dasharray:2.0,2.0;" x1="230.0361" x2="277.0361" y1="247.6973" y2="247.6973"/><polygon fill="#181818" points="240.0361,243.6973,230.0361,247.6973,240.0361,251.6973,236.0361,247.6973" style="stroke:#181818;stroke-width:1.0;"/><text fill="#000000" font-family="sans-serif" font-size="13" font-weight="bold" lengthAdjust="spacing" textLength="7.23" x="242.0361" y="229.4346">3</text><text fill="#000000" font-family="sans-serif" font-size="13" lengthAdjust="spacing" textLength="3.6118" x="253.2661" y="229.4346">&#160;</text><path d="M235,255.6973 L235,282.6973 L487,282.6973 L487,265.6973 L477,255.6973 L235,255.6973 " fill="#FF0000" style="stroke:#181818;stroke-width:0.5;"/><path d="M477,255.6973 L477,265.6973 L487,265.6973 L477,255.6973 " fill="#FF0000" style="stroke:#181818;stroke-width:0.5;"/><text fill="#000000" font-family="sans-serif" font-size="13" lengthAdjust="spacing" textLength="231.9307" x="241" y="274.7256">by Expert (UI want to know the diagram)</text><path d="M235,292.9883 L235,319.9883 L633,319.9883 L633,302.9883 L623,292.9883 L235,292.9883 " fill="#FEFFDD" style="stroke:#181818;stroke-width:0.5;"/><path d="M623,292.9883 L623,302.9883 L633,302.9883 L623,292.9883 " fill="#FEFFDD" style="stroke:#181818;stroke-width:0.5;"/><text fill="#000000" font-family="sans-serif" font-size="13" lengthAdjust="spacing" textLength="377.8823" x="241" y="312.0166">GetAvailableDiagrams() returns names of diagrams in the project.</text><line style="stroke:#181818;stroke-width:1.0;" x1="230.0361" x2="277.0361" y1="343.5703" y2="343.5703"/><line style="stroke:#181818;stroke-width:1.0;" x1="277.0361" x2="277.0361" y1="343.5703" y2="356.5703"/><line style="stroke:#181818;stroke-width:1.0;" x1="236.0361" x2="277.0361" y1="356.5703" y2="356.5703"/><polygon fill="#181818" points="246.0361,352.5703,236.0361,356.5703,246.0361,360.5703,242.0361,356.5703" style="stroke:#181818;stroke-width:1.0;"/><text fill="#000000" font-family="sans-serif" font-size="13" font-weight="bold" lengthAdjust="spacing" textLength="7.23" x="242.0361" y="338.3076">4</text><text fill="#000000" font-family="sans-serif" font-size="13" lengthAdjust="spacing" textLength="293.0015" x="253.2661" y="338.3076">lastOpenedDiagrams = GetLastOpenedDiagrams()</text><path d="M240,374.5703 L240,401.5703 L568,401.5703 L568,384.5703 L558,374.5703 L240,374.5703 " fill="#FF0000" style="stroke:#181818;stroke-width:0.5;"/><path d="M558,374.5703 L558,384.5703 L568,384.5703 L558,374.5703 " fill="#FF0000" style="stroke:#181818;stroke-width:0.5;"/><text fill="#000000" font-family="sans-serif" font-size="13" lengthAdjust="spacing" textLength="307.0806" x="246" y="393.5986">by Expert (UI want to know the lastOpenedDiagrams)</text><path d="M240,411.8613 L240,438.8613 L731,438.8613 L731,421.8613 L721,411.8613 L240,411.8613 " fill="#FEFFDD" style="stroke:#181818;stroke-width:0.5;"/><path d="M721,411.8613 L721,421.8613 L731,421.8613 L721,411.8613 " fill="#FEFFDD" style="stroke:#181818;stroke-width:0.5;"/><text fill="#000000" font-family="sans-serif" font-size="13" lengthAdjust="spacing" textLength="470.3931" x="246" y="430.8896">GetLastOpenedDiagrams() returns names of diagrams that were opened last time</text><line style="stroke:#181818;stroke-width:1.0;stroke-dasharray:2.0,2.0;" x1="235.0361" x2="277.0361" y1="472.4434" y2="472.4434"/><line style="stroke:#181818;stroke-width:1.0;stroke-dasharray:2.0,2.0;" x1="277.0361" x2="277.0361" y1="472.4434" y2="485.4434"/><line style="stroke:#181818;stroke-width:1.0;stroke-dasharray:2.0,2.0;" x1="230.0361" x2="277.0361" y1="485.4434" y2="485.4434"/><polygon fill="#181818" points="240.0361,481.4434,230.0361,485.4434,240.0361,489.4434,236.0361,485.4434" style="stroke:#181818;stroke-width:1.0;"/><text fill="#000000" font-family="sans-serif" font-size="13" font-weight="bold" lengthAdjust="spacing" textLength="7.23" x="242.0361" y="467.1807">5</text><text fill="#000000" font-family="sans-serif" font-size="13" lengthAdjust="spacing" textLength="3.6118" x="253.2661" y="467.1807">&#160;</text><path d="M3,495.4434 L75.4346,495.4434 L75.4346,504.7344 L65.4346,514.7344 L3,514.7344 L3,495.4434 " fill="#FFD700" style="stroke:#000000;stroke-width:1.5;"/><rect fill="none" height="305.9492" style="stroke:#000000;stroke-width:1.5;" width="799.1992" x="3" y="495.4434"/><text fill="#000000" font-family="sans-serif" font-size="13" font-weight="bold" lengthAdjust="spacing" textLength="27.4346" x="18" y="510.4717">loop</text><text fill="#000000" font-family="sans-serif" font-size="11" font-weight="bold" lengthAdjust="spacing" textLength="206.0029" x="90.4346" y="509.3135">[diagramName in lastOpenedDiagrams]</text><polygon fill="#181818" points="475.8022,534.0254,485.8022,538.0254,475.8022,542.0254,479.8022,538.0254" style="stroke:#181818;stroke-width:1.0;"/><line style="stroke:#181818;stroke-width:1.0;stroke-dasharray:2.0,2.0;" x1="230.0361" x2="481.8022" y1="538.0254" y2="538.0254"/><text fill="#000000" font-family="sans-serif" font-size="13" font-weight="bold" lengthAdjust="spacing" textLength="7.23" x="237.0361" y="532.7627">6</text><text fill="#000000" font-family="sans-serif" font-size="13" lengthAdjust="spacing" textLength="175.5571" x="248.2661" y="532.7627">createDiagram(diagramName)</text><rect fill="#E2E2F0" height="32.6211" rx="2.5" ry="2.5" style="stroke:#181818;stroke-width:0.5;" width="150.9307" x="487.8022" y="514.7344"/><text fill="#000000" font-family="sans-serif" font-size="14" lengthAdjust="spacing" textLength="136.9307" x="494.8022" y="536.8418">diagram:UMLDiagram</text><path d="M235,563.3555 L235,590.3555 L316,590.3555 L316,573.3555 L306,563.3555 L235,563.3555 " fill="#FF0000" style="stroke:#181818;stroke-width:0.5;"/><path d="M306,563.3555 L306,573.3555 L316,573.3555 L306,563.3555 " fill="#FF0000" style="stroke:#181818;stroke-width:0.5;"/><text fill="#000000" font-family="sans-serif" font-size="13" lengthAdjust="spacing" textLength="60.6899" x="241" y="582.3838">by Creator</text><path d="M235,600.6465 L235,627.6465 L792,627.6465 L792,610.6465 L782,600.6465 L235,600.6465 " fill="#FEFFDD" style="stroke:#181818;stroke-width:0.5;"/><path d="M782,600.6465 L782,610.6465 L792,610.6465 L782,600.6465 " fill="#FEFFDD" style="stroke:#181818;stroke-width:0.5;"/><text fill="#000000" font-family="sans-serif" font-size="13" lengthAdjust="spacing" textLength="536.1992" x="241" y="619.6748">createDiagram(path) creates a new instance of the diagram and load the diagram info at path</text><polygon fill="#181818" points="686.9707,652.2285,696.9707,656.2285,686.9707,660.2285,690.9707,656.2285" style="stroke:#181818;stroke-width:1.0;"/><line style="stroke:#181818;stroke-width:1.0;" x1="230.0361" x2="692.9707" y1="656.2285" y2="656.2285"/><text fill="#000000" font-family="sans-serif" font-size="13" font-weight="bold" lengthAdjust="spacing" textLength="7.23" x="237.0361" y="650.9658">7</text><text fill="#000000" font-family="sans-serif" font-size="13" lengthAdjust="spacing" textLength="99.0044" x="248.2661" y="650.9658">append(diagram)</text><polygon fill="#181818" points="241.0361,683.5195,231.0361,687.5195,241.0361,691.5195,237.0361,687.5195" style="stroke:#181818;stroke-width:1.0;"/><line style="stroke:#181818;stroke-width:1.0;stroke-dasharray:2.0,2.0;" x1="235.0361" x2="702.9707" y1="687.5195" y2="687.5195"/><text fill="#000000" font-family="sans-serif" font-size="13" font-weight="bold" lengthAdjust="spacing" textLength="7.23" x="247.0361" y="682.2568">8</text><text fill="#000000" font-family="sans-serif" font-size="13" lengthAdjust="spacing" textLength="3.6118" x="258.2661" y="682.2568">&#160;</text><path d="M235,700.5195 L235,727.5195 L414,727.5195 L414,710.5195 L404,700.5195 L235,700.5195 " fill="#FEFFDD" style="stroke:#181818;stroke-width:0.5;"/><path d="M404,700.5195 L404,710.5195 L414,710.5195 L404,700.5195 " fill="#FEFFDD" style="stroke:#181818;stroke-width:0.5;"/><text fill="#000000" font-family="sans-serif" font-size="13" lengthAdjust="spacing" textLength="158.2725" x="241" y="719.5479">append is a built-in function</text><path d="M235,737.8105 L235,764.8105 L634,764.8105 L634,747.8105 L624,737.8105 L235,737.8105 " fill="#FEFFDD" style="stroke:#181818;stroke-width:0.5;"/><path d="M624,737.8105 L624,747.8105 L634,747.8105 L624,737.8105 " fill="#FEFFDD" style="stroke:#181818;stroke-width:0.5;"/><text fill="#000000" font-family="sans-serif" font-size="13" lengthAdjust="spacing" textLength="378.6821" x="241" y="756.8389">we only load and maintain the diagrams that were opened as tabs</text><polygon fill="#181818" points="11,789.3926,1,793.3926,11,797.3926,7,793.3926" style="stroke:#181818;stroke-width:1.0;"/><line style="stroke:#181818;stroke-width:1.0;stroke-dasharray:2.0,2.0;" x1="5" x2="224.0361" y1="793.3926" y2="793.3926"/><text fill="#000000" font-family="sans-serif" font-size="13" font-weight="bold" lengthAdjust="spacing" textLength="7.23" x="17" y="788.1299">9</text><text fill="#000000" font-family="sans-serif" font-size="13" lengthAdjust="spacing" textLength="182.8062" x="28.23" y="788.1299">lastOpenedDiagrams, diagrams</text><!--SRC=[hLHDRvn03BtpAwpT2qH9VW1I8rL9L5NAroMdjWS3tcNQmOC64v9_tvdPAONiRfP3E23aiTzxVcE3lHZkcu9iihMcRzTReojO3xKI0jCIFrdpcqf9m3teah4KzOB-a4EiHIkgL2som2f_lh-B1Qjm6buNL_EJV0gSPY67ZOFKj14mctash2rLEHHlS6rOhD7QQVKbywnzaahXrcBJmHVuHlBr1PN6GjDD34TYIz9R_g_1gctzaOZRrvQiGFhy7GRVinZumsO0gUaVOtOABJyYA8hfWB6XpfUDFIWE3EqEuJ9Pv836JXwTrLJTpBousukdsUSuiC-up8n3YZvmGseK6CZkHfIgm0kY6fhUQVZMnio7Ee8yE53lwhxYK7R0NkzlBFO7CNq5PsUGGsd9BKMCfHEER8HRPEwrnp5sIT5xqXQbpcAi0mIcmJNO2N99ldWoeO3iF3DOpOAADmQSiHve533Rxx3yuy3-vFp7huaJnuoxEbMO0xRk2gfqja3ljlEa6piCKBxtebTQBjprRdfsr6OXnE1_Q_fjPuttg475Wd7vZeyVkXWMNJAPlWE3TJuY94xeNm00]--></g></svg>