<svg xmlns="http://www.w3.org/2000/svg" xmlns:xlink="http://www.w3.org/1999/xlink" contentStyleType="text/css" height="377px" preserveAspectRatio="none" style="width:506px;height:377px;background:#FFFFFF;" version="1.1" viewBox="0 0 506 377" width="506px" zoomAndPan="magnify"><defs/><g><rect fill="#FFFFFF" height="179.416" style="stroke:#181818;stroke-width:1.0;" width="10" x="181.0298" y="116.8242"/><rect fill="#FFFFFF" height="79.543" style="stroke:#181818;stroke-width:1.0;" width="10" x="429.9263" y="185.4063"/><rect fill="#FFFFFF" height="229.998" style="stroke:#000000;stroke-width:1.5;" width="497.1641" x="3" y="74.2422"/><line style="stroke:#181818;stroke-width:0.5;stroke-dasharray:5.0,5.0;" x1="185.5195" x2="185.5195" y1="57.2422" y2="321.2402"/><line style="stroke:#181818;stroke-width:0.5;stroke-dasharray:5.0,5.0;" x1="434.6885" x2="434.6885" y1="57.2422" y2="321.2402"/><rect fill="#E2E2F0" height="32.6211" rx="2.5" ry="2.5" style="stroke:#181818;stroke-width:0.5;" width="91.0205" x="140.5195" y="23.6211"/><text fill="#000000" font-family="sans-serif" font-size="14" lengthAdjust="spacing" textLength="77.0205" x="147.5195" y="45.7285">:UMLProject</text><rect fill="#E2E2F0" height="32.6211" rx="2.5" ry="2.5" style="stroke:#181818;stroke-width:0.5;" width="91.0205" x="140.5195" y="320.2402"/><text fill="#000000" font-family="sans-serif" font-size="14" lengthAdjust="spacing" textLength="77.0205" x="147.5195" y="342.3477">:UMLProject</text><rect fill="#E2E2F0" height="51.2422" rx="2.5" ry="2.5" style="stroke:#181818;stroke-width:0.5;" width="110.4756" x="379.6885" y="5"/><text fill="#000000" font-family="sans-serif" font-size="14" lengthAdjust="spacing" textLength="96.4756" x="386.6885" y="27.1074">currentDiagram</text><text fill="#000000" font-family="sans-serif" font-size="14" lengthAdjust="spacing" textLength="91.7998" x="389.0264" y="45.7285">:*UMLDiagram</text><rect fill="#E2E2F0" height="51.2422" rx="2.5" ry="2.5" style="stroke:#181818;stroke-width:0.5;" width="110.4756" x="379.6885" y="320.2402"/><text fill="#000000" font-family="sans-serif" font-size="14" lengthAdjust="spacing" textLength="96.4756" x="386.6885" y="342.3477">currentDiagram</text><text fill="#000000" font-family="sans-serif" font-size="14" lengthAdjust="spacing" textLength="91.7998" x="389.0264" y="360.9688">:*UMLDiagram</text><rect fill="#FFFFFF" height="179.416" style="stroke:#181818;stroke-width:1.0;" width="10" x="181.0298" y="116.8242"/><rect fill="#FFFFFF" height="79.543" style="stroke:#181818;stroke-width:1.0;" width="10" x="429.9263" y="185.4063"/><path d="M3,74.2422 L161.4009,74.2422 L161.4009,83.5332 L151.4009,93.5332 L3,93.5332 L3,74.2422 " fill="#FFD700" style="stroke:#000000;stroke-width:1.5;"/><rect fill="none" height="229.998" style="stroke:#000000;stroke-width:1.5;" width="497.1641" x="3" y="74.2422"/><text fill="#000000" font-family="sans-serif" font-size="13" font-weight="bold" lengthAdjust="spacing" textLength="113.4009" x="18" y="89.2705">pasteComponents</text><polygon fill="#181818" points="169.0298,112.8242,179.0298,116.8242,169.0298,120.8242,173.0298,116.8242" style="stroke:#181818;stroke-width:1.0;"/><line style="stroke:#181818;stroke-width:1.0;" x1="0" x2="175.0298" y1="116.8242" y2="116.8242"/><text fill="#000000" font-family="sans-serif" font-size="13" font-weight="bold" lengthAdjust="spacing" textLength="7.23" x="7" y="111.5615">1</text><text fill="#000000" font-family="sans-serif" font-size="13" lengthAdjust="spacing" textLength="143.7998" x="18.23" y="111.5615">PasteComponents(point)</text><path d="M81,129.8242 L81,156.8242 L175,156.8242 L175,139.8242 L165,129.8242 L81,129.8242 " fill="#FF0000" style="stroke:#181818;stroke-width:0.5;"/><path d="M165,129.8242 L165,139.8242 L175,139.8242 L165,129.8242 " fill="#FF0000" style="stroke:#181818;stroke-width:0.5;"/><text fill="#000000" font-family="sans-serif" font-size="13" lengthAdjust="spacing" textLength="73.6963" x="87" y="148.8525">by Controller</text><polygon fill="#181818" points="417.9263,181.4063,427.9263,185.4063,417.9263,189.4063,421.9263,185.4063" style="stroke:#181818;stroke-width:1.0;"/><line style="stroke:#181818;stroke-width:1.0;" x1="191.0298" x2="423.9263" y1="185.4063" y2="185.4063"/><text fill="#000000" font-family="sans-serif" font-size="13" font-weight="bold" lengthAdjust="spacing" textLength="7.23" x="198.0298" y="180.1436">2</text><text fill="#000000" font-family="sans-serif" font-size="13" lengthAdjust="spacing" textLength="208.6665" x="209.2598" y="180.1436">ImportSubmodule("clipboard", point)</text><rect fill="none" height="43.252" style="stroke:#000000;stroke-width:1.5;" width="355.6445" x="137.5195" y="193.4063"/><path d="M137.5195,193.4063 L198.5195,193.4063 L198.5195,202.4063 L188.5195,212.4063 L137.5195,212.4063 L137.5195,193.4063 " fill="#EEEEEE" style="stroke:#000000;stroke-width:2.0;"/><text fill="#000000" font-family="sans-serif" font-size="13" font-weight="bold" lengthAdjust="spacing" textLength="16.6182" x="150.5195" y="209.4346">ref</text><text fill="#000000" font-family="sans-serif" font-size="12" lengthAdjust="spacing" textLength="95.3789" x="267.6523" y="229.3555">import submodule</text><polygon fill="#181818" points="202.0298,260.9492,192.0298,264.9492,202.0298,268.9492,198.0298,264.9492" style="stroke:#181818;stroke-width:1.0;"/><line style="stroke:#181818;stroke-width:1.0;stroke-dasharray:2.0,2.0;" x1="196.0298" x2="433.9263" y1="264.9492" y2="264.9492"/><text fill="#000000" font-family="sans-serif" font-size="13" font-weight="bold" lengthAdjust="spacing" textLength="7.23" x="208.0298" y="259.6865">3</text><text fill="#000000" font-family="sans-serif" font-size="13" lengthAdjust="spacing" textLength="3.6118" x="219.2598" y="259.6865">&#160;</text><polygon fill="#181818" points="11,292.2402,1,296.2402,11,300.2402,7,296.2402" style="stroke:#181818;stroke-width:1.0;"/><line style="stroke:#181818;stroke-width:1.0;stroke-dasharray:2.0,2.0;" x1="5" x2="185.0298" y1="296.2402" y2="296.2402"/><text fill="#000000" font-family="sans-serif" font-size="13" font-weight="bold" lengthAdjust="spacing" textLength="7.23" x="17" y="290.9775">4</text><text fill="#000000" font-family="sans-serif" font-size="13" lengthAdjust="spacing" textLength="3.6118" x="28.23" y="290.9775">&#160;</text><!--SRC=[XP2nRiCm34HtVmLXBsdW_e26BkaI80421Dswo1RjAf19WQPIzE_B12bWP-bDf72yTv0lobIc3gNoDlfUuzKh0bCr2fVSZ9m2DDzVqHwpdnLtF6Kc99qhCBs-GUq-ZeUJy0LxhHsSrgvDvaZwSZSJMqh2GO67zHaqWi51zmCx9XLEoHh1GsldZTWN4Gj_ZtuKFtsIsvhZiLc5lS55pwMRE9I4cxfFCNVi9TGjBFhS93W0Nr6UAEq_470GxnIO_p2BI2r2rM942i-_zmi0]--></g></svg>