<svg xmlns="http://www.w3.org/2000/svg" xmlns:xlink="http://www.w3.org/1999/xlink" contentStyleType="text/css" height="301.6px" preserveAspectRatio="none" style="width:428px;height:301px;background:#FFFFFF;" version="1.1" viewBox="0 0 428 301" width="428px" zoomAndPan="magnify"><defs/><g><rect fill="#FFFFFF" height="143.5328" style="stroke:#181818;stroke-width:0.8000000000000002;" width="8" x="167.9797" y="93.4594"/><rect fill="#FFFFFF" height="63.6344" style="stroke:#181818;stroke-width:0.8000000000000002;" width="8" x="367.0969" y="148.325"/><rect fill="#FFFFFF" height="183.9984" style="stroke:#000000;stroke-width:1.2000000000000002;" width="415.2871" x="8" y="59.3938"/><line style="stroke:#181818;stroke-width:0.4000000000000001;stroke-dasharray:5.0,5.0;" x1="28" x2="28" y1="45.7938" y2="256.9922"/><line style="stroke:#181818;stroke-width:0.4000000000000001;stroke-dasharray:5.0,5.0;" x1="171.5715" x2="171.5715" y1="45.7938" y2="256.9922"/><line style="stroke:#181818;stroke-width:0.4000000000000001;stroke-dasharray:5.0,5.0;" x1="370.9066" x2="370.9066" y1="45.7938" y2="256.9922"/><rect fill="#E2E2F0" height="26.0969" rx="2" ry="2" style="stroke:#181818;stroke-width:0.4000000000000001;" width="25.5117" x="16" y="18.8969"/><text fill="#000000" font-family="sans-serif" font-size="11.2" lengthAdjust="spacing" textLength="14.3117" x="21.6" y="36.5828">:UI</text><rect fill="#E2E2F0" height="26.0969" rx="2" ry="2" style="stroke:#181818;stroke-width:0.4000000000000001;" width="25.5117" x="16" y="256.1922"/><text fill="#000000" font-family="sans-serif" font-size="11.2" lengthAdjust="spacing" textLength="14.3117" x="21.6" y="273.8781">:UI</text><rect fill="#E2E2F0" height="26.0969" rx="2" ry="2" style="stroke:#181818;stroke-width:0.4000000000000001;" width="72.8164" x="135.5715" y="18.8969"/><text fill="#000000" font-family="sans-serif" font-size="11.2" lengthAdjust="spacing" textLength="61.6164" x="141.1715" y="36.5828">:UMLProject</text><rect fill="#E2E2F0" height="26.0969" rx="2" ry="2" style="stroke:#181818;stroke-width:0.4000000000000001;" width="72.8164" x="135.5715" y="256.1922"/><text fill="#000000" font-family="sans-serif" font-size="11.2" lengthAdjust="spacing" textLength="61.6164" x="141.1715" y="273.8781">:UMLProject</text><rect fill="#E2E2F0" height="40.9938" rx="2" ry="2" style="stroke:#181818;stroke-width:0.4000000000000001;" width="88.3805" x="326.9066" y="4"/><text fill="#000000" font-family="sans-serif" font-size="11.2" lengthAdjust="spacing" textLength="77.1805" x="332.5066" y="21.6859">currentDiagram</text><text fill="#000000" font-family="sans-serif" font-size="11.2" lengthAdjust="spacing" textLength="73.4398" x="334.377" y="36.5828">:*UMLDiagram</text><rect fill="#E2E2F0" height="40.9938" rx="2" ry="2" style="stroke:#181818;stroke-width:0.4000000000000001;" width="88.3805" x="326.9066" y="256.1922"/><text fill="#000000" font-family="sans-serif" font-size="11.2" lengthAdjust="spacing" textLength="77.1805" x="332.5066" y="273.8781">currentDiagram</text><text fill="#000000" font-family="sans-serif" font-size="11.2" lengthAdjust="spacing" textLength="73.4398" x="334.377" y="288.775">:*UMLDiagram</text><rect fill="#FFFFFF" height="143.5328" style="stroke:#181818;stroke-width:0.8000000000000002;" width="8" x="167.9797" y="93.4594"/><rect fill="#FFFFFF" height="63.6344" style="stroke:#181818;stroke-width:0.8000000000000002;" width="8" x="367.0969" y="148.325"/><path d="M8,59.3938 L134.7207,59.3938 L134.7207,66.8266 L126.7207,74.8266 L8,74.8266 L8,59.3938 " fill="#FFD700" style="stroke:#000000;stroke-width:1.2000000000000002;"/><rect fill="none" height="183.9984" style="stroke:#000000;stroke-width:1.2000000000000002;" width="415.2871" x="8" y="59.3938"/><text fill="#000000" font-family="sans-serif" font-size="10.4" font-weight="bold" lengthAdjust="spacing" textLength="90.7207" x="20" y="71.4164">pasteComponents</text><polygon fill="#181818" points="158.3797,90.2594,166.3797,93.4594,158.3797,96.6594,161.5797,93.4594" style="stroke:#181818;stroke-width:0.8000000000000002;"/><line style="stroke:#181818;stroke-width:0.8000000000000002;" x1="28.7559" x2="163.1797" y1="93.4594" y2="93.4594"/><text fill="#000000" font-family="sans-serif" font-size="10.4" font-weight="bold" lengthAdjust="spacing" textLength="5.784" x="34.3559" y="89.2492">1</text><text fill="#000000" font-family="sans-serif" font-size="10.4" lengthAdjust="spacing" textLength="115.0398" x="43.3398" y="89.2492">PasteComponents(point)</text><path d="M32,103.8594 L32,125.4594 L107.2,125.4594 L107.2,111.8594 L99.2,103.8594 L32,103.8594 " fill="#FF0000" style="stroke:#181818;stroke-width:0.4000000000000001;"/><path d="M99.2,103.8594 L99.2,111.8594 L107.2,111.8594 L99.2,103.8594 " fill="#FF0000" style="stroke:#181818;stroke-width:0.4000000000000001;"/><text fill="#000000" font-family="sans-serif" font-size="10.4" lengthAdjust="spacing" textLength="58.957" x="36.8" y="119.082">by Controller</text><polygon fill="#181818" points="357.4969,145.125,365.4969,148.325,357.4969,151.525,360.6969,148.325" style="stroke:#181818;stroke-width:0.8000000000000002;"/><line style="stroke:#181818;stroke-width:0.8000000000000002;" x1="175.9797" x2="362.2969" y1="148.325" y2="148.325"/><text fill="#000000" font-family="sans-serif" font-size="10.4" font-weight="bold" lengthAdjust="spacing" textLength="5.784" x="181.5797" y="144.1148">2</text><text fill="#000000" font-family="sans-serif" font-size="10.4" lengthAdjust="spacing" textLength="166.9332" x="190.5637" y="144.1148">ImportSubmodule("clipboard", point)</text><rect fill="none" height="34.6016" style="stroke:#000000;stroke-width:1.2000000000000002;" width="284.5156" x="133.1715" y="154.725"/><path d="M133.1715,154.725 L181.9715,154.725 L181.9715,161.925 L173.9715,169.925 L133.1715,169.925 L133.1715,154.725 " fill="#EEEEEE" style="stroke:#000000;stroke-width:1.6000000000000003;"/><text fill="#000000" font-family="sans-serif" font-size="10.4" font-weight="bold" lengthAdjust="spacing" textLength="13.2945" x="143.5715" y="167.5477">ref</text><text fill="#000000" font-family="sans-serif" font-size="9.6" lengthAdjust="spacing" textLength="76.3031" x="237.2777" y="183.4844">import submodule</text><polygon fill="#181818" points="184.7797,208.7594,176.7797,211.9594,184.7797,215.1594,181.5797,211.9594" style="stroke:#181818;stroke-width:0.8000000000000002;"/><line style="stroke:#181818;stroke-width:0.8000000000000002;stroke-dasharray:2.0,2.0;" x1="179.9797" x2="370.2969" y1="211.9594" y2="211.9594"/><text fill="#000000" font-family="sans-serif" font-size="10.4" font-weight="bold" lengthAdjust="spacing" textLength="5.784" x="189.5797" y="207.7492">3</text><text fill="#000000" font-family="sans-serif" font-size="10.4" lengthAdjust="spacing" textLength="2.8895" x="198.5637" y="207.7492">&#160;</text><polygon fill="#181818" points="37.5559,233.7922,29.5559,236.9922,37.5559,240.1922,34.3559,236.9922" style="stroke:#181818;stroke-width:0.8000000000000002;"/><line style="stroke:#181818;stroke-width:0.8000000000000002;stroke-dasharray:2.0,2.0;" x1="32.7559" x2="171.1797" y1="236.9922" y2="236.9922"/><text fill="#000000" font-family="sans-serif" font-size="10.4" font-weight="bold" lengthAdjust="spacing" textLength="5.784" x="42.3559" y="232.782">4</text><text fill="#000000" font-family="sans-serif" font-size="10.4" lengthAdjust="spacing" textLength="2.8895" x="51.3398" y="232.782">&#160;</text><!--SRC=[XP31QiCm38RlUGhXNBhHle0FktINmWQ5qTikJgoc7eva5BbZRpyrP93sil_qsyZV9nogCjMnGsc2rT1hkWP5O6e6uLhQWNE4zlkIxBA4IN7FOs52qga1Y_EdWuFTowsylns5lx1Nv-5uFxifd4YVvYV4nf8qN1Jul01QmUYX-u4zamhdR0l1aZlohEghY55VKnWaZ9_adsrYEPdxO5RHZzgD76l6ZUjpAXq7YMuBgqLk4Jm3Nr4UBDj_9E0XpHQO_ZGhf5QXPbMHukFd_G80]--></g></svg>