<svg xmlns="http://www.w3.org/2000/svg" xmlns:xlink="http://www.w3.org/1999/xlink" contentStyleType="text/css" height="384px" preserveAspectRatio="none" style="width:557px;height:384px;background:#FFFFFF;" version="1.1" viewBox="0 0 557 384" width="557px" zoomAndPan="magnify"><defs/><g><rect fill="#FFFFFF" height="223.6191" style="stroke:#181818;stroke-width:1.0;" width="10" x="119.6772" y="98.2031"/><rect fill="#FFFFFF" height="77.5186" style="stroke:#181818;stroke-width:1.0;" width="10" x="273.6011" y="230.3037"/><rect fill="#FFFFFF" height="274.2012" style="stroke:#000000;stroke-width:1.5;" width="542.2544" x="9" y="55.6211"/><line style="stroke:#181818;stroke-width:0.5;stroke-dasharray:5.0,5.0;" x1="124.167" x2="124.167" y1="38.6211" y2="346.8223"/><line style="stroke:#181818;stroke-width:0.5;stroke-dasharray:5.0,5.0;" x1="278.1875" x2="278.1875" y1="38.6211" y2="346.8223"/><rect fill="#E2E2F0" height="32.6211" rx="2.5" ry="2.5" style="stroke:#181818;stroke-width:0.5;" width="91.0205" x="79.167" y="5"/><text fill="#000000" font-family="sans-serif" font-size="14" lengthAdjust="spacing" textLength="77.0205" x="86.167" y="27.1074">:UMLProject</text><rect fill="#E2E2F0" height="32.6211" rx="2.5" ry="2.5" style="stroke:#181818;stroke-width:0.5;" width="91.0205" x="79.167" y="345.8223"/><text fill="#000000" font-family="sans-serif" font-size="14" lengthAdjust="spacing" textLength="77.0205" x="86.167" y="367.9297">:UMLProject</text><rect fill="#E2E2F0" height="32.6211" rx="2.5" ry="2.5" style="stroke:#181818;stroke-width:0.5;" width="196.8271" x="180.1875" y="5"/><text fill="#000000" font-family="sans-serif" font-size="14" lengthAdjust="spacing" textLength="182.8271" x="187.1875" y="27.1074">currentDiagram:UMLDiagram</text><rect fill="#E2E2F0" height="32.6211" rx="2.5" ry="2.5" style="stroke:#181818;stroke-width:0.5;" width="196.8271" x="180.1875" y="345.8223"/><text fill="#000000" font-family="sans-serif" font-size="14" lengthAdjust="spacing" textLength="182.8271" x="187.1875" y="367.9297">currentDiagram:UMLDiagram</text><rect fill="#FFFFFF" height="223.6191" style="stroke:#181818;stroke-width:1.0;" width="10" x="119.6772" y="98.2031"/><rect fill="#FFFFFF" height="77.5186" style="stroke:#181818;stroke-width:1.0;" width="10" x="273.6011" y="230.3037"/><path d="M9,55.6211 L82.1709,55.6211 L82.1709,64.9121 L72.1709,74.9121 L9,74.9121 L9,55.6211 " fill="#FFD700" style="stroke:#000000;stroke-width:1.5;"/><rect fill="none" height="274.2012" style="stroke:#000000;stroke-width:1.5;" width="542.2544" x="9" y="55.6211"/><text fill="#000000" font-family="sans-serif" font-size="13" font-weight="bold" lengthAdjust="spacing" textLength="28.1709" x="24" y="70.6494">redo</text><polygon fill="#181818" points="107.6772,94.2031,117.6772,98.2031,107.6772,102.2031,111.6772,98.2031" style="stroke:#181818;stroke-width:1.0;"/><line style="stroke:#181818;stroke-width:1.0;" x1="0" x2="113.6772" y1="98.2031" y2="98.2031"/><text fill="#000000" font-family="sans-serif" font-size="13" lengthAdjust="spacing" textLength="34.6772" x="7" y="92.9404">redo()</text><path d="M19,111.2031 L19,138.2031 L113,138.2031 L113,121.2031 L103,111.2031 L19,111.2031 " fill="#FF0000" style="stroke:#181818;stroke-width:0.5;"/><path d="M103,111.2031 L103,121.2031 L113,121.2031 L103,111.2031 " fill="#FF0000" style="stroke:#181818;stroke-width:0.5;"/><text fill="#000000" font-family="sans-serif" font-size="13" lengthAdjust="spacing" textLength="73.6963" x="25" y="130.2314">by Controller</text><polygon fill="#181818" points="261.6011,226.3037,271.6011,230.3037,261.6011,234.3037,265.6011,230.3037" style="stroke:#181818;stroke-width:1.0;"/><line style="stroke:#181818;stroke-width:1.0;" x1="129.6772" x2="267.6011" y1="230.3037" y2="230.3037"/><text fill="#000000" font-family="sans-serif" font-size="13" lengthAdjust="spacing" textLength="34.6772" x="136.6772" y="225.041">redo()</text><path d="M288,148.4941 L288,296.4941 L545,296.4941 L545,158.4941 L535,148.4941 L288,148.4941 " fill="#FEFFDD" style="stroke:#181818;stroke-width:0.5;"/><path d="M535,148.4941 L535,158.4941 L545,158.4941 L535,148.4941 " fill="#FEFFDD" style="stroke:#181818;stroke-width:0.5;"/><text fill="#000000" font-family="sans-serif" font-size="13" lengthAdjust="spacing" textLength="129.3271" x="294" y="167.5225">UMLDiagram::undo() {</text><text fill="#000000" font-family="sans-serif" font-size="13" lengthAdjust="spacing" textLength="148.4844" x="308.4473" y="184.8135">if (redoDeque.size() &gt; 0) {</text><text fill="#000000" font-family="sans-serif" font-size="13" lengthAdjust="spacing" textLength="207.7588" x="322.8945" y="202.1045">auto&amp; command = redoDeque.top();</text><text fill="#000000" font-family="sans-serif" font-size="13" lengthAdjust="spacing" textLength="175.9253" x="322.8945" y="219.3955">this-&gt;doCommand(command);</text><text fill="#000000" font-family="sans-serif" font-size="13" lengthAdjust="spacing" textLength="101.8989" x="322.8945" y="236.6865">redoDeque.pop();</text><text fill="#000000" font-family="sans-serif" font-size="13" lengthAdjust="spacing" textLength="168.3779" x="322.8945" y="253.9775">undoDeque.push(command);</text><text fill="#000000" font-family="sans-serif" font-size="13" lengthAdjust="spacing" textLength="4.3418" x="308.4473" y="271.2686">}</text><text fill="#000000" font-family="sans-serif" font-size="13" lengthAdjust="spacing" textLength="4.3418" x="294" y="288.5596">}</text><polygon fill="#181818" points="140.6772,303.8223,130.6772,307.8223,140.6772,311.8223,136.6772,307.8223" style="stroke:#181818;stroke-width:1.0;"/><line style="stroke:#181818;stroke-width:1.0;stroke-dasharray:2.0,2.0;" x1="134.6772" x2="277.6011" y1="307.8223" y2="307.8223"/><polygon fill="#181818" points="11,317.8223,1,321.8223,11,325.8223,7,321.8223" style="stroke:#181818;stroke-width:1.0;"/><line style="stroke:#181818;stroke-width:1.0;stroke-dasharray:2.0,2.0;" x1="5" x2="123.6772" y1="321.8223" y2="321.8223"/><!--SRC=[TP31JiCm38RlUGfhbLXt6ECSH2_RaKbSU83GkcscDYwfCmI8ToSkLGlTyCcol___BU_M7WjQxvG9J2PdUpQCG4vLdaANLDGKaBpLDWu5L11hcy5AFnyVdpoTCESLw66NReQjeyWsM39GkU2IY6buUOSzEVRKDEW7YTHVKYBou3qwFbXJUTFAUcmNWLEejrNDqsZcjGvEQFYSbbAsX5Hi3lWQyBQt7nYH3EwMd9HyvmPoQblZ2dY0MSVKfPlx2m7Njjzc1Ur_9EaelKBELjrrApb-149V_-FqfIuxZAVAOzGSnS4xzQiLHFo_0G00]--></g></svg>