<svg xmlns="http://www.w3.org/2000/svg" xmlns:xlink="http://www.w3.org/1999/xlink" contentStyleType="text/css" height="937px" preserveAspectRatio="none" style="width:1265px;height:937px;background:#FFFFFF;" version="1.1" viewBox="0 0 1265 937" width="1265px" zoomAndPan="magnify"><defs/><g><rect fill="#FFFFFF" height="739.1113" style="stroke:#181818;stroke-width:1.0;" width="10" x="175.2471" y="116.8242"/><rect fill="#FFFFFF" height="639.2383" style="stroke:#181818;stroke-width:1.0;" width="10" x="353.4941" y="185.4063"/><rect fill="#FFFFFF" height="576.6563" style="stroke:#181818;stroke-width:1.0;" width="10" x="531.7412" y="216.6973"/><rect fill="#FFFFFF" height="79.582" style="stroke:#181818;stroke-width:1.0;" width="10" x="536.7412" y="282.2793"/><rect fill="#FFFFFF" height="219.7461" style="stroke:#181818;stroke-width:1.0;" width="10" x="968.2979" y="470.7344"/><rect fill="#FFFFFF" height="42.291" style="stroke:#181818;stroke-width:1.0;" width="10" x="973.2979" y="510.0254"/><rect fill="#FFFFFF" height="68.582" style="stroke:#181818;stroke-width:1.0;" width="10" x="1171.394" y="590.6074"/><rect fill="#FFFFFF" height="31.291" style="stroke:#181818;stroke-width:1.0;" width="10" x="1171.394" y="723.7715"/><rect fill="#FFFFFF" height="789.6934" style="stroke:#000000;stroke-width:1.5;" width="1256.4214" x="3" y="74.2422"/><rect fill="#FFFFFF" height="182.4551" style="stroke:#000000;stroke-width:1.5;" width="500.1909" x="478.1069" y="231.6973"/><rect fill="#FFFFFF" height="334.9102" style="stroke:#000000;stroke-width:1.5;" width="771.3145" x="478.1069" y="428.1523"/><rect fill="#FFFFFF" height="64.582" style="stroke:none;stroke-width:1.0;" width="771.3145" x="478.1069" y="698.4805"/><line style="stroke:#181818;stroke-width:0.5;stroke-dasharray:5.0,5.0;" x1="179.7368" x2="179.7368" y1="57.2422" y2="880.9355"/><line style="stroke:#181818;stroke-width:0.5;stroke-dasharray:5.0,5.0;" x1="358.2563" x2="358.2563" y1="57.2422" y2="880.9355"/><line style="stroke:#181818;stroke-width:0.5;stroke-dasharray:5.0,5.0;" x1="536.1069" x2="536.1069" y1="57.2422" y2="880.9355"/><line style="stroke:#181818;stroke-width:0.5;stroke-dasharray:5.0,5.0;" x1="972.8672" x2="972.8672" y1="57.2422" y2="880.9355"/><line style="stroke:#181818;stroke-width:0.5;stroke-dasharray:5.0,5.0;" x1="1176.3667" x2="1176.3667" y1="57.2422" y2="880.9355"/><rect fill="#E2E2F0" height="32.6211" rx="2.5" ry="2.5" style="stroke:#181818;stroke-width:0.5;" width="91.0205" x="134.7368" y="23.6211"/><text fill="#000000" font-family="sans-serif" font-size="14" lengthAdjust="spacing" textLength="77.0205" x="141.7368" y="45.7285">:UMLProject</text><rect fill="#E2E2F0" height="32.6211" rx="2.5" ry="2.5" style="stroke:#181818;stroke-width:0.5;" width="91.0205" x="134.7368" y="879.9355"/><text fill="#000000" font-family="sans-serif" font-size="14" lengthAdjust="spacing" textLength="77.0205" x="141.7368" y="902.043">:UMLProject</text><rect fill="#E2E2F0" height="51.2422" rx="2.5" ry="2.5" style="stroke:#181818;stroke-width:0.5;" width="110.4756" x="303.2563" y="5"/><text fill="#000000" font-family="sans-serif" font-size="14" lengthAdjust="spacing" textLength="96.4756" x="310.2563" y="27.1074">currentDiagram</text><text fill="#000000" font-family="sans-serif" font-size="14" lengthAdjust="spacing" textLength="91.7998" x="312.5942" y="45.7285">:*UMLDiagram</text><rect fill="#E2E2F0" height="51.2422" rx="2.5" ry="2.5" style="stroke:#181818;stroke-width:0.5;" width="110.4756" x="303.2563" y="879.9355"/><text fill="#000000" font-family="sans-serif" font-size="14" lengthAdjust="spacing" textLength="96.4756" x="310.2563" y="902.043">currentDiagram</text><text fill="#000000" font-family="sans-serif" font-size="14" lengthAdjust="spacing" textLength="91.7998" x="312.5942" y="920.6641">:*UMLDiagram</text><rect fill="#E2E2F0" height="32.6211" rx="2.5" ry="2.5" style="stroke:#181818;stroke-width:0.5;" width="97.2686" x="488.1069" y="23.6211"/><text fill="#000000" font-family="sans-serif" font-size="14" lengthAdjust="spacing" textLength="83.2686" x="495.1069" y="45.7285">:Components</text><rect fill="#E2E2F0" height="32.6211" rx="2.5" ry="2.5" style="stroke:#181818;stroke-width:0.5;" width="97.2686" x="488.1069" y="879.9355"/><text fill="#000000" font-family="sans-serif" font-size="14" lengthAdjust="spacing" textLength="83.2686" x="495.1069" y="902.043">:Components</text><rect fill="#E2E2F0" height="51.2422" rx="2.5" ry="2.5" style="stroke:#181818;stroke-width:0.5;" width="140.8613" x="902.8672" y="5"/><text fill="#000000" font-family="sans-serif" font-size="14" lengthAdjust="spacing" textLength="126.8613" x="909.8672" y="27.1074">SelectedComponent</text><text fill="#000000" font-family="sans-serif" font-size="14" lengthAdjust="spacing" textLength="76.2686" x="935.1636" y="45.7285">:Component</text><rect fill="#E2E2F0" height="51.2422" rx="2.5" ry="2.5" style="stroke:#181818;stroke-width:0.5;" width="140.8613" x="902.8672" y="879.9355"/><text fill="#000000" font-family="sans-serif" font-size="14" lengthAdjust="spacing" textLength="126.8613" x="909.8672" y="902.043">SelectedComponent</text><text fill="#000000" font-family="sans-serif" font-size="14" lengthAdjust="spacing" textLength="76.2686" x="935.1636" y="920.6641">:Component</text><rect fill="#E2E2F0" height="32.6211" rx="2.5" ry="2.5" style="stroke:#181818;stroke-width:0.5;" width="126.0547" x="1113.3667" y="23.6211"/><text fill="#000000" font-family="sans-serif" font-size="14" lengthAdjust="spacing" textLength="112.0547" x="1120.3667" y="45.7285">:PropertyManager</text><rect fill="#E2E2F0" height="32.6211" rx="2.5" ry="2.5" style="stroke:#181818;stroke-width:0.5;" width="126.0547" x="1113.3667" y="879.9355"/><text fill="#000000" font-family="sans-serif" font-size="14" lengthAdjust="spacing" textLength="112.0547" x="1120.3667" y="902.043">:PropertyManager</text><rect fill="#FFFFFF" height="739.1113" style="stroke:#181818;stroke-width:1.0;" width="10" x="175.2471" y="116.8242"/><rect fill="#FFFFFF" height="639.2383" style="stroke:#181818;stroke-width:1.0;" width="10" x="353.4941" y="185.4063"/><rect fill="#FFFFFF" height="576.6563" style="stroke:#181818;stroke-width:1.0;" width="10" x="531.7412" y="216.6973"/><rect fill="#FFFFFF" height="79.582" style="stroke:#181818;stroke-width:1.0;" width="10" x="536.7412" y="282.2793"/><rect fill="#FFFFFF" height="219.7461" style="stroke:#181818;stroke-width:1.0;" width="10" x="968.2979" y="470.7344"/><rect fill="#FFFFFF" height="42.291" style="stroke:#181818;stroke-width:1.0;" width="10" x="973.2979" y="510.0254"/><rect fill="#FFFFFF" height="68.582" style="stroke:#181818;stroke-width:1.0;" width="10" x="1171.394" y="590.6074"/><rect fill="#FFFFFF" height="31.291" style="stroke:#181818;stroke-width:1.0;" width="10" x="1171.394" y="723.7715"/><path d="M3,74.2422 L157.0718,74.2422 L157.0718,83.5332 L147.0718,93.5332 L3,93.5332 L3,74.2422 " fill="#FFD700" style="stroke:#000000;stroke-width:1.5;"/><rect fill="none" height="789.6934" style="stroke:#000000;stroke-width:1.5;" width="1256.4214" x="3" y="74.2422"/><text fill="#000000" font-family="sans-serif" font-size="13" font-weight="bold" lengthAdjust="spacing" textLength="109.0718" x="18" y="89.2705">selectComponent</text><polygon fill="#181818" points="163.2471,112.8242,173.2471,116.8242,163.2471,120.8242,167.2471,116.8242" style="stroke:#181818;stroke-width:1.0;"/><line style="stroke:#181818;stroke-width:1.0;" x1="0" x2="169.2471" y1="116.8242" y2="116.8242"/><text fill="#000000" font-family="sans-serif" font-size="13" font-weight="bold" lengthAdjust="spacing" textLength="7.23" x="7" y="111.5615">1</text><text fill="#000000" font-family="sans-serif" font-size="13" lengthAdjust="spacing" textLength="138.0171" x="18.23" y="111.5615">selectComponent(point)</text><path d="M75,129.8242 L75,156.8242 L169,156.8242 L169,139.8242 L159,129.8242 L75,129.8242 " fill="#FF0000" style="stroke:#181818;stroke-width:0.5;"/><path d="M159,129.8242 L159,139.8242 L169,139.8242 L159,129.8242 " fill="#FF0000" style="stroke:#181818;stroke-width:0.5;"/><text fill="#000000" font-family="sans-serif" font-size="13" lengthAdjust="spacing" textLength="73.6963" x="81" y="148.8525">by Controller</text><polygon fill="#181818" points="341.4941,181.4063,351.4941,185.4063,341.4941,189.4063,345.4941,185.4063" style="stroke:#181818;stroke-width:1.0;"/><line style="stroke:#181818;stroke-width:1.0;" x1="185.2471" x2="347.4941" y1="185.4063" y2="185.4063"/><text fill="#000000" font-family="sans-serif" font-size="13" font-weight="bold" lengthAdjust="spacing" textLength="7.23" x="192.2471" y="180.1436">2</text><text fill="#000000" font-family="sans-serif" font-size="13" lengthAdjust="spacing" textLength="138.0171" x="203.4771" y="180.1436">selectComponent(point)</text><polygon fill="#181818" points="519.7412,212.6973,529.7412,216.6973,519.7412,220.6973,523.7412,216.6973" style="stroke:#181818;stroke-width:1.0;"/><line style="stroke:#181818;stroke-width:1.0;" x1="363.4941" x2="525.7412" y1="216.6973" y2="216.6973"/><text fill="#000000" font-family="sans-serif" font-size="13" font-weight="bold" lengthAdjust="spacing" textLength="7.23" x="370.4941" y="211.4346">3</text><text fill="#000000" font-family="sans-serif" font-size="13" lengthAdjust="spacing" textLength="138.0171" x="381.7241" y="211.4346">selectComponent(point)</text><path d="M478.1069,231.6973 L550.5415,231.6973 L550.5415,240.9883 L540.5415,250.9883 L478.1069,250.9883 L478.1069,231.6973 " fill="#FFD700" style="stroke:#000000;stroke-width:1.5;"/><rect fill="none" height="182.4551" style="stroke:#000000;stroke-width:1.5;" width="500.1909" x="478.1069" y="231.6973"/><text fill="#000000" font-family="sans-serif" font-size="13" font-weight="bold" lengthAdjust="spacing" textLength="27.4346" x="493.1069" y="246.7256">loop</text><text fill="#000000" font-family="sans-serif" font-size="11" font-weight="bold" lengthAdjust="spacing" textLength="145.4385" x="565.5415" y="245.5674">[component covering point]</text><line style="stroke:#181818;stroke-width:1.0;" x1="541.7412" x2="588.7412" y1="269.2793" y2="269.2793"/><line style="stroke:#181818;stroke-width:1.0;" x1="588.7412" x2="588.7412" y1="269.2793" y2="282.2793"/><line style="stroke:#181818;stroke-width:1.0;" x1="547.7412" x2="588.7412" y1="282.2793" y2="282.2793"/><polygon fill="#181818" points="557.7412,278.2793,547.7412,282.2793,557.7412,286.2793,553.7412,282.2793" style="stroke:#181818;stroke-width:1.0;"/><text fill="#000000" font-family="sans-serif" font-size="13" font-weight="bold" lengthAdjust="spacing" textLength="7.23" x="553.7412" y="264.0166">4</text><text fill="#000000" font-family="sans-serif" font-size="13" lengthAdjust="spacing" textLength="391.3267" x="564.9712" y="264.0166">selectedComponents = append(selectedComponents, &amp;component)</text><path d="M551,300.2793 L551,327.2793 L730,327.2793 L730,310.2793 L720,300.2793 L551,300.2793 " fill="#FEFFDD" style="stroke:#181818;stroke-width:0.5;"/><path d="M720,300.2793 L720,310.2793 L730,310.2793 L720,300.2793 " fill="#FEFFDD" style="stroke:#181818;stroke-width:0.5;"/><text fill="#000000" font-family="sans-serif" font-size="13" lengthAdjust="spacing" textLength="158.2725" x="557" y="319.3076">append is a built-in function</text><line style="stroke:#181818;stroke-width:1.0;stroke-dasharray:2.0,2.0;" x1="546.7412" x2="588.7412" y1="360.8613" y2="360.8613"/><line style="stroke:#181818;stroke-width:1.0;stroke-dasharray:2.0,2.0;" x1="588.7412" x2="588.7412" y1="360.8613" y2="373.8613"/><line style="stroke:#181818;stroke-width:1.0;stroke-dasharray:2.0,2.0;" x1="541.7412" x2="588.7412" y1="373.8613" y2="373.8613"/><polygon fill="#181818" points="551.7412,369.8613,541.7412,373.8613,551.7412,377.8613,547.7412,373.8613" style="stroke:#181818;stroke-width:1.0;"/><text fill="#000000" font-family="sans-serif" font-size="13" font-weight="bold" lengthAdjust="spacing" textLength="7.23" x="553.7412" y="355.5986">5</text><text fill="#000000" font-family="sans-serif" font-size="13" lengthAdjust="spacing" textLength="3.6118" x="564.9712" y="355.5986">&#160;</text><path d="M546,381.8613 L546,408.8613 L886,408.8613 L886,391.8613 L876,381.8613 L546,381.8613 " fill="#FEFFDD" style="stroke:#181818;stroke-width:0.5;"/><path d="M876,381.8613 L876,391.8613 L886,391.8613 L876,381.8613 " fill="#FEFFDD" style="stroke:#181818;stroke-width:0.5;"/><text fill="#000000" font-family="sans-serif" font-size="13" lengthAdjust="spacing" textLength="319.4141" x="552" y="400.8896">add component to a list of selected-component pointers</text><path d="M478.1069,428.1523 L543.3179,428.1523 L543.3179,437.4434 L533.3179,447.4434 L478.1069,447.4434 L478.1069,428.1523 " fill="#FFD700" style="stroke:#000000;stroke-width:1.5;"/><rect fill="none" height="334.9102" style="stroke:#000000;stroke-width:1.5;" width="771.3145" x="478.1069" y="428.1523"/><text fill="#000000" font-family="sans-serif" font-size="13" font-weight="bold" lengthAdjust="spacing" textLength="20.2109" x="493.1069" y="443.1807">opt</text><text fill="#000000" font-family="sans-serif" font-size="11" font-weight="bold" lengthAdjust="spacing" textLength="149.1284" x="558.3179" y="442.0225">[only select one component]</text><polygon fill="#181818" points="956.2979,466.7344,966.2979,470.7344,956.2979,474.7344,960.2979,470.7344" style="stroke:#181818;stroke-width:1.0;"/><line style="stroke:#181818;stroke-width:1.0;" x1="541.7412" x2="962.2979" y1="470.7344" y2="470.7344"/><text fill="#000000" font-family="sans-serif" font-size="13" font-weight="bold" lengthAdjust="spacing" textLength="7.23" x="548.7412" y="465.4717">6</text><text fill="#000000" font-family="sans-serif" font-size="13" lengthAdjust="spacing" textLength="89.5908" x="559.9712" y="465.4717">setupProperty()</text><line style="stroke:#181818;stroke-width:1.0;" x1="978.2979" x2="1025.2979" y1="497.0254" y2="497.0254"/><line style="stroke:#181818;stroke-width:1.0;" x1="1025.2979" x2="1025.2979" y1="497.0254" y2="510.0254"/><line style="stroke:#181818;stroke-width:1.0;" x1="984.2979" x2="1025.2979" y1="510.0254" y2="510.0254"/><polygon fill="#181818" points="994.2979,506.0254,984.2979,510.0254,994.2979,514.0254,990.2979,510.0254" style="stroke:#181818;stroke-width:1.0;"/><text fill="#000000" font-family="sans-serif" font-size="13" font-weight="bold" lengthAdjust="spacing" textLength="7.23" x="990.2979" y="491.7627">7</text><text fill="#000000" font-family="sans-serif" font-size="13" lengthAdjust="spacing" textLength="157.8662" x="1001.5278" y="491.7627">tree = createPropertyTree()</text><line style="stroke:#181818;stroke-width:1.0;stroke-dasharray:2.0,2.0;" x1="983.2979" x2="1025.2979" y1="551.3164" y2="551.3164"/><line style="stroke:#181818;stroke-width:1.0;stroke-dasharray:2.0,2.0;" x1="1025.2979" x2="1025.2979" y1="551.3164" y2="564.3164"/><line style="stroke:#181818;stroke-width:1.0;stroke-dasharray:2.0,2.0;" x1="978.2979" x2="1025.2979" y1="564.3164" y2="564.3164"/><polygon fill="#181818" points="988.2979,560.3164,978.2979,564.3164,988.2979,568.3164,984.2979,564.3164" style="stroke:#181818;stroke-width:1.0;"/><text fill="#000000" font-family="sans-serif" font-size="13" font-weight="bold" lengthAdjust="spacing" textLength="7.23" x="990.2979" y="546.0537">8</text><text fill="#000000" font-family="sans-serif" font-size="13" lengthAdjust="spacing" textLength="3.6118" x="1001.5278" y="546.0537">&#160;</text><polygon fill="#181818" points="1159.394,586.6074,1169.394,590.6074,1159.394,594.6074,1163.394,590.6074" style="stroke:#181818;stroke-width:1.0;"/><line style="stroke:#181818;stroke-width:1.0;" x1="978.2979" x2="1165.394" y1="590.6074" y2="590.6074"/><text fill="#000000" font-family="sans-serif" font-size="13" font-weight="bold" lengthAdjust="spacing" textLength="7.23" x="985.2979" y="585.3447">9</text><text fill="#000000" font-family="sans-serif" font-size="13" lengthAdjust="spacing" textLength="111.9917" x="996.5278" y="585.3447">setupProperty(tree)</text><path d="M791,603.6074 L791,630.6074 L1155,630.6074 L1155,613.6074 L1145,603.6074 L791,603.6074 " fill="#FEFFDD" style="stroke:#181818;stroke-width:0.5;"/><path d="M1145,603.6074 L1145,613.6074 L1155,613.6074 L1145,603.6074 " fill="#FEFFDD" style="stroke:#181818;stroke-width:0.5;"/><text fill="#000000" font-family="sans-serif" font-size="13" lengthAdjust="spacing" textLength="343.2368" x="797" y="622.6357">register the property of this component to property manager</text><polygon fill="#181818" points="989.2979,655.1895,979.2979,659.1895,989.2979,663.1895,985.2979,659.1895" style="stroke:#181818;stroke-width:1.0;"/><line style="stroke:#181818;stroke-width:1.0;stroke-dasharray:2.0,2.0;" x1="983.2979" x2="1175.394" y1="659.1895" y2="659.1895"/><text fill="#000000" font-family="sans-serif" font-size="13" font-weight="bold" lengthAdjust="spacing" textLength="14.46" x="995.2979" y="653.9268">10</text><text fill="#000000" font-family="sans-serif" font-size="13" lengthAdjust="spacing" textLength="3.6118" x="1013.7578" y="653.9268">&#160;</text><polygon fill="#181818" points="552.7412,686.4805,542.7412,690.4805,552.7412,694.4805,548.7412,690.4805" style="stroke:#181818;stroke-width:1.0;"/><line style="stroke:#181818;stroke-width:1.0;stroke-dasharray:2.0,2.0;" x1="546.7412" x2="972.2979" y1="690.4805" y2="690.4805"/><text fill="#000000" font-family="sans-serif" font-size="13" font-weight="bold" lengthAdjust="spacing" textLength="14.46" x="558.7412" y="685.2178">11</text><text fill="#000000" font-family="sans-serif" font-size="13" lengthAdjust="spacing" textLength="3.6118" x="577.2012" y="685.2178">&#160;</text><line style="stroke:#000000;stroke-width:1.0;stroke-dasharray:2.0,2.0;" x1="478.1069" x2="1249.4214" y1="699.4805" y2="699.4805"/><polygon fill="#181818" points="1159.394,719.7715,1169.394,723.7715,1159.394,727.7715,1163.394,723.7715" style="stroke:#181818;stroke-width:1.0;"/><line style="stroke:#181818;stroke-width:1.0;" x1="541.7412" x2="1165.394" y1="723.7715" y2="723.7715"/><text fill="#000000" font-family="sans-serif" font-size="13" font-weight="bold" lengthAdjust="spacing" textLength="14.46" x="548.7412" y="718.5088">12</text><text fill="#000000" font-family="sans-serif" font-size="13" lengthAdjust="spacing" textLength="85.9663" x="567.2012" y="718.5088">clearProperty()</text><polygon fill="#181818" points="552.7412,751.0625,542.7412,755.0625,552.7412,759.0625,548.7412,755.0625" style="stroke:#181818;stroke-width:1.0;"/><line style="stroke:#181818;stroke-width:1.0;stroke-dasharray:2.0,2.0;" x1="546.7412" x2="1175.394" y1="755.0625" y2="755.0625"/><text fill="#000000" font-family="sans-serif" font-size="13" font-weight="bold" lengthAdjust="spacing" textLength="14.46" x="558.7412" y="749.7998">13</text><text fill="#000000" font-family="sans-serif" font-size="13" lengthAdjust="spacing" textLength="3.6118" x="577.2012" y="749.7998">&#160;</text><polygon fill="#181818" points="374.4941,789.3535,364.4941,793.3535,374.4941,797.3535,370.4941,793.3535" style="stroke:#181818;stroke-width:1.0;"/><line style="stroke:#181818;stroke-width:1.0;stroke-dasharray:2.0,2.0;" x1="368.4941" x2="535.7412" y1="793.3535" y2="793.3535"/><text fill="#000000" font-family="sans-serif" font-size="13" font-weight="bold" lengthAdjust="spacing" textLength="14.46" x="380.4941" y="788.0908">14</text><text fill="#000000" font-family="sans-serif" font-size="13" lengthAdjust="spacing" textLength="3.6118" x="398.9541" y="788.0908">&#160;</text><polygon fill="#181818" points="196.2471,820.6445,186.2471,824.6445,196.2471,828.6445,192.2471,824.6445" style="stroke:#181818;stroke-width:1.0;"/><line style="stroke:#181818;stroke-width:1.0;stroke-dasharray:2.0,2.0;" x1="190.2471" x2="357.4941" y1="824.6445" y2="824.6445"/><text fill="#000000" font-family="sans-serif" font-size="13" font-weight="bold" lengthAdjust="spacing" textLength="14.46" x="202.2471" y="819.3818">15</text><text fill="#000000" font-family="sans-serif" font-size="13" lengthAdjust="spacing" textLength="3.6118" x="220.707" y="819.3818">&#160;</text><polygon fill="#181818" points="11,851.9355,1,855.9355,11,859.9355,7,855.9355" style="stroke:#181818;stroke-width:1.0;"/><line style="stroke:#181818;stroke-width:1.0;stroke-dasharray:2.0,2.0;" x1="5" x2="179.2471" y1="855.9355" y2="855.9355"/><text fill="#000000" font-family="sans-serif" font-size="13" font-weight="bold" lengthAdjust="spacing" textLength="14.46" x="17" y="850.6729">16</text><text fill="#000000" font-family="sans-serif" font-size="13" lengthAdjust="spacing" textLength="3.6118" x="35.46" y="850.6729">&#160;</text><!--SRC=[bLHDRy8m3BtpAooG9fZ67wYqNTXnI9EstNO9hIcPGXovBXF_VcufXRHyT3cvjlEUxUVKb4A-tAwGHqPDauhT6K4WFygPoZ39oMKm-TrOTHReC9K5RGDvz382FVCN62TVoxTtfXyDZfDkrZIGzJAhapqfYiEr0AtZQp1Xp19OxM51NfYSqugWEN5cnPYMp8hzQatEPlljaqVDQBvkbz1YteGujDK25CCm7L4yiFIOhTOEsVeSwclHhKE7PrnNoJ4xEU4PJ0Zeisa_zWGFBVEinrMBm3RVD2f4H0TCi0KOM9NMoTnwM9TUzq9NeWl5A2NxVp9asTbSX9J8sQBEF7OoFyNhSI4N4OTME8eS52IQEtctRz3KFjDXmE0_kkFKrMZjMWefWovZG9Rzj3_UEm23E8GHLU2KKT_YaUjJdHVuhcWmf8pa2BqqtkJ8lUwgEguiKBNFznjXp5LRpPGDGcXWAwbbeoiMhK4RtHwA6The1JUw0eSyiNxxgKF3DyIzHDPTnaxEsMTZLW-iypVv0m00]--></g></svg>