<svg xmlns="http://www.w3.org/2000/svg" xmlns:xlink="http://www.w3.org/1999/xlink" contentStyleType="text/css" height="595px" preserveAspectRatio="none" style="width:662px;height:595px;background:#FFFFFF;" version="1.1" viewBox="0 0 662 595" width="662px" zoomAndPan="magnify"><defs/><g><rect fill="#FFFFFF" height="434.5313" style="stroke:#181818;stroke-width:1.0;" width="10" x="210.6162" y="98.2031"/><rect fill="#FFFFFF" height="79.582" style="stroke:#181818;stroke-width:1.0;" width="10" x="215.6162" y="319.2793"/><rect fill="#FFFFFF" height="42.291" style="stroke:#181818;stroke-width:1.0;" width="10" x="215.6162" y="452.1523"/><rect fill="#FFFFFF" height="485.1133" style="stroke:#000000;stroke-width:1.5;" width="653.5239" x="3" y="55.6211"/><rect fill="#FFFFFF" height="263.3672" style="stroke:#000000;stroke-width:1.5;" width="486.418" x="160.106" y="150.4941"/><line style="stroke:#181818;stroke-width:0.5;stroke-dasharray:5.0,5.0;" x1="215.106" x2="215.106" y1="38.6211" y2="557.7344"/><line style="stroke:#181818;stroke-width:0.5;stroke-dasharray:5.0,5.0;" x1="560.5933" x2="560.5933" y1="238.8867" y2="557.7344"/><rect fill="#E2E2F0" height="32.6211" rx="2.5" ry="2.5" style="stroke:#181818;stroke-width:0.5;" width="91.0205" x="170.106" y="5"/><text fill="#000000" font-family="sans-serif" font-size="14" lengthAdjust="spacing" textLength="77.0205" x="177.106" y="27.1074">:UMLProject</text><rect fill="#E2E2F0" height="32.6211" rx="2.5" ry="2.5" style="stroke:#181818;stroke-width:0.5;" width="91.0205" x="170.106" y="556.7344"/><text fill="#000000" font-family="sans-serif" font-size="14" lengthAdjust="spacing" textLength="77.0205" x="177.106" y="578.8418">:UMLProject</text><rect fill="#E2E2F0" height="32.6211" rx="2.5" ry="2.5" style="stroke:#181818;stroke-width:0.5;" width="150.9307" x="485.5933" y="556.7344"/><text fill="#000000" font-family="sans-serif" font-size="14" lengthAdjust="spacing" textLength="136.9307" x="492.5933" y="578.8418">diagram:UMLDiagram</text><rect fill="#FFFFFF" height="434.5313" style="stroke:#181818;stroke-width:1.0;" width="10" x="210.6162" y="98.2031"/><rect fill="#FFFFFF" height="79.582" style="stroke:#181818;stroke-width:1.0;" width="10" x="215.6162" y="319.2793"/><rect fill="#FFFFFF" height="42.291" style="stroke:#181818;stroke-width:1.0;" width="10" x="215.6162" y="452.1523"/><path d="M3,55.6211 L136.8799,55.6211 L136.8799,64.9121 L126.8799,74.9121 L3,74.9121 L3,55.6211 " fill="#FFD700" style="stroke:#000000;stroke-width:1.5;"/><rect fill="none" height="485.1133" style="stroke:#000000;stroke-width:1.5;" width="653.5239" x="3" y="55.6211"/><text fill="#000000" font-family="sans-serif" font-size="13" font-weight="bold" lengthAdjust="spacing" textLength="88.8799" x="18" y="70.6494">selectDiagram</text><polygon fill="#181818" points="198.6162,94.2031,208.6162,98.2031,198.6162,102.2031,202.6162,98.2031" style="stroke:#181818;stroke-width:1.0;"/><line style="stroke:#181818;stroke-width:1.0;" x1="0" x2="204.6162" y1="98.2031" y2="98.2031"/><text fill="#000000" font-family="sans-serif" font-size="13" font-weight="bold" lengthAdjust="spacing" textLength="7.23" x="7" y="92.9404">1</text><text fill="#000000" font-family="sans-serif" font-size="13" lengthAdjust="spacing" textLength="173.3862" x="18.23" y="92.9404">selectDiagram(diagramName)</text><path d="M110,111.2031 L110,138.2031 L204,138.2031 L204,121.2031 L194,111.2031 L110,111.2031 " fill="#FF0000" style="stroke:#181818;stroke-width:0.5;"/><path d="M194,111.2031 L194,121.2031 L204,121.2031 L194,111.2031 " fill="#FF0000" style="stroke:#181818;stroke-width:0.5;"/><text fill="#000000" font-family="sans-serif" font-size="13" lengthAdjust="spacing" textLength="73.6963" x="116" y="130.2314">by Controller</text><path d="M160.106,150.4941 L225.3169,150.4941 L225.3169,159.7852 L215.3169,169.7852 L160.106,169.7852 L160.106,150.4941 " fill="#FFD700" style="stroke:#000000;stroke-width:1.5;"/><rect fill="none" height="263.3672" style="stroke:#000000;stroke-width:1.5;" width="486.418" x="160.106" y="150.4941"/><text fill="#000000" font-family="sans-serif" font-size="13" font-weight="bold" lengthAdjust="spacing" textLength="20.2109" x="175.106" y="165.5225">opt</text><text fill="#000000" font-family="sans-serif" font-size="11" font-weight="bold" lengthAdjust="spacing" textLength="197.4468" x="240.3169" y="164.3643">[diagramName not in activeDiagrams]</text><path d="M225,174.7852 L225,201.7852 L547,201.7852 L547,184.7852 L537,174.7852 L225,174.7852 " fill="#FEFFDD" style="stroke:#181818;stroke-width:0.5;"/><path d="M537,174.7852 L537,184.7852 L547,184.7852 L537,174.7852 " fill="#FEFFDD" style="stroke:#181818;stroke-width:0.5;"/><text fill="#000000" font-family="sans-serif" font-size="13" lengthAdjust="spacing" textLength="301.3613" x="231" y="193.8135">load the selected diamgram if it has not been loaded</text><polygon fill="#181818" points="473.5933,226.3672,483.5933,230.3672,473.5933,234.3672,477.5933,230.3672" style="stroke:#181818;stroke-width:1.0;"/><line style="stroke:#181818;stroke-width:1.0;stroke-dasharray:2.0,2.0;" x1="220.6162" x2="479.5933" y1="230.3672" y2="230.3672"/><text fill="#000000" font-family="sans-serif" font-size="13" font-weight="bold" lengthAdjust="spacing" textLength="7.23" x="227.6162" y="225.1045">2</text><text fill="#000000" font-family="sans-serif" font-size="13" lengthAdjust="spacing" textLength="180.1719" x="238.8462" y="225.1045">createDiagram(diagramName)"</text><rect fill="#E2E2F0" height="32.6211" rx="2.5" ry="2.5" style="stroke:#181818;stroke-width:0.5;" width="150.9307" x="485.5933" y="207.0762"/><text fill="#000000" font-family="sans-serif" font-size="14" lengthAdjust="spacing" textLength="136.9307" x="492.5933" y="229.1836">diagram:UMLDiagram</text><path d="M225,255.6973 L225,282.6973 L306,282.6973 L306,265.6973 L296,255.6973 L225,255.6973 " fill="#FF0000" style="stroke:#181818;stroke-width:0.5;"/><path d="M296,255.6973 L296,265.6973 L306,265.6973 L296,255.6973 " fill="#FF0000" style="stroke:#181818;stroke-width:0.5;"/><text fill="#000000" font-family="sans-serif" font-size="13" lengthAdjust="spacing" textLength="60.6899" x="231" y="274.7256">by Creator</text><line style="stroke:#181818;stroke-width:1.0;" x1="220.6162" x2="267.6162" y1="306.2793" y2="306.2793"/><line style="stroke:#181818;stroke-width:1.0;" x1="267.6162" x2="267.6162" y1="306.2793" y2="319.2793"/><line style="stroke:#181818;stroke-width:1.0;" x1="226.6162" x2="267.6162" y1="319.2793" y2="319.2793"/><polygon fill="#181818" points="236.6162,315.2793,226.6162,319.2793,236.6162,323.2793,232.6162,319.2793" style="stroke:#181818;stroke-width:1.0;"/><text fill="#000000" font-family="sans-serif" font-size="13" font-weight="bold" lengthAdjust="spacing" textLength="7.23" x="232.6162" y="301.0166">3</text><text fill="#000000" font-family="sans-serif" font-size="13" lengthAdjust="spacing" textLength="300.2124" x="243.8462" y="301.0166">activeDiagrams = append(activeDiagrams, diagram)</text><path d="M230,337.2793 L230,364.2793 L409,364.2793 L409,347.2793 L399,337.2793 L230,337.2793 " fill="#FEFFDD" style="stroke:#181818;stroke-width:0.5;"/><path d="M399,337.2793 L399,347.2793 L409,347.2793 L399,337.2793 " fill="#FEFFDD" style="stroke:#181818;stroke-width:0.5;"/><text fill="#000000" font-family="sans-serif" font-size="13" lengthAdjust="spacing" textLength="158.2725" x="236" y="356.3076">append is a built-in function</text><line style="stroke:#181818;stroke-width:1.0;stroke-dasharray:2.0,2.0;" x1="225.6162" x2="267.6162" y1="397.8613" y2="397.8613"/><line style="stroke:#181818;stroke-width:1.0;stroke-dasharray:2.0,2.0;" x1="267.6162" x2="267.6162" y1="397.8613" y2="410.8613"/><line style="stroke:#181818;stroke-width:1.0;stroke-dasharray:2.0,2.0;" x1="220.6162" x2="267.6162" y1="410.8613" y2="410.8613"/><polygon fill="#181818" points="230.6162,406.8613,220.6162,410.8613,230.6162,414.8613,226.6162,410.8613" style="stroke:#181818;stroke-width:1.0;"/><text fill="#000000" font-family="sans-serif" font-size="13" font-weight="bold" lengthAdjust="spacing" textLength="7.23" x="232.6162" y="392.5986">4</text><text fill="#000000" font-family="sans-serif" font-size="13" lengthAdjust="spacing" textLength="3.6118" x="243.8462" y="392.5986">&#160;</text><line style="stroke:#181818;stroke-width:1.0;" x1="220.6162" x2="267.6162" y1="439.1523" y2="439.1523"/><line style="stroke:#181818;stroke-width:1.0;" x1="267.6162" x2="267.6162" y1="439.1523" y2="452.1523"/><line style="stroke:#181818;stroke-width:1.0;" x1="226.6162" x2="267.6162" y1="452.1523" y2="452.1523"/><polygon fill="#181818" points="236.6162,448.1523,226.6162,452.1523,236.6162,456.1523,232.6162,452.1523" style="stroke:#181818;stroke-width:1.0;"/><text fill="#000000" font-family="sans-serif" font-size="13" font-weight="bold" lengthAdjust="spacing" textLength="7.23" x="232.6162" y="433.8896">5</text><text fill="#000000" font-family="sans-serif" font-size="13" lengthAdjust="spacing" textLength="282.8516" x="243.8462" y="433.8896">currentDiagram = activeDiagrams[diagramName]</text><line style="stroke:#181818;stroke-width:1.0;stroke-dasharray:2.0,2.0;" x1="225.6162" x2="267.6162" y1="493.4434" y2="493.4434"/><line style="stroke:#181818;stroke-width:1.0;stroke-dasharray:2.0,2.0;" x1="267.6162" x2="267.6162" y1="493.4434" y2="506.4434"/><line style="stroke:#181818;stroke-width:1.0;stroke-dasharray:2.0,2.0;" x1="220.6162" x2="267.6162" y1="506.4434" y2="506.4434"/><polygon fill="#181818" points="230.6162,502.4434,220.6162,506.4434,230.6162,510.4434,226.6162,506.4434" style="stroke:#181818;stroke-width:1.0;"/><text fill="#000000" font-family="sans-serif" font-size="13" font-weight="bold" lengthAdjust="spacing" textLength="7.23" x="232.6162" y="488.1807">6</text><text fill="#000000" font-family="sans-serif" font-size="13" lengthAdjust="spacing" textLength="3.6118" x="243.8462" y="488.1807">&#160;</text><polygon fill="#181818" points="11,528.7344,1,532.7344,11,536.7344,7,532.7344" style="stroke:#181818;stroke-width:1.0;"/><line style="stroke:#181818;stroke-width:1.0;stroke-dasharray:2.0,2.0;" x1="5" x2="214.6162" y1="532.7344" y2="532.7344"/><text fill="#000000" font-family="sans-serif" font-size="13" font-weight="bold" lengthAdjust="spacing" textLength="7.23" x="17" y="527.4717">7</text><text fill="#000000" font-family="sans-serif" font-size="13" lengthAdjust="spacing" textLength="3.6118" x="28.23" y="527.4717">&#160;</text><!--SRC=[ZPAnJiCm48RtFCMlP6ahyWAHO86H8XOcnE34byJ8iQEB3UBjiTEan6g5wiNMsVVVTxzFU6UD7shYJ8IZQ9pw4evWJTQnzMFHMIrHVFSg12VIrBWd9JeMGuQmoWVarTln-PNjPxZAg_JDJfxs5p7GVaumDkXeQXricwQYO98LwXyyMkFOQXsOi2mxkeHaenibeGncT5eAJ-VCSr5MNNzPjOAsGiBrQtSae_WGHQ1QA8TUJ7EDciZChqacwcaNPRHamOiN2r2Emm4Lq305Uw_Paz-Al34gYbd-Z-RYVrARS0ynZcJaBetVhGxlRpVo90GrGQ3sIhio_4hhJH0EqxILONAU_q8XAxiDFpZOU6Oowu15_WJyVMFfHtQbu7ACfCce_W80]--></g></svg>