<svg xmlns="http://www.w3.org/2000/svg" xmlns:xlink="http://www.w3.org/1999/xlink" contentStyleType="text/css" height="708px" preserveAspectRatio="none" style="width:334px;height:708px;background:#FFFFFF;" version="1.1" viewBox="0 0 334 708" width="334px" zoomAndPan="magnify"><defs/><g><rect fill="#FFFFFF" height="50.582" style="stroke:#000000;stroke-width:1.5;" width="325.9727" x="3" y="86.9121"/><rect fill="#FFFFFF" height="50.582" style="stroke:#000000;stroke-width:1.5;" width="325.9727" x="3" y="151.4941"/><rect fill="#FFFFFF" height="50.582" style="stroke:#000000;stroke-width:1.5;" width="325.9727" x="3" y="216.0762"/><rect fill="#FFFFFF" height="50.582" style="stroke:#000000;stroke-width:1.5;" width="325.9727" x="3" y="280.6582"/><rect fill="#FFFFFF" height="50.582" style="stroke:#000000;stroke-width:1.5;" width="325.9727" x="3" y="345.2402"/><rect fill="#FFFFFF" height="50.582" style="stroke:#000000;stroke-width:1.5;" width="325.9727" x="3" y="409.8223"/><rect fill="#FFFFFF" height="50.582" style="stroke:#000000;stroke-width:1.5;" width="325.9727" x="3" y="474.4043"/><rect fill="#FFFFFF" height="50.582" style="stroke:#000000;stroke-width:1.5;" width="325.9727" x="3" y="538.9863"/><rect fill="#FFFFFF" height="50.582" style="stroke:#000000;stroke-width:1.5;" width="325.9727" x="3" y="603.5684"/><line style="stroke:#181818;stroke-width:0.5;stroke-dasharray:5.0,5.0;" x1="272.9521" x2="272.9521" y1="38.6211" y2="671.1504"/><rect fill="#E2E2F0" height="32.6211" rx="2.5" ry="2.5" style="stroke:#181818;stroke-width:0.5;" width="91.0205" x="227.9521" y="5"/><text fill="#000000" font-family="sans-serif" font-size="14" lengthAdjust="spacing" textLength="77.0205" x="234.9521" y="27.1074">:UMLProject</text><rect fill="#E2E2F0" height="32.6211" rx="2.5" ry="2.5" style="stroke:#181818;stroke-width:0.5;" width="91.0205" x="227.9521" y="670.1504"/><text fill="#000000" font-family="sans-serif" font-size="14" lengthAdjust="spacing" textLength="77.0205" x="234.9521" y="692.2578">:UMLProject</text><polygon fill="#181818" points="261.4624,67.9121,271.4624,71.9121,261.4624,75.9121,265.4624,71.9121" style="stroke:#181818;stroke-width:1.0;"/><line style="stroke:#181818;stroke-width:1.0;" x1="0" x2="267.4624" y1="71.9121" y2="71.9121"/><text fill="#000000" font-family="sans-serif" font-size="13" font-weight="bold" lengthAdjust="spacing" textLength="7.23" x="7" y="66.6494">1</text><text fill="#000000" font-family="sans-serif" font-size="13" lengthAdjust="spacing" textLength="147.4053" x="18.23" y="66.6494">openProject(pojectName)</text><path d="M3,86.9121 L68.2109,86.9121 L68.2109,96.2031 L58.2109,106.2031 L3,106.2031 L3,86.9121 " fill="#FFD700" style="stroke:#000000;stroke-width:1.5;"/><rect fill="none" height="50.582" style="stroke:#000000;stroke-width:1.5;" width="325.9727" x="3" y="86.9121"/><text fill="#000000" font-family="sans-serif" font-size="13" font-weight="bold" lengthAdjust="spacing" textLength="20.2109" x="18" y="101.9404">opt</text><polygon fill="#181818" points="261.4624,125.4941,271.4624,129.4941,261.4624,133.4941,265.4624,129.4941" style="stroke:#181818;stroke-width:1.0;"/><line style="stroke:#181818;stroke-width:1.0;" x1="0" x2="267.4624" y1="129.4941" y2="129.4941"/><text fill="#000000" font-family="sans-serif" font-size="13" font-weight="bold" lengthAdjust="spacing" textLength="7.23" x="7" y="124.2314">2</text><text fill="#000000" font-family="sans-serif" font-size="13" lengthAdjust="spacing" textLength="173.3862" x="18.23" y="124.2314">selectDiagram(diagramName)</text><path d="M3,151.4941 L68.2109,151.4941 L68.2109,160.7852 L58.2109,170.7852 L3,170.7852 L3,151.4941 " fill="#FFD700" style="stroke:#000000;stroke-width:1.5;"/><rect fill="none" height="50.582" style="stroke:#000000;stroke-width:1.5;" width="325.9727" x="3" y="151.4941"/><text fill="#000000" font-family="sans-serif" font-size="13" font-weight="bold" lengthAdjust="spacing" textLength="20.2109" x="18" y="166.5225">opt</text><polygon fill="#181818" points="261.4624,190.0762,271.4624,194.0762,261.4624,198.0762,265.4624,194.0762" style="stroke:#181818;stroke-width:1.0;"/><line style="stroke:#181818;stroke-width:1.0;" x1="0" x2="267.4624" y1="194.0762" y2="194.0762"/><text fill="#000000" font-family="sans-serif" font-size="13" font-weight="bold" lengthAdjust="spacing" textLength="7.23" x="7" y="188.8135">3</text><text fill="#000000" font-family="sans-serif" font-size="13" lengthAdjust="spacing" textLength="177.0679" x="18.23" y="188.8135">addGadget(gadgetType, point)</text><path d="M3,216.0762 L68.2109,216.0762 L68.2109,225.3672 L58.2109,235.3672 L3,235.3672 L3,216.0762 " fill="#FFD700" style="stroke:#000000;stroke-width:1.5;"/><rect fill="none" height="50.582" style="stroke:#000000;stroke-width:1.5;" width="325.9727" x="3" y="216.0762"/><text fill="#000000" font-family="sans-serif" font-size="13" font-weight="bold" lengthAdjust="spacing" textLength="20.2109" x="18" y="231.1045">opt</text><polygon fill="#181818" points="261.4624,254.6582,271.4624,258.6582,261.4624,262.6582,265.4624,258.6582" style="stroke:#181818;stroke-width:1.0;"/><line style="stroke:#181818;stroke-width:1.0;" x1="0" x2="267.4624" y1="258.6582" y2="258.6582"/><text fill="#000000" font-family="sans-serif" font-size="13" font-weight="bold" lengthAdjust="spacing" textLength="7.23" x="7" y="253.3955">4</text><text fill="#000000" font-family="sans-serif" font-size="13" lengthAdjust="spacing" textLength="138.0171" x="18.23" y="253.3955">selectComponent(point)</text><path d="M3,280.6582 L68.2109,280.6582 L68.2109,289.9492 L58.2109,299.9492 L3,299.9492 L3,280.6582 " fill="#FFD700" style="stroke:#000000;stroke-width:1.5;"/><rect fill="none" height="50.582" style="stroke:#000000;stroke-width:1.5;" width="325.9727" x="3" y="280.6582"/><text fill="#000000" font-family="sans-serif" font-size="13" font-weight="bold" lengthAdjust="spacing" textLength="20.2109" x="18" y="295.6865">opt</text><polygon fill="#181818" points="261.4624,319.2402,271.4624,323.2402,261.4624,327.2402,265.4624,323.2402" style="stroke:#181818;stroke-width:1.0;"/><line style="stroke:#181818;stroke-width:1.0;" x1="0" x2="267.4624" y1="323.2402" y2="323.2402"/><text fill="#000000" font-family="sans-serif" font-size="13" font-weight="bold" lengthAdjust="spacing" textLength="7.23" x="7" y="317.9775">5</text><text fill="#000000" font-family="sans-serif" font-size="13" lengthAdjust="spacing" textLength="192.207" x="18.23" y="317.9775">addAssociation(AssociationType)</text><path d="M3,345.2402 L68.2109,345.2402 L68.2109,354.5313 L58.2109,364.5313 L3,364.5313 L3,345.2402 " fill="#FFD700" style="stroke:#000000;stroke-width:1.5;"/><rect fill="none" height="50.582" style="stroke:#000000;stroke-width:1.5;" width="325.9727" x="3" y="345.2402"/><text fill="#000000" font-family="sans-serif" font-size="13" font-weight="bold" lengthAdjust="spacing" textLength="20.2109" x="18" y="360.2686">opt</text><polygon fill="#181818" points="261.4624,383.8223,271.4624,387.8223,261.4624,391.8223,265.4624,387.8223" style="stroke:#181818;stroke-width:1.0;"/><line style="stroke:#181818;stroke-width:1.0;" x1="0" x2="267.4624" y1="387.8223" y2="387.8223"/><text fill="#000000" font-family="sans-serif" font-size="13" font-weight="bold" lengthAdjust="spacing" textLength="7.23" x="7" y="382.5596">6</text><text fill="#000000" font-family="sans-serif" font-size="13" lengthAdjust="spacing" textLength="114.8862" x="18.23" y="382.5596">startDragging(point)</text><path d="M3,409.8223 L68.2109,409.8223 L68.2109,419.1133 L58.2109,429.1133 L3,429.1133 L3,409.8223 " fill="#FFD700" style="stroke:#000000;stroke-width:1.5;"/><rect fill="none" height="50.582" style="stroke:#000000;stroke-width:1.5;" width="325.9727" x="3" y="409.8223"/><text fill="#000000" font-family="sans-serif" font-size="13" font-weight="bold" lengthAdjust="spacing" textLength="20.2109" x="18" y="424.8506">opt</text><polygon fill="#181818" points="261.4624,448.4043,271.4624,452.4043,261.4624,456.4043,265.4624,452.4043" style="stroke:#181818;stroke-width:1.0;"/><line style="stroke:#181818;stroke-width:1.0;" x1="0" x2="267.4624" y1="452.4043" y2="452.4043"/><text fill="#000000" font-family="sans-serif" font-size="13" font-weight="bold" lengthAdjust="spacing" textLength="7.23" x="7" y="447.1416">7</text><text fill="#000000" font-family="sans-serif" font-size="13" lengthAdjust="spacing" textLength="114.1753" x="18.23" y="447.1416">stopDragging(point)</text><path d="M3,474.4043 L68.2109,474.4043 L68.2109,483.6953 L58.2109,493.6953 L3,493.6953 L3,474.4043 " fill="#FFD700" style="stroke:#000000;stroke-width:1.5;"/><rect fill="none" height="50.582" style="stroke:#000000;stroke-width:1.5;" width="325.9727" x="3" y="474.4043"/><text fill="#000000" font-family="sans-serif" font-size="13" font-weight="bold" lengthAdjust="spacing" textLength="20.2109" x="18" y="489.4326">opt</text><polygon fill="#181818" points="261.4624,512.9863,271.4624,516.9863,261.4624,520.9863,265.4624,516.9863" style="stroke:#181818;stroke-width:1.0;"/><line style="stroke:#181818;stroke-width:1.0;" x1="0" x2="267.4624" y1="516.9863" y2="516.9863"/><text fill="#000000" font-family="sans-serif" font-size="13" font-weight="bold" lengthAdjust="spacing" textLength="7.23" x="7" y="511.7236">8</text><text fill="#000000" font-family="sans-serif" font-size="13" lengthAdjust="spacing" textLength="145.2344" x="18.23" y="511.7236">unselectAllComponents()</text><path d="M3,538.9863 L68.2109,538.9863 L68.2109,548.2773 L58.2109,558.2773 L3,558.2773 L3,538.9863 " fill="#FFD700" style="stroke:#000000;stroke-width:1.5;"/><rect fill="none" height="50.582" style="stroke:#000000;stroke-width:1.5;" width="325.9727" x="3" y="538.9863"/><text fill="#000000" font-family="sans-serif" font-size="13" font-weight="bold" lengthAdjust="spacing" textLength="20.2109" x="18" y="554.0146">opt</text><polygon fill="#181818" points="261.4624,577.5684,271.4624,581.5684,261.4624,585.5684,265.4624,581.5684" style="stroke:#181818;stroke-width:1.0;"/><line style="stroke:#181818;stroke-width:1.0;" x1="0" x2="267.4624" y1="581.5684" y2="581.5684"/><text fill="#000000" font-family="sans-serif" font-size="13" font-weight="bold" lengthAdjust="spacing" textLength="7.23" x="7" y="576.3057">9</text><text fill="#000000" font-family="sans-serif" font-size="13" lengthAdjust="spacing" textLength="138.0171" x="18.23" y="576.3057">selectComponent(point)</text><path d="M3,603.5684 L68.2109,603.5684 L68.2109,612.8594 L58.2109,622.8594 L3,622.8594 L3,603.5684 " fill="#FFD700" style="stroke:#000000;stroke-width:1.5;"/><rect fill="none" height="50.582" style="stroke:#000000;stroke-width:1.5;" width="325.9727" x="3" y="603.5684"/><text fill="#000000" font-family="sans-serif" font-size="13" font-weight="bold" lengthAdjust="spacing" textLength="20.2109" x="18" y="618.5967">opt</text><polygon fill="#181818" points="261.4624,642.1504,271.4624,646.1504,261.4624,650.1504,265.4624,646.1504" style="stroke:#181818;stroke-width:1.0;"/><line style="stroke:#181818;stroke-width:1.0;" x1="0" x2="267.4624" y1="646.1504" y2="646.1504"/><text fill="#000000" font-family="sans-serif" font-size="13" font-weight="bold" lengthAdjust="spacing" textLength="14.46" x="7" y="640.8877">10</text><text fill="#000000" font-family="sans-serif" font-size="13" lengthAdjust="spacing" textLength="224.0024" x="25.46" y="640.8877">editAttribute(attributeName, newValue)</text><!--SRC=[dP91Qm8n48Nl-oi6lKImVy13OL7efKeFjlVH36bATYOa4yH_tsRNYk0UNEVoNWxpyV8OB2fSkWEb1bvUORRwtBv_9FcXeyvM897uyZAnbnrsj6Wawjn9i30_VNkb1khShsSAVsRZqINiZ1rq813RHobexHjQHsfSB_jpf2L4yQoJE4EQjNHHcBX-g2T0HS0OOpHAcxCSFQeNDZU-Xfh6oef9DmcTy-oU2PDLukFx8u32GoLj2DTMifa8cTpg28EirrOr-KDHClZlwgKiWUdqXQ5Sslq5]--></g></svg>