<svg xmlns="http://www.w3.org/2000/svg" xmlns:xlink="http://www.w3.org/1999/xlink" contentStyleType="text/css" height="320.8px" preserveAspectRatio="none" style="width:629px;height:320px;background:#FFFFFF;" version="1.1" viewBox="0 0 629 320" width="629.6px" zoomAndPan="magnify"><defs/><g><rect fill="#FFFFFF" height="192.7281" style="stroke:#181818;stroke-width:0.8000000000000002;" width="8" x="81.9199" y="78.5625"/><rect fill="#FFFFFF" height="68.9313" style="stroke:#181818;stroke-width:0.8000000000000002;" width="8" x="205.059" y="191.1594"/><rect fill="#FFFFFF" height="233.1938" style="stroke:#000000;stroke-width:1.2000000000000002;" width="617.4063" x="8" y="44.4969"/><line style="stroke:#181818;stroke-width:0.4000000000000001;stroke-dasharray:5.0,5.0;" x1="28" x2="28" y1="30.8969" y2="291.2906"/><line style="stroke:#181818;stroke-width:0.4000000000000001;stroke-dasharray:5.0,5.0;" x1="85.5117" x2="85.5117" y1="30.8969" y2="291.2906"/><line style="stroke:#181818;stroke-width:0.4000000000000001;stroke-dasharray:5.0,5.0;" x1="208.7281" x2="208.7281" y1="30.8969" y2="291.2906"/><rect fill="#E2E2F0" height="26.0969" rx="2" ry="2" style="stroke:#181818;stroke-width:0.4000000000000001;" width="25.5117" x="16" y="4"/><text fill="#000000" font-family="sans-serif" font-size="11.2" lengthAdjust="spacing" textLength="14.3117" x="21.6" y="21.6859">:UI</text><rect fill="#E2E2F0" height="26.0969" rx="2" ry="2" style="stroke:#181818;stroke-width:0.4000000000000001;" width="25.5117" x="16" y="290.4906"/><text fill="#000000" font-family="sans-serif" font-size="11.2" lengthAdjust="spacing" textLength="14.3117" x="21.6" y="308.1766">:UI</text><rect fill="#E2E2F0" height="26.0969" rx="2" ry="2" style="stroke:#181818;stroke-width:0.4000000000000001;" width="72.8164" x="49.5117" y="4"/><text fill="#000000" font-family="sans-serif" font-size="11.2" lengthAdjust="spacing" textLength="61.6164" x="55.1117" y="21.6859">:UMLProject</text><rect fill="#E2E2F0" height="26.0969" rx="2" ry="2" style="stroke:#181818;stroke-width:0.4000000000000001;" width="72.8164" x="49.5117" y="290.4906"/><text fill="#000000" font-family="sans-serif" font-size="11.2" lengthAdjust="spacing" textLength="61.6164" x="55.1117" y="308.1766">:UMLProject</text><rect fill="#E2E2F0" height="26.0969" rx="2" ry="2" style="stroke:#181818;stroke-width:0.4000000000000001;" width="157.4617" x="130.3281" y="4"/><text fill="#000000" font-family="sans-serif" font-size="11.2" lengthAdjust="spacing" textLength="146.2617" x="135.9281" y="21.6859">currentDiagram:UMLDiagram</text><rect fill="#E2E2F0" height="26.0969" rx="2" ry="2" style="stroke:#181818;stroke-width:0.4000000000000001;" width="157.4617" x="130.3281" y="290.4906"/><text fill="#000000" font-family="sans-serif" font-size="11.2" lengthAdjust="spacing" textLength="146.2617" x="135.9281" y="308.1766">currentDiagram:UMLDiagram</text><rect fill="#FFFFFF" height="192.7281" style="stroke:#181818;stroke-width:0.8000000000000002;" width="8" x="81.9199" y="78.5625"/><rect fill="#FFFFFF" height="68.9313" style="stroke:#181818;stroke-width:0.8000000000000002;" width="8" x="205.059" y="191.1594"/><path d="M8,44.4969 L69.4109,44.4969 L69.4109,51.9297 L61.4109,59.9297 L8,59.9297 L8,44.4969 " fill="#FFD700" style="stroke:#000000;stroke-width:1.2000000000000002;"/><rect fill="none" height="233.1938" style="stroke:#000000;stroke-width:1.2000000000000002;" width="617.4063" x="8" y="44.4969"/><text fill="#000000" font-family="sans-serif" font-size="10.4" font-weight="bold" lengthAdjust="spacing" textLength="25.4109" x="20" y="56.5195">undo</text><polygon fill="#181818" points="72.3199,75.3625,80.3199,78.5625,72.3199,81.7625,75.5199,78.5625" style="stroke:#181818;stroke-width:0.8000000000000002;"/><line style="stroke:#181818;stroke-width:0.8000000000000002;" x1="28.7559" x2="77.1199" y1="78.5625" y2="78.5625"/><text fill="#000000" font-family="sans-serif" font-size="10.4" lengthAdjust="spacing" textLength="30.0625" x="34.3559" y="74.3523">undo()</text><path d="M32,88.9625 L32,110.5625 L107.2,110.5625 L107.2,96.9625 L99.2,88.9625 L32,88.9625 " fill="#FF0000" style="stroke:#181818;stroke-width:0.4000000000000001;"/><path d="M99.2,88.9625 L99.2,96.9625 L107.2,96.9625 L99.2,88.9625 " fill="#FF0000" style="stroke:#181818;stroke-width:0.4000000000000001;"/><text fill="#000000" font-family="sans-serif" font-size="10.4" lengthAdjust="spacing" textLength="58.957" x="36.8" y="104.1852">by Controller</text><polygon fill="#181818" points="195.459,187.9594,203.459,191.1594,195.459,194.3594,198.659,191.1594" style="stroke:#181818;stroke-width:0.8000000000000002;"/><line style="stroke:#181818;stroke-width:0.8000000000000002;" x1="89.9199" x2="200.259" y1="191.1594" y2="191.1594"/><text fill="#000000" font-family="sans-serif" font-size="10.4" lengthAdjust="spacing" textLength="30.0625" x="95.5199" y="186.9492">undo()</text><path d="M216.8,118.7953 L216.8,250.7953 L620.8,250.7953 L620.8,126.7953 L612.8,118.7953 L216.8,118.7953 " fill="#FEFFDD" style="stroke:#181818;stroke-width:0.4000000000000001;"/><path d="M612.8,118.7953 L612.8,126.7953 L620.8,126.7953 L612.8,118.7953 " fill="#FEFFDD" style="stroke:#181818;stroke-width:0.4000000000000001;"/><text fill="#000000" font-family="sans-serif" font-size="10.4" lengthAdjust="spacing" textLength="103.4617" x="221.6" y="134.018">UMLDiagram::undo() {</text><text fill="#000000" font-family="sans-serif" font-size="10.4" lengthAdjust="spacing" textLength="121.1082" x="233.1578" y="147.8508">if (undoDeque.size() &gt; 0) {</text><text fill="#000000" font-family="sans-serif" font-size="10.4" lengthAdjust="spacing" textLength="168.5277" x="244.7156" y="161.6836">auto&amp; command = undoDeque.top();</text><text fill="#000000" font-family="sans-serif" font-size="10.4" lengthAdjust="spacing" textLength="364.4316" x="244.7156" y="175.5164">// void UMLDiagram::doCommand(ICommand* command, bool reverse = false)</text><text fill="#000000" font-family="sans-serif" font-size="10.4" lengthAdjust="spacing" textLength="164.4398" x="244.7156" y="189.3492">this-&gt;doCommand(command, true);</text><text fill="#000000" font-family="sans-serif" font-size="10.4" lengthAdjust="spacing" textLength="83.8398" x="244.7156" y="203.182">undoDeque.pop();</text><text fill="#000000" font-family="sans-serif" font-size="10.4" lengthAdjust="spacing" textLength="132.3816" x="244.7156" y="217.0148">redoDeque.push(command);</text><text fill="#000000" font-family="sans-serif" font-size="10.4" lengthAdjust="spacing" textLength="3.4734" x="233.1578" y="230.8477">}</text><text fill="#000000" font-family="sans-serif" font-size="10.4" lengthAdjust="spacing" textLength="3.4734" x="221.6" y="244.6805">}</text><polygon fill="#181818" points="98.7199,256.8906,90.7199,260.0906,98.7199,263.2906,95.5199,260.0906" style="stroke:#181818;stroke-width:0.8000000000000002;"/><line style="stroke:#181818;stroke-width:0.8000000000000002;stroke-dasharray:2.0,2.0;" x1="93.9199" x2="208.259" y1="260.0906" y2="260.0906"/><polygon fill="#181818" points="37.5559,268.0906,29.5559,271.2906,37.5559,274.4906,34.3559,271.2906" style="stroke:#181818;stroke-width:0.8000000000000002;"/><line style="stroke:#181818;stroke-width:0.8000000000000002;stroke-dasharray:2.0,2.0;" x1="32.7559" x2="85.1199" y1="271.2906" y2="271.2906"/><!--SRC=[RP7FJeD04CRlFCK44Wl6YcUCNDfB4qsy-01RcC8QsC5X5wF6TtUNygT2v_Hbv_TzCvcDDqRbj8azOJI9JCjEQ0HINi5acg2WAeVWivJsqO4UsFAJjuCFszI9b-TNfdVCj0z9JuHHpoYo3fP5gO5EWoDWp1CuVi6Eb6QgAkIU7J8lebnsPfXHwRqK1OlQjGUvcBIODhtDXYGvu_0pDLt94uIkiSSFW_Uj_4QBfF2mv5ovwzn0HdKjL0vFCFiqDM7qk3B4CNGaytzRvBGx1uI7GToEaNTm9Ag0iKDkqGuuYQh5Q1MhIzbkqpbeicisU6MDUS_c-fxsIqR0jEMOjm1_lRL2UmTtTczEqeQLTo4TuXRu0m00]--></g></svg>