<svg xmlns="http://www.w3.org/2000/svg" xmlns:xlink="http://www.w3.org/1999/xlink" contentStyleType="text/css" height="384px" preserveAspectRatio="none" style="width:560px;height:384px;background:#FFFFFF;" version="1.1" viewBox="0 0 560 384" width="560px" zoomAndPan="magnify"><defs/><g><rect fill="#FFFFFF" height="223.6191" style="stroke:#181818;stroke-width:1.0;" width="10" x="119.5781" y="98.2031"/><rect fill="#FFFFFF" height="77.5186" style="stroke:#181818;stroke-width:1.0;" width="10" x="273.502" y="230.3037"/><rect fill="#FFFFFF" height="274.2012" style="stroke:#000000;stroke-width:1.5;" width="545.0562" x="9" y="55.6211"/><line style="stroke:#181818;stroke-width:0.5;stroke-dasharray:5.0,5.0;" x1="124.0679" x2="124.0679" y1="38.6211" y2="346.8223"/><line style="stroke:#181818;stroke-width:0.5;stroke-dasharray:5.0,5.0;" x1="278.0884" x2="278.0884" y1="38.6211" y2="346.8223"/><rect fill="#E2E2F0" height="32.6211" rx="2.5" ry="2.5" style="stroke:#181818;stroke-width:0.5;" width="91.0205" x="79.0679" y="5"/><text fill="#000000" font-family="sans-serif" font-size="14" lengthAdjust="spacing" textLength="77.0205" x="86.0679" y="27.1074">:UMLProject</text><rect fill="#E2E2F0" height="32.6211" rx="2.5" ry="2.5" style="stroke:#181818;stroke-width:0.5;" width="91.0205" x="79.0679" y="345.8223"/><text fill="#000000" font-family="sans-serif" font-size="14" lengthAdjust="spacing" textLength="77.0205" x="86.0679" y="367.9297">:UMLProject</text><rect fill="#E2E2F0" height="32.6211" rx="2.5" ry="2.5" style="stroke:#181818;stroke-width:0.5;" width="196.8271" x="180.0884" y="5"/><text fill="#000000" font-family="sans-serif" font-size="14" lengthAdjust="spacing" textLength="182.8271" x="187.0884" y="27.1074">currentDiagram:UMLDiagram</text><rect fill="#E2E2F0" height="32.6211" rx="2.5" ry="2.5" style="stroke:#181818;stroke-width:0.5;" width="196.8271" x="180.0884" y="345.8223"/><text fill="#000000" font-family="sans-serif" font-size="14" lengthAdjust="spacing" textLength="182.8271" x="187.0884" y="367.9297">currentDiagram:UMLDiagram</text><rect fill="#FFFFFF" height="223.6191" style="stroke:#181818;stroke-width:1.0;" width="10" x="119.5781" y="98.2031"/><rect fill="#FFFFFF" height="77.5186" style="stroke:#181818;stroke-width:1.0;" width="10" x="273.502" y="230.3037"/><path d="M9,55.6211 L85.7637,55.6211 L85.7637,64.9121 L75.7637,74.9121 L9,74.9121 L9,55.6211 " fill="#FFD700" style="stroke:#000000;stroke-width:1.5;"/><rect fill="none" height="274.2012" style="stroke:#000000;stroke-width:1.5;" width="545.0562" x="9" y="55.6211"/><text fill="#000000" font-family="sans-serif" font-size="13" font-weight="bold" lengthAdjust="spacing" textLength="31.7637" x="24" y="70.6494">undo</text><polygon fill="#181818" points="107.5781,94.2031,117.5781,98.2031,107.5781,102.2031,111.5781,98.2031" style="stroke:#181818;stroke-width:1.0;"/><line style="stroke:#181818;stroke-width:1.0;" x1="0" x2="113.5781" y1="98.2031" y2="98.2031"/><text fill="#000000" font-family="sans-serif" font-size="13" lengthAdjust="spacing" textLength="37.5781" x="7" y="92.9404">undo()</text><path d="M19,111.2031 L19,138.2031 L113,138.2031 L113,121.2031 L103,111.2031 L19,111.2031 " fill="#FF0000" style="stroke:#181818;stroke-width:0.5;"/><path d="M103,111.2031 L103,121.2031 L113,121.2031 L103,111.2031 " fill="#FF0000" style="stroke:#181818;stroke-width:0.5;"/><text fill="#000000" font-family="sans-serif" font-size="13" lengthAdjust="spacing" textLength="73.6963" x="25" y="130.2314">by Controller</text><polygon fill="#181818" points="261.502,226.3037,271.502,230.3037,261.502,234.3037,265.502,230.3037" style="stroke:#181818;stroke-width:1.0;"/><line style="stroke:#181818;stroke-width:1.0;" x1="129.5781" x2="267.502" y1="230.3037" y2="230.3037"/><text fill="#000000" font-family="sans-serif" font-size="13" lengthAdjust="spacing" textLength="37.5781" x="136.5781" y="225.041">undo()</text><path d="M288,148.4941 L288,296.4941 L548,296.4941 L548,158.4941 L538,148.4941 L288,148.4941 " fill="#FEFFDD" style="stroke:#181818;stroke-width:0.5;"/><path d="M538,148.4941 L538,158.4941 L548,158.4941 L538,148.4941 " fill="#FEFFDD" style="stroke:#181818;stroke-width:0.5;"/><text fill="#000000" font-family="sans-serif" font-size="13" lengthAdjust="spacing" textLength="129.3271" x="294" y="167.5225">UMLDiagram::undo() {</text><text fill="#000000" font-family="sans-serif" font-size="13" lengthAdjust="spacing" textLength="151.3853" x="308.4473" y="184.8135">if (undoDeque.size() &gt; 0) {</text><text fill="#000000" font-family="sans-serif" font-size="13" lengthAdjust="spacing" textLength="210.6597" x="322.8945" y="202.1045">auto&amp; command = undoDeque.top();</text><text fill="#000000" font-family="sans-serif" font-size="13" lengthAdjust="spacing" textLength="205.5498" x="322.8945" y="219.3955">this-&gt;doCommand(command, true);</text><text fill="#000000" font-family="sans-serif" font-size="13" lengthAdjust="spacing" textLength="104.7998" x="322.8945" y="236.6865">undoDeque.pop();</text><text fill="#000000" font-family="sans-serif" font-size="13" lengthAdjust="spacing" textLength="165.4771" x="322.8945" y="253.9775">redoDeque.push(command);</text><text fill="#000000" font-family="sans-serif" font-size="13" lengthAdjust="spacing" textLength="4.3418" x="308.4473" y="271.2686">}</text><text fill="#000000" font-family="sans-serif" font-size="13" lengthAdjust="spacing" textLength="4.3418" x="294" y="288.5596">}</text><polygon fill="#181818" points="140.5781,303.8223,130.5781,307.8223,140.5781,311.8223,136.5781,307.8223" style="stroke:#181818;stroke-width:1.0;"/><line style="stroke:#181818;stroke-width:1.0;stroke-dasharray:2.0,2.0;" x1="134.5781" x2="277.502" y1="307.8223" y2="307.8223"/><polygon fill="#181818" points="11,317.8223,1,321.8223,11,325.8223,7,321.8223" style="stroke:#181818;stroke-width:1.0;"/><line style="stroke:#181818;stroke-width:1.0;stroke-dasharray:2.0,2.0;" x1="5" x2="123.5781" y1="321.8223" y2="321.8223"/><!--SRC=[RP11JiD034NtSmghaMWgKSewY6pQ9KXiEC2GkCcWP1mS3mWGTsUSjWcazShoV__RycOPV4dBZR51o1RYtgqWa3SLK-YIYfeIae_QnQ621cAjSrXapuyFJqolMCW2ia5BLuFgAR8DxWLeF-CInZA3bq_OaXUcfa4UB5h_ILrH16RqidEsOjkgV6nd2yUbxAfQnj74Pzc1XkzHr79xI5NOuLl0czvzOKHok9rpMlgTAoYeRQqluHucdr2NhkxE35AxVfsNj3rOqgFr6eG3Nk2dmEvoO7pT2GXzVSgRWJ_clCDuiBx7J4aIs9i_hI9wm2y0]--></g></svg>