<svg xmlns="http://www.w3.org/2000/svg" xmlns:xlink="http://www.w3.org/1999/xlink" contentStyleType="text/css" height="345.6px" preserveAspectRatio="none" style="width:487px;height:345px;background:#FFFFFF;" version="1.1" viewBox="0 0 487 345" width="487.8px" zoomAndPan="magnify"><defs/><g><rect fill="#FFFFFF" height="201.2572" style="stroke:#181818;stroke-width:0.9;" width="9" x="92.1599" y="88.3828"/><rect fill="#FFFFFF" height="69.7667" style="stroke:#181818;stroke-width:0.9;" width="9" x="230.6914" y="207.2733"/><rect fill="#FFFFFF" height="246.7811" style="stroke:#000000;stroke-width:1.35;" width="474.1901" x="9" y="50.059"/><line style="stroke:#181818;stroke-width:0.45;stroke-dasharray:5.0,5.0;" x1="31.5" x2="31.5" y1="34.759" y2="312.14"/><line style="stroke:#181818;stroke-width:0.45;stroke-dasharray:5.0,5.0;" x1="96.2007" x2="96.2007" y1="34.759" y2="312.14"/><line style="stroke:#181818;stroke-width:0.45;stroke-dasharray:5.0,5.0;" x1="234.8191" x2="234.8191" y1="34.759" y2="312.14"/><rect fill="#E2E2F0" height="29.359" rx="2.25" ry="2.25" style="stroke:#181818;stroke-width:0.45;" width="28.7007" x="18" y="4.5"/><text fill="#000000" font-family="sans-serif" font-size="12.6" lengthAdjust="spacing" textLength="16.1007" x="24.3" y="24.3967">:UI</text><rect fill="#E2E2F0" height="29.359" rx="2.25" ry="2.25" style="stroke:#181818;stroke-width:0.45;" width="28.7007" x="18" y="311.24"/><text fill="#000000" font-family="sans-serif" font-size="12.6" lengthAdjust="spacing" textLength="16.1007" x="24.3" y="331.1367">:UI</text><rect fill="#E2E2F0" height="29.359" rx="2.25" ry="2.25" style="stroke:#181818;stroke-width:0.45;" width="81.9185" x="55.7007" y="4.5"/><text fill="#000000" font-family="sans-serif" font-size="12.6" lengthAdjust="spacing" textLength="69.3185" x="62.0007" y="24.3967">:UMLProject</text><rect fill="#E2E2F0" height="29.359" rx="2.25" ry="2.25" style="stroke:#181818;stroke-width:0.45;" width="81.9185" x="55.7007" y="311.24"/><text fill="#000000" font-family="sans-serif" font-size="12.6" lengthAdjust="spacing" textLength="69.3185" x="62.0007" y="331.1367">:UMLProject</text><rect fill="#E2E2F0" height="29.359" rx="2.25" ry="2.25" style="stroke:#181818;stroke-width:0.45;" width="177.1444" x="146.6191" y="4.5"/><text fill="#000000" font-family="sans-serif" font-size="12.6" lengthAdjust="spacing" textLength="164.5444" x="152.9191" y="24.3967">currentDiagram:UMLDiagram</text><rect fill="#E2E2F0" height="29.359" rx="2.25" ry="2.25" style="stroke:#181818;stroke-width:0.45;" width="177.1444" x="146.6191" y="311.24"/><text fill="#000000" font-family="sans-serif" font-size="12.6" lengthAdjust="spacing" textLength="164.5444" x="152.9191" y="331.1367">currentDiagram:UMLDiagram</text><rect fill="#FFFFFF" height="201.2572" style="stroke:#181818;stroke-width:0.9;" width="9" x="92.1599" y="88.3828"/><rect fill="#FFFFFF" height="69.7667" style="stroke:#181818;stroke-width:0.9;" width="9" x="230.6914" y="207.2733"/><path d="M9,50.059 L78.0873,50.059 L78.0873,58.4209 L69.0873,67.4209 L9,67.4209 L9,50.059 " fill="#FFD700" style="stroke:#000000;stroke-width:1.35;"/><rect fill="none" height="246.7811" style="stroke:#000000;stroke-width:1.35;" width="474.1901" x="9" y="50.059"/><text fill="#000000" font-family="sans-serif" font-size="11.7" font-weight="bold" lengthAdjust="spacing" textLength="28.5873" x="22.5" y="63.5845">undo</text><polygon fill="#181818" points="81.3599,84.7828,90.3599,88.3828,81.3599,91.9828,84.9599,88.3828" style="stroke:#181818;stroke-width:0.9;"/><line style="stroke:#181818;stroke-width:0.9;" x1="32.3503" x2="86.7599" y1="88.3828" y2="88.3828"/><text fill="#000000" font-family="sans-serif" font-size="11.7" lengthAdjust="spacing" textLength="33.8203" x="38.6503" y="83.6464">undo()</text><path d="M36,100.0828 L36,124.3828 L120.6,124.3828 L120.6,109.0828 L111.6,100.0828 L36,100.0828 " fill="#FF0000" style="stroke:#181818;stroke-width:0.45;"/><path d="M111.6,100.0828 L111.6,109.0828 L120.6,109.0828 L111.6,100.0828 " fill="#FF0000" style="stroke:#181818;stroke-width:0.45;"/><text fill="#000000" font-family="sans-serif" font-size="11.7" lengthAdjust="spacing" textLength="66.3267" x="41.4" y="117.2083">by Controller</text><polygon fill="#181818" points="219.8914,203.6733,228.8914,207.2733,219.8914,210.8733,223.4914,207.2733" style="stroke:#181818;stroke-width:0.9;"/><line style="stroke:#181818;stroke-width:0.9;" x1="101.1599" x2="225.2914" y1="207.2733" y2="207.2733"/><text fill="#000000" font-family="sans-serif" font-size="11.7" lengthAdjust="spacing" textLength="33.8203" x="107.4599" y="202.5369">undo()</text><path d="M243.9,133.6447 L243.9,266.8447 L477.9,266.8447 L477.9,142.6447 L468.9,133.6447 L243.9,133.6447 " fill="#FEFFDD" style="stroke:#181818;stroke-width:0.45;"/><path d="M468.9,133.6447 L468.9,142.6447 L477.9,142.6447 L468.9,133.6447 " fill="#FEFFDD" style="stroke:#181818;stroke-width:0.45;"/><text fill="#000000" font-family="sans-serif" font-size="11.7" lengthAdjust="spacing" textLength="116.3944" x="249.3" y="150.7702">UMLDiagram::undo() {</text><text fill="#000000" font-family="sans-serif" font-size="11.7" lengthAdjust="spacing" textLength="136.2467" x="262.3025" y="166.3321">if (undoDeque.size() &gt; 0) {</text><text fill="#000000" font-family="sans-serif" font-size="11.7" lengthAdjust="spacing" textLength="189.5937" x="275.3051" y="181.894">auto&amp; command = undoDeque.top();</text><text fill="#000000" font-family="sans-serif" font-size="11.7" lengthAdjust="spacing" textLength="184.9948" x="275.3051" y="197.456">this-&gt;doCommand(command, true);</text><text fill="#000000" font-family="sans-serif" font-size="11.7" lengthAdjust="spacing" textLength="94.3198" x="275.3051" y="213.0179">undoDeque.pop();</text><text fill="#000000" font-family="sans-serif" font-size="11.7" lengthAdjust="spacing" textLength="148.9293" x="275.3051" y="228.5798">redoDeque.push(command);</text><text fill="#000000" font-family="sans-serif" font-size="11.7" lengthAdjust="spacing" textLength="3.9076" x="262.3025" y="244.1417">}</text><text fill="#000000" font-family="sans-serif" font-size="11.7" lengthAdjust="spacing" textLength="3.9076" x="249.3" y="259.7036">}</text><polygon fill="#181818" points="111.0599,273.44,102.0599,277.04,111.0599,280.64,107.4599,277.04" style="stroke:#181818;stroke-width:0.9;"/><line style="stroke:#181818;stroke-width:0.9;stroke-dasharray:2.0,2.0;" x1="105.6599" x2="234.2914" y1="277.04" y2="277.04"/><polygon fill="#181818" points="42.2503,286.04,33.2503,289.64,42.2503,293.24,38.6503,289.64" style="stroke:#181818;stroke-width:0.9;"/><line style="stroke:#181818;stroke-width:0.9;stroke-dasharray:2.0,2.0;" x1="36.8503" x2="95.7599" y1="289.64" y2="289.64"/><!--SRC=[RP31JiCm38RlUGghbLWdCSQvQBri5oIGkF00eSdQe3OkhWC2nBiJTzqwTVFfb_tzlosl5y4RNAoL3eowPFUfsG9wLH66BgsmCP1-rIus1LGGAybV7nDO5IAUdru8tst92UG3aIq7ncDqaAjg1joFZfIioU7j6xRecR1fB0tic7aM9Tbb8BAUTqvNf5iPZtAsQRRjr9iCUNx0uVSqb79xo6Imin_1tlNknqQaWFiv9oNVkO4IsrPx0nkOV8nTjdouC73j-bLXS7kmPAFr5fY2lS9FWTtrmFYx8n3w-fWt0__KfRBnOFcFcf8ua5TdKX0vu1y0]--></g></svg>