<svg xmlns="http://www.w3.org/2000/svg" xmlns:xlink="http://www.w3.org/1999/xlink" contentStyleType="text/css" height="433.6px" preserveAspectRatio="none" style="width:684px;height:433px;background:#FFFFFF;" version="1.1" viewBox="0 0 684 433" width="684px" zoomAndPan="magnify"><defs/><g><rect fill="#FFFFFF" height="275.9281" style="stroke:#181818;stroke-width:0.8000000000000002;" width="8" x="169.1273" y="93.4594"/><rect fill="#FFFFFF" height="196.0297" style="stroke:#181818;stroke-width:0.8000000000000002;" width="8" x="317.4988" y="148.325"/><rect fill="#FFFFFF" height="145.9641" style="stroke:#181818;stroke-width:0.8000000000000002;" width="8" x="465.8703" y="173.3578"/><rect fill="#FFFFFF" height="33.8328" style="stroke:#181818;stroke-width:0.8000000000000002;" width="8" x="469.8703" y="204.7906"/><rect fill="#FFFFFF" height="25.0328" style="stroke:#181818;stroke-width:0.8000000000000002;" width="8" x="617.3887" y="269.2563"/><rect fill="#FFFFFF" height="316.3938" style="stroke:#000000;stroke-width:1.2000000000000002;" width="671.8105" x="8" y="59.3938"/><line style="stroke:#181818;stroke-width:0.4000000000000001;stroke-dasharray:5.0,5.0;" x1="28" x2="28" y1="45.7938" y2="389.3875"/><line style="stroke:#181818;stroke-width:0.4000000000000001;stroke-dasharray:5.0,5.0;" x1="172.7191" x2="172.7191" y1="45.7938" y2="389.3875"/><line style="stroke:#181818;stroke-width:0.4000000000000001;stroke-dasharray:5.0,5.0;" x1="321.3086" x2="321.3086" y1="45.7938" y2="389.3875"/><line style="stroke:#181818;stroke-width:0.4000000000000001;stroke-dasharray:5.0,5.0;" x1="469.3629" x2="469.3629" y1="45.7938" y2="389.3875"/><line style="stroke:#181818;stroke-width:0.4000000000000001;stroke-dasharray:5.0,5.0;" x1="621.3668" x2="621.3668" y1="45.7938" y2="389.3875"/><rect fill="#E2E2F0" height="26.0969" rx="2" ry="2" style="stroke:#181818;stroke-width:0.4000000000000001;" width="25.5117" x="16" y="18.8969"/><text fill="#000000" font-family="sans-serif" font-size="11.2" lengthAdjust="spacing" textLength="14.3117" x="21.6" y="36.5828">:UI</text><rect fill="#E2E2F0" height="26.0969" rx="2" ry="2" style="stroke:#181818;stroke-width:0.4000000000000001;" width="25.5117" x="16" y="388.5875"/><text fill="#000000" font-family="sans-serif" font-size="11.2" lengthAdjust="spacing" textLength="14.3117" x="21.6" y="406.2734">:UI</text><rect fill="#E2E2F0" height="26.0969" rx="2" ry="2" style="stroke:#181818;stroke-width:0.4000000000000001;" width="72.8164" x="136.7191" y="18.8969"/><text fill="#000000" font-family="sans-serif" font-size="11.2" lengthAdjust="spacing" textLength="61.6164" x="142.3191" y="36.5828">:UMLProject</text><rect fill="#E2E2F0" height="26.0969" rx="2" ry="2" style="stroke:#181818;stroke-width:0.4000000000000001;" width="72.8164" x="136.7191" y="388.5875"/><text fill="#000000" font-family="sans-serif" font-size="11.2" lengthAdjust="spacing" textLength="61.6164" x="142.3191" y="406.2734">:UMLProject</text><rect fill="#E2E2F0" height="40.9938" rx="2" ry="2" style="stroke:#181818;stroke-width:0.4000000000000001;" width="88.3805" x="277.3086" y="4"/><text fill="#000000" font-family="sans-serif" font-size="11.2" lengthAdjust="spacing" textLength="77.1805" x="282.9086" y="21.6859">currentDiagram</text><text fill="#000000" font-family="sans-serif" font-size="11.2" lengthAdjust="spacing" textLength="73.4398" x="284.7789" y="36.5828">:*UMLDiagram</text><rect fill="#E2E2F0" height="40.9938" rx="2" ry="2" style="stroke:#181818;stroke-width:0.4000000000000001;" width="88.3805" x="277.3086" y="388.5875"/><text fill="#000000" font-family="sans-serif" font-size="11.2" lengthAdjust="spacing" textLength="77.1805" x="282.9086" y="406.2734">currentDiagram</text><text fill="#000000" font-family="sans-serif" font-size="11.2" lengthAdjust="spacing" textLength="73.4398" x="284.7789" y="421.1703">:*UMLDiagram</text><rect fill="#E2E2F0" height="26.0969" rx="2" ry="2" style="stroke:#181818;stroke-width:0.4000000000000001;" width="77.8148" x="430.9629" y="18.8969"/><text fill="#000000" font-family="sans-serif" font-size="11.2" lengthAdjust="spacing" textLength="66.6148" x="436.5629" y="36.5828">:Components</text><rect fill="#E2E2F0" height="26.0969" rx="2" ry="2" style="stroke:#181818;stroke-width:0.4000000000000001;" width="77.8148" x="430.9629" y="388.5875"/><text fill="#000000" font-family="sans-serif" font-size="11.2" lengthAdjust="spacing" textLength="66.6148" x="436.5629" y="406.2734">:Components</text><rect fill="#E2E2F0" height="26.0969" rx="2" ry="2" style="stroke:#181818;stroke-width:0.4000000000000001;" width="100.8438" x="570.9668" y="18.8969"/><text fill="#000000" font-family="sans-serif" font-size="11.2" lengthAdjust="spacing" textLength="89.6438" x="576.5668" y="36.5828">:PropertyManager</text><rect fill="#E2E2F0" height="26.0969" rx="2" ry="2" style="stroke:#181818;stroke-width:0.4000000000000001;" width="100.8438" x="570.9668" y="388.5875"/><text fill="#000000" font-family="sans-serif" font-size="11.2" lengthAdjust="spacing" textLength="89.6438" x="576.5668" y="406.2734">:PropertyManager</text><rect fill="#FFFFFF" height="275.9281" style="stroke:#181818;stroke-width:0.8000000000000002;" width="8" x="169.1273" y="93.4594"/><rect fill="#FFFFFF" height="196.0297" style="stroke:#181818;stroke-width:0.8000000000000002;" width="8" x="317.4988" y="148.325"/><rect fill="#FFFFFF" height="145.9641" style="stroke:#181818;stroke-width:0.8000000000000002;" width="8" x="465.8703" y="173.3578"/><rect fill="#FFFFFF" height="33.8328" style="stroke:#181818;stroke-width:0.8000000000000002;" width="8" x="469.8703" y="204.7906"/><rect fill="#FFFFFF" height="25.0328" style="stroke:#181818;stroke-width:0.8000000000000002;" width="8" x="617.3887" y="269.2563"/><path d="M8,59.3938 L163.0363,59.3938 L163.0363,66.8266 L155.0363,74.8266 L8,74.8266 L8,59.3938 " fill="#FFD700" style="stroke:#000000;stroke-width:1.2000000000000002;"/><rect fill="none" height="316.3938" style="stroke:#000000;stroke-width:1.2000000000000002;" width="671.8105" x="8" y="59.3938"/><text fill="#000000" font-family="sans-serif" font-size="10.4" font-weight="bold" lengthAdjust="spacing" textLength="119.0363" x="20" y="71.4164">unselectAllComponents</text><polygon fill="#181818" points="159.5273,90.2594,167.5273,93.4594,159.5273,96.6594,162.7273,93.4594" style="stroke:#181818;stroke-width:0.8000000000000002;"/><line style="stroke:#181818;stroke-width:0.8000000000000002;" x1="28.7559" x2="164.3273" y1="93.4594" y2="93.4594"/><text fill="#000000" font-family="sans-serif" font-size="10.4" font-weight="bold" lengthAdjust="spacing" textLength="5.784" x="34.3559" y="89.2492">1</text><text fill="#000000" font-family="sans-serif" font-size="10.4" lengthAdjust="spacing" textLength="116.1875" x="43.3398" y="89.2492">unselectAllComponents()</text><path d="M32,103.8594 L32,125.4594 L107.2,125.4594 L107.2,111.8594 L99.2,103.8594 L32,103.8594 " fill="#FF0000" style="stroke:#181818;stroke-width:0.4000000000000001;"/><path d="M99.2,103.8594 L99.2,111.8594 L107.2,111.8594 L99.2,103.8594 " fill="#FF0000" style="stroke:#181818;stroke-width:0.4000000000000001;"/><text fill="#000000" font-family="sans-serif" font-size="10.4" lengthAdjust="spacing" textLength="58.957" x="36.8" y="119.082">by Controller</text><polygon fill="#181818" points="307.8988,145.125,315.8988,148.325,307.8988,151.525,311.0988,148.325" style="stroke:#181818;stroke-width:0.8000000000000002;"/><line style="stroke:#181818;stroke-width:0.8000000000000002;" x1="177.1273" x2="312.6988" y1="148.325" y2="148.325"/><text fill="#000000" font-family="sans-serif" font-size="10.4" font-weight="bold" lengthAdjust="spacing" textLength="5.784" x="182.7273" y="144.1148">2</text><text fill="#000000" font-family="sans-serif" font-size="10.4" lengthAdjust="spacing" textLength="116.1875" x="191.7113" y="144.1148">unselectAllComponents()</text><polygon fill="#181818" points="456.2703,170.1578,464.2703,173.3578,456.2703,176.5578,459.4703,173.3578" style="stroke:#181818;stroke-width:0.8000000000000002;"/><line style="stroke:#181818;stroke-width:0.8000000000000002;" x1="325.4988" x2="461.0703" y1="173.3578" y2="173.3578"/><text fill="#000000" font-family="sans-serif" font-size="10.4" font-weight="bold" lengthAdjust="spacing" textLength="5.784" x="331.0988" y="169.1477">3</text><text fill="#000000" font-family="sans-serif" font-size="10.4" lengthAdjust="spacing" textLength="116.1875" x="340.0828" y="169.1477">unselectAllComponents()</text><line style="stroke:#181818;stroke-width:0.8000000000000002;" x1="473.8703" x2="511.4703" y1="194.3906" y2="194.3906"/><line style="stroke:#181818;stroke-width:0.8000000000000002;" x1="511.4703" x2="511.4703" y1="194.3906" y2="204.7906"/><line style="stroke:#181818;stroke-width:0.8000000000000002;" x1="478.6703" x2="511.4703" y1="204.7906" y2="204.7906"/><polygon fill="#181818" points="486.6703,201.5906,478.6703,204.7906,486.6703,207.9906,483.4703,204.7906" style="stroke:#181818;stroke-width:0.8000000000000002;"/><text fill="#000000" font-family="sans-serif" font-size="10.4" font-weight="bold" lengthAdjust="spacing" textLength="5.784" x="483.4703" y="190.1805">4</text><text fill="#000000" font-family="sans-serif" font-size="10.4" lengthAdjust="spacing" textLength="115.3344" x="492.4543" y="190.1805">selectedComponents = []</text><line style="stroke:#181818;stroke-width:0.8000000000000002;stroke-dasharray:2.0,2.0;" x1="477.8703" x2="511.4703" y1="237.8234" y2="237.8234"/><line style="stroke:#181818;stroke-width:0.8000000000000002;stroke-dasharray:2.0,2.0;" x1="511.4703" x2="511.4703" y1="237.8234" y2="248.2234"/><line style="stroke:#181818;stroke-width:0.8000000000000002;stroke-dasharray:2.0,2.0;" x1="473.8703" x2="511.4703" y1="248.2234" y2="248.2234"/><polygon fill="#181818" points="481.8703,245.0234,473.8703,248.2234,481.8703,251.4234,478.6703,248.2234" style="stroke:#181818;stroke-width:0.8000000000000002;"/><text fill="#000000" font-family="sans-serif" font-size="10.4" font-weight="bold" lengthAdjust="spacing" textLength="5.784" x="483.4703" y="233.6133">5</text><text fill="#000000" font-family="sans-serif" font-size="10.4" lengthAdjust="spacing" textLength="2.8895" x="492.4543" y="233.6133">&#160;</text><polygon fill="#181818" points="607.7887,266.0563,615.7887,269.2563,607.7887,272.4563,610.9887,269.2563" style="stroke:#181818;stroke-width:0.8000000000000002;"/><line style="stroke:#181818;stroke-width:0.8000000000000002;" x1="473.8703" x2="612.5887" y1="269.2563" y2="269.2563"/><text fill="#000000" font-family="sans-serif" font-size="10.4" font-weight="bold" lengthAdjust="spacing" textLength="5.784" x="479.4703" y="265.0461">6</text><text fill="#000000" font-family="sans-serif" font-size="10.4" lengthAdjust="spacing" textLength="68.773" x="488.4543" y="265.0461">clearProperty()</text><polygon fill="#181818" points="482.6703,291.0891,474.6703,294.2891,482.6703,297.4891,479.4703,294.2891" style="stroke:#181818;stroke-width:0.8000000000000002;"/><line style="stroke:#181818;stroke-width:0.8000000000000002;stroke-dasharray:2.0,2.0;" x1="477.8703" x2="620.5887" y1="294.2891" y2="294.2891"/><text fill="#000000" font-family="sans-serif" font-size="10.4" font-weight="bold" lengthAdjust="spacing" textLength="5.784" x="487.4703" y="290.0789">7</text><text fill="#000000" font-family="sans-serif" font-size="10.4" lengthAdjust="spacing" textLength="2.8895" x="496.4543" y="290.0789">&#160;</text><polygon fill="#181818" points="334.2988,316.1219,326.2988,319.3219,334.2988,322.5219,331.0988,319.3219" style="stroke:#181818;stroke-width:0.8000000000000002;"/><line style="stroke:#181818;stroke-width:0.8000000000000002;stroke-dasharray:2.0,2.0;" x1="329.4988" x2="469.0703" y1="319.3219" y2="319.3219"/><text fill="#000000" font-family="sans-serif" font-size="10.4" font-weight="bold" lengthAdjust="spacing" textLength="5.784" x="339.0988" y="315.1117">8</text><text fill="#000000" font-family="sans-serif" font-size="10.4" lengthAdjust="spacing" textLength="2.8895" x="348.0828" y="315.1117">&#160;</text><polygon fill="#181818" points="185.9273,341.1547,177.9273,344.3547,185.9273,347.5547,182.7273,344.3547" style="stroke:#181818;stroke-width:0.8000000000000002;"/><line style="stroke:#181818;stroke-width:0.8000000000000002;stroke-dasharray:2.0,2.0;" x1="181.1273" x2="320.6988" y1="344.3547" y2="344.3547"/><text fill="#000000" font-family="sans-serif" font-size="10.4" font-weight="bold" lengthAdjust="spacing" textLength="5.784" x="190.7273" y="340.1445">9</text><text fill="#000000" font-family="sans-serif" font-size="10.4" lengthAdjust="spacing" textLength="2.8895" x="199.7113" y="340.1445">&#160;</text><polygon fill="#181818" points="37.5559,366.1875,29.5559,369.3875,37.5559,372.5875,34.3559,369.3875" style="stroke:#181818;stroke-width:0.8000000000000002;"/><line style="stroke:#181818;stroke-width:0.8000000000000002;stroke-dasharray:2.0,2.0;" x1="32.7559" x2="172.3273" y1="369.3875" y2="369.3875"/><text fill="#000000" font-family="sans-serif" font-size="10.4" font-weight="bold" lengthAdjust="spacing" textLength="11.568" x="42.3559" y="365.1773">10</text><text fill="#000000" font-family="sans-serif" font-size="10.4" lengthAdjust="spacing" textLength="2.8895" x="57.1238" y="365.1773">&#160;</text><!--SRC=[ZP2nRi9038Ptdi9A5gZK5uW4KWLBfI9rOGA68t6FL1SxChvMl3qc2IMqKS6JRVd_VjjUEDQfvr10-hql5I7I0GFc-XB2dAkQ2KaF8nULALOxb2PrkPPVpgQPHc2HPAlN19vdvsJvzYxyQOGa6uQD9us6sFHI-hq2VtI4LB38O7U4EPCAXs1-qCKDkl7AeuW15wNpugeDPKysqLLtp7-W_pBQYwxY1w7jjZtP0AUbO75jmXJMspySGOr2Z-3jDJMA7fUEd4SnZpoWaqjxOCS1zgzMh-nIfAB_WnC0]--></g></svg>