<svg xmlns="http://www.w3.org/2000/svg" xmlns:xlink="http://www.w3.org/1999/xlink" contentStyleType="text/css" height="599px" preserveAspectRatio="none" style="width:942px;height:599px;background:#FFFFFF;" version="1.1" viewBox="0 0 942 599" width="942px" zoomAndPan="magnify"><defs/><g><rect fill="#FFFFFF" height="401.1621" style="stroke:#181818;stroke-width:1.0;" width="10" x="189.707" y="116.8242"/><rect fill="#FFFFFF" height="301.2891" style="stroke:#181818;stroke-width:1.0;" width="10" x="382.4141" y="185.4063"/><rect fill="#FFFFFF" height="238.707" style="stroke:#181818;stroke-width:1.0;" width="10" x="575.1211" y="216.6973"/><rect fill="#FFFFFF" height="79.582" style="stroke:#181818;stroke-width:1.0;" width="10" x="580.1211" y="282.2793"/><rect fill="#FFFFFF" height="451.7441" style="stroke:#000000;stroke-width:1.5;" width="933.1299" x="3" y="74.2422"/><rect fill="#FFFFFF" height="145.1641" style="stroke:#000000;stroke-width:1.5;" width="346.6157" x="521.4868" y="231.6973"/><line style="stroke:#181818;stroke-width:0.5;stroke-dasharray:5.0,5.0;" x1="194.1968" x2="194.1968" y1="57.2422" y2="542.9863"/><line style="stroke:#181818;stroke-width:0.5;stroke-dasharray:5.0,5.0;" x1="387.1763" x2="387.1763" y1="57.2422" y2="542.9863"/><line style="stroke:#181818;stroke-width:0.5;stroke-dasharray:5.0,5.0;" x1="579.4868" x2="579.4868" y1="57.2422" y2="542.9863"/><line style="stroke:#181818;stroke-width:0.5;stroke-dasharray:5.0,5.0;" x1="863.0752" x2="863.0752" y1="57.2422" y2="542.9863"/><rect fill="#E2E2F0" height="32.6211" rx="2.5" ry="2.5" style="stroke:#181818;stroke-width:0.5;" width="91.0205" x="149.1968" y="23.6211"/><text fill="#000000" font-family="sans-serif" font-size="14" lengthAdjust="spacing" textLength="77.0205" x="156.1968" y="45.7285">:UMLProject</text><rect fill="#E2E2F0" height="32.6211" rx="2.5" ry="2.5" style="stroke:#181818;stroke-width:0.5;" width="91.0205" x="149.1968" y="541.9863"/><text fill="#000000" font-family="sans-serif" font-size="14" lengthAdjust="spacing" textLength="77.0205" x="156.1968" y="564.0938">:UMLProject</text><rect fill="#E2E2F0" height="51.2422" rx="2.5" ry="2.5" style="stroke:#181818;stroke-width:0.5;" width="110.4756" x="332.1763" y="5"/><text fill="#000000" font-family="sans-serif" font-size="14" lengthAdjust="spacing" textLength="96.4756" x="339.1763" y="27.1074">currentDiagram</text><text fill="#000000" font-family="sans-serif" font-size="14" lengthAdjust="spacing" textLength="91.7998" x="341.5142" y="45.7285">:*UMLDiagram</text><rect fill="#E2E2F0" height="51.2422" rx="2.5" ry="2.5" style="stroke:#181818;stroke-width:0.5;" width="110.4756" x="332.1763" y="541.9863"/><text fill="#000000" font-family="sans-serif" font-size="14" lengthAdjust="spacing" textLength="96.4756" x="339.1763" y="564.0938">currentDiagram</text><text fill="#000000" font-family="sans-serif" font-size="14" lengthAdjust="spacing" textLength="91.7998" x="341.5142" y="582.7148">:*UMLDiagram</text><rect fill="#E2E2F0" height="32.6211" rx="2.5" ry="2.5" style="stroke:#181818;stroke-width:0.5;" width="97.2686" x="531.4868" y="23.6211"/><text fill="#000000" font-family="sans-serif" font-size="14" lengthAdjust="spacing" textLength="83.2686" x="538.4868" y="45.7285">:Components</text><rect fill="#E2E2F0" height="32.6211" rx="2.5" ry="2.5" style="stroke:#181818;stroke-width:0.5;" width="97.2686" x="531.4868" y="541.9863"/><text fill="#000000" font-family="sans-serif" font-size="14" lengthAdjust="spacing" textLength="83.2686" x="538.4868" y="564.0938">:Components</text><rect fill="#E2E2F0" height="32.6211" rx="2.5" ry="2.5" style="stroke:#181818;stroke-width:0.5;" width="126.0547" x="800.0752" y="23.6211"/><text fill="#000000" font-family="sans-serif" font-size="14" lengthAdjust="spacing" textLength="112.0547" x="807.0752" y="45.7285">:PropertyManager</text><rect fill="#E2E2F0" height="32.6211" rx="2.5" ry="2.5" style="stroke:#181818;stroke-width:0.5;" width="126.0547" x="800.0752" y="541.9863"/><text fill="#000000" font-family="sans-serif" font-size="14" lengthAdjust="spacing" textLength="112.0547" x="807.0752" y="564.0938">:PropertyManager</text><rect fill="#FFFFFF" height="401.1621" style="stroke:#181818;stroke-width:1.0;" width="10" x="189.707" y="116.8242"/><rect fill="#FFFFFF" height="301.2891" style="stroke:#181818;stroke-width:1.0;" width="10" x="382.4141" y="185.4063"/><rect fill="#FFFFFF" height="238.707" style="stroke:#181818;stroke-width:1.0;" width="10" x="575.1211" y="216.6973"/><rect fill="#FFFFFF" height="79.582" style="stroke:#181818;stroke-width:1.0;" width="10" x="580.1211" y="282.2793"/><path d="M3,74.2422 L172.9536,74.2422 L172.9536,83.5332 L162.9536,93.5332 L3,93.5332 L3,74.2422 " fill="#FFD700" style="stroke:#000000;stroke-width:1.5;"/><rect fill="none" height="451.7441" style="stroke:#000000;stroke-width:1.5;" width="933.1299" x="3" y="74.2422"/><text fill="#000000" font-family="sans-serif" font-size="13" font-weight="bold" lengthAdjust="spacing" textLength="124.9536" x="18" y="89.2705">unselectComponent</text><polygon fill="#181818" points="177.707,112.8242,187.707,116.8242,177.707,120.8242,181.707,116.8242" style="stroke:#181818;stroke-width:1.0;"/><line style="stroke:#181818;stroke-width:1.0;" x1="0" x2="183.707" y1="116.8242" y2="116.8242"/><text fill="#000000" font-family="sans-serif" font-size="13" font-weight="bold" lengthAdjust="spacing" textLength="7.23" x="7" y="111.5615">1</text><text fill="#000000" font-family="sans-serif" font-size="13" lengthAdjust="spacing" textLength="152.4771" x="18.23" y="111.5615">unselectComponent(point)</text><path d="M90,129.8242 L90,156.8242 L184,156.8242 L184,139.8242 L174,129.8242 L90,129.8242 " fill="#FF0000" style="stroke:#181818;stroke-width:0.5;"/><path d="M174,129.8242 L174,139.8242 L184,139.8242 L174,129.8242 " fill="#FF0000" style="stroke:#181818;stroke-width:0.5;"/><text fill="#000000" font-family="sans-serif" font-size="13" lengthAdjust="spacing" textLength="73.6963" x="96" y="148.8525">by Controller</text><polygon fill="#181818" points="370.4141,181.4063,380.4141,185.4063,370.4141,189.4063,374.4141,185.4063" style="stroke:#181818;stroke-width:1.0;"/><line style="stroke:#181818;stroke-width:1.0;" x1="199.707" x2="376.4141" y1="185.4063" y2="185.4063"/><text fill="#000000" font-family="sans-serif" font-size="13" font-weight="bold" lengthAdjust="spacing" textLength="7.23" x="206.707" y="180.1436">2</text><text fill="#000000" font-family="sans-serif" font-size="13" lengthAdjust="spacing" textLength="152.4771" x="217.937" y="180.1436">unselectComponent(point)</text><polygon fill="#181818" points="563.1211,212.6973,573.1211,216.6973,563.1211,220.6973,567.1211,216.6973" style="stroke:#181818;stroke-width:1.0;"/><line style="stroke:#181818;stroke-width:1.0;" x1="392.4141" x2="569.1211" y1="216.6973" y2="216.6973"/><text fill="#000000" font-family="sans-serif" font-size="13" font-weight="bold" lengthAdjust="spacing" textLength="7.23" x="399.4141" y="211.4346">3</text><text fill="#000000" font-family="sans-serif" font-size="13" lengthAdjust="spacing" textLength="152.4771" x="410.644" y="211.4346">unselectComponent(point)</text><path d="M521.4868,231.6973 L593.9214,231.6973 L593.9214,240.9883 L583.9214,250.9883 L521.4868,250.9883 L521.4868,231.6973 " fill="#FFD700" style="stroke:#000000;stroke-width:1.5;"/><rect fill="none" height="145.1641" style="stroke:#000000;stroke-width:1.5;" width="346.6157" x="521.4868" y="231.6973"/><text fill="#000000" font-family="sans-serif" font-size="13" font-weight="bold" lengthAdjust="spacing" textLength="27.4346" x="536.4868" y="246.7256">loop</text><text fill="#000000" font-family="sans-serif" font-size="11" font-weight="bold" lengthAdjust="spacing" textLength="128.9438" x="608.9214" y="245.5674">[component cover point]</text><line style="stroke:#181818;stroke-width:1.0;" x1="585.1211" x2="632.1211" y1="269.2793" y2="269.2793"/><line style="stroke:#181818;stroke-width:1.0;" x1="632.1211" x2="632.1211" y1="269.2793" y2="282.2793"/><line style="stroke:#181818;stroke-width:1.0;" x1="591.1211" x2="632.1211" y1="282.2793" y2="282.2793"/><polygon fill="#181818" points="601.1211,278.2793,591.1211,282.2793,601.1211,286.2793,597.1211,282.2793" style="stroke:#181818;stroke-width:1.0;"/><text fill="#000000" font-family="sans-serif" font-size="13" font-weight="bold" lengthAdjust="spacing" textLength="7.23" x="597.1211" y="264.0166">4</text><text fill="#000000" font-family="sans-serif" font-size="13" lengthAdjust="spacing" textLength="237.7515" x="608.3511" y="264.0166">delete(selectedComponents, component)</text><path d="M595,300.2793 L595,327.2793 L766,327.2793 L766,310.2793 L756,300.2793 L595,300.2793 " fill="#FEFFDD" style="stroke:#181818;stroke-width:0.5;"/><path d="M756,300.2793 L756,310.2793 L766,310.2793 L756,300.2793 " fill="#FEFFDD" style="stroke:#181818;stroke-width:0.5;"/><text fill="#000000" font-family="sans-serif" font-size="13" lengthAdjust="spacing" textLength="150.3125" x="601" y="319.3076">delete is a built-in function</text><line style="stroke:#181818;stroke-width:1.0;stroke-dasharray:2.0,2.0;" x1="590.1211" x2="632.1211" y1="360.8613" y2="360.8613"/><line style="stroke:#181818;stroke-width:1.0;stroke-dasharray:2.0,2.0;" x1="632.1211" x2="632.1211" y1="360.8613" y2="373.8613"/><line style="stroke:#181818;stroke-width:1.0;stroke-dasharray:2.0,2.0;" x1="585.1211" x2="632.1211" y1="373.8613" y2="373.8613"/><polygon fill="#181818" points="595.1211,369.8613,585.1211,373.8613,595.1211,377.8613,591.1211,373.8613" style="stroke:#181818;stroke-width:1.0;"/><text fill="#000000" font-family="sans-serif" font-size="13" font-weight="bold" lengthAdjust="spacing" textLength="7.23" x="597.1211" y="355.5986">5</text><text fill="#000000" font-family="sans-serif" font-size="13" lengthAdjust="spacing" textLength="3.6118" x="608.3511" y="355.5986">&#160;</text><rect fill="none" height="43.252" style="stroke:#000000;stroke-width:1.5;" width="400.6431" x="528.4868" y="383.8613"/><path d="M528.4868,383.8613 L589.4868,383.8613 L589.4868,392.8613 L579.4868,402.8613 L528.4868,402.8613 L528.4868,383.8613 " fill="#EEEEEE" style="stroke:#000000;stroke-width:2.0;"/><text fill="#000000" font-family="sans-serif" font-size="13" font-weight="bold" lengthAdjust="spacing" textLength="16.6182" x="541.4868" y="399.8896">ref</text><text fill="#000000" font-family="sans-serif" font-size="12" lengthAdjust="spacing" textLength="263.4668" x="597.075" y="419.8105">updateProperty (same logic as selectComponent)</text><polygon fill="#181818" points="403.4141,451.4043,393.4141,455.4043,403.4141,459.4043,399.4141,455.4043" style="stroke:#181818;stroke-width:1.0;"/><line style="stroke:#181818;stroke-width:1.0;stroke-dasharray:2.0,2.0;" x1="397.4141" x2="579.1211" y1="455.4043" y2="455.4043"/><text fill="#000000" font-family="sans-serif" font-size="13" font-weight="bold" lengthAdjust="spacing" textLength="7.23" x="409.4141" y="450.1416">6</text><text fill="#000000" font-family="sans-serif" font-size="13" lengthAdjust="spacing" textLength="3.6118" x="420.644" y="450.1416">&#160;</text><polygon fill="#181818" points="210.707,482.6953,200.707,486.6953,210.707,490.6953,206.707,486.6953" style="stroke:#181818;stroke-width:1.0;"/><line style="stroke:#181818;stroke-width:1.0;stroke-dasharray:2.0,2.0;" x1="204.707" x2="386.4141" y1="486.6953" y2="486.6953"/><text fill="#000000" font-family="sans-serif" font-size="13" font-weight="bold" lengthAdjust="spacing" textLength="7.23" x="216.707" y="481.4326">7</text><text fill="#000000" font-family="sans-serif" font-size="13" lengthAdjust="spacing" textLength="3.6118" x="227.937" y="481.4326">&#160;</text><polygon fill="#181818" points="11,513.9863,1,517.9863,11,521.9863,7,517.9863" style="stroke:#181818;stroke-width:1.0;"/><line style="stroke:#181818;stroke-width:1.0;stroke-dasharray:2.0,2.0;" x1="5" x2="193.707" y1="517.9863" y2="517.9863"/><text fill="#000000" font-family="sans-serif" font-size="13" font-weight="bold" lengthAdjust="spacing" textLength="7.23" x="17" y="512.7236">8</text><text fill="#000000" font-family="sans-serif" font-size="13" lengthAdjust="spacing" textLength="3.6118" x="28.23" y="512.7236">&#160;</text><!--SRC=[ZLAxSeD03Epv2erf86F_04KQfundtAHBSu30bpaaHjmvux-F0lXnnkFaAZrMkv9E9dYcq9KeYL7JLDuUZKTWIbhXqASjknhIxuFLOA017LP-ortFXEGJqBTvXLNniNlV2tzfSbKiSLdFbdm-mecLoM7ZWPku45B1ke3o15icB-oSTWNpYv6_cbKGKUutQrentISLBugOlR-QkB0-9Pb6kn0C_sLrpF7YgZDQhICAZ3LHoJJYZTG3xLgLFMPJ0rXVS-khGBvW7VSjjZtC2tz02NO00sMmpcyiGHD8pq0lu9vAq0U9mqXraiIO1iOPusdMwkllzIZ-j3DaMfGLw3hxMg_jd81iC9qU1xUs0ZF0tQhpv4apD-viQclBx_e1]--></g></svg>