<svg xmlns="http://www.w3.org/2000/svg" xmlns:xlink="http://www.w3.org/1999/xlink" contentStyleType="text/css" height="479.2px" preserveAspectRatio="none" style="width:776px;height:479px;background:#FFFFFF;" version="1.1" viewBox="0 0 776 479" width="776.8px" zoomAndPan="magnify"><defs/><g><rect fill="#FFFFFF" height="320.9297" style="stroke:#181818;stroke-width:0.8000000000000002;" width="8" x="174.9215" y="93.4594"/><rect fill="#FFFFFF" height="241.0313" style="stroke:#181818;stroke-width:0.8000000000000002;" width="8" x="329.0871" y="148.325"/><rect fill="#FFFFFF" height="190.9656" style="stroke:#181818;stroke-width:0.8000000000000002;" width="8" x="483.2527" y="173.3578"/><rect fill="#FFFFFF" height="63.6656" style="stroke:#181818;stroke-width:0.8000000000000002;" width="8" x="487.2527" y="225.8234"/><rect fill="#FFFFFF" height="361.3953" style="stroke:#000000;stroke-width:1.2000000000000002;" width="764.0598" x="8" y="59.3938"/><rect fill="#FFFFFF" height="116.1313" style="stroke:#000000;stroke-width:1.2000000000000002;" width="277.2926" x="440.3453" y="185.3578"/><line style="stroke:#181818;stroke-width:0.4000000000000001;stroke-dasharray:5.0,5.0;" x1="28" x2="28" y1="45.7938" y2="434.3891"/><line style="stroke:#181818;stroke-width:0.4000000000000001;stroke-dasharray:5.0,5.0;" x1="178.5133" x2="178.5133" y1="45.7938" y2="434.3891"/><line style="stroke:#181818;stroke-width:0.4000000000000001;stroke-dasharray:5.0,5.0;" x1="332.8969" x2="332.8969" y1="45.7938" y2="434.3891"/><line style="stroke:#181818;stroke-width:0.4000000000000001;stroke-dasharray:5.0,5.0;" x1="486.7453" x2="486.7453" y1="45.7938" y2="434.3891"/><line style="stroke:#181818;stroke-width:0.4000000000000001;stroke-dasharray:5.0,5.0;" x1="713.616" x2="713.616" y1="45.7938" y2="434.3891"/><rect fill="#E2E2F0" height="26.0969" rx="2" ry="2" style="stroke:#181818;stroke-width:0.4000000000000001;" width="25.5117" x="16" y="18.8969"/><text fill="#000000" font-family="sans-serif" font-size="11.2" lengthAdjust="spacing" textLength="14.3117" x="21.6" y="36.5828">:UI</text><rect fill="#E2E2F0" height="26.0969" rx="2" ry="2" style="stroke:#181818;stroke-width:0.4000000000000001;" width="25.5117" x="16" y="433.5891"/><text fill="#000000" font-family="sans-serif" font-size="11.2" lengthAdjust="spacing" textLength="14.3117" x="21.6" y="451.275">:UI</text><rect fill="#E2E2F0" height="26.0969" rx="2" ry="2" style="stroke:#181818;stroke-width:0.4000000000000001;" width="72.8164" x="142.5133" y="18.8969"/><text fill="#000000" font-family="sans-serif" font-size="11.2" lengthAdjust="spacing" textLength="61.6164" x="148.1133" y="36.5828">:UMLProject</text><rect fill="#E2E2F0" height="26.0969" rx="2" ry="2" style="stroke:#181818;stroke-width:0.4000000000000001;" width="72.8164" x="142.5133" y="433.5891"/><text fill="#000000" font-family="sans-serif" font-size="11.2" lengthAdjust="spacing" textLength="61.6164" x="148.1133" y="451.275">:UMLProject</text><rect fill="#E2E2F0" height="40.9938" rx="2" ry="2" style="stroke:#181818;stroke-width:0.4000000000000001;" width="88.3805" x="288.8969" y="4"/><text fill="#000000" font-family="sans-serif" font-size="11.2" lengthAdjust="spacing" textLength="77.1805" x="294.4969" y="21.6859">currentDiagram</text><text fill="#000000" font-family="sans-serif" font-size="11.2" lengthAdjust="spacing" textLength="73.4398" x="296.3672" y="36.5828">:*UMLDiagram</text><rect fill="#E2E2F0" height="40.9938" rx="2" ry="2" style="stroke:#181818;stroke-width:0.4000000000000001;" width="88.3805" x="288.8969" y="433.5891"/><text fill="#000000" font-family="sans-serif" font-size="11.2" lengthAdjust="spacing" textLength="77.1805" x="294.4969" y="451.275">currentDiagram</text><text fill="#000000" font-family="sans-serif" font-size="11.2" lengthAdjust="spacing" textLength="73.4398" x="296.3672" y="466.1719">:*UMLDiagram</text><rect fill="#E2E2F0" height="26.0969" rx="2" ry="2" style="stroke:#181818;stroke-width:0.4000000000000001;" width="77.8148" x="448.3453" y="18.8969"/><text fill="#000000" font-family="sans-serif" font-size="11.2" lengthAdjust="spacing" textLength="66.6148" x="453.9453" y="36.5828">:Components</text><rect fill="#E2E2F0" height="26.0969" rx="2" ry="2" style="stroke:#181818;stroke-width:0.4000000000000001;" width="77.8148" x="448.3453" y="433.5891"/><text fill="#000000" font-family="sans-serif" font-size="11.2" lengthAdjust="spacing" textLength="66.6148" x="453.9453" y="451.275">:Components</text><rect fill="#E2E2F0" height="26.0969" rx="2" ry="2" style="stroke:#181818;stroke-width:0.4000000000000001;" width="100.8438" x="663.216" y="18.8969"/><text fill="#000000" font-family="sans-serif" font-size="11.2" lengthAdjust="spacing" textLength="89.6438" x="668.816" y="36.5828">:PropertyManager</text><rect fill="#E2E2F0" height="26.0969" rx="2" ry="2" style="stroke:#181818;stroke-width:0.4000000000000001;" width="100.8438" x="663.216" y="433.5891"/><text fill="#000000" font-family="sans-serif" font-size="11.2" lengthAdjust="spacing" textLength="89.6438" x="668.816" y="451.275">:PropertyManager</text><rect fill="#FFFFFF" height="320.9297" style="stroke:#181818;stroke-width:0.8000000000000002;" width="8" x="174.9215" y="93.4594"/><rect fill="#FFFFFF" height="241.0313" style="stroke:#181818;stroke-width:0.8000000000000002;" width="8" x="329.0871" y="148.325"/><rect fill="#FFFFFF" height="190.9656" style="stroke:#181818;stroke-width:0.8000000000000002;" width="8" x="483.2527" y="173.3578"/><rect fill="#FFFFFF" height="63.6656" style="stroke:#181818;stroke-width:0.8000000000000002;" width="8" x="487.2527" y="225.8234"/><path d="M8,59.3938 L143.9629,59.3938 L143.9629,66.8266 L135.9629,74.8266 L8,74.8266 L8,59.3938 " fill="#FFD700" style="stroke:#000000;stroke-width:1.2000000000000002;"/><rect fill="none" height="361.3953" style="stroke:#000000;stroke-width:1.2000000000000002;" width="764.0598" x="8" y="59.3938"/><text fill="#000000" font-family="sans-serif" font-size="10.4" font-weight="bold" lengthAdjust="spacing" textLength="99.9629" x="20" y="71.4164">unselectComponent</text><polygon fill="#181818" points="165.3215,90.2594,173.3215,93.4594,165.3215,96.6594,168.5215,93.4594" style="stroke:#181818;stroke-width:0.8000000000000002;"/><line style="stroke:#181818;stroke-width:0.8000000000000002;" x1="28.7559" x2="170.1215" y1="93.4594" y2="93.4594"/><text fill="#000000" font-family="sans-serif" font-size="10.4" font-weight="bold" lengthAdjust="spacing" textLength="5.784" x="34.3559" y="89.2492">1</text><text fill="#000000" font-family="sans-serif" font-size="10.4" lengthAdjust="spacing" textLength="121.9816" x="43.3398" y="89.2492">unselectComponent(point)</text><path d="M32,103.8594 L32,125.4594 L107.2,125.4594 L107.2,111.8594 L99.2,103.8594 L32,103.8594 " fill="#FF0000" style="stroke:#181818;stroke-width:0.4000000000000001;"/><path d="M99.2,103.8594 L99.2,111.8594 L107.2,111.8594 L99.2,103.8594 " fill="#FF0000" style="stroke:#181818;stroke-width:0.4000000000000001;"/><text fill="#000000" font-family="sans-serif" font-size="10.4" lengthAdjust="spacing" textLength="58.957" x="36.8" y="119.082">by Controller</text><polygon fill="#181818" points="319.4871,145.125,327.4871,148.325,319.4871,151.525,322.6871,148.325" style="stroke:#181818;stroke-width:0.8000000000000002;"/><line style="stroke:#181818;stroke-width:0.8000000000000002;" x1="182.9215" x2="324.2871" y1="148.325" y2="148.325"/><text fill="#000000" font-family="sans-serif" font-size="10.4" font-weight="bold" lengthAdjust="spacing" textLength="5.784" x="188.5215" y="144.1148">2</text><text fill="#000000" font-family="sans-serif" font-size="10.4" lengthAdjust="spacing" textLength="121.9816" x="197.5055" y="144.1148">unselectComponent(point)</text><polygon fill="#181818" points="473.6527,170.1578,481.6527,173.3578,473.6527,176.5578,476.8527,173.3578" style="stroke:#181818;stroke-width:0.8000000000000002;"/><line style="stroke:#181818;stroke-width:0.8000000000000002;" x1="337.0871" x2="478.4527" y1="173.3578" y2="173.3578"/><text fill="#000000" font-family="sans-serif" font-size="10.4" font-weight="bold" lengthAdjust="spacing" textLength="5.784" x="342.6871" y="169.1477">3</text><text fill="#000000" font-family="sans-serif" font-size="10.4" lengthAdjust="spacing" textLength="121.9816" x="351.6711" y="169.1477">unselectComponent(point)</text><path d="M440.3453,185.3578 L498.293,185.3578 L498.293,192.7906 L490.293,200.7906 L440.3453,200.7906 L440.3453,185.3578 " fill="#FFD700" style="stroke:#000000;stroke-width:1.2000000000000002;"/><rect fill="none" height="116.1313" style="stroke:#000000;stroke-width:1.2000000000000002;" width="277.2926" x="440.3453" y="185.3578"/><text fill="#000000" font-family="sans-serif" font-size="10.4" font-weight="bold" lengthAdjust="spacing" textLength="21.9477" x="452.3453" y="197.3805">loop</text><text fill="#000000" font-family="sans-serif" font-size="8.8" font-weight="bold" lengthAdjust="spacing" textLength="103.1551" x="510.293" y="196.4539">[component cover point]</text><line style="stroke:#181818;stroke-width:0.8000000000000002;" x1="491.2527" x2="528.8527" y1="215.4234" y2="215.4234"/><line style="stroke:#181818;stroke-width:0.8000000000000002;" x1="528.8527" x2="528.8527" y1="215.4234" y2="225.8234"/><line style="stroke:#181818;stroke-width:0.8000000000000002;" x1="496.0527" x2="528.8527" y1="225.8234" y2="225.8234"/><polygon fill="#181818" points="504.0527,222.6234,496.0527,225.8234,504.0527,229.0234,500.8527,225.8234" style="stroke:#181818;stroke-width:0.8000000000000002;"/><text fill="#000000" font-family="sans-serif" font-size="10.4" font-weight="bold" lengthAdjust="spacing" textLength="5.784" x="500.8527" y="211.2133">4</text><text fill="#000000" font-family="sans-serif" font-size="10.4" lengthAdjust="spacing" textLength="190.2012" x="509.8367" y="211.2133">delete(selectedComponents, component)</text><path d="M499.2,240.2234 L499.2,261.8234 L636,261.8234 L636,248.2234 L628,240.2234 L499.2,240.2234 " fill="#FEFFDD" style="stroke:#181818;stroke-width:0.4000000000000001;"/><path d="M628,240.2234 L628,248.2234 L636,248.2234 L628,240.2234 " fill="#FEFFDD" style="stroke:#181818;stroke-width:0.4000000000000001;"/><text fill="#000000" font-family="sans-serif" font-size="10.4" lengthAdjust="spacing" textLength="120.25" x="504" y="255.4461">delete is a built-in function</text><line style="stroke:#181818;stroke-width:0.8000000000000002;stroke-dasharray:2.0,2.0;" x1="495.2527" x2="528.8527" y1="288.6891" y2="288.6891"/><line style="stroke:#181818;stroke-width:0.8000000000000002;stroke-dasharray:2.0,2.0;" x1="528.8527" x2="528.8527" y1="288.6891" y2="299.0891"/><line style="stroke:#181818;stroke-width:0.8000000000000002;stroke-dasharray:2.0,2.0;" x1="491.2527" x2="528.8527" y1="299.0891" y2="299.0891"/><polygon fill="#181818" points="499.2527,295.8891,491.2527,299.0891,499.2527,302.2891,496.0527,299.0891" style="stroke:#181818;stroke-width:0.8000000000000002;"/><text fill="#000000" font-family="sans-serif" font-size="10.4" font-weight="bold" lengthAdjust="spacing" textLength="5.784" x="500.8527" y="284.4789">5</text><text fill="#000000" font-family="sans-serif" font-size="10.4" lengthAdjust="spacing" textLength="2.8895" x="509.8367" y="284.4789">&#160;</text><rect fill="none" height="34.6016" style="stroke:#000000;stroke-width:1.2000000000000002;" width="320.5145" x="445.9453" y="307.0891"/><path d="M445.9453,307.0891 L494.7453,307.0891 L494.7453,314.2891 L486.7453,322.2891 L445.9453,322.2891 L445.9453,307.0891 " fill="#EEEEEE" style="stroke:#000000;stroke-width:1.6000000000000003;"/><text fill="#000000" font-family="sans-serif" font-size="10.4" font-weight="bold" lengthAdjust="spacing" textLength="13.2945" x="456.3453" y="319.9117">ref</text><text fill="#000000" font-family="sans-serif" font-size="9.6" lengthAdjust="spacing" textLength="210.7734" x="500.8158" y="335.8484">updateProperty (same logic as selectComponent)</text><polygon fill="#181818" points="345.8871,361.1234,337.8871,364.3234,345.8871,367.5234,342.6871,364.3234" style="stroke:#181818;stroke-width:0.8000000000000002;"/><line style="stroke:#181818;stroke-width:0.8000000000000002;stroke-dasharray:2.0,2.0;" x1="341.0871" x2="486.4527" y1="364.3234" y2="364.3234"/><text fill="#000000" font-family="sans-serif" font-size="10.4" font-weight="bold" lengthAdjust="spacing" textLength="5.784" x="350.6871" y="360.1133">6</text><text fill="#000000" font-family="sans-serif" font-size="10.4" lengthAdjust="spacing" textLength="2.8895" x="359.6711" y="360.1133">&#160;</text><polygon fill="#181818" points="191.7215,386.1563,183.7215,389.3563,191.7215,392.5563,188.5215,389.3563" style="stroke:#181818;stroke-width:0.8000000000000002;"/><line style="stroke:#181818;stroke-width:0.8000000000000002;stroke-dasharray:2.0,2.0;" x1="186.9215" x2="332.2871" y1="389.3563" y2="389.3563"/><text fill="#000000" font-family="sans-serif" font-size="10.4" font-weight="bold" lengthAdjust="spacing" textLength="5.784" x="196.5215" y="385.1461">7</text><text fill="#000000" font-family="sans-serif" font-size="10.4" lengthAdjust="spacing" textLength="2.8895" x="205.5055" y="385.1461">&#160;</text><polygon fill="#181818" points="37.5559,411.1891,29.5559,414.3891,37.5559,417.5891,34.3559,414.3891" style="stroke:#181818;stroke-width:0.8000000000000002;"/><line style="stroke:#181818;stroke-width:0.8000000000000002;stroke-dasharray:2.0,2.0;" x1="32.7559" x2="178.1215" y1="414.3891" y2="414.3891"/><text fill="#000000" font-family="sans-serif" font-size="10.4" font-weight="bold" lengthAdjust="spacing" textLength="5.784" x="42.3559" y="410.1789">8</text><text fill="#000000" font-family="sans-serif" font-size="10.4" lengthAdjust="spacing" textLength="2.8895" x="51.3398" y="410.1789">&#160;</text><!--SRC=[ZPBDReCm3CVlF8K55vZQ5-2mItUPj4gxxBPB09Dc0XkPf5FVVXxG3w3gbfETsB-_xTW4pnJQ0YKoQfhIkwFn24oH5GvTOhcf8Fa-EBqCr6E3fTznsp4X-GZqnFd7QmpRvrzZ__Ok_AKXSRwEJZjsvBCXYLXvukp10zSJ8X6iSYXEi6FomasZHS5qPkn1h0mY2drnneffFob_qeZ9-qlzGdq86Nkw0Fh_KXlc-TpASxHQHnGOScOfOuitKdUqArNsc8u5O7Lzsrm5iXLrEUWxI70z62Y2Q_pM4TI1T0jq0POeGHzaVerKHT4yfeQXntat6_NrzpeKVzeRCXOb1XrdL-codHyWxKsBEZxhIZ0zB4QTHG-AkN4dKqjRVzSF]--></g></svg>