<svg xmlns="http://www.w3.org/2000/svg" xmlns:xlink="http://www.w3.org/1999/xlink" contentStyleType="text/css" height="542px" preserveAspectRatio="none" style="width:826px;height:542px;background:#FFFFFF;" version="1.1" viewBox="0 0 826 542" width="826px" zoomAndPan="magnify"><defs/><g><rect fill="#FFFFFF" height="344.9102" style="stroke:#181818;stroke-width:1.0;" width="10" x="182.4644" y="116.8242"/><rect fill="#FFFFFF" height="245.0371" style="stroke:#181818;stroke-width:1.0;" width="10" x="367.9287" y="185.4063"/><rect fill="#FFFFFF" height="182.4551" style="stroke:#181818;stroke-width:1.0;" width="10" x="553.3931" y="216.6973"/><rect fill="#FFFFFF" height="42.291" style="stroke:#181818;stroke-width:1.0;" width="10" x="558.3931" y="255.9883"/><rect fill="#FFFFFF" height="31.291" style="stroke:#181818;stroke-width:1.0;" width="10" x="742.791" y="336.5703"/><rect fill="#FFFFFF" height="395.4922" style="stroke:#000000;stroke-width:1.5;" width="817.8184" x="3" y="74.2422"/><line style="stroke:#181818;stroke-width:0.5;stroke-dasharray:5.0,5.0;" x1="186.9541" x2="186.9541" y1="57.2422" y2="486.7344"/><line style="stroke:#181818;stroke-width:0.5;stroke-dasharray:5.0,5.0;" x1="372.6909" x2="372.6909" y1="57.2422" y2="486.7344"/><line style="stroke:#181818;stroke-width:0.5;stroke-dasharray:5.0,5.0;" x1="557.7588" x2="557.7588" y1="57.2422" y2="486.7344"/><line style="stroke:#181818;stroke-width:0.5;stroke-dasharray:5.0,5.0;" x1="747.7637" x2="747.7637" y1="57.2422" y2="486.7344"/><rect fill="#E2E2F0" height="32.6211" rx="2.5" ry="2.5" style="stroke:#181818;stroke-width:0.5;" width="91.0205" x="141.9541" y="23.6211"/><text fill="#000000" font-family="sans-serif" font-size="14" lengthAdjust="spacing" textLength="77.0205" x="148.9541" y="45.7285">:UMLProject</text><rect fill="#E2E2F0" height="32.6211" rx="2.5" ry="2.5" style="stroke:#181818;stroke-width:0.5;" width="91.0205" x="141.9541" y="485.7344"/><text fill="#000000" font-family="sans-serif" font-size="14" lengthAdjust="spacing" textLength="77.0205" x="148.9541" y="507.8418">:UMLProject</text><rect fill="#E2E2F0" height="51.2422" rx="2.5" ry="2.5" style="stroke:#181818;stroke-width:0.5;" width="110.4756" x="317.6909" y="5"/><text fill="#000000" font-family="sans-serif" font-size="14" lengthAdjust="spacing" textLength="96.4756" x="324.6909" y="27.1074">currentDiagram</text><text fill="#000000" font-family="sans-serif" font-size="14" lengthAdjust="spacing" textLength="91.7998" x="327.0288" y="45.7285">:*UMLDiagram</text><rect fill="#E2E2F0" height="51.2422" rx="2.5" ry="2.5" style="stroke:#181818;stroke-width:0.5;" width="110.4756" x="317.6909" y="485.7344"/><text fill="#000000" font-family="sans-serif" font-size="14" lengthAdjust="spacing" textLength="96.4756" x="324.6909" y="507.8418">currentDiagram</text><text fill="#000000" font-family="sans-serif" font-size="14" lengthAdjust="spacing" textLength="91.7998" x="327.0288" y="526.4629">:*UMLDiagram</text><rect fill="#E2E2F0" height="32.6211" rx="2.5" ry="2.5" style="stroke:#181818;stroke-width:0.5;" width="97.2686" x="509.7588" y="23.6211"/><text fill="#000000" font-family="sans-serif" font-size="14" lengthAdjust="spacing" textLength="83.2686" x="516.7588" y="45.7285">:Components</text><rect fill="#E2E2F0" height="32.6211" rx="2.5" ry="2.5" style="stroke:#181818;stroke-width:0.5;" width="97.2686" x="509.7588" y="485.7344"/><text fill="#000000" font-family="sans-serif" font-size="14" lengthAdjust="spacing" textLength="83.2686" x="516.7588" y="507.8418">:Components</text><rect fill="#E2E2F0" height="32.6211" rx="2.5" ry="2.5" style="stroke:#181818;stroke-width:0.5;" width="126.0547" x="684.7637" y="23.6211"/><text fill="#000000" font-family="sans-serif" font-size="14" lengthAdjust="spacing" textLength="112.0547" x="691.7637" y="45.7285">:PropertyManager</text><rect fill="#E2E2F0" height="32.6211" rx="2.5" ry="2.5" style="stroke:#181818;stroke-width:0.5;" width="126.0547" x="684.7637" y="485.7344"/><text fill="#000000" font-family="sans-serif" font-size="14" lengthAdjust="spacing" textLength="112.0547" x="691.7637" y="507.8418">:PropertyManager</text><rect fill="#FFFFFF" height="344.9102" style="stroke:#181818;stroke-width:1.0;" width="10" x="182.4644" y="116.8242"/><rect fill="#FFFFFF" height="245.0371" style="stroke:#181818;stroke-width:1.0;" width="10" x="367.9287" y="185.4063"/><rect fill="#FFFFFF" height="182.4551" style="stroke:#181818;stroke-width:1.0;" width="10" x="553.3931" y="216.6973"/><rect fill="#FFFFFF" height="42.291" style="stroke:#181818;stroke-width:1.0;" width="10" x="558.3931" y="255.9883"/><rect fill="#FFFFFF" height="31.291" style="stroke:#181818;stroke-width:1.0;" width="10" x="742.791" y="336.5703"/><path d="M3,74.2422 L196.7954,74.2422 L196.7954,83.5332 L186.7954,93.5332 L3,93.5332 L3,74.2422 " fill="#FFD700" style="stroke:#000000;stroke-width:1.5;"/><rect fill="none" height="395.4922" style="stroke:#000000;stroke-width:1.5;" width="817.8184" x="3" y="74.2422"/><text fill="#000000" font-family="sans-serif" font-size="13" font-weight="bold" lengthAdjust="spacing" textLength="148.7954" x="18" y="89.2705">unselectAllComponents</text><polygon fill="#181818" points="170.4644,112.8242,180.4644,116.8242,170.4644,120.8242,174.4644,116.8242" style="stroke:#181818;stroke-width:1.0;"/><line style="stroke:#181818;stroke-width:1.0;" x1="0" x2="176.4644" y1="116.8242" y2="116.8242"/><text fill="#000000" font-family="sans-serif" font-size="13" font-weight="bold" lengthAdjust="spacing" textLength="7.23" x="7" y="111.5615">1</text><text fill="#000000" font-family="sans-serif" font-size="13" lengthAdjust="spacing" textLength="145.2344" x="18.23" y="111.5615">unselectAllComponents()</text><path d="M82,129.8242 L82,156.8242 L176,156.8242 L176,139.8242 L166,129.8242 L82,129.8242 " fill="#FF0000" style="stroke:#181818;stroke-width:0.5;"/><path d="M166,129.8242 L166,139.8242 L176,139.8242 L166,129.8242 " fill="#FF0000" style="stroke:#181818;stroke-width:0.5;"/><text fill="#000000" font-family="sans-serif" font-size="13" lengthAdjust="spacing" textLength="73.6963" x="88" y="148.8525">by Controller</text><polygon fill="#181818" points="355.9287,181.4063,365.9287,185.4063,355.9287,189.4063,359.9287,185.4063" style="stroke:#181818;stroke-width:1.0;"/><line style="stroke:#181818;stroke-width:1.0;" x1="192.4644" x2="361.9287" y1="185.4063" y2="185.4063"/><text fill="#000000" font-family="sans-serif" font-size="13" font-weight="bold" lengthAdjust="spacing" textLength="7.23" x="199.4644" y="180.1436">2</text><text fill="#000000" font-family="sans-serif" font-size="13" lengthAdjust="spacing" textLength="145.2344" x="210.6943" y="180.1436">unselectAllComponents()</text><polygon fill="#181818" points="541.3931,212.6973,551.3931,216.6973,541.3931,220.6973,545.3931,216.6973" style="stroke:#181818;stroke-width:1.0;"/><line style="stroke:#181818;stroke-width:1.0;" x1="377.9287" x2="547.3931" y1="216.6973" y2="216.6973"/><text fill="#000000" font-family="sans-serif" font-size="13" font-weight="bold" lengthAdjust="spacing" textLength="7.23" x="384.9287" y="211.4346">3</text><text fill="#000000" font-family="sans-serif" font-size="13" lengthAdjust="spacing" textLength="145.2344" x="396.1587" y="211.4346">unselectAllComponents()</text><line style="stroke:#181818;stroke-width:1.0;" x1="563.3931" x2="610.3931" y1="242.9883" y2="242.9883"/><line style="stroke:#181818;stroke-width:1.0;" x1="610.3931" x2="610.3931" y1="242.9883" y2="255.9883"/><line style="stroke:#181818;stroke-width:1.0;" x1="569.3931" x2="610.3931" y1="255.9883" y2="255.9883"/><polygon fill="#181818" points="579.3931,251.9883,569.3931,255.9883,579.3931,259.9883,575.3931,255.9883" style="stroke:#181818;stroke-width:1.0;"/><text fill="#000000" font-family="sans-serif" font-size="13" font-weight="bold" lengthAdjust="spacing" textLength="7.23" x="575.3931" y="237.7256">4</text><text fill="#000000" font-family="sans-serif" font-size="13" lengthAdjust="spacing" textLength="144.168" x="586.623" y="237.7256">selectedComponents = []</text><line style="stroke:#181818;stroke-width:1.0;stroke-dasharray:2.0,2.0;" x1="568.3931" x2="610.3931" y1="297.2793" y2="297.2793"/><line style="stroke:#181818;stroke-width:1.0;stroke-dasharray:2.0,2.0;" x1="610.3931" x2="610.3931" y1="297.2793" y2="310.2793"/><line style="stroke:#181818;stroke-width:1.0;stroke-dasharray:2.0,2.0;" x1="563.3931" x2="610.3931" y1="310.2793" y2="310.2793"/><polygon fill="#181818" points="573.3931,306.2793,563.3931,310.2793,573.3931,314.2793,569.3931,310.2793" style="stroke:#181818;stroke-width:1.0;"/><text fill="#000000" font-family="sans-serif" font-size="13" font-weight="bold" lengthAdjust="spacing" textLength="7.23" x="575.3931" y="292.0166">5</text><text fill="#000000" font-family="sans-serif" font-size="13" lengthAdjust="spacing" textLength="3.6118" x="586.623" y="292.0166">&#160;</text><polygon fill="#181818" points="730.791,332.5703,740.791,336.5703,730.791,340.5703,734.791,336.5703" style="stroke:#181818;stroke-width:1.0;"/><line style="stroke:#181818;stroke-width:1.0;" x1="563.3931" x2="736.791" y1="336.5703" y2="336.5703"/><text fill="#000000" font-family="sans-serif" font-size="13" font-weight="bold" lengthAdjust="spacing" textLength="7.23" x="570.3931" y="331.3076">6</text><text fill="#000000" font-family="sans-serif" font-size="13" lengthAdjust="spacing" textLength="85.9663" x="581.623" y="331.3076">clearProperty()</text><polygon fill="#181818" points="574.3931,363.8613,564.3931,367.8613,574.3931,371.8613,570.3931,367.8613" style="stroke:#181818;stroke-width:1.0;"/><line style="stroke:#181818;stroke-width:1.0;stroke-dasharray:2.0,2.0;" x1="568.3931" x2="746.791" y1="367.8613" y2="367.8613"/><text fill="#000000" font-family="sans-serif" font-size="13" font-weight="bold" lengthAdjust="spacing" textLength="7.23" x="580.3931" y="362.5986">7</text><text fill="#000000" font-family="sans-serif" font-size="13" lengthAdjust="spacing" textLength="3.6118" x="591.623" y="362.5986">&#160;</text><polygon fill="#181818" points="388.9287,395.1523,378.9287,399.1523,388.9287,403.1523,384.9287,399.1523" style="stroke:#181818;stroke-width:1.0;"/><line style="stroke:#181818;stroke-width:1.0;stroke-dasharray:2.0,2.0;" x1="382.9287" x2="557.3931" y1="399.1523" y2="399.1523"/><text fill="#000000" font-family="sans-serif" font-size="13" font-weight="bold" lengthAdjust="spacing" textLength="7.23" x="394.9287" y="393.8896">8</text><text fill="#000000" font-family="sans-serif" font-size="13" lengthAdjust="spacing" textLength="3.6118" x="406.1587" y="393.8896">&#160;</text><polygon fill="#181818" points="203.4644,426.4434,193.4644,430.4434,203.4644,434.4434,199.4644,430.4434" style="stroke:#181818;stroke-width:1.0;"/><line style="stroke:#181818;stroke-width:1.0;stroke-dasharray:2.0,2.0;" x1="197.4644" x2="371.9287" y1="430.4434" y2="430.4434"/><text fill="#000000" font-family="sans-serif" font-size="13" font-weight="bold" lengthAdjust="spacing" textLength="7.23" x="209.4644" y="425.1807">9</text><text fill="#000000" font-family="sans-serif" font-size="13" lengthAdjust="spacing" textLength="3.6118" x="220.6943" y="425.1807">&#160;</text><polygon fill="#181818" points="11,457.7344,1,461.7344,11,465.7344,7,461.7344" style="stroke:#181818;stroke-width:1.0;"/><line style="stroke:#181818;stroke-width:1.0;stroke-dasharray:2.0,2.0;" x1="5" x2="186.4644" y1="461.7344" y2="461.7344"/><text fill="#000000" font-family="sans-serif" font-size="13" font-weight="bold" lengthAdjust="spacing" textLength="14.46" x="17" y="456.4717">10</text><text fill="#000000" font-family="sans-serif" font-size="13" lengthAdjust="spacing" textLength="3.6118" x="35.46" y="456.4717">&#160;</text><!--SRC=[ZP2zRi9G38Ltdi8Y2wtK5uW4KfMEHUh210oNnAIfRkp8-89uUqmIcb0Y6a-sTSxddrmuL57EFeFez5qeGg03UaprtVk4oue9IGyJ5vGfb3kKEdMf5aTdQgO9MBmjO1glbfzVmZ_cdSR3cDbBhIOsfyUz0k_lVH09PZ7ipf0mgR3tDX3Qk5TUHwP1nBWVXSl5bHkANqtHLl_iy0jzocWEwymZeSssFTi0fw5WrZLX3klj0qTGWz0OlBscGj7pqf7BKMn6wj79hJsmum3xJwjNjYbIrl_11G00]--></g></svg>